%FSLAX33Y33*%
%MOMM*%
%ADD10C,0.15*%
%ADD11C,0.2X0.*%
%ADD12C,0.2X0.*%
%ADD13C,0.2X0.*%
%ADD14C,0.2X0.*%
%ADD15C,0.2X0.*%
%ADD16C,0.2X0.*%
%ADD17C,0.2X0.*%
%ADD18C,0.2X0.*%
%ADD19C,0.2X0.*%
D10*
%LNtop silkscreen_traces*%
%LNtop silkscreen component 0b2ec78b889fa681*%
G01*
X1949Y15929D02*
X3929Y13949D01*
X4071Y18051D02*
X6051Y16071D01*
D11*
X3664Y18298D03*
%LNtop silkscreen component aa2ad5c2276a115c*%
D10*
X12949Y14929D02*
X14929Y12949D01*
X15071Y17051D02*
X17051Y15071D01*
D12*
X14664Y17298D03*
%LNtop silkscreen component f00f0886dcd7b053*%
D10*
X9949Y23929D02*
X11929Y21949D01*
X12071Y26051D02*
X14051Y24071D01*
D13*
X11664Y26298D03*
%LNtop silkscreen component becf046d8cbe18d5*%
D10*
X21949Y11929D02*
X23929Y9949D01*
X24071Y14051D02*
X26051Y12071D01*
D14*
X23664Y14298D03*
%LNtop silkscreen component 1bfe57d5f175ffed*%
D10*
X5949Y19929D02*
X7929Y17949D01*
X8071Y22051D02*
X10051Y20071D01*
D15*
X7664Y22298D03*
%LNtop silkscreen component 0cf5d6c2c48c976c*%
D10*
X8949Y10929D02*
X10929Y8949D01*
X11071Y13051D02*
X13051Y11071D01*
D16*
X10664Y13298D03*
%LNtop silkscreen component c553d5c0c6166a56*%
D10*
X17949Y7929D02*
X19929Y5949D01*
X20071Y10051D02*
X22051Y8071D01*
D17*
X19664Y10298D03*
%LNtop silkscreen component bba6a3268ea616f7*%
D10*
X13949Y3929D02*
X15929Y1949D01*
X16071Y6051D02*
X18051Y4071D01*
D18*
X15664Y6298D03*
%LNtop silkscreen component 5909d0c3ddc7cfbd*%
D10*
X4954Y6934D02*
X6934Y4954D01*
X7076Y9055D02*
X9055Y7076D01*
D19*
X6669Y9302D03*
M02*