<?xml version="1.0" encoding="utf-8" ?>
<svg baseProfile="tiny" height="116.085823934" version="1.2" width="116.085823934" xmlns="http://www.w3.org/2000/svg" xmlns:ev="http://www.w3.org/2001/xml-events" xmlns:xlink="http://www.w3.org/1999/xlink"><defs /><g id="paths" stroke="green"><path d="M 73.987793467,111.192516967 L 74.8739745477,111.148994527 L 75.759446967,111.192516967 L 79.2325964884,111.021938625 L 82.6720845933,110.511709503 L 86.0449585266,109.666811492 L 89.3189741946,108.495355222 L 92.462596165,107.008615494 L 95.4449976669,105.22098168 L 98.2378322443,103.149635274 L 100.814525095,100.814454229 L 103.149564408,98.2379385435 L 105.22098168,95.4450366433 L 107.008580061,92.4624898658 L 108.495351679,89.3191159269 L 109.666768973,86.045135692 L 110.511493362,82.6721235697 L 111.02172957,79.2325291656 L 111.192516967,75.759446967 L 111.02172957,72.2863009889 L 110.511493362,68.8468093407 L 109.666768973,65.4739389507 L 108.495351679,62.1999197394 L 107.008580061,59.056297769 L 105.22098168,56.0738998104 L 103.149564408,53.2810616897 L 100.814525095,50.7043688393 L 98.2378322443,48.3693295263 L 95.4449976669,46.2979122541 L 92.462596165,44.5103138726 L 89.3189741946,43.0235422554 L 86.0449585266,41.8521249612 L 82.6720845933,41.0074005724 L 79.2325964884,40.4971643644 L 75.759446967,40.326376967 L 75.5886595696,36.8532274456 L 75.0784233616,33.4137393407 L 74.2336989728,30.0408654074 L 73.0622816786,26.7668497394 L 71.5755100614,23.623227769 L 69.7879116799,20.6408262671 L 67.7164944077,17.8479916897 L 65.3814550947,15.2712988393 L 62.8047622443,12.9362595263 L 60.0119241236,10.8648422541 L 57.029526165,9.0772438726 L 53.8859041946,7.5904722554 L 50.6118849833,6.4190549612 L 47.2390145933,5.5743305724 L 43.7995229451,5.0640943644 L 40.326376967,4.893306967 L 36.8532947684,5.0640943644 L 33.4137003643,5.5743305724 L 30.040688242,6.4190549612 L 26.7667080071,7.5904722554 L 23.6233340682,9.0772438726 L 20.6407872907,10.8648422541 L 17.8478853905,12.9362595263 L 15.2713697054,15.2712988393 L 12.9361886602,17.8479916897 L 10.8648422541,20.6408262671 L 9.07720843953,23.623227769 L 7.59046871209,26.7668497394 L 6.41901244152,30.0408654074 L 5.57411443067,33.4137393407 L 5.06388530929,36.8532274456 L 4.893306967,40.326376967 L 4.93682940688,41.2118493863 L 4.893306967,42.098030467 L 4.893306967,100.562595967 L 4.94445106024,101.60450539 L 5.09751483602,102.636426231 L 5.35098175896,103.648320301 L 5.70241049053,104.630528545 L 6.14846323553,105.573540726 L 6.68474629329,106.46829661 L 7.30613249857,107.306150527 L 8.00672933184,108.079094602 L 8.77967340743,108.779691435 L 9.61752732396,109.401077641 L 10.5122832076,109.937360698 L 11.4552953893,110.383413443 L 12.437503633,110.734842175 L 13.4493977027,110.988309098 L 14.4813185436,111.141372874 L 15.523227967,111.192516967 L 73.987793467,111.192516967 Z" fill-opacity="0" stroke-linejoin="round" stroke-width="1.0" /></g><g fill="red" id="top_parts" stroke="red"><line stroke-linecap="round" stroke-width="0.5" x1="17.9391" x2="27.46" y1="46.1062" y2="55.6271" /><line stroke-linecap="round" stroke-width="0.5" x1="27.46" x2="20.194" y1="55.6271" y2="62.893" /><line stroke-linecap="round" stroke-width="0.5" x1="20.194" x2="10.6731" y1="62.893" y2="53.3721" /><line stroke-linecap="round" stroke-width="0.5" x1="10.6731" x2="17.9391" y1="53.3721" y2="46.1062" /><text font-family="monospace" font-size="2" stroke-width="0.1" text-anchor="middle" x="19.066534967" y="54.499599956">D7</text><line stroke-linecap="round" stroke-width="0.5" x1="56.9154" x2="66.4363" y1="49.6495" y2="59.1704" /><line stroke-linecap="round" stroke-width="0.5" x1="66.4363" x2="59.1704" y1="59.1704" y2="66.4363" /><line stroke-linecap="round" stroke-width="0.5" x1="59.1704" x2="49.6495" y1="66.4363" y2="56.9154" /><line stroke-linecap="round" stroke-width="0.5" x1="49.6495" x2="56.9154" y1="56.9154" y2="49.6495" /><text font-family="monospace" font-size="2" stroke-width="0.1" text-anchor="middle" x="58.042911967" y="58.042906956">D2</text><line stroke-linecap="round" stroke-width="0.5" x1="46.2855" x2="55.8064" y1="17.7597" y2="27.2806" /><line stroke-linecap="round" stroke-width="0.5" x1="55.8064" x2="48.5405" y1="27.2806" y2="34.5466" /><line stroke-linecap="round" stroke-width="0.5" x1="48.5405" x2="39.0196" y1="34.5466" y2="25.0257" /><line stroke-linecap="round" stroke-width="0.5" x1="39.0196" x2="46.2855" y1="25.0257" y2="17.7597" /><text font-family="monospace" font-size="2" stroke-width="0.1" text-anchor="middle" x="47.412990967" y="26.153143956">D1</text><line stroke-linecap="round" stroke-width="0.5" x1="88.8052" x2="98.3261" y1="60.2794" y2="69.8003" /><line stroke-linecap="round" stroke-width="0.5" x1="98.3261" x2="91.0601" y1="69.8003" y2="77.0662" /><line stroke-linecap="round" stroke-width="0.5" x1="91.0601" x2="81.5393" y1="77.0662" y2="67.5454" /><line stroke-linecap="round" stroke-width="0.5" x1="81.5393" x2="88.8052" y1="67.5454" y2="60.2794" /><text font-family="monospace" font-size="2" stroke-width="0.1" text-anchor="middle" x="89.932674967" y="68.672827956">D3</text><line stroke-linecap="round" stroke-width="0.5" x1="32.1123" x2="41.6332" y1="31.933" y2="41.4538" /><line stroke-linecap="round" stroke-width="0.5" x1="41.6332" x2="34.3672" y1="41.4538" y2="48.7198" /><line stroke-linecap="round" stroke-width="0.5" x1="34.3672" x2="24.8463" y1="48.7198" y2="39.1989" /><line stroke-linecap="round" stroke-width="0.5" x1="24.8463" x2="32.1123" y1="39.1989" y2="31.933" /><text font-family="monospace" font-size="2" stroke-width="0.1" text-anchor="middle" x="33.239762967" y="40.326371956">D4</text><line stroke-linecap="round" stroke-width="0.5" x1="42.7422" x2="52.2631" y1="63.8227" y2="73.3436" /><line stroke-linecap="round" stroke-width="0.5" x1="52.2631" x2="44.9972" y1="73.3436" y2="80.6096" /><line stroke-linecap="round" stroke-width="0.5" x1="44.9972" x2="35.4763" y1="80.6096" y2="71.0887" /><line stroke-linecap="round" stroke-width="0.5" x1="35.4763" x2="42.7422" y1="71.0887" y2="63.8227" /><text font-family="monospace" font-size="2" stroke-width="0.1" text-anchor="middle" x="43.869683967" y="72.216134956">D5</text><line stroke-linecap="round" stroke-width="0.5" x1="74.632" x2="84.1529" y1="74.4526" y2="83.9735" /><line stroke-linecap="round" stroke-width="0.5" x1="84.1529" x2="76.8869" y1="83.9735" y2="91.2395" /><line stroke-linecap="round" stroke-width="0.5" x1="76.8869" x2="67.366" y1="91.2395" y2="81.7186" /><line stroke-linecap="round" stroke-width="0.5" x1="67.366" x2="74.632" y1="81.7186" y2="74.4526" /><text font-family="monospace" font-size="2" stroke-width="0.1" text-anchor="middle" x="75.759446967" y="82.846055956">D6</text><line stroke-linecap="round" stroke-width="0.5" x1="60.4587" x2="69.9796" y1="88.6259" y2="98.1468" /><line stroke-linecap="round" stroke-width="0.5" x1="69.9796" x2="62.7137" y1="98.1468" y2="105.4127" /><line stroke-linecap="round" stroke-width="0.5" x1="62.7137" x2="53.1928" y1="105.4127" y2="95.8918" /><line stroke-linecap="round" stroke-width="0.5" x1="53.1928" x2="60.4587" y1="95.8918" y2="88.6259" /><text font-family="monospace" font-size="2" stroke-width="0.1" text-anchor="middle" x="61.586218967" y="97.019283956">D9</text><line stroke-linecap="round" stroke-width="0.5" x1="28.5862" x2="38.1071" y1="77.9788" y2="87.4997" /><line stroke-linecap="round" stroke-width="0.5" x1="38.1071" x2="30.8411" y1="87.4997" y2="94.7656" /><line stroke-linecap="round" stroke-width="0.5" x1="30.8411" x2="21.3202" y1="94.7656" y2="85.2447" /><line stroke-linecap="round" stroke-width="0.5" x1="21.3202" x2="28.5862" y1="85.2447" y2="77.9788" /><text font-family="monospace" font-size="2" stroke-width="0.1" text-anchor="middle" x="29.7136374626" y="86.3721814604">D8</text></g><g fill="blue" id="bottom_parts" stroke="blue"><line stroke-linecap="round" stroke-width="0.5" x1="-9.7301" x2="55.1622" y1="60.9236" y2="125.816" /><line stroke-linecap="round" stroke-width="0.5" x1="55.1622" x2="101.0128" y1="125.816" y2="79.9654" /><line stroke-linecap="round" stroke-width="0.5" x1="101.0128" x2="36.1205" y1="79.9654" y2="15.073" /><line stroke-linecap="round" stroke-width="0.5" x1="36.1205" x2="-9.7301" y1="15.073" y2="60.9236" /><text font-family="monospace" font-size="2" stroke-width="0.1" text-anchor="middle" x="45.641337467" y="70.444486467">BT1</text></g></svg>