<?xml version='1.0' encoding='UTF-8' standalone='no'?>
<svg xmlns="http://www.w3.org/2000/svg" width="803" height="450" x="0" y="0"><text x="295" y="283" font-size="10" font-family="sans-serif" text-anchor="start" alignment-baseline="hanging">Flashing LED</text><text x="705" y="343" font-size="10" font-family="sans-serif" text-anchor="start" alignment-baseline="hanging">D9</text><text x="505" y="343" font-size="10" font-family="sans-serif" text-anchor="start" alignment-baseline="hanging">D6</text><text x="241" y="330" font-size="10" font-family="sans-serif" text-anchor="start" alignment-baseline="hanging">VBAT</text><text x="441" y="90" font-size="10" font-family="sans-serif" text-anchor="start" alignment-baseline="hanging">VBAT</text><text x="495" y="163" font-size="10" font-family="sans-serif" text-anchor="start" alignment-baseline="hanging">Flashing LED</text><text x="371" y="190" font-size="10" font-family="sans-serif" text-anchor="start" alignment-baseline="hanging">GND</text><text x="695" y="163" font-size="10" font-family="sans-serif" text-anchor="start" alignment-baseline="hanging">Flashing LED</text><text x="10" y="10" font-size="10" font-family="sans-serif" text-anchor="start" alignment-baseline="hanging">VBAT</text><text x="571" y="190" font-size="10" font-family="sans-serif" text-anchor="start" alignment-baseline="hanging">GND</text><text x="495" y="283" font-size="10" font-family="sans-serif" text-anchor="start" alignment-baseline="hanging">Flashing LED</text><text x="11" y="150" font-size="10" font-family="sans-serif" text-anchor="start" alignment-baseline="hanging">GND</text><text x="441" y="330" font-size="10" font-family="sans-serif" text-anchor="start" alignment-baseline="hanging">VBAT</text><text x="305" y="103" font-size="10" font-family="sans-serif" text-anchor="start" alignment-baseline="hanging">D1</text><text x="371" y="310" font-size="10" font-family="sans-serif" text-anchor="start" alignment-baseline="hanging">GND</text><text x="705" y="103" font-size="10" font-family="sans-serif" text-anchor="start" alignment-baseline="hanging">D7</text><text x="705" y="223" font-size="10" font-family="sans-serif" text-anchor="start" alignment-baseline="hanging">D8</text><text x="641" y="90" font-size="10" font-family="sans-serif" text-anchor="start" alignment-baseline="hanging">VBAT</text><text x="571" y="310" font-size="10" font-family="sans-serif" text-anchor="start" alignment-baseline="hanging">GND</text><text x="305" y="223" font-size="10" font-family="sans-serif" text-anchor="start" alignment-baseline="hanging">D2</text><text x="241" y="210" font-size="10" font-family="sans-serif" text-anchor="start" alignment-baseline="hanging">VBAT</text><text x="641" y="210" font-size="10" font-family="sans-serif" text-anchor="start" alignment-baseline="hanging">VBAT</text><text x="695" y="403" font-size="10" font-family="sans-serif" text-anchor="start" alignment-baseline="hanging">Flashing LED</text><text x="41" y="76" font-size="10" font-family="sans-serif" text-anchor="start" alignment-baseline="hanging"></text><text x="505" y="103" font-size="10" font-family="sans-serif" text-anchor="start" alignment-baseline="hanging">D4</text><text x="41" y="66" font-size="10" font-family="sans-serif" text-anchor="start" alignment-baseline="hanging">BT1</text><text x="371" y="430" font-size="10" font-family="sans-serif" text-anchor="start" alignment-baseline="hanging">GND</text><text x="695" y="283" font-size="10" font-family="sans-serif" text-anchor="start" alignment-baseline="hanging">Flashing LED</text><text x="295" y="403" font-size="10" font-family="sans-serif" text-anchor="start" alignment-baseline="hanging">Flashing LED</text><text x="771" y="430" font-size="10" font-family="sans-serif" text-anchor="start" alignment-baseline="hanging">GND</text><text x="571" y="430" font-size="10" font-family="sans-serif" text-anchor="start" alignment-baseline="hanging">GND</text><text x="241" y="90" font-size="10" font-family="sans-serif" text-anchor="start" alignment-baseline="hanging">VBAT</text><text x="305" y="343" font-size="10" font-family="sans-serif" text-anchor="start" alignment-baseline="hanging">D3</text><text x="771" y="190" font-size="10" font-family="sans-serif" text-anchor="start" alignment-baseline="hanging">GND</text><text x="41" y="86" font-size="10" font-family="sans-serif" text-anchor="start" alignment-baseline="hanging">BAT-HLD-001</text><text x="441" y="210" font-size="10" font-family="sans-serif" text-anchor="start" alignment-baseline="hanging">VBAT</text><text x="641" y="330" font-size="10" font-family="sans-serif" text-anchor="start" alignment-baseline="hanging">VBAT</text><text x="771" y="310" font-size="10" font-family="sans-serif" text-anchor="start" alignment-baseline="hanging">GND</text><text x="495" y="403" font-size="10" font-family="sans-serif" text-anchor="start" alignment-baseline="hanging">Flashing LED</text><text x="505" y="223" font-size="10" font-family="sans-serif" text-anchor="start" alignment-baseline="hanging">D5</text><text x="295" y="163" font-size="10" font-family="sans-serif" text-anchor="start" alignment-baseline="hanging">Flashing LED</text><line x1="451" y1="240" x2="451" y2="220" stroke-width="2" stroke="black"></line><line x1="451" y1="220" x2="444" y2="227" stroke-width="2" stroke="black"></line><line x1="451" y1="220" x2="458" y2="227" stroke-width="2" stroke="black"></line><line x1="251" y1="120" x2="251" y2="100" stroke-width="2" stroke="black"></line><line x1="251" y1="100" x2="244" y2="107" stroke-width="2" stroke="black"></line><line x1="251" y1="100" x2="258" y2="107" stroke-width="2" stroke="black"></line><rect width="20" height="20" x="481" y="250" style="stroke: #000; stroke-width: 1; fill: none;"></rect><line x1="321" y1="250" x2="321" y2="270" stroke-width="2" stroke="black"></line><line x1="341" y1="250" x2="341" y2="270" stroke-width="2" stroke="black"></line><line x1="321" y1="250" x2="341" y2="260" stroke-width="2" stroke="black"></line><line x1="321" y1="270" x2="341" y2="260" stroke-width="2" stroke="black"></line><line x1="326" y1="248" x2="336" y2="238" stroke-width="2" stroke="black"></line><line x1="336" y1="238" x2="331" y2="238" stroke-width="2" stroke="black"></line><line x1="336" y1="238" x2="336" y2="243" stroke-width="2" stroke="black"></line><line x1="333" y1="252" x2="343" y2="242" stroke-width="2" stroke="black"></line><line x1="343" y1="242" x2="338" y2="242" stroke-width="2" stroke="black"></line><line x1="343" y1="242" x2="343" y2="247" stroke-width="2" stroke="black"></line><line x1="271" y1="260" x2="281" y2="260" stroke-width="2" stroke="black"></line><line x1="351" y1="260" x2="361" y2="260" stroke-width="2" stroke="black"></line><line x1="301" y1="260" x2="321" y2="260" stroke-width="2" stroke="black"></line><line x1="291" y1="270" x2="291" y2="280" stroke-width="2" stroke="black"></line><line x1="291" y1="280" x2="351" y2="280" stroke-width="2" stroke="black"></line><line x1="351" y1="280" x2="351" y2="260" stroke-width="2" stroke="black"></line><line x1="351" y1="260" x2="341" y2="260" stroke-width="2" stroke="black"></line><line x1="781" y1="280" x2="781" y2="290" stroke-width="2" stroke="black"></line><line x1="771" y1="290" x2="791" y2="290" stroke-width="2" stroke="black"></line><line x1="774" y1="295" x2="788" y2="295" stroke-width="2" stroke="black"></line><line x1="777" y1="300" x2="785" y2="300" stroke-width="2" stroke="black"></line><rect width="20" height="20" x="481" y="370" style="stroke: #000; stroke-width: 1; fill: none;"></rect><line x1="381" y1="280" x2="381" y2="290" stroke-width="2" stroke="black"></line><line x1="371" y1="290" x2="391" y2="290" stroke-width="2" stroke="black"></line><line x1="374" y1="295" x2="388" y2="295" stroke-width="2" stroke="black"></line><line x1="377" y1="300" x2="385" y2="300" stroke-width="2" stroke="black"></line><line x1="781" y1="400" x2="781" y2="410" stroke-width="2" stroke="black"></line><line x1="771" y1="410" x2="791" y2="410" stroke-width="2" stroke="black"></line><line x1="774" y1="415" x2="788" y2="415" stroke-width="2" stroke="black"></line><line x1="777" y1="420" x2="785" y2="420" stroke-width="2" stroke="black"></line><line x1="651" y1="360" x2="651" y2="340" stroke-width="2" stroke="black"></line><line x1="651" y1="340" x2="644" y2="347" stroke-width="2" stroke="black"></line><line x1="651" y1="340" x2="658" y2="347" stroke-width="2" stroke="black"></line><line x1="581" y1="400" x2="581" y2="410" stroke-width="2" stroke="black"></line><line x1="571" y1="410" x2="591" y2="410" stroke-width="2" stroke="black"></line><line x1="574" y1="415" x2="588" y2="415" stroke-width="2" stroke="black"></line><line x1="577" y1="420" x2="585" y2="420" stroke-width="2" stroke="black"></line><line x1="721" y1="130" x2="721" y2="150" stroke-width="2" stroke="black"></line><line x1="741" y1="130" x2="741" y2="150" stroke-width="2" stroke="black"></line><line x1="721" y1="130" x2="741" y2="140" stroke-width="2" stroke="black"></line><line x1="721" y1="150" x2="741" y2="140" stroke-width="2" stroke="black"></line><line x1="726" y1="128" x2="736" y2="118" stroke-width="2" stroke="black"></line><line x1="736" y1="118" x2="731" y2="118" stroke-width="2" stroke="black"></line><line x1="736" y1="118" x2="736" y2="123" stroke-width="2" stroke="black"></line><line x1="733" y1="132" x2="743" y2="122" stroke-width="2" stroke="black"></line><line x1="743" y1="122" x2="738" y2="122" stroke-width="2" stroke="black"></line><line x1="743" y1="122" x2="743" y2="127" stroke-width="2" stroke="black"></line><line x1="671" y1="140" x2="681" y2="140" stroke-width="2" stroke="black"></line><line x1="751" y1="140" x2="761" y2="140" stroke-width="2" stroke="black"></line><line x1="701" y1="140" x2="721" y2="140" stroke-width="2" stroke="black"></line><line x1="691" y1="150" x2="691" y2="160" stroke-width="2" stroke="black"></line><line x1="691" y1="160" x2="751" y2="160" stroke-width="2" stroke="black"></line><line x1="751" y1="160" x2="751" y2="140" stroke-width="2" stroke="black"></line><line x1="751" y1="140" x2="741" y2="140" stroke-width="2" stroke="black"></line><line x1="651" y1="120" x2="651" y2="100" stroke-width="2" stroke="black"></line><line x1="651" y1="100" x2="644" y2="107" stroke-width="2" stroke="black"></line><line x1="651" y1="100" x2="658" y2="107" stroke-width="2" stroke="black"></line><line x1="651" y1="240" x2="651" y2="220" stroke-width="2" stroke="black"></line><line x1="651" y1="220" x2="644" y2="227" stroke-width="2" stroke="black"></line><line x1="651" y1="220" x2="658" y2="227" stroke-width="2" stroke="black"></line><rect width="20" height="20" x="281" y="130" style="stroke: #000; stroke-width: 1; fill: none;"></rect><rect width="20" height="20" x="681" y="370" style="stroke: #000; stroke-width: 1; fill: none;"></rect><line x1="321" y1="370" x2="321" y2="390" stroke-width="2" stroke="black"></line><line x1="341" y1="370" x2="341" y2="390" stroke-width="2" stroke="black"></line><line x1="321" y1="370" x2="341" y2="380" stroke-width="2" stroke="black"></line><line x1="321" y1="390" x2="341" y2="380" stroke-width="2" stroke="black"></line><line x1="326" y1="368" x2="336" y2="358" stroke-width="2" stroke="black"></line><line x1="336" y1="358" x2="331" y2="358" stroke-width="2" stroke="black"></line><line x1="336" y1="358" x2="336" y2="363" stroke-width="2" stroke="black"></line><line x1="333" y1="372" x2="343" y2="362" stroke-width="2" stroke="black"></line><line x1="343" y1="362" x2="338" y2="362" stroke-width="2" stroke="black"></line><line x1="343" y1="362" x2="343" y2="367" stroke-width="2" stroke="black"></line><line x1="271" y1="380" x2="281" y2="380" stroke-width="2" stroke="black"></line><line x1="351" y1="380" x2="361" y2="380" stroke-width="2" stroke="black"></line><line x1="301" y1="380" x2="321" y2="380" stroke-width="2" stroke="black"></line><line x1="291" y1="390" x2="291" y2="400" stroke-width="2" stroke="black"></line><line x1="291" y1="400" x2="351" y2="400" stroke-width="2" stroke="black"></line><line x1="351" y1="400" x2="351" y2="380" stroke-width="2" stroke="black"></line><line x1="351" y1="380" x2="341" y2="380" stroke-width="2" stroke="black"></line><line x1="31" y1="70" x2="11" y2="70" stroke-width="2" stroke="black"></line><line x1="26" y1="76" x2="16" y2="76" stroke-width="2" stroke="black"></line><line x1="31" y1="83" x2="11" y2="83" stroke-width="2" stroke="black"></line><line x1="26" y1="90" x2="16" y2="90" stroke-width="2" stroke="black"></line><line x1="21" y1="60" x2="21" y2="70" stroke-width="2" stroke="black"></line><line x1="21" y1="90" x2="21" y2="100" stroke-width="2" stroke="black"></line><text x="31" y="62" font-size="10" font-family="sans-serif" text-anchor="start" alignment-baseline="alphabetic" transform="rotate(90 31 62)">+</text><text x="36" y="100" font-size="10" font-family="sans-serif" text-anchor="end" alignment-baseline="hanging">-</text><line x1="521" y1="250" x2="521" y2="270" stroke-width="2" stroke="black"></line><line x1="541" y1="250" x2="541" y2="270" stroke-width="2" stroke="black"></line><line x1="521" y1="250" x2="541" y2="260" stroke-width="2" stroke="black"></line><line x1="521" y1="270" x2="541" y2="260" stroke-width="2" stroke="black"></line><line x1="526" y1="248" x2="536" y2="238" stroke-width="2" stroke="black"></line><line x1="536" y1="238" x2="531" y2="238" stroke-width="2" stroke="black"></line><line x1="536" y1="238" x2="536" y2="243" stroke-width="2" stroke="black"></line><line x1="533" y1="252" x2="543" y2="242" stroke-width="2" stroke="black"></line><line x1="543" y1="242" x2="538" y2="242" stroke-width="2" stroke="black"></line><line x1="543" y1="242" x2="543" y2="247" stroke-width="2" stroke="black"></line><line x1="471" y1="260" x2="481" y2="260" stroke-width="2" stroke="black"></line><line x1="551" y1="260" x2="561" y2="260" stroke-width="2" stroke="black"></line><line x1="501" y1="260" x2="521" y2="260" stroke-width="2" stroke="black"></line><line x1="491" y1="270" x2="491" y2="280" stroke-width="2" stroke="black"></line><line x1="491" y1="280" x2="551" y2="280" stroke-width="2" stroke="black"></line><line x1="551" y1="280" x2="551" y2="260" stroke-width="2" stroke="black"></line><line x1="551" y1="260" x2="541" y2="260" stroke-width="2" stroke="black"></line><line x1="251" y1="360" x2="251" y2="340" stroke-width="2" stroke="black"></line><line x1="251" y1="340" x2="244" y2="347" stroke-width="2" stroke="black"></line><line x1="251" y1="340" x2="258" y2="347" stroke-width="2" stroke="black"></line><line x1="721" y1="250" x2="721" y2="270" stroke-width="2" stroke="black"></line><line x1="741" y1="250" x2="741" y2="270" stroke-width="2" stroke="black"></line><line x1="721" y1="250" x2="741" y2="260" stroke-width="2" stroke="black"></line><line x1="721" y1="270" x2="741" y2="260" stroke-width="2" stroke="black"></line><line x1="726" y1="248" x2="736" y2="238" stroke-width="2" stroke="black"></line><line x1="736" y1="238" x2="731" y2="238" stroke-width="2" stroke="black"></line><line x1="736" y1="238" x2="736" y2="243" stroke-width="2" stroke="black"></line><line x1="733" y1="252" x2="743" y2="242" stroke-width="2" stroke="black"></line><line x1="743" y1="242" x2="738" y2="242" stroke-width="2" stroke="black"></line><line x1="743" y1="242" x2="743" y2="247" stroke-width="2" stroke="black"></line><line x1="671" y1="260" x2="681" y2="260" stroke-width="2" stroke="black"></line><line x1="751" y1="260" x2="761" y2="260" stroke-width="2" stroke="black"></line><line x1="701" y1="260" x2="721" y2="260" stroke-width="2" stroke="black"></line><line x1="691" y1="270" x2="691" y2="280" stroke-width="2" stroke="black"></line><line x1="691" y1="280" x2="751" y2="280" stroke-width="2" stroke="black"></line><line x1="751" y1="280" x2="751" y2="260" stroke-width="2" stroke="black"></line><line x1="751" y1="260" x2="741" y2="260" stroke-width="2" stroke="black"></line><rect width="20" height="20" x="481" y="130" style="stroke: #000; stroke-width: 1; fill: none;"></rect><line x1="781" y1="160" x2="781" y2="170" stroke-width="2" stroke="black"></line><line x1="771" y1="170" x2="791" y2="170" stroke-width="2" stroke="black"></line><line x1="774" y1="175" x2="788" y2="175" stroke-width="2" stroke="black"></line><line x1="777" y1="180" x2="785" y2="180" stroke-width="2" stroke="black"></line><rect width="20" height="20" x="281" y="250" style="stroke: #000; stroke-width: 1; fill: none;"></rect><line x1="521" y1="370" x2="521" y2="390" stroke-width="2" stroke="black"></line><line x1="541" y1="370" x2="541" y2="390" stroke-width="2" stroke="black"></line><line x1="521" y1="370" x2="541" y2="380" stroke-width="2" stroke="black"></line><line x1="521" y1="390" x2="541" y2="380" stroke-width="2" stroke="black"></line><line x1="526" y1="368" x2="536" y2="358" stroke-width="2" stroke="black"></line><line x1="536" y1="358" x2="531" y2="358" stroke-width="2" stroke="black"></line><line x1="536" y1="358" x2="536" y2="363" stroke-width="2" stroke="black"></line><line x1="533" y1="372" x2="543" y2="362" stroke-width="2" stroke="black"></line><line x1="543" y1="362" x2="538" y2="362" stroke-width="2" stroke="black"></line><line x1="543" y1="362" x2="543" y2="367" stroke-width="2" stroke="black"></line><line x1="471" y1="380" x2="481" y2="380" stroke-width="2" stroke="black"></line><line x1="551" y1="380" x2="561" y2="380" stroke-width="2" stroke="black"></line><line x1="501" y1="380" x2="521" y2="380" stroke-width="2" stroke="black"></line><line x1="491" y1="390" x2="491" y2="400" stroke-width="2" stroke="black"></line><line x1="491" y1="400" x2="551" y2="400" stroke-width="2" stroke="black"></line><line x1="551" y1="400" x2="551" y2="380" stroke-width="2" stroke="black"></line><line x1="551" y1="380" x2="541" y2="380" stroke-width="2" stroke="black"></line><rect width="20" height="20" x="681" y="130" style="stroke: #000; stroke-width: 1; fill: none;"></rect><line x1="21" y1="40" x2="21" y2="20" stroke-width="2" stroke="black"></line><line x1="21" y1="20" x2="14" y2="27" stroke-width="2" stroke="black"></line><line x1="21" y1="20" x2="28" y2="27" stroke-width="2" stroke="black"></line><line x1="521" y1="130" x2="521" y2="150" stroke-width="2" stroke="black"></line><line x1="541" y1="130" x2="541" y2="150" stroke-width="2" stroke="black"></line><line x1="521" y1="130" x2="541" y2="140" stroke-width="2" stroke="black"></line><line x1="521" y1="150" x2="541" y2="140" stroke-width="2" stroke="black"></line><line x1="526" y1="128" x2="536" y2="118" stroke-width="2" stroke="black"></line><line x1="536" y1="118" x2="531" y2="118" stroke-width="2" stroke="black"></line><line x1="536" y1="118" x2="536" y2="123" stroke-width="2" stroke="black"></line><line x1="533" y1="132" x2="543" y2="122" stroke-width="2" stroke="black"></line><line x1="543" y1="122" x2="538" y2="122" stroke-width="2" stroke="black"></line><line x1="543" y1="122" x2="543" y2="127" stroke-width="2" stroke="black"></line><line x1="471" y1="140" x2="481" y2="140" stroke-width="2" stroke="black"></line><line x1="551" y1="140" x2="561" y2="140" stroke-width="2" stroke="black"></line><line x1="501" y1="140" x2="521" y2="140" stroke-width="2" stroke="black"></line><line x1="491" y1="150" x2="491" y2="160" stroke-width="2" stroke="black"></line><line x1="491" y1="160" x2="551" y2="160" stroke-width="2" stroke="black"></line><line x1="551" y1="160" x2="551" y2="140" stroke-width="2" stroke="black"></line><line x1="551" y1="140" x2="541" y2="140" stroke-width="2" stroke="black"></line><line x1="451" y1="360" x2="451" y2="340" stroke-width="2" stroke="black"></line><line x1="451" y1="340" x2="444" y2="347" stroke-width="2" stroke="black"></line><line x1="451" y1="340" x2="458" y2="347" stroke-width="2" stroke="black"></line><line x1="251" y1="240" x2="251" y2="220" stroke-width="2" stroke="black"></line><line x1="251" y1="220" x2="244" y2="227" stroke-width="2" stroke="black"></line><line x1="251" y1="220" x2="258" y2="227" stroke-width="2" stroke="black"></line><line x1="21" y1="120" x2="21" y2="130" stroke-width="2" stroke="black"></line><line x1="11" y1="130" x2="31" y2="130" stroke-width="2" stroke="black"></line><line x1="14" y1="135" x2="28" y2="135" stroke-width="2" stroke="black"></line><line x1="17" y1="140" x2="25" y2="140" stroke-width="2" stroke="black"></line><line x1="721" y1="370" x2="721" y2="390" stroke-width="2" stroke="black"></line><line x1="741" y1="370" x2="741" y2="390" stroke-width="2" stroke="black"></line><line x1="721" y1="370" x2="741" y2="380" stroke-width="2" stroke="black"></line><line x1="721" y1="390" x2="741" y2="380" stroke-width="2" stroke="black"></line><line x1="726" y1="368" x2="736" y2="358" stroke-width="2" stroke="black"></line><line x1="736" y1="358" x2="731" y2="358" stroke-width="2" stroke="black"></line><line x1="736" y1="358" x2="736" y2="363" stroke-width="2" stroke="black"></line><line x1="733" y1="372" x2="743" y2="362" stroke-width="2" stroke="black"></line><line x1="743" y1="362" x2="738" y2="362" stroke-width="2" stroke="black"></line><line x1="743" y1="362" x2="743" y2="367" stroke-width="2" stroke="black"></line><line x1="671" y1="380" x2="681" y2="380" stroke-width="2" stroke="black"></line><line x1="751" y1="380" x2="761" y2="380" stroke-width="2" stroke="black"></line><line x1="701" y1="380" x2="721" y2="380" stroke-width="2" stroke="black"></line><line x1="691" y1="390" x2="691" y2="400" stroke-width="2" stroke="black"></line><line x1="691" y1="400" x2="751" y2="400" stroke-width="2" stroke="black"></line><line x1="751" y1="400" x2="751" y2="380" stroke-width="2" stroke="black"></line><line x1="751" y1="380" x2="741" y2="380" stroke-width="2" stroke="black"></line><line x1="451" y1="120" x2="451" y2="100" stroke-width="2" stroke="black"></line><line x1="451" y1="100" x2="444" y2="107" stroke-width="2" stroke="black"></line><line x1="451" y1="100" x2="458" y2="107" stroke-width="2" stroke="black"></line><rect width="20" height="20" x="681" y="250" style="stroke: #000; stroke-width: 1; fill: none;"></rect><line x1="321" y1="130" x2="321" y2="150" stroke-width="2" stroke="black"></line><line x1="341" y1="130" x2="341" y2="150" stroke-width="2" stroke="black"></line><line x1="321" y1="130" x2="341" y2="140" stroke-width="2" stroke="black"></line><line x1="321" y1="150" x2="341" y2="140" stroke-width="2" stroke="black"></line><line x1="326" y1="128" x2="336" y2="118" stroke-width="2" stroke="black"></line><line x1="336" y1="118" x2="331" y2="118" stroke-width="2" stroke="black"></line><line x1="336" y1="118" x2="336" y2="123" stroke-width="2" stroke="black"></line><line x1="333" y1="132" x2="343" y2="122" stroke-width="2" stroke="black"></line><line x1="343" y1="122" x2="338" y2="122" stroke-width="2" stroke="black"></line><line x1="343" y1="122" x2="343" y2="127" stroke-width="2" stroke="black"></line><line x1="271" y1="140" x2="281" y2="140" stroke-width="2" stroke="black"></line><line x1="351" y1="140" x2="361" y2="140" stroke-width="2" stroke="black"></line><line x1="301" y1="140" x2="321" y2="140" stroke-width="2" stroke="black"></line><line x1="291" y1="150" x2="291" y2="160" stroke-width="2" stroke="black"></line><line x1="291" y1="160" x2="351" y2="160" stroke-width="2" stroke="black"></line><line x1="351" y1="160" x2="351" y2="140" stroke-width="2" stroke="black"></line><line x1="351" y1="140" x2="341" y2="140" stroke-width="2" stroke="black"></line><line x1="381" y1="400" x2="381" y2="410" stroke-width="2" stroke="black"></line><line x1="371" y1="410" x2="391" y2="410" stroke-width="2" stroke="black"></line><line x1="374" y1="415" x2="388" y2="415" stroke-width="2" stroke="black"></line><line x1="377" y1="420" x2="385" y2="420" stroke-width="2" stroke="black"></line><line x1="581" y1="280" x2="581" y2="290" stroke-width="2" stroke="black"></line><line x1="571" y1="290" x2="591" y2="290" stroke-width="2" stroke="black"></line><line x1="574" y1="295" x2="588" y2="295" stroke-width="2" stroke="black"></line><line x1="577" y1="300" x2="585" y2="300" stroke-width="2" stroke="black"></line><line x1="581" y1="160" x2="581" y2="170" stroke-width="2" stroke="black"></line><line x1="571" y1="170" x2="591" y2="170" stroke-width="2" stroke="black"></line><line x1="574" y1="175" x2="588" y2="175" stroke-width="2" stroke="black"></line><line x1="577" y1="180" x2="585" y2="180" stroke-width="2" stroke="black"></line><line x1="381" y1="160" x2="381" y2="170" stroke-width="2" stroke="black"></line><line x1="371" y1="170" x2="391" y2="170" stroke-width="2" stroke="black"></line><line x1="374" y1="175" x2="388" y2="175" stroke-width="2" stroke="black"></line><line x1="377" y1="180" x2="385" y2="180" stroke-width="2" stroke="black"></line><rect width="20" height="20" x="281" y="370" style="stroke: #000; stroke-width: 1; fill: none;"></rect><line x1="471" y1="260" x2="451" y2="260" stroke-width="2" stroke="black"></line><line x1="781" y1="140" x2="781" y2="160" stroke-width="2" stroke="black"></line><line x1="271" y1="140" x2="251" y2="140" stroke-width="2" stroke="black"></line><line x1="381" y1="380" x2="381" y2="400" stroke-width="2" stroke="black"></line><line x1="651" y1="380" x2="651" y2="360" stroke-width="2" stroke="black"></line><line x1="651" y1="380" x2="671" y2="380" stroke-width="2" stroke="black"></line><line x1="561" y1="380" x2="581" y2="380" stroke-width="2" stroke="black"></line><line x1="581" y1="400" x2="581" y2="380" stroke-width="2" stroke="black"></line><line x1="451" y1="140" x2="471" y2="140" stroke-width="2" stroke="black"></line><line x1="451" y1="140" x2="451" y2="120" stroke-width="2" stroke="black"></line><line x1="781" y1="260" x2="761" y2="260" stroke-width="2" stroke="black"></line><line x1="781" y1="260" x2="781" y2="280" stroke-width="2" stroke="black"></line><line x1="361" y1="380" x2="381" y2="380" stroke-width="2" stroke="black"></line><line x1="251" y1="120" x2="251" y2="140" stroke-width="2" stroke="black"></line><line x1="451" y1="380" x2="451" y2="360" stroke-width="2" stroke="black"></line><line x1="451" y1="380" x2="471" y2="380" stroke-width="2" stroke="black"></line><line x1="251" y1="380" x2="271" y2="380" stroke-width="2" stroke="black"></line><line x1="251" y1="380" x2="251" y2="360" stroke-width="2" stroke="black"></line><line x1="251" y1="260" x2="271" y2="260" stroke-width="2" stroke="black"></line><line x1="251" y1="260" x2="251" y2="240" stroke-width="2" stroke="black"></line><line x1="21" y1="60" x2="21" y2="40" stroke-width="2" stroke="black"></line><line x1="381" y1="140" x2="361" y2="140" stroke-width="2" stroke="black"></line><line x1="381" y1="140" x2="381" y2="160" stroke-width="2" stroke="black"></line><line x1="651" y1="140" x2="671" y2="140" stroke-width="2" stroke="black"></line><line x1="651" y1="140" x2="651" y2="120" stroke-width="2" stroke="black"></line><line x1="781" y1="380" x2="761" y2="380" stroke-width="2" stroke="black"></line><line x1="781" y1="380" x2="781" y2="400" stroke-width="2" stroke="black"></line><line x1="21" y1="100" x2="21" y2="120" stroke-width="2" stroke="black"></line><line x1="761" y1="140" x2="781" y2="140" stroke-width="2" stroke="black"></line><line x1="451" y1="240" x2="451" y2="260" stroke-width="2" stroke="black"></line><line x1="651" y1="240" x2="651" y2="260" stroke-width="2" stroke="black"></line><line x1="581" y1="260" x2="561" y2="260" stroke-width="2" stroke="black"></line><line x1="581" y1="260" x2="581" y2="280" stroke-width="2" stroke="black"></line><line x1="671" y1="260" x2="651" y2="260" stroke-width="2" stroke="black"></line><line x1="581" y1="160" x2="581" y2="140" stroke-width="2" stroke="black"></line><line x1="561" y1="140" x2="581" y2="140" stroke-width="2" stroke="black"></line><line x1="381" y1="260" x2="381" y2="280" stroke-width="2" stroke="black"></line><line x1="381" y1="260" x2="361" y2="260" stroke-width="2" stroke="black"></line></svg>