<?xml-stylesheet href="https://s3.amazonaws.com/maker.works.boards/css/blackpcb.css" type="text/css"?><svg xmlns="http://www.w3.org/2000/svg" version="1.1" xmlns:xlink="http://www.w3.org/1999/xlink" stroke-width="0" stroke-linecap="round" stroke-linejoin="round" width="1.1811in" height="1.1811in" id="pcb_bottom" viewBox="7.5 7.5 1181.1 1181.1"><defs><circle cx="0" cy="0" r="25.5" id="tool-T10-pad-1000"/><rect x="-46.26" y="-23.622" width="92.52" height="47.244" transform="rotate(225)" id="tool-D11-pad-1002"/><rect x="-46.26" y="-23.622" width="92.52" height="47.244" transform="rotate(45)" id="tool-D12-pad-1003"/><circle cx="0" cy="0" r="350.4" id="tool-D13-pad-1004"/><rect x="-49.2125" y="-100.3935" width="98.425" height="200.787" transform="rotate(315)" id="tool-D14-pad-1005"/><circle cx="0" cy="0" r="3.95" id="tool-D11-pad-1007"/><circle cx="0" cy="0" r="3.95" id="tool-D12-pad-1008"/><circle cx="0" cy="0" r="3.95" id="tool-D13-pad-1009"/><circle cx="0" cy="0" r="9.85" id="tool-D14-pad-1010"/><rect x="-46.26" y="-23.622" width="92.52" height="47.244" transform="rotate(225)" id="tool-D10-pad-1011"/><rect x="-46.26" y="-23.622" width="92.52" height="47.244" transform="rotate(45)" id="tool-D11-pad-1012"/><circle cx="0" cy="0" r="350.4" id="tool-D12-pad-1013"/><rect x="-49.2125" y="-100.3935" width="98.425" height="200.787" transform="rotate(315)" id="tool-D13-pad-1014"/><g id="pcb_bottom-cu" fill="currentColor" stroke="currentColor"><path stroke-width="20" fill="none" d="M 1031.1 499.6 L 499.6 499.6 M 149 97.1 L 98.2 46.4 M 184.7 66.6 L 165 86.2 M 98.2 46.4 L 36.6 108.1 M 499.6 499.6 L 460.3 460.3 M 105.9 165 L 401.2 460.3 M 499.6 1031.1 L 499.6 499.6 M 401.2 460.3 L 460.3 460.3 M 460.3 1090.2 L 145.3 775.2 M 36.6 662.9 L 204.4 830.7 M 716.2 66.6 L 184.7 66.6 M 36.6 108.1 L 36.6 662.9 M 716.2 66.6 L 1090.2 440.6"/><use x="509.2" y="1041.3" xlink:href="#tool-D11-pad-1002"/><use x="450.7" y="1099.7" xlink:href="#tool-D11-pad-1002"/><use x="1041.3" y="509.2" xlink:href="#tool-D12-pad-1003"/><use x="1099.7" y="450.7" xlink:href="#tool-D12-pad-1003"/><use x="96.4" y="154.8" xlink:href="#tool-D12-pad-1003"/><use x="154.8" y="96.4" xlink:href="#tool-D12-pad-1003"/><use x="460.3" y="460.3" xlink:href="#tool-D13-pad-1004"/><use x="141.5" y="779" xlink:href="#tool-D14-pad-1005"/><use x="779" y="141.5" xlink:href="#tool-D14-pad-1005"/></g><mask id="pcb_bottom_mech-mask" fill="#fff" stroke="#fff" fill-rule="evenodd"><path stroke-width="0" d="M 775.2 7.5 L 125.6 7.5 L 114 8.1 L 102.6 9.8 L 91.3 12.6 L 80.4 16.5 L 69.9 21.4 L 60 27.4 L 50.7 34.3 L 42.1 42.1 L 34.3 50.7 L 27.4 60 L 21.4 69.9 L 16.5 80.4 L 12.6 91.3 L 9.8 102.6 L 8.1 114 L 7.5 125.6 L 7.5 775.2 L 8 785.1 L 7.5 794.9 L 9.4 833.5 L 15.1 871.7 L 24.5 909.2 L 37.5 945.6 L 54 980.5 L 73.8 1013.6 L 96.9 1044.7 L 122.8 1073.3 L 151.4 1099.2 L 182.5 1122.3 L 215.6 1142.1 L 250.5 1158.6 L 286.9 1171.6 L 324.4 1181 L 362.6 1186.7 L 401.2 1188.6 L 439.8 1186.7 L 478 1181 L 515.5 1171.6 L 551.9 1158.6 L 586.8 1142.1 L 619.9 1122.3 L 651 1099.2 L 679.6 1073.3 L 705.5 1044.7 L 728.6 1013.6 L 748.4 980.5 L 764.9 945.6 L 777.9 909.2 L 787.3 871.7 L 793 833.5 L 794.9 794.9 L 833.5 793 L 871.7 787.3 L 909.2 777.9 L 945.6 764.9 L 980.5 748.4 L 1013.6 728.6 L 1044.7 705.5 L 1073.3 679.6 L 1099.2 651 L 1122.3 619.9 L 1142.1 586.8 L 1158.6 551.9 L 1171.6 515.5 L 1181 478 L 1186.7 439.8 L 1188.6 401.2 L 1186.7 362.6 L 1181 324.4 L 1171.6 286.9 L 1158.6 250.5 L 1142.1 215.6 L 1122.3 182.5 L 1099.2 151.4 L 1073.3 122.8 L 1044.7 96.9 L 1013.6 73.8 L 980.5 54 L 945.6 37.5 L 909.2 24.5 L 871.7 15.1 L 833.5 9.4 L 794.9 7.5 L 785.1 8 Z"/><g id="pcb_bottom-drl" fill="#000" stroke="#000"><use x="765.4" y="765.4" xlink:href="#tool-T10-pad-1000"/></g></mask></defs><g mask="url(#pcb_bottom_mech-mask)" transform="translate(1196.1,1196.1) scale(-1,-1)"><rect x="7.5" y="7.5" width="1181.1" height="1181.1" fill="currentColor" class="pcb_board-fr4"/><use class="pcb_board-cu" xlink:href="#pcb_bottom-cu"/><g><defs><g id="pcb_bottom-sm" fill="currentColor" stroke="currentColor"><use x="509.2" y="1041.3" xlink:href="#tool-D10-pad-1011"/><use x="450.7" y="1099.7" xlink:href="#tool-D10-pad-1011"/><use x="1041.3" y="509.2" xlink:href="#tool-D11-pad-1012"/><use x="1099.7" y="450.7" xlink:href="#tool-D11-pad-1012"/><use x="96.4" y="154.8" xlink:href="#tool-D11-pad-1012"/><use x="154.8" y="96.4" xlink:href="#tool-D11-pad-1012"/><use x="460.3" y="460.3" xlink:href="#tool-D12-pad-1013"/><use x="141.5" y="779" xlink:href="#tool-D13-pad-1014"/><use x="779" y="141.5" xlink:href="#tool-D13-pad-1014"/></g><mask id="pcb_bottom-sm_mask" color="#000"><rect x="7.5" y="7.5" width="1181.1" height="1181.1" fill="#fff"/><use xlink:href="#pcb_bottom-sm"/></mask><mask id="pcb_bottom-cu_finish-mask" color="#fff"><use xlink:href="#pcb_bottom-cu"/></mask></defs><g mask="url(#pcb_bottom-sm_mask)"><rect x="7.5" y="7.5" width="1181.1" height="1181.1" fill="currentColor" class="pcb_board-sm"/><g id="pcb_bottom-ss" class="pcb_board-ss" fill="currentColor" stroke="currentColor"><path stroke-width="5.9" fill="none" d="M 482.7 1151.2 L 560.7 1073.3 M 399.2 1067.7 L 477.1 989.7"/><use x="389.5" y="1083.7" xlink:href="#tool-D11-pad-1007"/><path stroke-width="5.9" fill="none" d="M 1067.7 399.2 L 989.7 477.1 M 1151.2 482.7 L 1073.3 560.7"/><use x="1161" y="466.7" xlink:href="#tool-D12-pad-1008"/><path stroke-width="5.9" fill="none" d="M 122.8 44.9 L 44.9 122.8 M 206.4 128.4 L 128.4 206.4"/><use x="216.1" y="112.4" xlink:href="#tool-D13-pad-1009"/><path stroke-width="5.9" fill="none" d="M 382.3 969.7 L 264 851.4 M 0 587.4 L 69.1 656.5 M 587.4 0 L 656.5 69.1 M 969.7 382.3 L 851.4 264 M 0 489 L 91.4 397.6 M 489 0 L 397.6 91.4 M 382.3 969.7 L 522.9 829.1 M 969.7 382.3 L 829.1 522.9"/><use x="185.3" y="185.3" xlink:href="#tool-D14-pad-1010"/></g></g><use class="pcb_board-cf" mask="url(#pcb_bottom-cu_finish-mask)" xlink:href="#pcb_bottom-sm"/></g></g></svg>