<?xml-stylesheet href="https://s3.amazonaws.com/maker.works.boards/css/blackpcb.css" type="text/css"?><svg xmlns="http://www.w3.org/2000/svg" version="1.1" xmlns:xlink="http://www.w3.org/1999/xlink" stroke-width="0" stroke-linecap="round" stroke-linejoin="round" width="1.1811in" height="1.1811in" id="pcb_top" viewBox="7.5 7.5 1181.1 1181.1"><defs><circle cx="0" cy="0" r="25.5" id="tool-T10-pad-1000"/><g id="pcb_top-cu" fill="currentColor" stroke="currentColor"></g><mask id="pcb_top_mech-mask" fill="#fff" stroke="#fff" fill-rule="evenodd"><path stroke-width="0" d="M 775.2 7.5 L 125.6 7.5 L 114 8.1 L 102.6 9.8 L 91.3 12.6 L 80.4 16.5 L 69.9 21.4 L 60 27.4 L 50.7 34.3 L 42.1 42.1 L 34.3 50.7 L 27.4 60 L 21.4 69.9 L 16.5 80.4 L 12.6 91.3 L 9.8 102.6 L 8.1 114 L 7.5 125.6 L 7.5 775.2 L 8 785.1 L 7.5 794.9 L 9.4 833.5 L 15.1 871.7 L 24.5 909.2 L 37.5 945.6 L 54 980.5 L 73.8 1013.6 L 96.9 1044.7 L 122.8 1073.3 L 151.4 1099.2 L 182.5 1122.3 L 215.6 1142.1 L 250.5 1158.6 L 286.9 1171.6 L 324.4 1181 L 362.6 1186.7 L 401.2 1188.6 L 439.8 1186.7 L 478 1181 L 515.5 1171.6 L 551.9 1158.6 L 586.8 1142.1 L 619.9 1122.3 L 651 1099.2 L 679.6 1073.3 L 705.5 1044.7 L 728.6 1013.6 L 748.4 980.5 L 764.9 945.6 L 777.9 909.2 L 787.3 871.7 L 793 833.5 L 794.9 794.9 L 833.5 793 L 871.7 787.3 L 909.2 777.9 L 945.6 764.9 L 980.5 748.4 L 1013.6 728.6 L 1044.7 705.5 L 1073.3 679.6 L 1099.2 651 L 1122.3 619.9 L 1142.1 586.8 L 1158.6 551.9 L 1171.6 515.5 L 1181 478 L 1186.7 439.8 L 1188.6 401.2 L 1186.7 362.6 L 1181 324.4 L 1171.6 286.9 L 1158.6 250.5 L 1142.1 215.6 L 1122.3 182.5 L 1099.2 151.4 L 1073.3 122.8 L 1044.7 96.9 L 1013.6 73.8 L 980.5 54 L 945.6 37.5 L 909.2 24.5 L 871.7 15.1 L 833.5 9.4 L 794.9 7.5 L 785.1 8 Z"/><g id="pcb_top-drl" fill="#000" stroke="#000"><use x="765.4" y="765.4" xlink:href="#tool-T10-pad-1000"/></g></mask></defs><g mask="url(#pcb_top_mech-mask)" transform="translate(0,1196.1) scale(1,-1)"><rect x="7.5" y="7.5" width="1181.1" height="1181.1" fill="currentColor" class="pcb_board-fr4"/><use class="pcb_board-cu" xlink:href="#pcb_top-cu"/><g><defs><g id="pcb_top-sm" fill="currentColor" stroke="currentColor"></g><mask id="pcb_top-sm_mask" color="#000"><rect x="7.5" y="7.5" width="1181.1" height="1181.1" fill="#fff"/><use xlink:href="#pcb_top-sm"/></mask><mask id="pcb_top-cu_finish-mask" color="#fff"><use xlink:href="#pcb_top-cu"/></mask></defs><g mask="url(#pcb_top-sm_mask)"><rect x="7.5" y="7.5" width="1181.1" height="1181.1" fill="currentColor" class="pcb_board-sm"/><g id="pcb_top-ss" class="pcb_board-ss" fill="currentColor" stroke="currentColor"></g></g><use class="pcb_board-cf" mask="url(#pcb_top-cu_finish-mask)" xlink:href="#pcb_top-sm"/></g></g></svg>