<?xml-stylesheet href="https://s3.amazonaws.com/maker.works.boards/css/blackpcb.css" type="text/css"?><svg xmlns="http://www.w3.org/2000/svg" version="1.1" xmlns:xlink="http://www.w3.org/1999/xlink" stroke-width="0" stroke-linecap="round" stroke-linejoin="round" width="1.1811in" height="1.1811in" id="pcb_top" viewBox="7.5 7.5 1181.1 1181.1"><defs><circle cx="0" cy="0" r="25.5" id="tool-T10-pad-1000"/><g id="pcb_top-cu" fill="currentColor" stroke="currentColor"><path stroke-width="2" fill="none" d="M 783.9 32.4 L 783.9 32.4 M 783.9 32.4 L 784 32.4 M 784 32.4 L 785.1 32.3 M 785.1 32.3 L 786.2 32.4 M 786.2 32.4 L 786.2 32.4 M 786.2 32.4 L 794.9 32 M 794.9 32 L 831.1 33.8 M 831.1 33.8 L 866.9 39.1 M 866.9 39.1 L 902.1 47.9 M 902.1 47.9 L 936.2 60.1 M 936.2 60.1 L 969 75.6 M 969 75.6 L 1000 94.2 M 1000 94.2 L 1029.1 115.8 M 1029.1 115.8 L 1056 140.1 M 1056 140.1 L 1080.3 166.9 M 1080.3 166.9 L 1101.9 196.1 M 1101.9 196.1 L 1120.5 227.1 M 1120.5 227.1 L 1136 259.9 M 1136 259.9 L 1148.2 294 M 1148.2 294 L 1157 329.2 M 1157 329.2 L 1162.3 365 M 1162.3 365 L 1164.1 401.2 M 1164.1 401.2 L 1162.3 437.4 M 1162.3 437.4 L 1157 473.2 M 1157 473.2 L 1148.2 508.4 M 1148.2 508.4 L 1136 542.5 M 1136 542.5 L 1120.5 575.3 M 1120.5 575.3 L 1101.9 606.3 M 1101.9 606.3 L 1080.3 635.4 M 1080.3 635.4 L 1056 662.3 M 1056 662.3 L 1029.1 686.6 M 1029.1 686.6 L 1000 708.2 M 1000 708.2 L 969 726.8 M 969 726.8 L 936.2 742.3 M 936.2 742.3 L 902.1 754.5 M 902.1 754.5 L 866.9 763.3 M 866.9 763.3 L 831.1 768.6 M 831.1 768.6 L 810.6 769.7 M 810.6 769.7 L 807.9 766.7 M 807.9 766.7 L 808.1 765.5 M 808.1 765.5 L 808.1 765.3 M 808.1 765.3 L 806.6 754.4 M 806.6 754.4 L 806.6 754.3 M 806.6 754.3 L 802.4 744.1 M 802.4 744.1 L 802.3 744 M 802.3 744 L 795.6 735.2 M 795.6 735.2 L 795.5 735.1 M 795.5 735.1 L 786.8 728.4 M 786.8 728.4 L 786.7 728.4 M 786.7 728.4 L 776.5 724.2 M 776.5 724.2 L 776.4 724.1 M 776.4 724.1 L 765.5 722.7 M 765.5 722.7 L 765.3 722.7 M 765.3 722.7 L 754.4 724.1 M 754.4 724.1 L 754.3 724.2 M 754.3 724.2 L 744.1 728.4 M 744.1 728.4 L 744 728.4 M 744 728.4 L 735.2 735.1 M 735.2 735.1 L 735.1 735.2 M 735.1 735.2 L 728.4 744 M 728.4 744 L 728.4 744.1 M 728.4 744.1 L 724.2 754.3 M 724.2 754.3 L 724.1 754.4 M 724.1 754.4 L 722.7 765.3 M 722.7 765.3 L 722.7 765.5 M 722.7 765.5 L 724.1 776.4 M 724.1 776.4 L 724.2 776.5 M 724.2 776.5 L 728.4 786.7 M 728.4 786.7 L 728.4 786.8 M 728.4 786.8 L 735.1 795.5 M 735.1 795.5 L 735.2 795.6 M 735.2 795.6 L 744 802.3 M 744 802.3 L 744.1 802.4 M 744.1 802.4 L 754.3 806.6 M 754.3 806.6 L 754.4 806.6 M 754.4 806.6 L 765.3 808.1 M 765.3 808.1 L 765.5 808.1 M 765.5 808.1 L 766.7 807.9 M 766.7 807.9 L 769.7 810.6 M 769.7 810.6 L 768.6 831.1 M 768.6 831.1 L 763.3 866.9 M 763.3 866.9 L 754.5 902.1 M 754.5 902.1 L 742.3 936.2 M 742.3 936.2 L 726.8 969 M 726.8 969 L 708.2 1000 M 708.2 1000 L 686.6 1029.1 M 686.6 1029.1 L 662.3 1056 M 662.3 1056 L 635.4 1080.3 M 635.4 1080.3 L 606.3 1101.9 M 606.3 1101.9 L 575.3 1120.5 M 575.3 1120.5 L 542.5 1136 M 542.5 1136 L 508.4 1148.2 M 508.4 1148.2 L 473.2 1157 M 473.2 1157 L 437.4 1162.3 M 437.4 1162.3 L 401.2 1164.1 M 401.2 1164.1 L 365 1162.3 M 365 1162.3 L 329.2 1157 M 329.2 1157 L 294 1148.2 M 294 1148.2 L 259.9 1136 M 259.9 1136 L 227.1 1120.5 M 227.1 1120.5 L 196.1 1101.9 M 196.1 1101.9 L 166.9 1080.3 M 166.9 1080.3 L 140.1 1056 M 140.1 1056 L 115.8 1029.1 M 115.8 1029.1 L 94.2 1000 M 94.2 1000 L 75.6 969 M 75.6 969 L 60.1 936.2 M 60.1 936.2 L 47.9 902.1 M 47.9 902.1 L 39.1 866.9 M 39.1 866.9 L 33.8 831.1 M 33.8 831.1 L 32 794.9 M 32 794.9 L 32.4 786.2 M 32.4 786.2 L 32.4 786.2 M 32.4 786.2 L 32.3 785.1 M 32.3 785.1 L 32.4 784 M 32.4 784 L 32.4 783.9 M 32.4 783.9 L 31.9 774.6 M 31.9 774.6 L 31.9 126.2 M 31.9 126.2 L 32.4 116.4 M 32.4 116.4 L 33.8 107.3 M 33.8 107.3 L 36 98.4 M 36 98.4 L 39.1 89.8 M 39.1 89.8 L 43.1 81.5 M 43.1 81.5 L 47.8 73.6 M 47.8 73.6 L 53.2 66.2 M 53.2 66.2 L 59.4 59.4 M 59.4 59.4 L 66.2 53.2 M 66.2 53.2 L 73.6 47.8 M 73.6 47.8 L 81.5 43.1 M 81.5 43.1 L 89.8 39.1 M 89.8 39.1 L 98.4 36 M 98.4 36 L 107.3 33.8 M 107.3 33.8 L 116.4 32.4 M 116.4 32.4 L 126.2 31.9 M 126.2 31.9 L 774.6 31.9 M 774.6 31.9 L 783.9 32.4 M 113.2 32.9 L 813.6 32.9 M 103.1 34.9 L 838.4 34.9 M 96.2 36.8 L 851.6 36.8 M 90.8 38.8 L 864.7 38.8 M 86.4 40.7 L 873.4 40.7 M 82.3 42.7 L 881.2 42.7 M 78.9 44.6 L 889 44.6 M 75.6 46.6 L 896.8 46.6 M 72.6 48.5 L 903.8 48.5 M 70 50.5 L 909.3 50.5 M 67.3 52.4 L 914.7 52.4 M 65 54.4 L 920.2 54.4 M 62.8 56.3 L 925.6 56.3 M 60.7 58.2 L 931.1 58.2 M 58.7 60.2 L 936.4 60.2 M 56.9 62.1 L 940.6 62.1 M 55.1 64.1 L 944.7 64.1 M 53.4 66 L 948.8 66 M 51.9 68 L 952.9 68 M 50.5 69.9 L 957.1 69.9 M 49 71.9 L 961.2 71.9 M 47.6 73.8 L 965.3 73.8 M 46.4 75.8 L 969.3 75.8 M 45.3 77.7 L 972.6 77.7 M 44.1 79.7 L 975.8 79.7 M 42.9 81.6 L 979.1 81.6 M 42 83.6 L 982.3 83.6 M 41.1 85.5 L 985.6 85.5 M 40.2 87.5 L 988.8 87.5 M 39.3 89.4 L 992.1 89.4 M 38.5 91.4 L 995.3 91.4 M 37.8 93.4 L 998.6 93.4 M 37.1 95.3 L 1001.5 95.3 M 36.4 97.3 L 1004.2 97.3 M 35.8 99.2 L 1006.8 99.2 M 35.3 101.2 L 1009.4 101.2 M 34.8 103.1 L 1012 103.1 M 34.4 105.1 L 1014.7 105.1 M 33.9 107 L 1017.3 107 M 33.5 109 L 1019.9 109 M 33.2 110.9 L 1022.5 110.9 M 33 112.9 L 1025.2 112.9 M 32.7 114.8 L 1027.8 114.8 M 32.4 116.8 L 1030.2 116.8 M 32.3 118.7 L 1032.3 118.7 M 32.2 120.6 L 1034.5 120.6 M 32.1 122.6 L 1036.6 122.6 M 32 124.5 L 1038.8 124.5 M 31.9 126.5 L 1041 126.5 M 31.9 128.4 L 1043.1 128.4 M 31.9 130.4 L 1045.3 130.4 M 31.9 132.3 L 1047.4 132.3 M 31.9 134.3 L 1049.5 134.3 M 31.9 136.2 L 1051.7 136.2 M 31.9 138.2 L 1053.9 138.2 M 31.9 140.1 L 1056 140.1 M 31.9 142.1 L 1057.8 142.1 M 31.9 144 L 1059.5 144 M 31.9 146 L 1061.3 146 M 31.9 147.9 L 1063.1 147.9 M 31.9 149.9 L 1064.9 149.9 M 31.9 151.8 L 1066.6 151.8 M 31.9 153.8 L 1068.4 153.8 M 31.9 155.8 L 1070.1 155.8 M 31.9 157.7 L 1071.9 157.7 M 31.9 159.7 L 1073.7 159.7 M 31.9 161.6 L 1075.5 161.6 M 31.9 163.6 L 1077.2 163.6 M 31.9 165.5 L 1079 165.5 M 31.9 167.5 L 1080.7 167.5 M 31.9 169.4 L 1082.1 169.4 M 31.9 171.4 L 1083.6 171.4 M 31.9 173.3 L 1085 173.3 M 31.9 175.3 L 1086.4 175.3 M 31.9 177.2 L 1087.9 177.2 M 31.9 179.2 L 1089.4 179.2 M 31.9 181.1 L 1090.8 181.1 M 31.9 183.1 L 1092.2 183.1 M 31.9 185 L 1093.7 185 M 31.9 186.9 L 1095.1 186.9 M 31.9 188.9 L 1096.6 188.9 M 31.9 190.8 L 1098 190.8 M 31.9 192.8 L 1099.5 192.8 M 31.9 194.7 L 1100.9 194.7 M 31.9 196.7 L 1102.3 196.7 M 31.9 198.6 L 1103.4 198.6 M 31.9 200.6 L 1104.6 200.6 M 31.9 202.5 L 1105.8 202.5 M 31.9 204.5 L 1106.9 204.5 M 31.9 206.4 L 1108.1 206.4 M 31.9 208.4 L 1109.3 208.4 M 31.9 210.3 L 1110.5 210.3 M 31.9 212.3 L 1111.6 212.3 M 31.9 214.2 L 1112.8 214.2 M 31.9 216.2 L 1114 216.2 M 31.9 218.1 L 1115.1 218.1 M 31.9 220.1 L 1116.3 220.1 M 31.9 222.1 L 1117.5 222.1 M 31.9 224 L 1118.6 224 M 31.9 226 L 1119.8 226 M 31.9 227.9 L 1120.9 227.9 M 31.9 229.9 L 1121.8 229.9 M 31.9 231.8 L 1122.7 231.8 M 31.9 233.8 L 1123.6 233.8 M 31.9 235.7 L 1124.6 235.7 M 31.9 237.7 L 1125.5 237.7 M 31.9 239.6 L 1126.4 239.6 M 31.9 241.6 L 1127.3 241.6 M 31.9 243.5 L 1128.2 243.5 M 31.9 245.5 L 1129.2 245.5 M 31.9 247.4 L 1130.1 247.4 M 31.9 249.4 L 1131 249.4 M 31.9 251.3 L 1131.9 251.3 M 31.9 253.2 L 1132.9 253.2 M 31.9 255.2 L 1133.8 255.2 M 31.9 257.1 L 1134.7 257.1 M 31.9 259.1 L 1135.6 259.1 M 31.9 261 L 1136.4 261 M 31.9 263 L 1137.1 263 M 31.9 264.9 L 1137.8 264.9 M 31.9 266.9 L 1138.5 266.9 M 31.9 268.8 L 1139.2 268.8 M 31.9 270.8 L 1139.9 270.8 M 31.9 272.7 L 1140.6 272.7 M 31.9 274.7 L 1141.3 274.7 M 31.9 276.6 L 1142 276.6 M 31.9 278.6 L 1142.7 278.6 M 31.9 280.5 L 1143.4 280.5 M 31.9 282.5 L 1144.1 282.5 M 31.9 284.4 L 1144.8 284.4 M 31.9 286.4 L 1145.5 286.4 M 31.9 288.4 L 1146.2 288.4 M 31.9 290.3 L 1146.9 290.3 M 31.9 292.3 L 1147.6 292.3 M 31.9 294.2 L 1148.3 294.2 M 31.9 296.2 L 1148.8 296.2 M 31.9 298.1 L 1149.2 298.1 M 31.9 300.1 L 1149.7 300.1 M 31.9 302 L 1150.2 302 M 31.9 304 L 1150.7 304 M 31.9 305.9 L 1151.2 305.9 M 31.9 307.9 L 1151.7 307.9 M 31.9 309.8 L 1152.2 309.8 M 31.9 311.8 L 1152.7 311.8 M 31.9 313.7 L 1153.2 313.7 M 31.9 315.6 L 1153.6 315.6 M 31.9 317.6 L 1154.1 317.6 M 31.9 319.5 L 1154.6 319.5 M 31.9 321.5 L 1155.1 321.5 M 31.9 323.4 L 1155.6 323.4 M 31.9 325.4 L 1156.1 325.4 M 31.9 327.3 L 1156.6 327.3 M 31.9 329.3 L 1157 329.3 M 31.9 331.2 L 1157.3 331.2 M 31.9 333.2 L 1157.6 333.2 M 31.9 335.1 L 1157.9 335.1 M 31.9 337.1 L 1158.2 337.1 M 31.9 339 L 1158.5 339 M 31.9 341 L 1158.8 341 M 31.9 342.9 L 1159.1 342.9 M 31.9 344.9 L 1159.4 344.9 M 31.9 346.8 L 1159.7 346.8 M 31.9 348.8 L 1159.9 348.8 M 31.9 350.8 L 1160.2 350.8 M 31.9 352.7 L 1160.5 352.7 M 31.9 354.7 L 1160.8 354.7 M 31.9 356.6 L 1161.1 356.6 M 31.9 358.6 L 1161.4 358.6 M 31.9 360.5 L 1161.7 360.5 M 31.9 362.5 L 1161.9 362.5 M 31.9 364.4 L 1162.3 364.4 M 31.9 366.4 L 1162.4 366.4 M 31.9 368.3 L 1162.5 368.3 M 31.9 370.3 L 1162.6 370.3 M 31.9 372.2 L 1162.7 372.2 M 31.9 374.2 L 1162.8 374.2 M 31.9 376.1 L 1162.9 376.1 M 31.9 378.1 L 1163 378.1 M 31.9 380 L 1163.1 380 M 31.9 381.9 L 1163.2 381.9 M 31.9 383.9 L 1163.3 383.9 M 31.9 385.8 L 1163.4 385.8 M 31.9 387.8 L 1163.5 387.8 M 31.9 389.7 L 1163.6 389.7 M 31.9 391.7 L 1163.6 391.7 M 31.9 393.6 L 1163.8 393.6 M 31.9 395.6 L 1163.8 395.6 M 31.9 397.5 L 1164 397.5 M 31.9 399.5 L 1164 399.5 M 31.9 401.4 L 1164.1 401.4 M 31.9 403.4 L 1164 403.4 M 31.9 405.3 L 1163.9 405.3 M 31.9 407.3 L 1163.8 407.3 M 31.9 409.2 L 1163.7 409.2 M 31.9 411.2 L 1163.6 411.2 M 31.9 413.1 L 1163.5 413.1 M 31.9 415.1 L 1163.4 415.1 M 31.9 417.1 L 1163.3 417.1 M 31.9 419 L 1163.2 419 M 31.9 421 L 1163.2 421 M 31.9 422.9 L 1163.1 422.9 M 31.9 424.9 L 1163 424.9 M 31.9 426.8 L 1162.9 426.8 M 31.9 428.8 L 1162.8 428.8 M 31.9 430.7 L 1162.7 430.7 M 31.9 432.7 L 1162.6 432.7 M 31.9 434.6 L 1162.5 434.6 M 31.9 436.6 L 1162.4 436.6 M 31.9 438.5 L 1162.2 438.5 M 31.9 440.5 L 1161.9 440.5 M 31.9 442.4 L 1161.6 442.4 M 31.9 444.4 L 1161.3 444.4 M 31.9 446.3 L 1161 446.3 M 31.9 448.2 L 1160.7 448.2 M 31.9 450.2 L 1160.5 450.2 M 31.9 452.1 L 1160.1 452.1 M 31.9 454.1 L 1159.9 454.1 M 31.9 456 L 1159.6 456 M 31.9 458 L 1159.3 458 M 31.9 459.9 L 1159 459.9 M 31.9 461.9 L 1158.7 461.9 M 31.9 463.8 L 1158.4 463.8 M 31.9 465.8 L 1158.1 465.8 M 31.9 467.7 L 1157.9 467.7 M 31.9 469.7 L 1157.5 469.7 M 31.9 471.6 L 1157.3 471.6 M 31.9 473.6 L 1156.9 473.6 M 31.9 475.5 L 1156.4 475.5 M 31.9 477.5 L 1156 477.5 M 31.9 479.4 L 1155.5 479.4 M 31.9 481.4 L 1155 481.4 M 31.9 483.4 L 1154.5 483.4 M 31.9 485.3 L 1154 485.3 M 31.9 487.3 L 1153.5 487.3 M 31.9 489.2 L 1153 489.2 M 31.9 491.2 L 1152.5 491.2 M 31.9 493.1 L 1152.1 493.1 M 31.9 495.1 L 1151.6 495.1 M 31.9 497 L 1151.1 497 M 31.9 499 L 1150.6 499 M 31.9 500.9 L 1150.1 500.9 M 31.9 502.9 L 1149.6 502.9 M 31.9 504.8 L 1149.1 504.8 M 31.9 506.8 L 1148.6 506.8 M 31.9 508.7 L 1148.1 508.7 M 31.9 510.6 L 1147.4 510.6 M 31.9 512.6 L 1146.7 512.6 M 31.9 514.5 L 1146 514.5 M 31.9 516.5 L 1145.3 516.5 M 31.9 518.4 L 1144.6 518.4 M 31.9 520.4 L 1143.9 520.4 M 31.9 522.3 L 1143.2 522.3 M 31.9 524.3 L 1142.5 524.3 M 31.9 526.2 L 1141.8 526.2 M 31.9 528.2 L 1141.1 528.2 M 31.9 530.1 L 1140.5 530.1 M 31.9 532.1 L 1139.7 532.1 M 31.9 534 L 1139 534 M 31.9 536 L 1138.3 536 M 31.9 537.9 L 1137.7 537.9 M 31.9 539.9 L 1136.9 539.9 M 31.9 541.8 L 1136.2 541.8 M 31.9 543.8 L 1135.4 543.8 M 31.9 545.8 L 1134.5 545.8 M 31.9 547.7 L 1133.6 547.7 M 31.9 549.7 L 1132.6 549.7 M 31.9 551.6 L 1131.7 551.6 M 31.9 553.6 L 1130.8 553.6 M 31.9 555.5 L 1129.9 555.5 M 31.9 557.5 L 1129 557.5 M 31.9 559.4 L 1128 559.4 M 31.9 561.4 L 1127.1 561.4 M 31.9 563.3 L 1126.2 563.3 M 31.9 565.3 L 1125.3 565.3 M 31.9 567.2 L 1124.4 567.2 M 31.9 569.2 L 1123.4 569.2 M 31.9 571.1 L 1122.5 571.1 M 31.9 573.1 L 1121.6 573.1 M 31.9 575 L 1120.6 575 M 31.9 576.9 L 1119.5 576.9 M 31.9 578.9 L 1118.3 578.9 M 31.9 580.8 L 1117.2 580.8 M 31.9 582.8 L 1116 582.8 M 31.9 584.7 L 1114.8 584.7 M 31.9 586.7 L 1113.7 586.7 M 31.9 588.6 L 1112.5 588.6 M 31.9 590.6 L 1111.3 590.6 M 31.9 592.5 L 1110.2 592.5 M 31.9 594.5 L 1109 594.5 M 31.9 596.4 L 1107.8 596.4 M 31.9 598.4 L 1106.6 598.4 M 31.9 600.3 L 1105.5 600.3 M 31.9 602.3 L 1104.3 602.3 M 31.9 604.2 L 1103.1 604.2 M 31.9 606.2 L 1102 606.2 M 31.9 608.1 L 1100.5 608.1 M 31.9 610.1 L 1099.1 610.1 M 31.9 612.1 L 1097.7 612.1 M 31.9 614 L 1096.2 614 M 31.9 616 L 1094.8 616 M 31.9 617.9 L 1093.3 617.9 M 31.9 619.9 L 1091.9 619.9 M 31.9 621.8 L 1090.4 621.8 M 31.9 623.8 L 1089 623.8 M 31.9 625.7 L 1087.5 625.7 M 31.9 627.7 L 1086.1 627.7 M 31.9 629.6 L 1084.6 629.6 M 31.9 631.6 L 1083.2 631.6 M 31.9 633.5 L 1081.8 633.5 M 31.9 635.5 L 1080.3 635.5 M 31.9 637.4 L 1078.5 637.4 M 31.9 639.4 L 1076.8 639.4 M 31.9 641.3 L 1075 641.3 M 31.9 643.2 L 1073.2 643.2 M 31.9 645.2 L 1071.5 645.2 M 31.9 647.1 L 1069.7 647.1 M 31.9 649.1 L 1067.9 649.1 M 31.9 651 L 1066.2 651 M 31.9 653 L 1064.4 653 M 31.9 654.9 L 1062.6 654.9 M 31.9 656.9 L 1060.8 656.9 M 31.9 658.8 L 1059.1 658.8 M 31.9 660.8 L 1057.3 660.8 M 31.9 662.7 L 1055.5 662.7 M 31.9 664.7 L 1053.3 664.7 M 31.9 666.6 L 1051.2 666.6 M 31.9 668.6 L 1049 668.6 M 31.9 670.5 L 1046.9 670.5 M 31.9 672.5 L 1044.7 672.5 M 31.9 674.4 L 1042.5 674.4 M 31.9 676.4 L 1040.4 676.4 M 31.9 678.4 L 1038.2 678.4 M 31.9 680.3 L 1036.1 680.3 M 31.9 682.3 L 1034 682.3 M 31.9 684.2 L 1031.8 684.2 M 31.9 686.2 L 1029.7 686.2 M 31.9 688.1 L 1027.1 688.1 M 31.9 690.1 L 1024.5 690.1 M 31.9 692 L 1021.9 692 M 31.9 694 L 1019.2 694 M 31.9 695.9 L 1016.6 695.9 M 31.9 697.9 L 1014 697.9 M 31.9 699.8 L 1011.4 699.8 M 31.9 701.8 L 1008.7 701.8 M 31.9 703.7 L 1006.1 703.7 M 31.9 705.6 L 1003.5 705.6 M 31.9 707.6 L 1000.8 707.6 M 31.9 709.5 L 997.8 709.5 M 31.9 711.5 L 994.5 711.5 M 31.9 713.4 L 991.3 713.4 M 31.9 715.4 L 988 715.4 M 31.9 717.3 L 984.8 717.3 M 31.9 719.3 L 981.5 719.3 M 31.9 721.2 L 978.2 721.2 M 31.9 723.2 L 761.4 723.2 M 769.4 723.2 L 975 723.2 M 31.9 725.1 L 751.9 725.1 M 778.9 725.1 L 971.8 725.1 M 31.9 727.1 L 747.1 727.1 M 783.6 727.1 L 968.4 727.1 M 31.9 729 L 743.2 729 M 787.6 729 L 964.3 729 M 31.9 731 L 740.6 731 M 790.1 731 L 960.1 731 M 31.9 732.9 L 738.1 732.9 M 792.7 732.9 L 956 732.9 M 31.9 734.9 L 735.5 734.9 M 795.2 734.9 L 951.9 734.9 M 31.9 736.8 L 733.9 736.8 M 796.9 736.8 L 947.8 736.8 M 31.9 738.8 L 732.4 738.8 M 798.4 738.8 L 943.6 738.8 M 31.9 740.8 L 730.9 740.8 M 799.9 740.8 L 939.5 740.8 M 31.9 742.7 L 729.4 742.7 M 801.4 742.7 L 935.1 742.7 M 31.9 744.7 L 728.1 744.7 M 802.6 744.7 L 929.7 744.7 M 31.9 746.6 L 727.3 746.6 M 803.4 746.6 L 924.2 746.6 M 31.9 748.6 L 726.5 748.6 M 804.2 748.6 L 918.8 748.6 M 31.9 750.5 L 725.7 750.5 M 805 750.5 L 913.3 750.5 M 31.9 752.5 L 724.9 752.5 M 805.8 752.5 L 907.9 752.5 M 31.9 754.4 L 724.1 754.4 M 806.6 754.4 L 902.4 754.4 M 31.9 756.4 L 723.9 756.4 M 806.9 756.4 L 894.8 756.4 M 31.9 758.3 L 723.6 758.3 M 807.1 758.3 L 887 758.3 M 31.9 760.3 L 723.3 760.3 M 807.4 760.3 L 879.2 760.3 M 31.9 762.2 L 723.1 762.2 M 807.7 762.2 L 871.4 762.2 M 31.9 764.2 L 722.8 764.2 M 807.9 764.2 L 861.4 764.2 M 31.9 766.1 L 722.8 766.1 M 808 766.1 L 848.2 766.1 M 31.9 768.1 L 723 768.1 M 809.2 768.1 L 835.1 768.1 M 31.9 770 L 723.3 770 M 31.9 771.9 L 723.5 771.9 M 31.9 773.9 L 723.8 773.9 M 32 775.8 L 724 775.8 M 32.1 777.8 L 724.7 777.8 M 32.2 779.7 L 725.5 779.7 M 32.3 781.7 L 726.3 781.7 M 32.4 783.6 L 727.1 783.6 M 32.3 785.6 L 727.9 785.6 M 32.3 787.5 L 729 787.5 M 32.2 789.5 L 730.5 789.5 M 32.1 791.4 L 732 791.4 M 32.1 793.4 L 733.5 793.4 M 32 795.3 L 735 795.3 M 32.1 797.3 L 737.4 797.3 M 32.2 799.2 L 740 799.2 M 32.3 801.2 L 742.5 801.2 M 32.4 803.1 L 745.9 803.1 M 32.5 805.1 L 750.6 805.1 M 32.6 807.1 L 757.5 807.1 M 32.7 809 L 767.9 809 M 32.8 811 L 769.6 811 M 32.9 812.9 L 769.5 812.9 M 33 814.9 L 769.4 814.9 M 33.1 816.8 L 769.4 816.8 M 33.1 818.8 L 769.2 818.8 M 33.2 820.7 L 769.2 820.7 M 33.3 822.7 L 769.1 822.7 M 33.4 824.6 L 769 824.6 M 33.5 826.6 L 768.9 826.6 M 33.6 828.5 L 768.8 828.5 M 33.7 830.5 L 768.7 830.5 M 34 832.4 L 768.4 832.4 M 34.2 834.4 L 768.2 834.4 M 34.5 836.3 L 767.9 836.3 M 34.8 838.2 L 767.6 838.2 M 35.1 840.2 L 767.3 840.2 M 35.4 842.1 L 767 842.1 M 35.7 844.1 L 766.7 844.1 M 36 846 L 766.4 846 M 36.3 848 L 766.1 848 M 36.6 849.9 L 765.8 849.9 M 36.8 851.9 L 765.6 851.9 M 37.1 853.8 L 765.3 853.8 M 37.4 855.8 L 765 855.8 M 37.7 857.7 L 764.7 857.7 M 38 859.7 L 764.4 859.7 M 38.3 861.6 L 764.1 861.6 M 38.6 863.6 L 763.8 863.6 M 38.9 865.5 L 763.5 865.5 M 39.2 867.5 L 763.2 867.5 M 39.7 869.4 L 762.7 869.4 M 40.2 871.4 L 762.2 871.4 M 40.7 873.4 L 761.7 873.4 M 41.2 875.3 L 761.2 875.3 M 41.7 877.3 L 760.7 877.3 M 42.1 879.2 L 760.3 879.2 M 42.6 881.2 L 759.8 881.2 M 43.1 883.1 L 759.3 883.1 M 43.6 885.1 L 758.8 885.1 M 44.1 887 L 758.3 887 M 44.6 889 L 757.8 889 M 45.1 890.9 L 757.3 890.9 M 45.6 892.9 L 756.8 892.9 M 46 894.8 L 756.4 894.8 M 46.6 896.8 L 755.8 896.8 M 47 898.7 L 755.4 898.7 M 47.5 900.6 L 754.9 900.6 M 48.1 902.6 L 754.4 902.6 M 48.8 904.5 L 753.6 904.5 M 49.5 906.5 L 752.9 906.5 M 50.1 908.4 L 752.3 908.4 M 50.8 910.4 L 751.6 910.4 M 51.6 912.3 L 750.8 912.3 M 52.3 914.3 L 750.1 914.3 M 52.9 916.2 L 749.5 916.2 M 53.6 918.2 L 748.8 918.2 M 54.4 920.1 L 748.1 920.1 M 55 922.1 L 747.3 922.1 M 55.7 924 L 746.7 924 M 56.4 926 L 746 926 M 57.1 927.9 L 745.3 927.9 M 57.8 929.9 L 744.6 929.9 M 58.5 931.8 L 743.9 931.8 M 59.2 933.8 L 743.2 933.8 M 59.9 935.8 L 742.5 935.8 M 60.8 937.7 L 741.6 937.7 M 61.7 939.7 L 740.7 939.7 M 62.7 941.6 L 739.7 941.6 M 63.6 943.6 L 738.8 943.6 M 64.5 945.5 L 737.9 945.5 M 65.4 947.5 L 737 947.5 M 66.3 949.4 L 736.1 949.4 M 67.3 951.4 L 735.1 951.4 M 68.2 953.3 L 734.2 953.3 M 69.1 955.3 L 733.3 955.3 M 70 957.2 L 732.4 957.2 M 70.9 959.2 L 731.5 959.2 M 71.9 961.1 L 730.5 961.1 M 72.8 963.1 L 729.6 963.1 M 73.7 965 L 728.7 965 M 74.6 966.9 L 727.8 966.9 M 75.5 968.9 L 726.9 968.9 M 76.7 970.8 L 725.7 970.8 M 77.9 972.8 L 724.5 972.8 M 79 974.7 L 723.4 974.7 M 80.2 976.7 L 722.2 976.7 M 81.4 978.6 L 721 978.6 M 82.5 980.6 L 719.9 980.6 M 83.7 982.5 L 718.7 982.5 M 84.9 984.5 L 717.5 984.5 M 86 986.4 L 716.4 986.4 M 87.2 988.4 L 715.2 988.4 M 88.4 990.3 L 714 990.3 M 89.6 992.3 L 712.8 992.3 M 90.7 994.2 L 711.7 994.2 M 91.9 996.2 L 710.5 996.2 M 93.1 998.1 L 709.3 998.1 M 94.3 1000.1 L 708.1 1000.1 M 95.7 1002.1 L 706.7 1002.1 M 97.1 1004 L 705.3 1004 M 98.6 1006 L 703.8 1006 M 100 1007.9 L 702.4 1007.9 M 101.5 1009.9 L 700.9 1009.9 M 102.9 1011.8 L 699.5 1011.8 M 104.4 1013.8 L 698 1013.8 M 105.8 1015.7 L 696.6 1015.7 M 107.3 1017.7 L 695.1 1017.7 M 108.7 1019.6 L 693.7 1019.6 M 110.2 1021.6 L 692.2 1021.6 M 111.6 1023.5 L 690.8 1023.5 M 113.1 1025.5 L 689.4 1025.5 M 114.5 1027.4 L 687.9 1027.4 M 116 1029.4 L 686.4 1029.4 M 117.7 1031.3 L 684.7 1031.3 M 119.5 1033.2 L 682.9 1033.2 M 121.3 1035.2 L 681.1 1035.2 M 123.1 1037.1 L 679.4 1037.1 M 124.8 1039.1 L 677.6 1039.1 M 126.6 1041 L 675.8 1041 M 128.4 1043 L 674 1043 M 130.1 1044.9 L 672.3 1044.9 M 131.9 1046.9 L 670.5 1046.9 M 133.6 1048.8 L 668.8 1048.8 M 135.4 1050.8 L 667 1050.8 M 137.2 1052.7 L 665.2 1052.7 M 139 1054.7 L 663.4 1054.7 M 140.8 1056.6 L 661.6 1056.6 M 143 1058.6 L 659.4 1058.6 M 145.2 1060.5 L 657.2 1060.5 M 147.3 1062.5 L 655.1 1062.5 M 149.5 1064.4 L 652.9 1064.4 M 151.6 1066.4 L 650.8 1066.4 M 153.8 1068.4 L 648.6 1068.4 M 155.9 1070.3 L 646.5 1070.3 M 158.1 1072.3 L 644.4 1072.3 M 160.2 1074.2 L 642.2 1074.2 M 162.4 1076.2 L 640 1076.2 M 164.5 1078.1 L 637.9 1078.1 M 166.7 1080.1 L 635.7 1080.1 M 169.2 1082 L 633.2 1082 M 171.9 1084 L 630.5 1084 M 174.5 1085.9 L 627.9 1085.9 M 177.1 1087.9 L 625.3 1087.9 M 179.7 1089.8 L 622.7 1089.8 M 182.4 1091.8 L 620 1091.8 M 185 1093.7 L 617.4 1093.7 M 187.7 1095.6 L 614.7 1095.6 M 190.3 1097.6 L 612.1 1097.6 M 192.9 1099.5 L 609.5 1099.5 M 195.5 1101.5 L 606.9 1101.5 M 198.6 1103.4 L 603.8 1103.4 M 201.9 1105.4 L 600.5 1105.4 M 205.2 1107.3 L 597.2 1107.3 M 208.4 1109.3 L 594 1109.3 M 211.7 1111.2 L 590.7 1111.2 M 214.9 1113.2 L 587.5 1113.2 M 218.2 1115.1 L 584.2 1115.1 M 221.4 1117.1 L 581 1117.1 M 224.7 1119 L 577.7 1119 M 228.1 1121 L 574.3 1121 M 232.3 1122.9 L 570.1 1122.9 M 236.4 1124.9 L 566 1124.9 M 240.5 1126.8 L 561.9 1126.8 M 244.6 1128.8 L 557.8 1128.8 M 248.8 1130.8 L 553.6 1130.8 M 252.9 1132.7 L 549.5 1132.7 M 257 1134.7 L 545.4 1134.7 M 261.5 1136.6 L 540.9 1136.6 M 267 1138.6 L 535.4 1138.6 M 272.4 1140.5 L 530 1140.5 M 277.9 1142.5 L 524.5 1142.5 M 283.3 1144.4 L 519.1 1144.4 M 288.8 1146.4 L 513.6 1146.4 M 294.3 1148.3 L 508.1 1148.3 M 302.1 1150.3 L 500.3 1150.3 M 309.9 1152.2 L 492.5 1152.2 M 317.7 1154.2 L 484.7 1154.2 M 325.5 1156.1 L 476.9 1156.1 M 336 1158.1 L 466.4 1158.1 M 349.2 1160 L 453.2 1160 M 362.3 1161.9 L 440.1 1161.9 M 396.6 1163.9 L 405.8 1163.9"/></g><mask id="pcb_top_mech-mask" fill="#fff" stroke="#fff" fill-rule="evenodd"><path stroke-width="0" d="M 775.2 7.5 L 125.6 7.5 L 114 8.1 L 102.6 9.8 L 91.3 12.6 L 80.4 16.5 L 69.9 21.4 L 60 27.4 L 50.7 34.3 L 42.1 42.1 L 34.3 50.7 L 27.4 60 L 21.4 69.9 L 16.5 80.4 L 12.6 91.3 L 9.8 102.6 L 8.1 114 L 7.5 125.6 L 7.5 775.2 L 8 785.1 L 7.5 794.9 L 9.4 833.5 L 15.1 871.7 L 24.5 909.2 L 37.5 945.6 L 54 980.5 L 73.8 1013.6 L 96.9 1044.7 L 122.8 1073.3 L 151.4 1099.2 L 182.5 1122.3 L 215.6 1142.1 L 250.5 1158.6 L 286.9 1171.6 L 324.4 1181 L 362.6 1186.7 L 401.2 1188.6 L 439.8 1186.7 L 478 1181 L 515.5 1171.6 L 551.9 1158.6 L 586.8 1142.1 L 619.9 1122.3 L 651 1099.2 L 679.6 1073.3 L 705.5 1044.7 L 728.6 1013.6 L 748.4 980.5 L 764.9 945.6 L 777.9 909.2 L 787.3 871.7 L 793 833.5 L 794.9 794.9 L 833.5 793 L 871.7 787.3 L 909.2 777.9 L 945.6 764.9 L 980.5 748.4 L 1013.6 728.6 L 1044.7 705.5 L 1073.3 679.6 L 1099.2 651 L 1122.3 619.9 L 1142.1 586.8 L 1158.6 551.9 L 1171.6 515.5 L 1181 478 L 1186.7 439.8 L 1188.6 401.2 L 1186.7 362.6 L 1181 324.4 L 1171.6 286.9 L 1158.6 250.5 L 1142.1 215.6 L 1122.3 182.5 L 1099.2 151.4 L 1073.3 122.8 L 1044.7 96.9 L 1013.6 73.8 L 980.5 54 L 945.6 37.5 L 909.2 24.5 L 871.7 15.1 L 833.5 9.4 L 794.9 7.5 L 785.1 8 Z"/><g id="pcb_top-drl" fill="#000" stroke="#000"><use x="765.4" y="765.4" xlink:href="#tool-T10-pad-1000"/></g></mask></defs><g mask="url(#pcb_top_mech-mask)" transform="translate(0,1196.1) scale(1,-1)"><rect x="7.5" y="7.5" width="1181.1" height="1181.1" fill="currentColor" class="pcb_board-fr4"/><use class="pcb_board-cu" xlink:href="#pcb_top-cu"/><g><defs><g id="pcb_top-sm" fill="currentColor" stroke="currentColor"></g><mask id="pcb_top-sm_mask" color="#000"><rect x="7.5" y="7.5" width="1181.1" height="1181.1" fill="#fff"/><use xlink:href="#pcb_top-sm"/></mask><mask id="pcb_top-cu_finish-mask" color="#fff"><use xlink:href="#pcb_top-cu"/></mask></defs><g mask="url(#pcb_top-sm_mask)"><rect x="7.5" y="7.5" width="1181.1" height="1181.1" fill="currentColor" class="pcb_board-sm"/><g id="pcb_top-ss" class="pcb_board-ss" fill="currentColor" stroke="currentColor"></g></g><use class="pcb_board-cf" mask="url(#pcb_top-cu_finish-mask)" xlink:href="#pcb_top-sm"/></g></g></svg>