<?xml-stylesheet href="https://s3.amazonaws.com/maker.works.boards/css/blackpcb.css" type="text/css"?><svg xmlns="http://www.w3.org/2000/svg" version="1.1" xmlns:xlink="http://www.w3.org/1999/xlink" stroke-width="0" stroke-linecap="round" stroke-linejoin="round" width="1.1811in" height="1.1811in" id="pcb_top" viewBox="7.5 7.5 1181.1 1181.1"><defs><circle cx="0" cy="0" r="25.5" id="tool-T10-pad-1000"/><g id="pcb_top-cu" fill="currentColor" stroke="currentColor"><path stroke-width="2" fill="none" d="M 781.8 75.8 L 781.8 75.8 M 781.8 75.8 L 781.8 75.8 M 781.8 75.8 L 785.1 75.6 M 785.1 75.6 L 788.3 75.8 M 788.3 75.8 L 788.4 75.8 M 788.4 75.8 L 794.9 75.5 M 794.9 75.5 L 826.8 77 M 826.8 77 L 858.4 81.7 M 858.4 81.7 L 889.5 89.5 M 889.5 89.5 L 919.5 100.3 M 919.5 100.3 L 948.4 113.9 M 948.4 113.9 L 975.9 130.4 M 975.9 130.4 L 1001.6 149.4 M 1001.6 149.4 L 1025.3 170.9 M 1025.3 170.9 L 1046.7 194.5 M 1046.7 194.5 L 1065.7 220.2 M 1065.7 220.2 L 1082.2 247.7 M 1082.2 247.7 L 1095.8 276.6 M 1095.8 276.6 L 1106.6 306.6 M 1106.6 306.6 L 1114.4 337.7 M 1114.4 337.7 L 1119.1 369.3 M 1119.1 369.3 L 1120.6 401.2 M 1120.6 401.2 L 1119.1 433.1 M 1119.1 433.1 L 1114.4 464.7 M 1114.4 464.7 L 1106.6 495.8 M 1106.6 495.8 L 1095.8 525.8 M 1095.8 525.8 L 1082.2 554.7 M 1082.2 554.7 L 1065.7 582.2 M 1065.7 582.2 L 1046.7 607.9 M 1046.7 607.9 L 1025.3 631.6 M 1025.3 631.6 L 1001.6 653 M 1001.6 653 L 975.9 672 M 975.9 672 L 948.4 688.5 M 948.4 688.5 L 919.5 702.1 M 919.5 702.1 L 889.5 712.9 M 889.5 712.9 L 858.4 720.7 M 858.4 720.7 L 840.1 723.4 M 840.1 723.4 L 834.9 714.9 M 834.9 714.9 L 834.9 714.9 M 834.9 714.9 L 826.2 704.7 M 826.2 704.7 L 826.1 704.6 M 826.1 704.6 L 815.9 695.9 M 815.9 695.9 L 815.8 695.8 M 815.8 695.8 L 804.4 688.8 M 804.4 688.8 L 804.4 688.8 M 804.4 688.8 L 791.9 683.7 M 791.9 683.7 L 791.9 683.6 M 791.9 683.6 L 778.8 680.5 M 778.8 680.5 L 778.8 680.5 M 778.8 680.5 L 765.4 679.5 M 765.4 679.5 L 765.3 679.5 M 765.3 679.5 L 752 680.5 M 752 680.5 L 751.9 680.5 M 751.9 680.5 L 738.9 683.6 M 738.9 683.6 L 738.8 683.7 M 738.8 683.7 L 726.4 688.8 M 726.4 688.8 L 726.3 688.8 M 726.3 688.8 L 714.9 695.8 M 714.9 695.8 L 714.9 695.9 M 714.9 695.9 L 704.7 704.6 M 704.7 704.6 L 704.6 704.7 M 704.6 704.7 L 695.9 714.9 M 695.9 714.9 L 695.8 714.9 M 695.8 714.9 L 688.8 726.3 M 688.8 726.3 L 688.8 726.4 M 688.8 726.4 L 683.7 738.8 M 683.7 738.8 L 683.6 738.9 M 683.6 738.9 L 680.5 751.9 M 680.5 751.9 L 680.5 752 M 680.5 752 L 679.5 765.3 M 679.5 765.3 L 679.5 765.4 M 679.5 765.4 L 680.5 778.8 M 680.5 778.8 L 680.5 778.8 M 680.5 778.8 L 683.6 791.9 M 683.6 791.9 L 683.7 791.9 M 683.7 791.9 L 688.8 804.4 M 688.8 804.4 L 688.8 804.4 M 688.8 804.4 L 695.8 815.8 M 695.8 815.8 L 695.9 815.9 M 695.9 815.9 L 704.6 826.1 M 704.6 826.1 L 704.7 826.2 M 704.7 826.2 L 714.9 834.9 M 714.9 834.9 L 714.9 834.9 M 714.9 834.9 L 723.4 840.1 M 723.4 840.1 L 720.7 858.4 M 720.7 858.4 L 712.9 889.5 M 712.9 889.5 L 702.1 919.5 M 702.1 919.5 L 688.5 948.4 M 688.5 948.4 L 672 975.9 M 672 975.9 L 653 1001.6 M 653 1001.6 L 631.6 1025.3 M 631.6 1025.3 L 607.9 1046.7 M 607.9 1046.7 L 582.2 1065.7 M 582.2 1065.7 L 554.7 1082.2 M 554.7 1082.2 L 525.8 1095.8 M 525.8 1095.8 L 495.8 1106.6 M 495.8 1106.6 L 464.7 1114.4 M 464.7 1114.4 L 433.1 1119.1 M 433.1 1119.1 L 401.2 1120.6 M 401.2 1120.6 L 369.3 1119.1 M 369.3 1119.1 L 337.7 1114.4 M 337.7 1114.4 L 306.6 1106.6 M 306.6 1106.6 L 276.6 1095.8 M 276.6 1095.8 L 247.7 1082.2 M 247.7 1082.2 L 220.2 1065.7 M 220.2 1065.7 L 194.5 1046.7 M 194.5 1046.7 L 170.9 1025.3 M 170.9 1025.3 L 149.4 1001.6 M 149.4 1001.6 L 130.4 975.9 M 130.4 975.9 L 113.9 948.4 M 113.9 948.4 L 100.3 919.5 M 100.3 919.5 L 89.5 889.5 M 89.5 889.5 L 81.7 858.4 M 81.7 858.4 L 77 826.8 M 77 826.8 L 75.5 794.9 M 75.5 794.9 L 75.8 788.4 M 75.8 788.4 L 75.8 788.3 M 75.8 788.3 L 75.6 785.1 M 75.6 785.1 L 75.8 781.8 M 75.8 781.8 L 75.8 781.8 M 75.8 781.8 L 75.4 773.6 M 75.4 773.6 L 75.4 127.3 M 75.4 127.3 L 75.7 120.7 M 75.7 120.7 L 76.4 115.8 M 76.4 115.8 L 77.6 111 M 77.6 111 L 79.3 106.4 M 79.3 106.4 L 81.4 102 M 81.4 102 L 83.9 97.7 M 83.9 97.7 L 86.8 93.8 M 86.8 93.8 L 90.1 90.1 M 90.1 90.1 L 93.8 86.8 M 93.8 86.8 L 97.7 83.9 M 97.7 83.9 L 102 81.4 M 102 81.4 L 106.4 79.3 M 106.4 79.3 L 111 77.6 M 111 77.6 L 115.8 76.4 M 115.8 76.4 L 120.7 75.7 M 120.7 75.7 L 127.3 75.4 M 127.3 75.4 L 773.6 75.4 M 773.6 75.4 L 781.8 75.8 M 116.5 76.3 L 812.6 76.3 M 109.2 78.3 L 835.3 78.3 M 104.4 80.2 L 848.4 80.2 M 100.6 82.2 L 860.3 82.2 M 97.5 84.1 L 868.1 84.1 M 94.8 86.1 L 875.8 86.1 M 92.5 88 L 883.6 88 M 90.3 90 L 890.8 90 M 88.5 91.9 L 896.3 91.9 M 86.8 93.9 L 901.8 93.9 M 85.3 95.8 L 907.2 95.8 M 83.9 97.8 L 912.6 97.8 M 82.7 99.7 L 918.1 99.7 M 81.6 101.7 L 922.6 101.7 M 80.6 103.6 L 926.7 103.6 M 79.7 105.6 L 930.8 105.6 M 78.9 107.5 L 934.9 107.5 M 78.2 109.5 L 939.1 109.5 M 77.5 111.4 L 943.2 111.4 M 77 113.4 L 947.3 113.4 M 76.6 115.3 L 950.8 115.3 M 76.2 117.3 L 954 117.3 M 75.9 119.2 L 957.3 119.2 M 75.7 121.2 L 960.6 121.2 M 75.6 123.1 L 963.8 123.1 M 75.5 125.1 L 967.1 125.1 M 75.4 127 L 970.3 127 M 75.4 129 L 973.6 129 M 75.4 130.9 L 976.6 130.9 M 75.4 132.9 L 979.3 132.9 M 75.4 134.8 L 981.9 134.8 M 75.4 136.8 L 984.5 136.8 M 75.4 138.7 L 987.1 138.7 M 75.4 140.7 L 989.8 140.7 M 75.4 142.6 L 992.4 142.6 M 75.4 144.6 L 995.1 144.6 M 75.4 146.5 L 997.7 146.5 M 75.4 148.5 L 1000.3 148.5 M 75.4 150.4 L 1002.7 150.4 M 75.4 152.4 L 1004.8 152.4 M 75.4 154.3 L 1007 154.3 M 75.4 156.3 L 1009.2 156.3 M 75.4 158.2 L 1011.3 158.2 M 75.4 160.2 L 1013.4 160.2 M 75.4 162.1 L 1015.6 162.1 M 75.4 164.1 L 1017.7 164.1 M 75.4 166 L 1019.9 166 M 75.4 168 L 1022.1 168 M 75.4 169.9 L 1024.2 169.9 M 75.4 171.9 L 1026.2 171.9 M 75.4 173.8 L 1027.9 173.8 M 75.4 175.8 L 1029.7 175.8 M 75.4 177.7 L 1031.4 177.7 M 75.4 179.7 L 1033.2 179.7 M 75.4 181.6 L 1035 181.6 M 75.4 183.6 L 1036.8 183.6 M 75.4 185.5 L 1038.5 185.5 M 75.4 187.5 L 1040.3 187.5 M 75.4 189.4 L 1042.1 189.4 M 75.4 191.4 L 1043.8 191.4 M 75.4 193.3 L 1045.6 193.3 M 75.4 195.3 L 1047.2 195.3 M 75.4 197.2 L 1048.7 197.2 M 75.4 199.2 L 1050.1 199.2 M 75.4 201.1 L 1051.6 201.1 M 75.4 203.1 L 1053 203.1 M 75.4 205 L 1054.5 205 M 75.4 207 L 1055.9 207 M 75.4 208.9 L 1057.4 208.9 M 75.4 210.9 L 1058.8 210.9 M 75.4 212.8 L 1060.3 212.8 M 75.4 214.8 L 1061.7 214.8 M 75.4 216.7 L 1063.1 216.7 M 75.4 218.7 L 1064.6 218.7 M 75.4 220.6 L 1066 220.6 M 75.4 222.6 L 1067.1 222.6 M 75.4 224.5 L 1068.3 224.5 M 75.4 226.5 L 1069.5 226.5 M 75.4 228.4 L 1070.6 228.4 M 75.4 230.4 L 1071.8 230.4 M 75.4 232.3 L 1073 232.3 M 75.4 234.3 L 1074.2 234.3 M 75.4 236.2 L 1075.3 236.2 M 75.4 238.2 L 1076.5 238.2 M 75.4 240.1 L 1077.7 240.1 M 75.4 242.1 L 1078.8 242.1 M 75.4 244 L 1080 244 M 75.4 246 L 1081.2 246 M 75.4 247.9 L 1082.3 247.9 M 75.4 249.9 L 1083.2 249.9 M 75.4 251.8 L 1084.2 251.8 M 75.4 253.8 L 1085.1 253.8 M 75.4 255.7 L 1086 255.7 M 75.4 257.7 L 1086.9 257.7 M 75.4 259.6 L 1087.9 259.6 M 75.4 261.6 L 1088.8 261.6 M 75.4 263.5 L 1089.7 263.5 M 75.4 265.5 L 1090.6 265.5 M 75.4 267.4 L 1091.5 267.4 M 75.4 269.4 L 1092.5 269.4 M 75.4 271.3 L 1093.4 271.3 M 75.4 273.3 L 1094.3 273.3 M 75.4 275.2 L 1095.2 275.2 M 75.4 277.2 L 1096.1 277.2 M 75.4 279.1 L 1096.8 279.1 M 75.4 281.1 L 1097.5 281.1 M 75.4 283 L 1098.2 283 M 75.4 285 L 1098.9 285 M 75.4 286.9 L 1099.5 286.9 M 75.4 288.9 L 1100.3 288.9 M 75.4 290.8 L 1101 290.8 M 75.4 292.8 L 1101.7 292.8 M 75.4 294.7 L 1102.3 294.7 M 75.4 296.7 L 1103.1 296.7 M 75.4 298.6 L 1103.8 298.6 M 75.4 300.6 L 1104.4 300.6 M 75.4 302.5 L 1105.1 302.5 M 75.4 304.5 L 1105.8 304.5 M 75.4 306.4 L 1106.6 306.4 M 75.4 308.4 L 1107.1 308.4 M 75.4 310.3 L 1107.5 310.3 M 75.4 312.3 L 1108 312.3 M 75.4 314.2 L 1108.5 314.2 M 75.4 316.2 L 1109 316.2 M 75.4 318.1 L 1109.5 318.1 M 75.4 320.1 L 1110 320.1 M 75.4 322 L 1110.5 322 M 75.4 324 L 1111 324 M 75.4 325.9 L 1111.4 325.9 M 75.4 327.9 L 1111.9 327.9 M 75.4 329.8 L 1112.4 329.8 M 75.4 331.8 L 1112.9 331.8 M 75.4 333.7 L 1113.4 333.7 M 75.4 335.7 L 1113.9 335.7 M 75.4 337.6 L 1114.4 337.6 M 75.4 339.6 L 1114.7 339.6 M 75.4 341.5 L 1114.9 341.5 M 75.4 343.5 L 1115.3 343.5 M 75.4 345.4 L 1115.5 345.4 M 75.4 347.4 L 1115.8 347.4 M 75.4 349.3 L 1116.1 349.3 M 75.4 351.3 L 1116.4 351.3 M 75.4 353.2 L 1116.7 353.2 M 75.4 355.2 L 1117 355.2 M 75.4 357.1 L 1117.3 357.1 M 75.4 359.1 L 1117.6 359.1 M 75.4 361 L 1117.9 361 M 75.4 363 L 1118.1 363 M 75.4 364.9 L 1118.4 364.9 M 75.4 366.9 L 1118.7 366.9 M 75.4 368.8 L 1119 368.8 M 75.4 370.8 L 1119.2 370.8 M 75.4 372.7 L 1119.2 372.7 M 75.4 374.7 L 1119.4 374.7 M 75.4 376.6 L 1119.4 376.6 M 75.4 378.6 L 1119.5 378.6 M 75.4 380.5 L 1119.6 380.5 M 75.4 382.5 L 1119.7 382.5 M 75.4 384.4 L 1119.8 384.4 M 75.4 386.4 L 1119.9 386.4 M 75.4 388.3 L 1120 388.3 M 75.4 390.3 L 1120.1 390.3 M 75.4 392.2 L 1120.2 392.2 M 75.4 394.2 L 1120.3 394.2 M 75.4 396.1 L 1120.4 396.1 M 75.4 398.1 L 1120.5 398.1 M 75.4 400 L 1120.6 400 M 75.4 402 L 1120.6 402 M 75.4 403.9 L 1120.5 403.9 M 75.4 405.9 L 1120.4 405.9 M 75.4 407.8 L 1120.3 407.8 M 75.4 409.8 L 1120.2 409.8 M 75.4 411.7 L 1120.1 411.7 M 75.4 413.7 L 1120 413.7 M 75.4 415.6 L 1119.9 415.6 M 75.4 417.6 L 1119.8 417.6 M 75.4 419.5 L 1119.7 419.5 M 75.4 421.5 L 1119.7 421.5 M 75.4 423.4 L 1119.5 423.4 M 75.4 425.4 L 1119.5 425.4 M 75.4 427.3 L 1119.4 427.3 M 75.4 429.3 L 1119.3 429.3 M 75.4 431.2 L 1119.2 431.2 M 75.4 433.2 L 1119.1 433.2 M 75.4 435.1 L 1118.8 435.1 M 75.4 437.1 L 1118.5 437.1 M 75.4 439 L 1118.2 439 M 75.4 441 L 1117.9 441 M 75.4 442.9 L 1117.6 442.9 M 75.4 444.9 L 1117.3 444.9 M 75.4 446.8 L 1117 446.8 M 75.4 448.8 L 1116.8 448.8 M 75.4 450.7 L 1116.5 450.7 M 75.4 452.7 L 1116.2 452.7 M 75.4 454.6 L 1115.9 454.6 M 75.4 456.6 L 1115.6 456.6 M 75.4 458.5 L 1115.3 458.5 M 75.4 460.5 L 1115 460.5 M 75.4 462.4 L 1114.7 462.4 M 75.4 464.4 L 1114.4 464.4 M 75.4 466.3 L 1114 466.3 M 75.4 468.3 L 1113.5 468.3 M 75.4 470.2 L 1113 470.2 M 75.4 472.2 L 1112.5 472.2 M 75.4 474.1 L 1112 474.1 M 75.4 476.1 L 1111.6 476.1 M 75.4 478 L 1111 478 M 75.4 480 L 1110.6 480 M 75.4 481.9 L 1110.1 481.9 M 75.4 483.9 L 1109.6 483.9 M 75.4 485.8 L 1109.1 485.8 M 75.4 487.8 L 1108.6 487.8 M 75.4 489.7 L 1108.1 489.7 M 75.4 491.7 L 1107.7 491.7 M 75.4 493.6 L 1107.1 493.6 M 75.4 495.6 L 1106.7 495.6 M 75.4 497.5 L 1106 497.5 M 75.4 499.5 L 1105.3 499.5 M 75.4 501.4 L 1104.6 501.4 M 75.4 503.4 L 1103.9 503.4 M 75.4 505.3 L 1103.2 505.3 M 75.4 507.3 L 1102.5 507.3 M 75.4 509.2 L 1101.8 509.2 M 75.4 511.2 L 1101.1 511.2 M 75.4 513.1 L 1100.4 513.1 M 75.4 515.1 L 1099.7 515.1 M 75.4 517 L 1099 517 M 75.4 519 L 1098.3 519 M 75.4 520.9 L 1097.6 520.9 M 75.4 522.9 L 1096.9 522.9 M 75.4 524.8 L 1096.2 524.8 M 75.4 526.8 L 1095.4 526.8 M 75.4 528.7 L 1094.5 528.7 M 75.4 530.7 L 1093.6 530.7 M 75.4 532.6 L 1092.7 532.6 M 75.4 534.6 L 1091.7 534.6 M 75.4 536.5 L 1090.8 536.5 M 75.4 538.5 L 1089.9 538.5 M 75.4 540.4 L 1089 540.4 M 75.4 542.4 L 1088.1 542.4 M 75.4 544.3 L 1087.1 544.3 M 75.4 546.3 L 1086.2 546.3 M 75.4 548.2 L 1085.3 548.2 M 75.4 550.2 L 1084.4 550.2 M 75.4 552.1 L 1083.4 552.1 M 75.4 554.1 L 1082.5 554.1 M 75.4 556 L 1081.4 556 M 75.4 558 L 1080.3 558 M 75.4 559.9 L 1079.1 559.9 M 75.4 561.9 L 1077.9 561.9 M 75.4 563.8 L 1076.8 563.8 M 75.4 565.8 L 1075.6 565.8 M 75.4 567.7 L 1074.4 567.7 M 75.4 569.7 L 1073.2 569.7 M 75.4 571.6 L 1072.1 571.6 M 75.4 573.6 L 1070.9 573.6 M 75.4 575.5 L 1069.7 575.5 M 75.4 577.5 L 1068.6 577.5 M 75.4 579.4 L 1067.4 579.4 M 75.4 581.4 L 1066.2 581.4 M 75.4 583.3 L 1064.9 583.3 M 75.4 585.3 L 1063.4 585.3 M 75.4 587.2 L 1062 587.2 M 75.4 589.2 L 1060.6 589.2 M 75.4 591.1 L 1059.1 591.1 M 75.4 593.1 L 1057.7 593.1 M 75.4 595 L 1056.2 595 M 75.4 597 L 1054.8 597 M 75.4 598.9 L 1053.3 598.9 M 75.4 600.9 L 1051.9 600.9 M 75.4 602.8 L 1050.4 602.8 M 75.4 604.8 L 1049 604.8 M 75.4 606.7 L 1047.5 606.7 M 75.4 608.7 L 1046 608.7 M 75.4 610.6 L 1044.2 610.6 M 75.4 612.6 L 1042.4 612.6 M 75.4 614.5 L 1040.6 614.5 M 75.4 616.5 L 1038.9 616.5 M 75.4 618.4 L 1037.1 618.4 M 75.4 620.4 L 1035.3 620.4 M 75.4 622.3 L 1033.6 622.3 M 75.4 624.3 L 1031.8 624.3 M 75.4 626.2 L 1030.1 626.2 M 75.4 628.2 L 1028.3 628.2 M 75.4 630.1 L 1026.5 630.1 M 75.4 632.1 L 1024.6 632.1 M 75.4 634 L 1022.5 634 M 75.4 636 L 1020.3 636 M 75.4 637.9 L 1018.2 637.9 M 75.4 639.9 L 1016 639.9 M 75.4 641.8 L 1013.9 641.8 M 75.4 643.8 L 1011.7 643.8 M 75.4 645.7 L 1009.6 645.7 M 75.4 647.7 L 1007.4 647.7 M 75.4 649.6 L 1005.3 649.6 M 75.4 651.6 L 1003.1 651.6 M 75.4 653.5 L 1000.8 653.5 M 75.4 655.5 L 998.2 655.5 M 75.4 657.4 L 995.6 657.4 M 75.4 659.4 L 993 659.4 M 75.4 661.3 L 990.3 661.3 M 75.4 663.3 L 987.7 663.3 M 75.4 665.2 L 985.1 665.2 M 75.4 667.2 L 982.4 667.2 M 75.4 669.1 L 979.8 669.1 M 75.4 671.1 L 977.2 671.1 M 75.4 673 L 974.2 673 M 75.4 675 L 971 675 M 75.4 676.9 L 967.7 676.9 M 75.4 678.9 L 964.5 678.9 M 75.4 680.8 L 750.6 680.8 M 780.1 680.8 L 961.2 680.8 M 75.4 682.8 L 742.5 682.8 M 788.2 682.8 L 958 682.8 M 75.4 684.7 L 736.3 684.7 M 794.5 684.7 L 954.7 684.7 M 75.4 686.7 L 731.6 686.7 M 799.2 686.7 L 951.5 686.7 M 75.4 688.6 L 726.9 688.6 M 803.9 688.6 L 948.1 688.6 M 75.4 690.6 L 723.5 690.6 M 807.2 690.6 L 944 690.6 M 75.4 692.5 L 720.3 692.5 M 810.4 692.5 L 939.9 692.5 M 75.4 694.5 L 717.1 694.5 M 813.6 694.5 L 935.8 694.5 M 75.4 696.4 L 714.2 696.4 M 816.5 696.4 L 931.6 696.4 M 75.4 698.4 L 711.9 698.4 M 818.8 698.4 L 927.5 698.4 M 75.4 700.3 L 709.7 700.3 M 821.1 700.3 L 923.4 700.3 M 75.4 702.3 L 707.4 702.3 M 823.4 702.3 L 919.2 702.3 M 75.4 704.2 L 705.1 704.2 M 825.6 704.2 L 913.8 704.2 M 75.4 706.2 L 703.3 706.2 M 827.5 706.2 L 908.3 706.2 M 75.4 708.1 L 701.6 708.1 M 829.1 708.1 L 902.9 708.1 M 75.4 710.1 L 700 710.1 M 830.8 710.1 L 897.4 710.1 M 75.4 712 L 698.3 712 M 832.5 712 L 891.9 712 M 75.4 714 L 696.6 714 M 834.1 714 L 885.2 714 M 75.4 715.9 L 695.2 715.9 M 835.5 715.9 L 877.4 715.9 M 75.4 717.9 L 694 717.9 M 836.7 717.9 L 869.7 717.9 M 75.4 719.8 L 692.9 719.8 M 837.9 719.8 L 861.9 719.8 M 75.4 721.8 L 691.6 721.8 M 839.1 721.8 L 851.1 721.8 M 75.4 723.7 L 690.5 723.7 M 75.4 725.7 L 689.3 725.7 M 75.4 727.6 L 688.3 727.6 M 75.4 729.6 L 687.5 729.6 M 75.4 731.5 L 686.7 731.5 M 75.4 733.5 L 685.9 733.5 M 75.4 735.4 L 685.1 735.4 M 75.4 737.4 L 684.3 737.4 M 75.4 739.3 L 683.6 739.3 M 75.4 741.3 L 683.1 741.3 M 75.4 743.2 L 682.6 743.2 M 75.4 745.2 L 682.1 745.2 M 75.4 747.1 L 681.7 747.1 M 75.4 749.1 L 681.2 749.1 M 75.4 751 L 680.7 751 M 75.4 753 L 680.5 753 M 75.4 754.9 L 680.3 754.9 M 75.4 756.9 L 680.1 756.9 M 75.4 758.8 L 680 758.8 M 75.4 760.8 L 679.8 760.8 M 75.4 762.7 L 679.7 762.7 M 75.4 764.7 L 679.5 764.7 M 75.4 766.6 L 679.5 766.6 M 75.4 768.6 L 679.7 768.6 M 75.4 770.5 L 679.9 770.5 M 75.4 772.5 L 680 772.5 M 75.4 774.4 L 680.2 774.4 M 75.5 776.4 L 680.3 776.4 M 75.6 778.3 L 680.5 778.3 M 75.7 780.3 L 680.9 780.3 M 75.8 782.2 L 681.4 782.2 M 75.6 784.2 L 681.8 784.2 M 75.7 786.1 L 682.3 786.1 M 75.8 788.1 L 682.7 788.1 M 75.7 790 L 683.2 790 M 75.6 792 L 683.7 792 M 75.5 793.9 L 684.5 793.9 M 75.5 795.9 L 685.3 795.9 M 75.6 797.8 L 686.1 797.8 M 75.7 799.8 L 686.9 799.8 M 75.8 801.7 L 687.7 801.7 M 75.9 803.7 L 688.5 803.7 M 76 805.6 L 689.6 805.6 M 76.1 807.6 L 690.8 807.6 M 76.2 809.5 L 692 809.5 M 76.3 811.5 L 693.2 811.5 M 76.4 813.4 L 694.4 813.4 M 76.5 815.4 L 695.6 815.4 M 76.6 817.3 L 697.1 817.3 M 76.7 819.3 L 698.8 819.3 M 76.8 821.2 L 700.5 821.2 M 76.8 823.2 L 702.1 823.2 M 76.9 825.1 L 703.8 825.1 M 77.1 827.1 L 705.7 827.1 M 77.3 829 L 708 829 M 77.7 831 L 710.3 831 M 77.9 832.9 L 712.6 832.9 M 78.2 834.9 L 714.9 834.9 M 78.5 836.8 L 718.1 836.8 M 78.8 838.8 L 721.2 838.8 M 79.1 840.7 L 723.3 840.7 M 79.4 842.7 L 723 842.7 M 79.7 844.6 L 722.7 844.6 M 79.9 846.6 L 722.5 846.6 M 80.3 848.5 L 722.1 848.5 M 80.5 850.5 L 721.9 850.5 M 80.8 852.4 L 721.6 852.4 M 81.1 854.4 L 721.3 854.4 M 81.4 856.3 L 721 856.3 M 81.7 858.3 L 720.7 858.3 M 82.1 860.2 L 720.3 860.2 M 82.7 862.2 L 719.7 862.2 M 83.1 864.1 L 719.3 864.1 M 83.6 866.1 L 718.8 866.1 M 84.1 868 L 718.3 868 M 84.6 870 L 717.8 870 M 85.1 871.9 L 717.3 871.9 M 85.6 873.9 L 716.8 873.9 M 86.1 875.8 L 716.3 875.8 M 86.6 877.8 L 715.8 877.8 M 87.1 879.7 L 715.3 879.7 M 87.5 881.7 L 714.9 881.7 M 88 883.6 L 714.4 883.6 M 88.5 885.6 L 713.9 885.6 M 89 887.5 L 713.4 887.5 M 89.5 889.5 L 712.9 889.5 M 90.2 891.4 L 712.2 891.4 M 90.9 893.4 L 711.5 893.4 M 91.6 895.3 L 710.8 895.3 M 92.3 897.3 L 710.1 897.3 M 93 899.2 L 709.4 899.2 M 93.7 901.2 L 708.7 901.2 M 94.4 903.1 L 708 903.1 M 95.1 905.1 L 707.3 905.1 M 95.8 907 L 706.6 907 M 96.5 909 L 705.9 909 M 97.2 910.9 L 705.2 910.9 M 97.9 912.9 L 704.5 912.9 M 98.6 914.8 L 703.8 914.8 M 99.3 916.8 L 703.1 916.8 M 99.9 918.7 L 702.5 918.7 M 100.8 920.7 L 701.6 920.7 M 101.7 922.6 L 700.7 922.6 M 102.6 924.6 L 699.8 924.6 M 103.6 926.5 L 698.8 926.5 M 104.5 928.5 L 697.9 928.5 M 105.4 930.4 L 697 930.4 M 106.3 932.4 L 696.1 932.4 M 107.2 934.3 L 695.2 934.3 M 108.2 936.3 L 694.2 936.3 M 109.1 938.2 L 693.3 938.2 M 110 940.2 L 692.4 940.2 M 110.9 942.1 L 691.5 942.1 M 111.9 944.1 L 690.5 944.1 M 112.8 946 L 689.6 946 M 113.7 948 L 688.7 948 M 114.8 949.9 L 687.6 949.9 M 116 951.9 L 686.4 951.9 M 117.1 953.8 L 685.3 953.8 M 118.3 955.8 L 684.1 955.8 M 119.5 957.7 L 682.9 957.7 M 120.6 959.7 L 681.8 959.7 M 121.8 961.6 L 680.6 961.6 M 123 963.6 L 679.4 963.6 M 124.2 965.5 L 678.2 965.5 M 125.3 967.5 L 677.1 967.5 M 126.5 969.4 L 675.9 969.4 M 127.7 971.4 L 674.7 971.4 M 128.8 973.3 L 673.6 973.3 M 130 975.3 L 672.4 975.3 M 131.4 977.2 L 671 977.2 M 132.8 979.2 L 669.6 979.2 M 134.3 981.1 L 668.1 981.1 M 135.7 983.1 L 666.7 983.1 M 137.1 985 L 665.3 985 M 138.6 987 L 663.8 987 M 140 988.9 L 662.4 988.9 M 141.5 990.9 L 660.9 990.9 M 142.9 992.8 L 659.5 992.8 M 144.4 994.8 L 658 994.8 M 145.8 996.7 L 656.6 996.7 M 147.3 998.7 L 655.1 998.7 M 148.7 1000.6 L 653.7 1000.6 M 150.3 1002.6 L 652.1 1002.6 M 152.1 1004.5 L 650.3 1004.5 M 153.9 1006.5 L 648.5 1006.5 M 155.6 1008.4 L 646.8 1008.4 M 157.4 1010.4 L 645 1010.4 M 159.2 1012.3 L 643.2 1012.3 M 160.9 1014.3 L 641.5 1014.3 M 162.7 1016.2 L 639.7 1016.2 M 164.5 1018.2 L 637.9 1018.2 M 166.2 1020.1 L 636.2 1020.1 M 168 1022.1 L 634.4 1022.1 M 169.8 1024 L 632.6 1024 M 171.7 1026 L 630.7 1026 M 173.8 1027.9 L 628.6 1027.9 M 176 1029.9 L 626.4 1029.9 M 178.1 1031.8 L 624.3 1031.8 M 180.3 1033.8 L 622.1 1033.8 M 182.5 1035.7 L 619.9 1035.7 M 184.6 1037.7 L 617.8 1037.7 M 186.8 1039.6 L 615.6 1039.6 M 188.9 1041.6 L 613.5 1041.6 M 191 1043.5 L 611.4 1043.5 M 193.2 1045.5 L 609.2 1045.5 M 195.5 1047.4 L 606.9 1047.4 M 198.2 1049.4 L 604.2 1049.4 M 200.8 1051.3 L 601.6 1051.3 M 203.4 1053.3 L 599 1053.3 M 206 1055.2 L 596.4 1055.2 M 208.7 1057.2 L 593.7 1057.2 M 211.3 1059.1 L 591.1 1059.1 M 213.9 1061.1 L 588.5 1061.1 M 216.6 1063 L 585.8 1063 M 219.2 1065 L 583.2 1065 M 222.2 1066.9 L 580.2 1066.9 M 225.5 1068.9 L 576.9 1068.9 M 228.7 1070.8 L 573.7 1070.8 M 231.9 1072.8 L 570.5 1072.8 M 235.2 1074.7 L 567.2 1074.7 M 238.5 1076.7 L 563.9 1076.7 M 241.7 1078.6 L 560.7 1078.6 M 245 1080.6 L 557.4 1080.6 M 248.4 1082.5 L 554 1082.5 M 252.5 1084.5 L 549.9 1084.5 M 256.6 1086.4 L 545.8 1086.4 M 260.8 1088.4 L 541.6 1088.4 M 264.9 1090.3 L 537.5 1090.3 M 269 1092.3 L 533.4 1092.3 M 273.1 1094.2 L 529.3 1094.2 M 277.5 1096.2 L 524.9 1096.2 M 282.9 1098.1 L 519.5 1098.1 M 288.4 1100.1 L 514 1100.1 M 293.8 1102 L 508.6 1102 M 299.3 1104 L 503.1 1104 M 304.7 1105.9 L 497.7 1105.9 M 311.7 1107.9 L 490.7 1107.9 M 319.5 1109.8 L 482.9 1109.8 M 327.3 1111.8 L 475.1 1111.8 M 335 1113.7 L 467.4 1113.7 M 346.4 1115.7 L 456 1115.7 M 359.5 1117.6 L 442.9 1117.6 M 379.5 1119.6 L 422.9 1119.6"/></g><mask id="pcb_top_mech-mask" fill="#fff" stroke="#fff" fill-rule="evenodd"><path stroke-width="0" d="M 775.2 7.5 L 125.6 7.5 L 114 8.1 L 102.6 9.8 L 91.3 12.6 L 80.4 16.5 L 69.9 21.4 L 60 27.4 L 50.7 34.3 L 42.1 42.1 L 34.3 50.7 L 27.4 60 L 21.4 69.9 L 16.5 80.4 L 12.6 91.3 L 9.8 102.6 L 8.1 114 L 7.5 125.6 L 7.5 775.2 L 8 785.1 L 7.5 794.9 L 9.4 833.5 L 15.1 871.7 L 24.5 909.2 L 37.5 945.6 L 54 980.5 L 73.8 1013.6 L 96.9 1044.7 L 122.8 1073.3 L 151.4 1099.2 L 182.5 1122.3 L 215.6 1142.1 L 250.5 1158.6 L 286.9 1171.6 L 324.4 1181 L 362.6 1186.7 L 401.2 1188.6 L 439.8 1186.7 L 478 1181 L 515.5 1171.6 L 551.9 1158.6 L 586.8 1142.1 L 619.9 1122.3 L 651 1099.2 L 679.6 1073.3 L 705.5 1044.7 L 728.6 1013.6 L 748.4 980.5 L 764.9 945.6 L 777.9 909.2 L 787.3 871.7 L 793 833.5 L 794.9 794.9 L 833.5 793 L 871.7 787.3 L 909.2 777.9 L 945.6 764.9 L 980.5 748.4 L 1013.6 728.6 L 1044.7 705.5 L 1073.3 679.6 L 1099.2 651 L 1122.3 619.9 L 1142.1 586.8 L 1158.6 551.9 L 1171.6 515.5 L 1181 478 L 1186.7 439.8 L 1188.6 401.2 L 1186.7 362.6 L 1181 324.4 L 1171.6 286.9 L 1158.6 250.5 L 1142.1 215.6 L 1122.3 182.5 L 1099.2 151.4 L 1073.3 122.8 L 1044.7 96.9 L 1013.6 73.8 L 980.5 54 L 945.6 37.5 L 909.2 24.5 L 871.7 15.1 L 833.5 9.4 L 794.9 7.5 L 785.1 8 Z"/><g id="pcb_top-drl" fill="#000" stroke="#000"><use x="765.4" y="765.4" xlink:href="#tool-T10-pad-1000"/></g></mask></defs><g mask="url(#pcb_top_mech-mask)" transform="translate(0,1196.1) scale(1,-1)"><rect x="7.5" y="7.5" width="1181.1" height="1181.1" fill="currentColor" class="pcb_board-fr4"/><use class="pcb_board-cu" xlink:href="#pcb_top-cu"/><g><defs><g id="pcb_top-sm" fill="currentColor" stroke="currentColor"></g><mask id="pcb_top-sm_mask" color="#000"><rect x="7.5" y="7.5" width="1181.1" height="1181.1" fill="#fff"/><use xlink:href="#pcb_top-sm"/></mask><mask id="pcb_top-cu_finish-mask" color="#fff"><use xlink:href="#pcb_top-cu"/></mask></defs><g mask="url(#pcb_top-sm_mask)"><rect x="7.5" y="7.5" width="1181.1" height="1181.1" fill="currentColor" class="pcb_board-sm"/><g id="pcb_top-ss" class="pcb_board-ss" fill="currentColor" stroke="currentColor"></g></g><use class="pcb_board-cf" mask="url(#pcb_top-cu_finish-mask)" xlink:href="#pcb_top-sm"/></g></g></svg>