<?xml version="1.0" encoding="utf-8" ?>
<svg baseProfile="tiny" height="116.085823934" version="1.2" width="116.085823934" xmlns="http://www.w3.org/2000/svg" xmlns:ev="http://www.w3.org/2001/xml-events" xmlns:xlink="http://www.w3.org/1999/xlink"><defs /><g id="paths" stroke="green"><path d="M 73.987793467,111.192516967 L 74.8739745477,111.148994527 L 75.759446967,111.192516967 L 79.2325964884,111.021938625 L 82.6720845933,110.511709503 L 86.0449585266,109.666811492 L 89.3189741946,108.495355222 L 92.462596165,107.008615494 L 95.4449976669,105.22098168 L 98.2378322443,103.149635274 L 100.814525095,100.814454229 L 103.149564408,98.2379385435 L 105.22098168,95.4450366433 L 107.008580061,92.4624898658 L 108.495351679,89.3191159269 L 109.666768973,86.045135692 L 110.511493362,82.6721235697 L 111.02172957,79.2325291656 L 111.192516967,75.759446967 L 111.02172957,72.2863009889 L 110.511493362,68.8468093407 L 109.666768973,65.4739389507 L 108.495351679,62.1999197394 L 107.008580061,59.056297769 L 105.22098168,56.0738998104 L 103.149564408,53.2810616897 L 100.814525095,50.7043688393 L 98.2378322443,48.3693295263 L 95.4449976669,46.2979122541 L 92.462596165,44.5103138726 L 89.3189741946,43.0235422554 L 86.0449585266,41.8521249612 L 82.6720845933,41.0074005724 L 79.2325964884,40.4971643644 L 75.759446967,40.326376967 L 75.5886595696,36.8532274456 L 75.0784233616,33.4137393407 L 74.2336989728,30.0408654074 L 73.0622816786,26.7668497394 L 71.5755100614,23.623227769 L 69.7879116799,20.6408262671 L 67.7164944077,17.8479916897 L 65.3814550947,15.2712988393 L 62.8047622443,12.9362595263 L 60.0119241236,10.8648422541 L 57.029526165,9.0772438726 L 53.8859041946,7.5904722554 L 50.6118849833,6.4190549612 L 47.2390145933,5.5743305724 L 43.7995229451,5.0640943644 L 40.326376967,4.893306967 L 36.8532947684,5.0640943644 L 33.4137003643,5.5743305724 L 30.040688242,6.4190549612 L 26.7667080071,7.5904722554 L 23.6233340682,9.0772438726 L 20.6407872907,10.8648422541 L 17.8478853905,12.9362595263 L 15.2713697054,15.2712988393 L 12.9361886602,17.8479916897 L 10.8648422541,20.6408262671 L 9.07720843953,23.623227769 L 7.59046871209,26.7668497394 L 6.41901244152,30.0408654074 L 5.57411443067,33.4137393407 L 5.06388530929,36.8532274456 L 4.893306967,40.326376967 L 4.93682940688,41.2118493863 L 4.893306967,42.098030467 L 4.893306967,100.562595967 L 4.94445106024,101.60450539 L 5.09751483602,102.636426231 L 5.35098175896,103.648320301 L 5.70241049053,104.630528545 L 6.14846323553,105.573540726 L 6.68474629329,106.46829661 L 7.30613249857,107.306150527 L 8.00672933184,108.079094602 L 8.77967340743,108.779691435 L 9.61752732396,109.401077641 L 10.5122832076,109.937360698 L 11.4552953893,110.383413443 L 12.437503633,110.734842175 L 13.4493977027,110.988309098 L 14.4813185436,111.141372874 L 15.523227967,111.192516967 L 73.987793467,111.192516967 Z" fill-opacity="0" stroke-linejoin="round" stroke-width="1.0" /></g><g fill="red" id="top_parts" stroke="red" /><g fill="blue" id="bottom_parts" stroke="blue"><line stroke-linecap="round" stroke-width="0.5" x1="39.0196" x2="48.5405" y1="14.3958" y2="23.9166" /><line stroke-linecap="round" stroke-width="0.5" x1="48.5405" x2="55.8064" y1="23.9166" y2="16.6507" /><line stroke-linecap="round" stroke-width="0.5" x1="55.8064" x2="46.2855" y1="16.6507" y2="7.1298" /><line stroke-linecap="round" stroke-width="0.5" x1="46.2855" x2="39.0196" y1="7.1298" y2="14.3958" /><text font-family="monospace" font-size="2" stroke-width="0.1" text-anchor="middle" x="47.412985956" y="15.523227967">D2</text><line stroke-linecap="round" stroke-width="0.5" x1="108.956" x2="99.4351" y1="69.8003" y2="60.2794" /><line stroke-linecap="round" stroke-width="0.5" x1="99.4351" x2="92.1692" y1="60.2794" y2="67.5454" /><line stroke-linecap="round" stroke-width="0.5" x1="92.1692" x2="101.6901" y1="67.5454" y2="77.0662" /><line stroke-linecap="round" stroke-width="0.5" x1="101.6901" x2="108.956" y1="77.0662" y2="69.8003" /><text font-family="monospace" font-size="2" stroke-width="0.1" text-anchor="middle" x="100.562600978" y="68.672832967">D3</text><line stroke-linecap="round" stroke-width="0.5" x1="23.9166" x2="14.3958" y1="101.6901" y2="92.1692" /><line stroke-linecap="round" stroke-width="0.5" x1="14.3958" x2="7.1298" y1="92.1692" y2="99.4351" /><line stroke-linecap="round" stroke-width="0.5" x1="7.1298" x2="16.6507" y1="99.4351" y2="108.956" /><line stroke-linecap="round" stroke-width="0.5" x1="16.6507" x2="23.9166" y1="108.956" y2="101.6901" /><text font-family="monospace" font-size="2" stroke-width="0.1" text-anchor="middle" x="15.523232978" y="100.562595967">D1</text><line stroke-linecap="round" stroke-width="0.5" x1="-9.7301" x2="55.1622" y1="60.9236" y2="125.816" /><line stroke-linecap="round" stroke-width="0.5" x1="55.1622" x2="101.0128" y1="125.816" y2="79.9654" /><line stroke-linecap="round" stroke-width="0.5" x1="101.0128" x2="36.1205" y1="79.9654" y2="15.073" /><line stroke-linecap="round" stroke-width="0.5" x1="36.1205" x2="-9.7301" y1="15.073" y2="60.9236" /><text font-family="monospace" font-size="2" stroke-width="0.1" text-anchor="middle" x="45.641337467" y="70.444486467">BT1</text></g></svg>