<?xml version='1.0' encoding='UTF-8' standalone='no'?>
<svg xmlns="http://www.w3.org/2000/svg" width="373" height="370" x="0" y="0"><text x="41" y="146" font-size="10" font-family="sans-serif" text-anchor="start" alignment-baseline="hanging">BT1</text><text x="41" y="166" font-size="10" font-family="sans-serif" text-anchor="start" alignment-baseline="hanging">BAT-HLD-001</text><text x="265" y="203" font-size="10" font-family="sans-serif" text-anchor="start" alignment-baseline="hanging">Flashing LED</text><text x="341" y="350" font-size="10" font-family="sans-serif" text-anchor="start" alignment-baseline="hanging">GND</text><text x="265" y="323" font-size="10" font-family="sans-serif" text-anchor="start" alignment-baseline="hanging">Flashing LED</text><text x="211" y="250" font-size="10" font-family="sans-serif" text-anchor="start" alignment-baseline="hanging">VBAT</text><text x="275" y="143" font-size="10" font-family="sans-serif" text-anchor="start" alignment-baseline="hanging">D2</text><text x="211" y="130" font-size="10" font-family="sans-serif" text-anchor="start" alignment-baseline="hanging">VBAT</text><text x="341" y="110" font-size="10" font-family="sans-serif" text-anchor="start" alignment-baseline="hanging">GND</text><text x="10" y="90" font-size="10" font-family="sans-serif" text-anchor="start" alignment-baseline="hanging">VBAT</text><text x="211" y="10" font-size="10" font-family="sans-serif" text-anchor="start" alignment-baseline="hanging">VBAT</text><text x="275" y="263" font-size="10" font-family="sans-serif" text-anchor="start" alignment-baseline="hanging">D3</text><text x="11" y="230" font-size="10" font-family="sans-serif" text-anchor="start" alignment-baseline="hanging">GND</text><text x="275" y="23" font-size="10" font-family="sans-serif" text-anchor="start" alignment-baseline="hanging">D1</text><text x="341" y="230" font-size="10" font-family="sans-serif" text-anchor="start" alignment-baseline="hanging">GND</text><text x="41" y="156" font-size="10" font-family="sans-serif" text-anchor="start" alignment-baseline="hanging"></text><text x="265" y="83" font-size="10" font-family="sans-serif" text-anchor="start" alignment-baseline="hanging">Flashing LED</text><line x1="221" y1="40" x2="221" y2="20" stroke-width="2" stroke="black"></line><line x1="221" y1="20" x2="214" y2="27" stroke-width="2" stroke="black"></line><line x1="221" y1="20" x2="228" y2="27" stroke-width="2" stroke="black"></line><line x1="291" y1="170" x2="291" y2="190" stroke-width="2" stroke="black"></line><line x1="311" y1="170" x2="311" y2="190" stroke-width="2" stroke="black"></line><line x1="291" y1="170" x2="311" y2="180" stroke-width="2" stroke="black"></line><line x1="291" y1="190" x2="311" y2="180" stroke-width="2" stroke="black"></line><line x1="296" y1="168" x2="306" y2="158" stroke-width="2" stroke="black"></line><line x1="306" y1="158" x2="301" y2="158" stroke-width="2" stroke="black"></line><line x1="306" y1="158" x2="306" y2="163" stroke-width="2" stroke="black"></line><line x1="303" y1="172" x2="313" y2="162" stroke-width="2" stroke="black"></line><line x1="313" y1="162" x2="308" y2="162" stroke-width="2" stroke="black"></line><line x1="313" y1="162" x2="313" y2="167" stroke-width="2" stroke="black"></line><line x1="241" y1="180" x2="251" y2="180" stroke-width="2" stroke="black"></line><line x1="321" y1="180" x2="331" y2="180" stroke-width="2" stroke="black"></line><line x1="271" y1="180" x2="291" y2="180" stroke-width="2" stroke="black"></line><line x1="261" y1="190" x2="261" y2="200" stroke-width="2" stroke="black"></line><line x1="261" y1="200" x2="321" y2="200" stroke-width="2" stroke="black"></line><line x1="321" y1="200" x2="321" y2="180" stroke-width="2" stroke="black"></line><line x1="321" y1="180" x2="311" y2="180" stroke-width="2" stroke="black"></line><line x1="221" y1="280" x2="221" y2="260" stroke-width="2" stroke="black"></line><line x1="221" y1="260" x2="214" y2="267" stroke-width="2" stroke="black"></line><line x1="221" y1="260" x2="228" y2="267" stroke-width="2" stroke="black"></line><line x1="291" y1="50" x2="291" y2="70" stroke-width="2" stroke="black"></line><line x1="311" y1="50" x2="311" y2="70" stroke-width="2" stroke="black"></line><line x1="291" y1="50" x2="311" y2="60" stroke-width="2" stroke="black"></line><line x1="291" y1="70" x2="311" y2="60" stroke-width="2" stroke="black"></line><line x1="296" y1="48" x2="306" y2="38" stroke-width="2" stroke="black"></line><line x1="306" y1="38" x2="301" y2="38" stroke-width="2" stroke="black"></line><line x1="306" y1="38" x2="306" y2="43" stroke-width="2" stroke="black"></line><line x1="303" y1="52" x2="313" y2="42" stroke-width="2" stroke="black"></line><line x1="313" y1="42" x2="308" y2="42" stroke-width="2" stroke="black"></line><line x1="313" y1="42" x2="313" y2="47" stroke-width="2" stroke="black"></line><line x1="241" y1="60" x2="251" y2="60" stroke-width="2" stroke="black"></line><line x1="321" y1="60" x2="331" y2="60" stroke-width="2" stroke="black"></line><line x1="271" y1="60" x2="291" y2="60" stroke-width="2" stroke="black"></line><line x1="261" y1="70" x2="261" y2="80" stroke-width="2" stroke="black"></line><line x1="261" y1="80" x2="321" y2="80" stroke-width="2" stroke="black"></line><line x1="321" y1="80" x2="321" y2="60" stroke-width="2" stroke="black"></line><line x1="321" y1="60" x2="311" y2="60" stroke-width="2" stroke="black"></line><line x1="351" y1="320" x2="351" y2="330" stroke-width="2" stroke="black"></line><line x1="341" y1="330" x2="361" y2="330" stroke-width="2" stroke="black"></line><line x1="344" y1="335" x2="358" y2="335" stroke-width="2" stroke="black"></line><line x1="347" y1="340" x2="355" y2="340" stroke-width="2" stroke="black"></line><rect width="20" height="20" x="251" y="170" style="stroke: #000; stroke-width: 1; fill: none;"></rect><line x1="21" y1="120" x2="21" y2="100" stroke-width="2" stroke="black"></line><line x1="21" y1="100" x2="14" y2="107" stroke-width="2" stroke="black"></line><line x1="21" y1="100" x2="28" y2="107" stroke-width="2" stroke="black"></line><line x1="351" y1="200" x2="351" y2="210" stroke-width="2" stroke="black"></line><line x1="341" y1="210" x2="361" y2="210" stroke-width="2" stroke="black"></line><line x1="344" y1="215" x2="358" y2="215" stroke-width="2" stroke="black"></line><line x1="347" y1="220" x2="355" y2="220" stroke-width="2" stroke="black"></line><rect width="20" height="20" x="251" y="50" style="stroke: #000; stroke-width: 1; fill: none;"></rect><line x1="291" y1="290" x2="291" y2="310" stroke-width="2" stroke="black"></line><line x1="311" y1="290" x2="311" y2="310" stroke-width="2" stroke="black"></line><line x1="291" y1="290" x2="311" y2="300" stroke-width="2" stroke="black"></line><line x1="291" y1="310" x2="311" y2="300" stroke-width="2" stroke="black"></line><line x1="296" y1="288" x2="306" y2="278" stroke-width="2" stroke="black"></line><line x1="306" y1="278" x2="301" y2="278" stroke-width="2" stroke="black"></line><line x1="306" y1="278" x2="306" y2="283" stroke-width="2" stroke="black"></line><line x1="303" y1="292" x2="313" y2="282" stroke-width="2" stroke="black"></line><line x1="313" y1="282" x2="308" y2="282" stroke-width="2" stroke="black"></line><line x1="313" y1="282" x2="313" y2="287" stroke-width="2" stroke="black"></line><line x1="241" y1="300" x2="251" y2="300" stroke-width="2" stroke="black"></line><line x1="321" y1="300" x2="331" y2="300" stroke-width="2" stroke="black"></line><line x1="271" y1="300" x2="291" y2="300" stroke-width="2" stroke="black"></line><line x1="261" y1="310" x2="261" y2="320" stroke-width="2" stroke="black"></line><line x1="261" y1="320" x2="321" y2="320" stroke-width="2" stroke="black"></line><line x1="321" y1="320" x2="321" y2="300" stroke-width="2" stroke="black"></line><line x1="321" y1="300" x2="311" y2="300" stroke-width="2" stroke="black"></line><line x1="351" y1="80" x2="351" y2="90" stroke-width="2" stroke="black"></line><line x1="341" y1="90" x2="361" y2="90" stroke-width="2" stroke="black"></line><line x1="344" y1="95" x2="358" y2="95" stroke-width="2" stroke="black"></line><line x1="347" y1="100" x2="355" y2="100" stroke-width="2" stroke="black"></line><line x1="31" y1="150" x2="11" y2="150" stroke-width="2" stroke="black"></line><line x1="26" y1="156" x2="16" y2="156" stroke-width="2" stroke="black"></line><line x1="31" y1="163" x2="11" y2="163" stroke-width="2" stroke="black"></line><line x1="26" y1="170" x2="16" y2="170" stroke-width="2" stroke="black"></line><line x1="21" y1="140" x2="21" y2="150" stroke-width="2" stroke="black"></line><line x1="21" y1="170" x2="21" y2="180" stroke-width="2" stroke="black"></line><text x="31" y="142" font-size="10" font-family="sans-serif" text-anchor="start" alignment-baseline="alphabetic" transform="rotate(90 31 142)">+</text><text x="36" y="180" font-size="10" font-family="sans-serif" text-anchor="end" alignment-baseline="hanging">-</text><line x1="221" y1="160" x2="221" y2="140" stroke-width="2" stroke="black"></line><line x1="221" y1="140" x2="214" y2="147" stroke-width="2" stroke="black"></line><line x1="221" y1="140" x2="228" y2="147" stroke-width="2" stroke="black"></line><line x1="21" y1="200" x2="21" y2="210" stroke-width="2" stroke="black"></line><line x1="11" y1="210" x2="31" y2="210" stroke-width="2" stroke="black"></line><line x1="14" y1="215" x2="28" y2="215" stroke-width="2" stroke="black"></line><line x1="17" y1="220" x2="25" y2="220" stroke-width="2" stroke="black"></line><rect width="20" height="20" x="251" y="290" style="stroke: #000; stroke-width: 1; fill: none;"></rect><line x1="351" y1="300" x2="351" y2="320" stroke-width="2" stroke="black"></line><line x1="351" y1="80" x2="351" y2="60" stroke-width="2" stroke="black"></line><line x1="221" y1="160" x2="221" y2="180" stroke-width="2" stroke="black"></line><line x1="331" y1="300" x2="351" y2="300" stroke-width="2" stroke="black"></line><line x1="221" y1="60" x2="221" y2="40" stroke-width="2" stroke="black"></line><line x1="221" y1="60" x2="241" y2="60" stroke-width="2" stroke="black"></line><line x1="331" y1="60" x2="351" y2="60" stroke-width="2" stroke="black"></line><line x1="221" y1="300" x2="241" y2="300" stroke-width="2" stroke="black"></line><line x1="221" y1="300" x2="221" y2="280" stroke-width="2" stroke="black"></line><line x1="241" y1="180" x2="221" y2="180" stroke-width="2" stroke="black"></line><line x1="21" y1="140" x2="21" y2="120" stroke-width="2" stroke="black"></line><line x1="21" y1="180" x2="21" y2="200" stroke-width="2" stroke="black"></line><line x1="351" y1="180" x2="351" y2="200" stroke-width="2" stroke="black"></line><line x1="351" y1="180" x2="331" y2="180" stroke-width="2" stroke="black"></line></svg>