%FSLAX33Y33*%
%MOMM*%
%ADD10C,0.0508*%
D10*
%LNpour fill*%
G01*
X19666Y1734D02*
X19666Y1734D01*
X19667Y1734*
X19750Y1730*
X19833Y1734*
X19834Y1734*
X20000Y1726*
X20811Y1766*
X21614Y1885*
X22402Y2082*
X23166Y2356*
X23900Y2703*
X24597Y3121*
X25249Y3604*
X25851Y4150*
X26396Y4751*
X26879Y5403*
X27297Y6100*
X27644Y6834*
X27918Y7598*
X28115Y8386*
X28234Y9189*
X28274Y10000*
X28234Y10811*
X28115Y11614*
X27918Y12402*
X27644Y13166*
X27297Y13900*
X26879Y14597*
X26396Y15249*
X25851Y15851*
X25249Y16396*
X24597Y16879*
X23900Y17297*
X23166Y17644*
X22402Y17918*
X21614Y18115*
X21148Y18184*
X21016Y17968*
X21015Y17967*
X20794Y17708*
X20792Y17706*
X20533Y17485*
X20532Y17484*
X20242Y17306*
X20240Y17305*
X19925Y17175*
X19923Y17174*
X19592Y17095*
X19590Y17095*
X19251Y17068*
X19249Y17068*
X18910Y17095*
X18908Y17095*
X18577Y17174*
X18575Y17175*
X18260Y17305*
X18258Y17306*
X17968Y17484*
X17967Y17485*
X17708Y17706*
X17706Y17708*
X17485Y17967*
X17484Y17968*
X17306Y18258*
X17305Y18260*
X17175Y18575*
X17174Y18577*
X17095Y18908*
X17095Y18910*
X17068Y19249*
X17068Y19251*
X17095Y19590*
X17095Y19592*
X17174Y19923*
X17175Y19925*
X17305Y20240*
X17306Y20242*
X17484Y20532*
X17485Y20533*
X17706Y20792*
X17708Y20794*
X17967Y21015*
X17968Y21016*
X18184Y21148*
X18115Y21614*
X17918Y22402*
X17644Y23166*
X17297Y23900*
X16879Y24597*
X16396Y25249*
X15851Y25851*
X15249Y26396*
X14597Y26879*
X13900Y27297*
X13166Y27644*
X12402Y27918*
X11614Y28115*
X10811Y28234*
X10000Y28274*
X9189Y28234*
X8386Y28115*
X7598Y27918*
X6834Y27644*
X6100Y27297*
X5403Y26879*
X4751Y26396*
X4150Y25851*
X3604Y25249*
X3121Y24597*
X2703Y23900*
X2356Y23166*
X2082Y22402*
X1885Y21614*
X1766Y20811*
X1726Y20000*
X1734Y19834*
X1734Y19833*
X1730Y19750*
X1734Y19667*
X1734Y19666*
X1724Y19458*
X1724Y3042*
X1732Y2875*
X1751Y2751*
X1781Y2630*
X1823Y2513*
X1877Y2400*
X1941Y2292*
X2015Y2192*
X2099Y2099*
X2192Y2015*
X2292Y1941*
X2400Y1877*
X2513Y1823*
X2630Y1781*
X2751Y1751*
X2875Y1732*
X3042Y1724*
X19458Y1724*
X19666Y1734*
X2768Y1748D02*
X20449Y1748D01*
X2583Y1798D02*
X21025Y1798D01*
X2461Y1847D02*
X21359Y1847D01*
X2366Y1897D02*
X21661Y1897D01*
X2285Y1946D02*
X21858Y1946D01*
X2218Y1996D02*
X22056Y1996D01*
X2159Y2045D02*
X22254Y2045D01*
X2104Y2095D02*
X22437Y2095D01*
X2058Y2144D02*
X22575Y2144D01*
X2014Y2194D02*
X22714Y2194D01*
X1977Y2244D02*
X22852Y2244D01*
X1940Y2293D02*
X22990Y2293D01*
X1911Y2343D02*
X23129Y2343D01*
X1881Y2392D02*
X23243Y2392D01*
X1857Y2442D02*
X23347Y2442D01*
X1833Y2491D02*
X23452Y2491D01*
X1813Y2541D02*
X23557Y2541D01*
X1795Y2590D02*
X23662Y2590D01*
X1779Y2640D02*
X23766Y2640D01*
X1766Y2689D02*
X23871Y2689D01*
X1754Y2739D02*
X23960Y2739D01*
X1745Y2788D02*
X24042Y2788D01*
X1738Y2838D02*
X24125Y2838D01*
X1732Y2887D02*
X24208Y2887D01*
X1729Y2937D02*
X24290Y2937D01*
X1727Y2986D02*
X24373Y2986D01*
X1724Y3036D02*
X24456Y3036D01*
X1724Y3086D02*
X24538Y3086D01*
X1724Y3135D02*
X24616Y3135D01*
X1724Y3185D02*
X24683Y3185D01*
X1724Y3234D02*
X24750Y3234D01*
X1724Y3284D02*
X24817Y3284D01*
X1724Y3333D02*
X24883Y3333D01*
X1724Y3383D02*
X24950Y3383D01*
X1724Y3432D02*
X25017Y3432D01*
X1724Y3482D02*
X25084Y3482D01*
X1724Y3531D02*
X25151Y3531D01*
X1724Y3581D02*
X25217Y3581D01*
X1724Y3630D02*
X25278Y3630D01*
X1724Y3680D02*
X25332Y3680D01*
X1724Y3729D02*
X25387Y3729D01*
X1724Y3779D02*
X25442Y3779D01*
X1724Y3828D02*
X25496Y3828D01*
X1724Y3878D02*
X25551Y3878D01*
X1724Y3928D02*
X25606Y3928D01*
X1724Y3977D02*
X25660Y3977D01*
X1724Y4027D02*
X25715Y4027D01*
X1724Y4076D02*
X25770Y4076D01*
X1724Y4126D02*
X25824Y4126D01*
X1724Y4175D02*
X25874Y4175D01*
X1724Y4225D02*
X25919Y4225D01*
X1724Y4274D02*
X25964Y4274D01*
X1724Y4324D02*
X26008Y4324D01*
X1724Y4373D02*
X26053Y4373D01*
X1724Y4423D02*
X26098Y4423D01*
X1724Y4472D02*
X26143Y4472D01*
X1724Y4522D02*
X26188Y4522D01*
X1724Y4571D02*
X26233Y4571D01*
X1724Y4621D02*
X26278Y4621D01*
X1724Y4670D02*
X26323Y4670D01*
X1724Y4720D02*
X26368Y4720D01*
X1724Y4770D02*
X26409Y4770D01*
X1724Y4819D02*
X26446Y4819D01*
X1724Y4869D02*
X26483Y4869D01*
X1724Y4918D02*
X26520Y4918D01*
X1724Y4968D02*
X26556Y4968D01*
X1724Y5017D02*
X26593Y5017D01*
X1724Y5067D02*
X26630Y5067D01*
X1724Y5116D02*
X26667Y5116D01*
X1724Y5166D02*
X26703Y5166D01*
X1724Y5215D02*
X26740Y5215D01*
X1724Y5265D02*
X26777Y5265D01*
X1724Y5314D02*
X26813Y5314D01*
X1724Y5364D02*
X26850Y5364D01*
X1724Y5413D02*
X26886Y5413D01*
X1724Y5463D02*
X26915Y5463D01*
X1724Y5512D02*
X26945Y5512D01*
X1724Y5562D02*
X26975Y5562D01*
X1724Y5612D02*
X27004Y5612D01*
X1724Y5661D02*
X27034Y5661D01*
X1724Y5711D02*
X27064Y5711D01*
X1724Y5760D02*
X27093Y5760D01*
X1724Y5810D02*
X27123Y5810D01*
X1724Y5859D02*
X27153Y5859D01*
X1724Y5909D02*
X27182Y5909D01*
X1724Y5958D02*
X27212Y5958D01*
X1724Y6008D02*
X27242Y6008D01*
X1724Y6057D02*
X27271Y6057D01*
X1724Y6107D02*
X27300Y6107D01*
X1724Y6156D02*
X27324Y6156D01*
X1724Y6206D02*
X27347Y6206D01*
X1724Y6255D02*
X27371Y6255D01*
X1724Y6305D02*
X27394Y6305D01*
X1724Y6354D02*
X27417Y6354D01*
X1724Y6404D02*
X27441Y6404D01*
X1724Y6454D02*
X27464Y6454D01*
X1724Y6503D02*
X27488Y6503D01*
X1724Y6553D02*
X27511Y6553D01*
X1724Y6602D02*
X27534Y6602D01*
X1724Y6652D02*
X27558Y6652D01*
X1724Y6701D02*
X27581Y6701D01*
X1724Y6751D02*
X27605Y6751D01*
X1724Y6800D02*
X27628Y6800D01*
X1724Y6850D02*
X27650Y6850D01*
X1724Y6899D02*
X27668Y6899D01*
X1724Y6949D02*
X27685Y6949D01*
X1724Y6998D02*
X27703Y6998D01*
X1724Y7048D02*
X27721Y7048D01*
X1724Y7097D02*
X27738Y7097D01*
X1724Y7147D02*
X27756Y7147D01*
X1724Y7197D02*
X27774Y7197D01*
X1724Y7246D02*
X27792Y7246D01*
X1724Y7296D02*
X27809Y7296D01*
X1724Y7345D02*
X27827Y7345D01*
X1724Y7395D02*
X27845Y7395D01*
X1724Y7444D02*
X27862Y7444D01*
X1724Y7494D02*
X27880Y7494D01*
X1724Y7543D02*
X27898Y7543D01*
X1724Y7593D02*
X27916Y7593D01*
X1724Y7642D02*
X27929Y7642D01*
X1724Y7692D02*
X27941Y7692D01*
X1724Y7741D02*
X27953Y7741D01*
X1724Y7791D02*
X27966Y7791D01*
X1724Y7840D02*
X27978Y7840D01*
X1724Y7890D02*
X27991Y7890D01*
X1724Y7939D02*
X28003Y7939D01*
X1724Y7989D02*
X28015Y7989D01*
X1724Y8039D02*
X28028Y8039D01*
X1724Y8088D02*
X28040Y8088D01*
X1724Y8138D02*
X28053Y8138D01*
X1724Y8187D02*
X28065Y8187D01*
X1724Y8237D02*
X28077Y8237D01*
X1724Y8286D02*
X28090Y8286D01*
X1724Y8336D02*
X28102Y8336D01*
X1724Y8385D02*
X28115Y8385D01*
X1724Y8435D02*
X28122Y8435D01*
X1724Y8484D02*
X28129Y8484D01*
X1724Y8534D02*
X28137Y8534D01*
X1724Y8583D02*
X28144Y8583D01*
X1724Y8633D02*
X28151Y8633D01*
X1724Y8682D02*
X28159Y8682D01*
X1724Y8732D02*
X28166Y8732D01*
X1724Y8781D02*
X28173Y8781D01*
X1724Y8831D02*
X28181Y8831D01*
X1724Y8881D02*
X28188Y8881D01*
X1724Y8930D02*
X28196Y8930D01*
X1724Y8980D02*
X28203Y8980D01*
X1724Y9029D02*
X28210Y9029D01*
X1724Y9079D02*
X28218Y9079D01*
X1724Y9128D02*
X28225Y9128D01*
X1724Y9178D02*
X28232Y9178D01*
X1724Y9227D02*
X28236Y9227D01*
X1724Y9277D02*
X28238Y9277D01*
X1724Y9326D02*
X28241Y9326D01*
X1724Y9376D02*
X28243Y9376D01*
X1724Y9425D02*
X28246Y9425D01*
X1724Y9475D02*
X28248Y9475D01*
X1724Y9524D02*
X28250Y9524D01*
X1724Y9574D02*
X28253Y9574D01*
X1724Y9623D02*
X28255Y9623D01*
X1724Y9673D02*
X28258Y9673D01*
X1724Y9723D02*
X28260Y9723D01*
X1724Y9772D02*
X28263Y9772D01*
X1724Y9822D02*
X28265Y9822D01*
X1724Y9871D02*
X28267Y9871D01*
X1724Y9921D02*
X28270Y9921D01*
X1724Y9970D02*
X28272Y9970D01*
X1724Y10020D02*
X28273Y10020D01*
X1724Y10069D02*
X28270Y10069D01*
X1724Y10119D02*
X28268Y10119D01*
X1724Y10168D02*
X28266Y10168D01*
X1724Y10218D02*
X28263Y10218D01*
X1724Y10267D02*
X28261Y10267D01*
X1724Y10317D02*
X28258Y10317D01*
X1724Y10366D02*
X28256Y10366D01*
X1724Y10416D02*
X28253Y10416D01*
X1724Y10465D02*
X28251Y10465D01*
X1724Y10515D02*
X28249Y10515D01*
X1724Y10565D02*
X28246Y10565D01*
X1724Y10614D02*
X28244Y10614D01*
X1724Y10664D02*
X28241Y10664D01*
X1724Y10713D02*
X28239Y10713D01*
X1724Y10763D02*
X28236Y10763D01*
X1724Y10812D02*
X28234Y10812D01*
X1724Y10862D02*
X28226Y10862D01*
X1724Y10911D02*
X28219Y10911D01*
X1724Y10961D02*
X28212Y10961D01*
X1724Y11010D02*
X28204Y11010D01*
X1724Y11060D02*
X28197Y11060D01*
X1724Y11109D02*
X28190Y11109D01*
X1724Y11159D02*
X28182Y11159D01*
X1724Y11208D02*
X28175Y11208D01*
X1724Y11258D02*
X28168Y11258D01*
X1724Y11307D02*
X28160Y11307D01*
X1724Y11357D02*
X28153Y11357D01*
X1724Y11407D02*
X28146Y11407D01*
X1724Y11456D02*
X28138Y11456D01*
X1724Y11506D02*
X28131Y11506D01*
X1724Y11555D02*
X28124Y11555D01*
X1724Y11605D02*
X28116Y11605D01*
X1724Y11654D02*
X28105Y11654D01*
X1724Y11704D02*
X28092Y11704D01*
X1724Y11753D02*
X28080Y11753D01*
X1724Y11803D02*
X28068Y11803D01*
X1724Y11852D02*
X28055Y11852D01*
X1724Y11902D02*
X28043Y11902D01*
X1724Y11951D02*
X28030Y11951D01*
X1724Y12001D02*
X28018Y12001D01*
X1724Y12050D02*
X28006Y12050D01*
X1724Y12100D02*
X27993Y12100D01*
X1724Y12150D02*
X27981Y12150D01*
X1724Y12199D02*
X27968Y12199D01*
X1724Y12249D02*
X27956Y12249D01*
X1724Y12298D02*
X27944Y12298D01*
X1724Y12348D02*
X27931Y12348D01*
X1724Y12397D02*
X27919Y12397D01*
X1724Y12447D02*
X27901Y12447D01*
X1724Y12496D02*
X27884Y12496D01*
X1724Y12546D02*
X27866Y12546D01*
X1724Y12595D02*
X27848Y12595D01*
X1724Y12645D02*
X27831Y12645D01*
X1724Y12694D02*
X27813Y12694D01*
X1724Y12744D02*
X27795Y12744D01*
X1724Y12793D02*
X27777Y12793D01*
X1724Y12843D02*
X27760Y12843D01*
X1724Y12892D02*
X27742Y12892D01*
X1724Y12942D02*
X27724Y12942D01*
X1724Y12992D02*
X27707Y12992D01*
X1724Y13041D02*
X27689Y13041D01*
X1724Y13091D02*
X27671Y13091D01*
X1724Y13140D02*
X27653Y13140D01*
X1724Y13190D02*
X27633Y13190D01*
X1724Y13239D02*
X27610Y13239D01*
X1724Y13289D02*
X27586Y13289D01*
X1724Y13338D02*
X27563Y13338D01*
X1724Y13388D02*
X27539Y13388D01*
X1724Y13437D02*
X27516Y13437D01*
X1724Y13487D02*
X27492Y13487D01*
X1724Y13536D02*
X27469Y13536D01*
X1724Y13586D02*
X27446Y13586D01*
X1724Y13635D02*
X27422Y13635D01*
X1724Y13685D02*
X27399Y13685D01*
X1724Y13734D02*
X27375Y13734D01*
X1724Y13784D02*
X27352Y13784D01*
X1724Y13834D02*
X27328Y13834D01*
X1724Y13883D02*
X27305Y13883D01*
X1724Y13933D02*
X27278Y13933D01*
X1724Y13982D02*
X27248Y13982D01*
X1724Y14032D02*
X27218Y14032D01*
X1724Y14081D02*
X27188Y14081D01*
X1724Y14131D02*
X27159Y14131D01*
X1724Y14180D02*
X27129Y14180D01*
X1724Y14230D02*
X27099Y14230D01*
X1724Y14279D02*
X27070Y14279D01*
X1724Y14329D02*
X27040Y14329D01*
X1724Y14378D02*
X27010Y14378D01*
X1724Y14428D02*
X26981Y14428D01*
X1724Y14477D02*
X26951Y14477D01*
X1724Y14527D02*
X26921Y14527D01*
X1724Y14576D02*
X26892Y14576D01*
X1724Y14626D02*
X26858Y14626D01*
X1724Y14676D02*
X26821Y14676D01*
X1724Y14725D02*
X26784Y14725D01*
X1724Y14775D02*
X26748Y14775D01*
X1724Y14824D02*
X26711Y14824D01*
X1724Y14874D02*
X26674Y14874D01*
X1724Y14923D02*
X26637Y14923D01*
X1724Y14973D02*
X26601Y14973D01*
X1724Y15022D02*
X26564Y15022D01*
X1724Y15072D02*
X26527Y15072D01*
X1724Y15121D02*
X26490Y15121D01*
X1724Y15171D02*
X26454Y15171D01*
X1724Y15220D02*
X26417Y15220D01*
X1724Y15270D02*
X26377Y15270D01*
X1724Y15319D02*
X26332Y15319D01*
X1724Y15369D02*
X26287Y15369D01*
X1724Y15418D02*
X26242Y15418D01*
X1724Y15468D02*
X26197Y15468D01*
X1724Y15518D02*
X26152Y15518D01*
X1724Y15567D02*
X26107Y15567D01*
X1724Y15617D02*
X26062Y15617D01*
X1724Y15666D02*
X26018Y15666D01*
X1724Y15716D02*
X25973Y15716D01*
X1724Y15765D02*
X25928Y15765D01*
X1724Y15815D02*
X25883Y15815D01*
X1724Y15864D02*
X25835Y15864D01*
X1724Y15914D02*
X25781Y15914D01*
X1724Y15963D02*
X25726Y15963D01*
X1724Y16013D02*
X25671Y16013D01*
X1724Y16062D02*
X25617Y16062D01*
X1724Y16112D02*
X25562Y16112D01*
X1724Y16161D02*
X25507Y16161D01*
X1724Y16211D02*
X25453Y16211D01*
X1724Y16260D02*
X25398Y16260D01*
X1724Y16310D02*
X25343Y16310D01*
X1724Y16360D02*
X25289Y16360D01*
X1724Y16409D02*
X25231Y16409D01*
X1724Y16459D02*
X25164Y16459D01*
X1724Y16508D02*
X25097Y16508D01*
X1724Y16558D02*
X25031Y16558D01*
X1724Y16607D02*
X24964Y16607D01*
X1724Y16657D02*
X24897Y16657D01*
X1724Y16706D02*
X24830Y16706D01*
X1724Y16756D02*
X24763Y16756D01*
X1724Y16805D02*
X24697Y16805D01*
X1724Y16855D02*
X24630Y16855D01*
X1724Y16904D02*
X24555Y16904D01*
X1724Y16954D02*
X24472Y16954D01*
X1724Y17003D02*
X24390Y17003D01*
X1724Y17053D02*
X24307Y17053D01*
X1724Y17103D02*
X18876Y17103D01*
X19624Y17103D02*
X24225Y17103D01*
X1724Y17152D02*
X18670Y17152D01*
X19830Y17152D02*
X24142Y17152D01*
X1724Y17202D02*
X18511Y17202D01*
X19989Y17202D02*
X24059Y17202D01*
X1724Y17251D02*
X18391Y17251D01*
X20109Y17251D02*
X23977Y17251D01*
X1724Y17301D02*
X18272Y17301D01*
X20228Y17301D02*
X23892Y17301D01*
X1724Y17350D02*
X18187Y17350D01*
X20313Y17350D02*
X23788Y17350D01*
X1724Y17400D02*
X18106Y17400D01*
X20394Y17400D02*
X23683Y17400D01*
X1724Y17449D02*
X18025Y17449D01*
X20475Y17449D02*
X23578Y17449D01*
X1724Y17499D02*
X17951Y17499D01*
X20549Y17499D02*
X23473Y17499D01*
X1724Y17548D02*
X17893Y17548D01*
X20607Y17548D02*
X23369Y17548D01*
X1724Y17598D02*
X17835Y17598D01*
X20665Y17598D02*
X23264Y17598D01*
X1724Y17647D02*
X17777Y17647D01*
X20723Y17647D02*
X23157Y17647D01*
X1724Y17697D02*
X17719Y17697D01*
X20781Y17697D02*
X23019Y17697D01*
X1724Y17746D02*
X17673Y17746D01*
X20827Y17746D02*
X22880Y17746D01*
X1724Y17796D02*
X17631Y17796D01*
X20869Y17796D02*
X22742Y17796D01*
X1724Y17845D02*
X17589Y17845D01*
X20911Y17845D02*
X22603Y17845D01*
X1724Y17895D02*
X17546Y17895D01*
X20954Y17895D02*
X22465Y17895D01*
X1724Y17945D02*
X17504Y17945D01*
X20996Y17945D02*
X22294Y17945D01*
X1724Y17994D02*
X17468Y17994D01*
X21032Y17994D02*
X22096Y17994D01*
X1724Y18044D02*
X17438Y18044D01*
X21062Y18044D02*
X21899Y18044D01*
X1724Y18093D02*
X17408Y18093D01*
X21092Y18093D02*
X21701Y18093D01*
X1724Y18143D02*
X17377Y18143D01*
X21123Y18143D02*
X21427Y18143D01*
X1724Y18192D02*
X17347Y18192D01*
X1724Y18242D02*
X17317Y18242D01*
X1724Y18291D02*
X17293Y18291D01*
X1724Y18341D02*
X17272Y18341D01*
X1724Y18390D02*
X17251Y18390D01*
X1724Y18440D02*
X17231Y18440D01*
X1724Y18489D02*
X17210Y18489D01*
X1724Y18539D02*
X17190Y18539D01*
X1724Y18588D02*
X17172Y18588D01*
X1724Y18638D02*
X17160Y18638D01*
X1724Y18687D02*
X17148Y18687D01*
X1724Y18737D02*
X17136Y18737D01*
X1724Y18787D02*
X17124Y18787D01*
X1724Y18836D02*
X17112Y18836D01*
X1724Y18886D02*
X17100Y18886D01*
X1724Y18935D02*
X17093Y18935D01*
X1724Y18985D02*
X17089Y18985D01*
X1724Y19034D02*
X17085Y19034D01*
X1724Y19084D02*
X17081Y19084D01*
X1724Y19133D02*
X17077Y19133D01*
X1724Y19183D02*
X17073Y19183D01*
X1724Y19232D02*
X17069Y19232D01*
X1724Y19282D02*
X17070Y19282D01*
X1724Y19331D02*
X17074Y19331D01*
X1724Y19381D02*
X17078Y19381D01*
X1724Y19430D02*
X17082Y19430D01*
X1725Y19480D02*
X17086Y19480D01*
X1728Y19529D02*
X17090Y19529D01*
X1730Y19579D02*
X17094Y19579D01*
X1732Y19629D02*
X17104Y19629D01*
X1734Y19678D02*
X17116Y19678D01*
X1731Y19728D02*
X17127Y19728D01*
X1732Y19777D02*
X17139Y19777D01*
X1734Y19827D02*
X17151Y19827D01*
X1732Y19876D02*
X17163Y19876D01*
X1730Y19926D02*
X17175Y19926D01*
X1727Y19975D02*
X17196Y19975D01*
X1727Y20025D02*
X17216Y20025D01*
X1730Y20074D02*
X17237Y20074D01*
X1732Y20124D02*
X17257Y20124D01*
X1735Y20173D02*
X17278Y20173D01*
X1737Y20223D02*
X17298Y20223D01*
X1740Y20272D02*
X17325Y20272D01*
X1742Y20322D02*
X17356Y20322D01*
X1744Y20371D02*
X17386Y20371D01*
X1747Y20421D02*
X17416Y20421D01*
X1749Y20471D02*
X17447Y20471D01*
X1752Y20520D02*
X17477Y20520D01*
X1754Y20570D02*
X17516Y20570D01*
X1757Y20619D02*
X17559Y20619D01*
X1759Y20669D02*
X17601Y20669D01*
X1761Y20718D02*
X17643Y20718D01*
X1764Y20768D02*
X17685Y20768D01*
X1767Y20817D02*
X17735Y20817D01*
X1774Y20867D02*
X17793Y20867D01*
X1782Y20916D02*
X17851Y20916D01*
X1789Y20966D02*
X17909Y20966D01*
X1796Y21015D02*
X17968Y21015D01*
X1804Y21065D02*
X18048Y21065D01*
X1811Y21114D02*
X18129Y21114D01*
X1818Y21164D02*
X18182Y21164D01*
X1826Y21213D02*
X18174Y21213D01*
X1833Y21263D02*
X18167Y21263D01*
X1840Y21313D02*
X18160Y21313D01*
X1848Y21362D02*
X18152Y21362D01*
X1855Y21412D02*
X18145Y21412D01*
X1862Y21461D02*
X18138Y21461D01*
X1870Y21511D02*
X18130Y21511D01*
X1877Y21560D02*
X18123Y21560D01*
X1884Y21610D02*
X18115Y21610D01*
X1896Y21659D02*
X18104Y21659D01*
X1909Y21709D02*
X18091Y21709D01*
X1921Y21758D02*
X18079Y21758D01*
X1934Y21808D02*
X18066Y21808D01*
X1946Y21857D02*
X18054Y21857D01*
X1958Y21907D02*
X18041Y21907D01*
X1971Y21956D02*
X18029Y21956D01*
X1983Y22006D02*
X18017Y22006D01*
X1996Y22056D02*
X18004Y22056D01*
X2008Y22105D02*
X17992Y22105D01*
X2021Y22155D02*
X17979Y22155D01*
X2033Y22204D02*
X17967Y22204D01*
X2045Y22254D02*
X17955Y22254D01*
X2058Y22303D02*
X17942Y22303D01*
X2070Y22353D02*
X17930Y22353D01*
X2083Y22402D02*
X17917Y22402D01*
X2100Y22452D02*
X17900Y22452D01*
X2118Y22501D02*
X17882Y22501D01*
X2136Y22551D02*
X17864Y22551D01*
X2153Y22600D02*
X17847Y22600D01*
X2171Y22650D02*
X17829Y22650D01*
X2189Y22699D02*
X17811Y22699D01*
X2207Y22749D02*
X17793Y22749D01*
X2224Y22798D02*
X17776Y22798D01*
X2242Y22848D02*
X17758Y22848D01*
X2260Y22898D02*
X17740Y22898D01*
X2278Y22947D02*
X17722Y22947D01*
X2295Y22997D02*
X17705Y22997D01*
X2313Y23046D02*
X17687Y23046D01*
X2331Y23096D02*
X17669Y23096D01*
X2348Y23145D02*
X17652Y23145D01*
X2369Y23195D02*
X17631Y23195D01*
X2393Y23244D02*
X17607Y23244D01*
X2416Y23294D02*
X17584Y23294D01*
X2440Y23343D02*
X17560Y23343D01*
X2463Y23393D02*
X17537Y23393D01*
X2487Y23442D02*
X17513Y23442D01*
X2510Y23492D02*
X17490Y23492D01*
X2533Y23541D02*
X17467Y23541D01*
X2557Y23591D02*
X17443Y23591D01*
X2580Y23640D02*
X17420Y23640D01*
X2604Y23690D02*
X17396Y23690D01*
X2627Y23740D02*
X17373Y23740D01*
X2651Y23789D02*
X17349Y23789D01*
X2674Y23839D02*
X17326Y23839D01*
X2697Y23888D02*
X17303Y23888D01*
X2726Y23938D02*
X17274Y23938D01*
X2755Y23987D02*
X17245Y23987D01*
X2785Y24037D02*
X17215Y24037D01*
X2815Y24086D02*
X17185Y24086D01*
X2844Y24136D02*
X17156Y24136D01*
X2874Y24185D02*
X17126Y24185D01*
X2904Y24235D02*
X17096Y24235D01*
X2933Y24284D02*
X17067Y24284D01*
X2963Y24334D02*
X17037Y24334D01*
X2993Y24383D02*
X17007Y24383D01*
X3022Y24433D02*
X16978Y24433D01*
X3052Y24482D02*
X16948Y24482D01*
X3082Y24532D02*
X16918Y24532D01*
X3111Y24582D02*
X16889Y24582D01*
X3146Y24631D02*
X16854Y24631D01*
X3183Y24681D02*
X16817Y24681D01*
X3220Y24730D02*
X16780Y24730D01*
X3256Y24780D02*
X16744Y24780D01*
X3293Y24829D02*
X16707Y24829D01*
X3330Y24879D02*
X16670Y24879D01*
X3366Y24928D02*
X16634Y24928D01*
X3403Y24978D02*
X16597Y24978D01*
X3440Y25027D02*
X16560Y25027D01*
X3477Y25077D02*
X16523Y25077D01*
X3513Y25126D02*
X16487Y25126D01*
X3550Y25176D02*
X16450Y25176D01*
X3587Y25225D02*
X16413Y25225D01*
X3628Y25275D02*
X16372Y25275D01*
X3673Y25324D02*
X16327Y25324D01*
X3718Y25374D02*
X16282Y25374D01*
X3763Y25424D02*
X16237Y25424D01*
X3807Y25473D02*
X16193Y25473D01*
X3852Y25523D02*
X16148Y25523D01*
X3897Y25572D02*
X16103Y25572D01*
X3942Y25622D02*
X16058Y25622D01*
X3987Y25671D02*
X16013Y25671D01*
X4032Y25721D02*
X15968Y25721D01*
X4077Y25770D02*
X15923Y25770D01*
X4122Y25820D02*
X15878Y25820D01*
X4170Y25869D02*
X15830Y25869D01*
X4225Y25919D02*
X15775Y25919D01*
X4280Y25968D02*
X15720Y25968D01*
X4334Y26018D02*
X15666Y26018D01*
X4389Y26067D02*
X15611Y26067D01*
X4444Y26117D02*
X15556Y26117D01*
X4498Y26166D02*
X15502Y26166D01*
X4553Y26216D02*
X15447Y26216D01*
X4607Y26266D02*
X15393Y26266D01*
X4662Y26315D02*
X15338Y26315D01*
X4717Y26365D02*
X15283Y26365D01*
X4776Y26414D02*
X15224Y26414D01*
X4843Y26464D02*
X15157Y26464D01*
X4909Y26513D02*
X15090Y26513D01*
X4976Y26563D02*
X15024Y26563D01*
X5043Y26612D02*
X14957Y26612D01*
X5110Y26662D02*
X14890Y26662D01*
X5177Y26711D02*
X14823Y26711D01*
X5243Y26761D02*
X14757Y26761D01*
X5310Y26810D02*
X14690Y26810D01*
X5377Y26860D02*
X14623Y26860D01*
X5453Y26909D02*
X14547Y26909D01*
X5536Y26959D02*
X14464Y26959D01*
X5619Y27009D02*
X14381Y27009D01*
X5701Y27058D02*
X14299Y27058D01*
X5784Y27108D02*
X14216Y27108D01*
X5867Y27157D02*
X14133Y27157D01*
X5949Y27207D02*
X14051Y27207D01*
X6032Y27256D02*
X13968Y27256D01*
X6118Y27306D02*
X13882Y27306D01*
X6223Y27355D02*
X13777Y27355D01*
X6328Y27405D02*
X13672Y27405D01*
X6433Y27454D02*
X13567Y27454D01*
X6537Y27504D02*
X13463Y27504D01*
X6642Y27553D02*
X13358Y27553D01*
X6747Y27603D02*
X13253Y27603D01*
X6857Y27652D02*
X13143Y27652D01*
X6996Y27702D02*
X13004Y27702D01*
X7134Y27751D02*
X12866Y27751D01*
X7272Y27801D02*
X12728Y27801D01*
X7411Y27851D02*
X12589Y27851D01*
X7549Y27900D02*
X12451Y27900D01*
X7726Y27950D02*
X12274Y27950D01*
X7924Y27999D02*
X12076Y27999D01*
X8122Y28049D02*
X11878Y28049D01*
X8319Y28098D02*
X11681Y28098D01*
X8608Y28148D02*
X11392Y28148D01*
X8941Y28197D02*
X11059Y28197D01*
X9449Y28247D02*
X10551Y28247D01*
%LNtop copper_traces*%
M02*