%FSLAX33Y33*%
%MOMM*%
%ADD10C,0.0508*%
D10*
%LNpour fill*%
G01*
X19720Y0633D02*
X19720Y0633D01*
X19722Y0633*
X19750Y0630*
X19778Y0633*
X19780Y0633*
X20000Y0622*
X20919Y0667*
X21830Y0802*
X22722Y1026*
X23589Y1336*
X24421Y1729*
X25210Y2202*
X25949Y2750*
X26631Y3369*
X27249Y4050*
X27798Y4790*
X28271Y5579*
X28664Y6411*
X28974Y7278*
X29198Y8170*
X29333Y9081*
X29378Y10000*
X29333Y10919*
X29198Y11830*
X28974Y12722*
X28664Y13589*
X28271Y14421*
X27798Y15210*
X27249Y15949*
X26631Y16631*
X25949Y17249*
X25210Y17798*
X24421Y18271*
X23589Y18664*
X22722Y18974*
X21830Y19198*
X20919Y19333*
X20400Y19359*
X20330Y19283*
X20334Y19252*
X20334Y19248*
X20298Y18971*
X20297Y18968*
X20190Y18709*
X20188Y18706*
X20018Y18484*
X20016Y18482*
X19794Y18312*
X19791Y18310*
X19532Y18203*
X19529Y18202*
X19252Y18166*
X19248Y18166*
X18971Y18202*
X18968Y18203*
X18709Y18310*
X18706Y18312*
X18484Y18482*
X18482Y18484*
X18312Y18706*
X18310Y18709*
X18203Y18968*
X18202Y18971*
X18166Y19248*
X18166Y19252*
X18202Y19529*
X18203Y19532*
X18310Y19791*
X18312Y19794*
X18482Y20016*
X18484Y20018*
X18706Y20188*
X18709Y20190*
X18968Y20297*
X18971Y20298*
X19248Y20334*
X19252Y20334*
X19283Y20330*
X19359Y20400*
X19333Y20919*
X19198Y21830*
X18974Y22722*
X18664Y23589*
X18271Y24421*
X17798Y25210*
X17249Y25949*
X16631Y26631*
X15949Y27249*
X15210Y27798*
X14421Y28271*
X13589Y28664*
X12722Y28974*
X11830Y29198*
X10919Y29333*
X10000Y29378*
X9081Y29333*
X8170Y29198*
X7278Y28974*
X6411Y28664*
X5579Y28271*
X4790Y27798*
X4050Y27249*
X3369Y26631*
X2750Y25949*
X2202Y25210*
X1729Y24421*
X1336Y23589*
X1026Y22722*
X0802Y21830*
X0667Y20919*
X0622Y20000*
X0633Y19780*
X0633Y19778*
X0630Y19750*
X0633Y19722*
X0633Y19720*
X0621Y19485*
X0621Y3015*
X0633Y2767*
X0667Y2536*
X0724Y2310*
X0803Y2090*
X0903Y1879*
X1023Y1679*
X1162Y1491*
X1318Y1318*
X1491Y1162*
X1679Y1023*
X1879Y0903*
X2090Y0803*
X2310Y0724*
X2536Y0667*
X2767Y0633*
X3015Y0621*
X19485Y0621*
X19720Y0633*
X2686Y0645D02*
X20476Y0645D01*
X2427Y0695D02*
X21106Y0695D01*
X2254Y0744D02*
X21440Y0744D01*
X2115Y0794D02*
X21774Y0794D01*
X2004Y0843D02*
X21995Y0843D01*
X1900Y0893D02*
X22192Y0893D01*
X1813Y0942D02*
X22390Y0942D01*
X1730Y0992D02*
X22588Y0992D01*
X1653Y1041D02*
X22766Y1041D01*
X1587Y1091D02*
X22905Y1091D01*
X1520Y1140D02*
X23043Y1140D01*
X1460Y1190D02*
X23182Y1190D01*
X1405Y1239D02*
X23320Y1239D01*
X1351Y1289D02*
X23459Y1289D01*
X1300Y1339D02*
X23595Y1339D01*
X1255Y1388D02*
X23700Y1388D01*
X1210Y1438D02*
X23805Y1438D01*
X1165Y1487D02*
X23909Y1487D01*
X1128Y1537D02*
X24014Y1537D01*
X1091Y1586D02*
X24119Y1586D01*
X1054Y1636D02*
X24223Y1636D01*
X1019Y1685D02*
X24328Y1685D01*
X0989Y1735D02*
X24430Y1735D01*
X0959Y1784D02*
X24513Y1784D01*
X0930Y1834D02*
X24596Y1834D01*
X0900Y1883D02*
X24678Y1883D01*
X0877Y1933D02*
X24761Y1933D01*
X0854Y1982D02*
X24844Y1982D01*
X0830Y2032D02*
X24926Y2032D01*
X0807Y2081D02*
X25009Y2081D01*
X0788Y2131D02*
X25091Y2131D01*
X0770Y2181D02*
X25174Y2181D01*
X0753Y2230D02*
X25248Y2230D01*
X0735Y2280D02*
X25315Y2280D01*
X0719Y2329D02*
X25381Y2329D01*
X0707Y2379D02*
X25448Y2379D01*
X0694Y2428D02*
X25515Y2428D01*
X0682Y2478D02*
X25582Y2478D01*
X0670Y2527D02*
X25648Y2527D01*
X0661Y2577D02*
X25715Y2577D01*
X0654Y2626D02*
X25782Y2626D01*
X0647Y2676D02*
X25849Y2676D01*
X0639Y2725D02*
X25916Y2725D01*
X0633Y2775D02*
X25976Y2775D01*
X0630Y2824D02*
X26031Y2824D01*
X0628Y2874D02*
X26086Y2874D01*
X0625Y2924D02*
X26140Y2924D01*
X0623Y2973D02*
X26195Y2973D01*
X0621Y3023D02*
X26250Y3023D01*
X0621Y3072D02*
X26304Y3072D01*
X0621Y3122D02*
X26359Y3122D01*
X0621Y3171D02*
X26414Y3171D01*
X0621Y3221D02*
X26468Y3221D01*
X0621Y3270D02*
X26523Y3270D01*
X0621Y3320D02*
X26578Y3320D01*
X0621Y3369D02*
X26632Y3369D01*
X0621Y3419D02*
X26677Y3419D01*
X0621Y3468D02*
X26722Y3468D01*
X0621Y3518D02*
X26767Y3518D01*
X0621Y3567D02*
X26812Y3567D01*
X0621Y3617D02*
X26857Y3617D01*
X0621Y3666D02*
X26901Y3666D01*
X0621Y3716D02*
X26946Y3716D01*
X0621Y3766D02*
X26991Y3766D01*
X0621Y3815D02*
X27036Y3815D01*
X0621Y3865D02*
X27081Y3865D01*
X0621Y3914D02*
X27126Y3914D01*
X0621Y3964D02*
X27171Y3964D01*
X0621Y4013D02*
X27216Y4013D01*
X0621Y4063D02*
X27259Y4063D01*
X0621Y4112D02*
X27295Y4112D01*
X0621Y4162D02*
X27332Y4162D01*
X0621Y4211D02*
X27369Y4211D01*
X0621Y4261D02*
X27405Y4261D01*
X0621Y4310D02*
X27442Y4310D01*
X0621Y4360D02*
X27479Y4360D01*
X0621Y4409D02*
X27516Y4409D01*
X0621Y4459D02*
X27552Y4459D01*
X0621Y4508D02*
X27589Y4508D01*
X0621Y4558D02*
X27626Y4558D01*
X0621Y4608D02*
X27663Y4608D01*
X0621Y4657D02*
X27699Y4657D01*
X0621Y4707D02*
X27736Y4707D01*
X0621Y4756D02*
X27773Y4756D01*
X0621Y4806D02*
X27807Y4806D01*
X0621Y4855D02*
X27837Y4855D01*
X0621Y4905D02*
X27867Y4905D01*
X0621Y4954D02*
X27896Y4954D01*
X0621Y5004D02*
X27926Y5004D01*
X0621Y5053D02*
X27956Y5053D01*
X0621Y5103D02*
X27985Y5103D01*
X0621Y5152D02*
X28015Y5152D01*
X0621Y5202D02*
X28045Y5202D01*
X0621Y5251D02*
X28074Y5251D01*
X0621Y5301D02*
X28104Y5301D01*
X0621Y5350D02*
X28134Y5350D01*
X0621Y5400D02*
X28164Y5400D01*
X0621Y5450D02*
X28193Y5450D01*
X0621Y5499D02*
X28223Y5499D01*
X0621Y5549D02*
X28253Y5549D01*
X0621Y5598D02*
X28280Y5598D01*
X0621Y5648D02*
X28303Y5648D01*
X0621Y5697D02*
X28327Y5697D01*
X0621Y5747D02*
X28350Y5747D01*
X0621Y5796D02*
X28374Y5796D01*
X0621Y5846D02*
X28397Y5846D01*
X0621Y5895D02*
X28420Y5895D01*
X0621Y5945D02*
X28444Y5945D01*
X0621Y5994D02*
X28467Y5994D01*
X0621Y6044D02*
X28491Y6044D01*
X0621Y6093D02*
X28514Y6093D01*
X0621Y6143D02*
X28538Y6143D01*
X0621Y6192D02*
X28561Y6192D01*
X0621Y6242D02*
X28584Y6242D01*
X0621Y6292D02*
X28608Y6292D01*
X0621Y6341D02*
X28631Y6341D01*
X0621Y6391D02*
X28655Y6391D01*
X0621Y6440D02*
X28675Y6440D01*
X0621Y6490D02*
X28692Y6490D01*
X0621Y6539D02*
X28710Y6539D01*
X0621Y6589D02*
X28728Y6589D01*
X0621Y6638D02*
X28746Y6638D01*
X0621Y6688D02*
X28763Y6688D01*
X0621Y6737D02*
X28781Y6737D01*
X0621Y6787D02*
X28799Y6787D01*
X0621Y6836D02*
X28817Y6836D01*
X0621Y6886D02*
X28834Y6886D01*
X0621Y6935D02*
X28852Y6935D01*
X0621Y6985D02*
X28870Y6985D01*
X0621Y7034D02*
X28887Y7034D01*
X0621Y7084D02*
X28905Y7084D01*
X0621Y7134D02*
X28923Y7134D01*
X0621Y7183D02*
X28941Y7183D01*
X0621Y7233D02*
X28958Y7233D01*
X0621Y7282D02*
X28976Y7282D01*
X0621Y7332D02*
X28988Y7332D01*
X0621Y7381D02*
X29000Y7381D01*
X0621Y7431D02*
X29013Y7431D01*
X0621Y7480D02*
X29025Y7480D01*
X0621Y7530D02*
X29038Y7530D01*
X0621Y7579D02*
X29050Y7579D01*
X0621Y7629D02*
X29062Y7629D01*
X0621Y7678D02*
X29075Y7678D01*
X0621Y7728D02*
X29087Y7728D01*
X0621Y7777D02*
X29100Y7777D01*
X0621Y7827D02*
X29112Y7827D01*
X0621Y7877D02*
X29124Y7877D01*
X0621Y7926D02*
X29137Y7926D01*
X0621Y7976D02*
X29149Y7976D01*
X0621Y8025D02*
X29162Y8025D01*
X0621Y8075D02*
X29174Y8075D01*
X0621Y8124D02*
X29186Y8124D01*
X0621Y8174D02*
X29198Y8174D01*
X0621Y8223D02*
X29206Y8223D01*
X0621Y8273D02*
X29213Y8273D01*
X0621Y8322D02*
X29221Y8322D01*
X0621Y8372D02*
X29228Y8372D01*
X0621Y8421D02*
X29235Y8421D01*
X0621Y8471D02*
X29243Y8471D01*
X0621Y8520D02*
X29250Y8520D01*
X0621Y8570D02*
X29257Y8570D01*
X0621Y8619D02*
X29265Y8619D01*
X0621Y8669D02*
X29272Y8669D01*
X0621Y8719D02*
X29279Y8719D01*
X0621Y8768D02*
X29287Y8768D01*
X0621Y8818D02*
X29294Y8818D01*
X0621Y8867D02*
X29301Y8867D01*
X0621Y8917D02*
X29309Y8917D01*
X0621Y8966D02*
X29316Y8966D01*
X0621Y9016D02*
X29323Y9016D01*
X0621Y9065D02*
X29331Y9065D01*
X0621Y9115D02*
X29335Y9115D01*
X0621Y9164D02*
X29337Y9164D01*
X0621Y9214D02*
X29340Y9214D01*
X0621Y9263D02*
X29342Y9263D01*
X0621Y9313D02*
X29344Y9313D01*
X0621Y9362D02*
X29347Y9362D01*
X0621Y9412D02*
X29349Y9412D01*
X0621Y9461D02*
X29352Y9461D01*
X0621Y9511D02*
X29354Y9511D01*
X0621Y9561D02*
X29357Y9561D01*
X0621Y9610D02*
X29359Y9610D01*
X0621Y9660D02*
X29362Y9660D01*
X0621Y9709D02*
X29364Y9709D01*
X0621Y9759D02*
X29366Y9759D01*
X0621Y9808D02*
X29369Y9808D01*
X0621Y9858D02*
X29371Y9858D01*
X0621Y9907D02*
X29374Y9907D01*
X0621Y9957D02*
X29376Y9957D01*
X0621Y10006D02*
X29378Y10006D01*
X0621Y10056D02*
X29376Y10056D01*
X0621Y10105D02*
X29373Y10105D01*
X0621Y10155D02*
X29371Y10155D01*
X0621Y10204D02*
X29368Y10204D01*
X0621Y10254D02*
X29366Y10254D01*
X0621Y10303D02*
X29363Y10303D01*
X0621Y10353D02*
X29361Y10353D01*
X0621Y10403D02*
X29358Y10403D01*
X0621Y10452D02*
X29356Y10452D01*
X0621Y10502D02*
X29354Y10502D01*
X0621Y10551D02*
X29351Y10551D01*
X0621Y10601D02*
X29349Y10601D01*
X0621Y10650D02*
X29346Y10650D01*
X0621Y10700D02*
X29344Y10700D01*
X0621Y10749D02*
X29341Y10749D01*
X0621Y10799D02*
X29339Y10799D01*
X0621Y10848D02*
X29337Y10848D01*
X0621Y10898D02*
X29334Y10898D01*
X0621Y10947D02*
X29329Y10947D01*
X0621Y10997D02*
X29322Y10997D01*
X0621Y11046D02*
X29314Y11046D01*
X0621Y11096D02*
X29307Y11096D01*
X0621Y11145D02*
X29299Y11145D01*
X0621Y11195D02*
X29292Y11195D01*
X0621Y11245D02*
X29285Y11245D01*
X0621Y11294D02*
X29277Y11294D01*
X0621Y11344D02*
X29270Y11344D01*
X0621Y11393D02*
X29263Y11393D01*
X0621Y11443D02*
X29255Y11443D01*
X0621Y11492D02*
X29248Y11492D01*
X0621Y11542D02*
X29241Y11542D01*
X0621Y11591D02*
X29233Y11591D01*
X0621Y11641D02*
X29226Y11641D01*
X0621Y11690D02*
X29219Y11690D01*
X0621Y11740D02*
X29211Y11740D01*
X0621Y11789D02*
X29204Y11789D01*
X0621Y11839D02*
X29196Y11839D01*
X0621Y11888D02*
X29183Y11888D01*
X0621Y11938D02*
X29171Y11938D01*
X0621Y11987D02*
X29158Y11987D01*
X0621Y12037D02*
X29146Y12037D01*
X0621Y12087D02*
X29134Y12087D01*
X0621Y12136D02*
X29121Y12136D01*
X0621Y12186D02*
X29109Y12186D01*
X0621Y12235D02*
X29096Y12235D01*
X0621Y12285D02*
X29084Y12285D01*
X0621Y12334D02*
X29072Y12334D01*
X0621Y12384D02*
X29059Y12384D01*
X0621Y12433D02*
X29047Y12433D01*
X0621Y12483D02*
X29034Y12483D01*
X0621Y12532D02*
X29022Y12532D01*
X0621Y12582D02*
X29010Y12582D01*
X0621Y12631D02*
X28997Y12631D01*
X0621Y12681D02*
X28985Y12681D01*
X0621Y12730D02*
X28972Y12730D01*
X0621Y12780D02*
X28954Y12780D01*
X0621Y12830D02*
X28936Y12830D01*
X0621Y12879D02*
X28918Y12879D01*
X0621Y12929D02*
X28901Y12929D01*
X0621Y12978D02*
X28883Y12978D01*
X0621Y13028D02*
X28865Y13028D01*
X0621Y13077D02*
X28847Y13077D01*
X0621Y13127D02*
X28830Y13127D01*
X0621Y13176D02*
X28812Y13176D01*
X0621Y13226D02*
X28794Y13226D01*
X0621Y13275D02*
X28777Y13275D01*
X0621Y13325D02*
X28759Y13325D01*
X0621Y13374D02*
X28741Y13374D01*
X0621Y13424D02*
X28723Y13424D01*
X0621Y13473D02*
X28706Y13473D01*
X0621Y13523D02*
X28688Y13523D01*
X0621Y13572D02*
X28670Y13572D01*
X0621Y13622D02*
X28649Y13622D01*
X0621Y13672D02*
X28625Y13672D01*
X0621Y13721D02*
X28602Y13721D01*
X0621Y13771D02*
X28578Y13771D01*
X0621Y13820D02*
X28555Y13820D01*
X0621Y13870D02*
X28532Y13870D01*
X0621Y13919D02*
X28508Y13919D01*
X0621Y13969D02*
X28485Y13969D01*
X0621Y14018D02*
X28461Y14018D01*
X0621Y14068D02*
X28438Y14068D01*
X0621Y14117D02*
X28414Y14117D01*
X0621Y14167D02*
X28391Y14167D01*
X0621Y14216D02*
X28368Y14216D01*
X0621Y14266D02*
X28344Y14266D01*
X0621Y14315D02*
X28321Y14315D01*
X0621Y14365D02*
X28297Y14365D01*
X0621Y14414D02*
X28274Y14414D01*
X0621Y14464D02*
X28245Y14464D01*
X0621Y14514D02*
X28215Y14514D01*
X0621Y14563D02*
X28186Y14563D01*
X0621Y14613D02*
X28156Y14613D01*
X0621Y14662D02*
X28126Y14662D01*
X0621Y14712D02*
X28097Y14712D01*
X0621Y14761D02*
X28067Y14761D01*
X0621Y14811D02*
X28037Y14811D01*
X0621Y14860D02*
X28008Y14860D01*
X0621Y14910D02*
X27978Y14910D01*
X0621Y14959D02*
X27948Y14959D01*
X0621Y15009D02*
X27918Y15009D01*
X0621Y15058D02*
X27889Y15058D01*
X0621Y15108D02*
X27859Y15108D01*
X0621Y15157D02*
X27829Y15157D01*
X0621Y15207D02*
X27800Y15207D01*
X0621Y15256D02*
X27763Y15256D01*
X0621Y15306D02*
X27727Y15306D01*
X0621Y15356D02*
X27690Y15356D01*
X0621Y15405D02*
X27653Y15405D01*
X0621Y15455D02*
X27617Y15455D01*
X0621Y15504D02*
X27580Y15504D01*
X0621Y15554D02*
X27543Y15554D01*
X0621Y15603D02*
X27506Y15603D01*
X0621Y15653D02*
X27470Y15653D01*
X0621Y15702D02*
X27433Y15702D01*
X0621Y15752D02*
X27396Y15752D01*
X0621Y15801D02*
X27359Y15801D01*
X0621Y15851D02*
X27323Y15851D01*
X0621Y15900D02*
X27286Y15900D01*
X0621Y15950D02*
X27249Y15950D01*
X0621Y15999D02*
X27204Y15999D01*
X0621Y16049D02*
X27159Y16049D01*
X0621Y16098D02*
X27114Y16098D01*
X0621Y16148D02*
X27070Y16148D01*
X0621Y16198D02*
X27025Y16198D01*
X0621Y16247D02*
X26980Y16247D01*
X0621Y16297D02*
X26935Y16297D01*
X0621Y16346D02*
X26890Y16346D01*
X0621Y16396D02*
X26845Y16396D01*
X0621Y16445D02*
X26800Y16445D01*
X0621Y16495D02*
X26755Y16495D01*
X0621Y16544D02*
X26710Y16544D01*
X0621Y16594D02*
X26666Y16594D01*
X0621Y16643D02*
X26618Y16643D01*
X0621Y16693D02*
X26564Y16693D01*
X0621Y16742D02*
X26509Y16742D01*
X0621Y16792D02*
X26454Y16792D01*
X0621Y16841D02*
X26400Y16841D01*
X0621Y16891D02*
X26345Y16891D01*
X0621Y16940D02*
X26290Y16940D01*
X0621Y16990D02*
X26236Y16990D01*
X0621Y17040D02*
X26181Y17040D01*
X0621Y17089D02*
X26126Y17089D01*
X0621Y17139D02*
X26072Y17139D01*
X0621Y17188D02*
X26017Y17188D01*
X0621Y17238D02*
X25963Y17238D01*
X0621Y17287D02*
X25899Y17287D01*
X0621Y17337D02*
X25832Y17337D01*
X0621Y17386D02*
X25765Y17386D01*
X0621Y17436D02*
X25698Y17436D01*
X0621Y17485D02*
X25631Y17485D01*
X0621Y17535D02*
X25565Y17535D01*
X0621Y17584D02*
X25498Y17584D01*
X0621Y17634D02*
X25431Y17634D01*
X0621Y17683D02*
X25364Y17683D01*
X0621Y17733D02*
X25298Y17733D01*
X0621Y17783D02*
X25231Y17783D01*
X0621Y17832D02*
X25153Y17832D01*
X0621Y17882D02*
X25070Y17882D01*
X0621Y17931D02*
X24988Y17931D01*
X0621Y17981D02*
X24905Y17981D01*
X0621Y18030D02*
X24823Y18030D01*
X0621Y18080D02*
X24740Y18080D01*
X0621Y18129D02*
X24657Y18129D01*
X0621Y18179D02*
X19148Y18179D01*
X19352Y18179D02*
X24575Y18179D01*
X0621Y18228D02*
X18907Y18228D01*
X19593Y18228D02*
X24492Y18228D01*
X0621Y18278D02*
X18787Y18278D01*
X19713Y18278D02*
X24406Y18278D01*
X0621Y18327D02*
X18686Y18327D01*
X19814Y18327D02*
X24302Y18327D01*
X0621Y18377D02*
X18621Y18377D01*
X19879Y18377D02*
X24197Y18377D01*
X0621Y18426D02*
X18557Y18426D01*
X19943Y18426D02*
X24092Y18426D01*
X0621Y18476D02*
X18492Y18476D01*
X20008Y18476D02*
X23987Y18476D01*
X0621Y18525D02*
X18450Y18525D01*
X20050Y18525D02*
X23883Y18525D01*
X0621Y18575D02*
X18412Y18575D01*
X20088Y18575D02*
X23778Y18575D01*
X0621Y18625D02*
X18374Y18625D01*
X20126Y18625D02*
X23673Y18625D01*
X0621Y18674D02*
X18336Y18674D01*
X20164Y18674D02*
X23562Y18674D01*
X0621Y18724D02*
X18304Y18724D01*
X20196Y18724D02*
X23423Y18724D01*
X0621Y18773D02*
X18284Y18773D01*
X20216Y18773D02*
X23285Y18773D01*
X0621Y18823D02*
X18263Y18823D01*
X20237Y18823D02*
X23147Y18823D01*
X0621Y18872D02*
X18243Y18872D01*
X20257Y18872D02*
X23008Y18872D01*
X0621Y18922D02*
X18222Y18922D01*
X20278Y18922D02*
X22870Y18922D01*
X0621Y18971D02*
X18202Y18971D01*
X20298Y18971D02*
X22731Y18971D01*
X0621Y19021D02*
X18196Y19021D01*
X20304Y19021D02*
X22537Y19021D01*
X0621Y19070D02*
X18189Y19070D01*
X20311Y19070D02*
X22340Y19070D01*
X0621Y19120D02*
X18182Y19120D01*
X20318Y19120D02*
X22142Y19120D01*
X0621Y19169D02*
X18176Y19169D01*
X20324Y19169D02*
X21944Y19169D01*
X0621Y19219D02*
X18169Y19219D01*
X20331Y19219D02*
X21689Y19219D01*
X0621Y19268D02*
X18168Y19268D01*
X20332Y19268D02*
X21355Y19268D01*
X0621Y19318D02*
X18174Y19318D01*
X20363Y19318D02*
X21021Y19318D01*
X0621Y19367D02*
X18181Y19367D01*
X0621Y19417D02*
X18187Y19417D01*
X0621Y19467D02*
X18194Y19467D01*
X0623Y19516D02*
X18200Y19516D01*
X0625Y19566D02*
X18217Y19566D01*
X0627Y19615D02*
X18237Y19615D01*
X0630Y19665D02*
X18258Y19665D01*
X0632Y19714D02*
X18278Y19714D01*
X0631Y19764D02*
X18299Y19764D01*
X0631Y19813D02*
X18327Y19813D01*
X0628Y19863D02*
X18365Y19863D01*
X0626Y19912D02*
X18403Y19912D01*
X0624Y19962D02*
X18441Y19962D01*
X0622Y20011D02*
X18479Y20011D01*
X0625Y20061D02*
X18540Y20061D01*
X0627Y20110D02*
X18605Y20110D01*
X0630Y20160D02*
X18669Y20160D01*
X0632Y20209D02*
X18756Y20209D01*
X0634Y20259D02*
X18876Y20259D01*
X0637Y20309D02*
X19051Y20309D01*
X0639Y20358D02*
X19313Y20358D01*
X0642Y20408D02*
X19358Y20408D01*
X0644Y20457D02*
X19356Y20457D01*
X0647Y20507D02*
X19353Y20507D01*
X0649Y20556D02*
X19351Y20556D01*
X0651Y20606D02*
X19348Y20606D01*
X0654Y20655D02*
X19346Y20655D01*
X0656Y20705D02*
X19344Y20705D01*
X0659Y20754D02*
X19341Y20754D01*
X0661Y20804D02*
X19339Y20804D01*
X0664Y20853D02*
X19336Y20853D01*
X0666Y20903D02*
X19334Y20903D01*
X0672Y20952D02*
X19328Y20952D01*
X0679Y21002D02*
X19321Y21002D01*
X0687Y21051D02*
X19313Y21051D01*
X0694Y21101D02*
X19306Y21101D01*
X0701Y21151D02*
X19299Y21151D01*
X0709Y21200D02*
X19291Y21200D01*
X0716Y21250D02*
X19284Y21250D01*
X0723Y21299D02*
X19277Y21299D01*
X0731Y21349D02*
X19269Y21349D01*
X0738Y21398D02*
X19262Y21398D01*
X0745Y21448D02*
X19255Y21448D01*
X0753Y21497D02*
X19247Y21497D01*
X0760Y21547D02*
X19240Y21547D01*
X0767Y21596D02*
X19233Y21596D01*
X0775Y21646D02*
X19225Y21646D01*
X0782Y21695D02*
X19218Y21695D01*
X0789Y21745D02*
X19211Y21745D01*
X0797Y21794D02*
X19203Y21794D01*
X0806Y21844D02*
X19194Y21844D01*
X0818Y21893D02*
X19182Y21893D01*
X0830Y21943D02*
X19170Y21943D01*
X0843Y21993D02*
X19157Y21993D01*
X0855Y22042D02*
X19145Y22042D01*
X0868Y22092D02*
X19132Y22092D01*
X0880Y22141D02*
X19120Y22141D01*
X0892Y22191D02*
X19108Y22191D01*
X0905Y22240D02*
X19095Y22240D01*
X0917Y22290D02*
X19083Y22290D01*
X0930Y22339D02*
X19070Y22339D01*
X0942Y22389D02*
X19058Y22389D01*
X0954Y22438D02*
X19046Y22438D01*
X0967Y22488D02*
X19033Y22488D01*
X0979Y22537D02*
X19021Y22537D01*
X0992Y22587D02*
X19008Y22587D01*
X1004Y22636D02*
X18996Y22636D01*
X1016Y22686D02*
X18984Y22686D01*
X1030Y22736D02*
X18970Y22736D01*
X1048Y22785D02*
X18952Y22785D01*
X1066Y22835D02*
X18934Y22835D01*
X1083Y22884D02*
X18917Y22884D01*
X1101Y22934D02*
X18899Y22934D01*
X1119Y22983D02*
X18881Y22983D01*
X1137Y23033D02*
X18863Y23033D01*
X1154Y23082D02*
X18846Y23082D01*
X1172Y23132D02*
X18828Y23132D01*
X1190Y23181D02*
X18810Y23181D01*
X1207Y23231D02*
X18792Y23231D01*
X1225Y23280D02*
X18775Y23280D01*
X1243Y23330D02*
X18757Y23330D01*
X1261Y23379D02*
X18739Y23379D01*
X1278Y23429D02*
X18722Y23429D01*
X1296Y23478D02*
X18704Y23478D01*
X1314Y23528D02*
X18686Y23528D01*
X1332Y23578D02*
X18668Y23578D01*
X1354Y23627D02*
X18646Y23627D01*
X1377Y23677D02*
X18623Y23677D01*
X1401Y23726D02*
X18599Y23726D01*
X1424Y23776D02*
X18576Y23776D01*
X1447Y23825D02*
X18553Y23825D01*
X1471Y23875D02*
X18529Y23875D01*
X1494Y23924D02*
X18506Y23924D01*
X1518Y23974D02*
X18482Y23974D01*
X1541Y24023D02*
X18459Y24023D01*
X1564Y24073D02*
X18436Y24073D01*
X1588Y24122D02*
X18412Y24122D01*
X1611Y24172D02*
X18389Y24172D01*
X1635Y24221D02*
X18365Y24221D01*
X1658Y24271D02*
X18342Y24271D01*
X1682Y24320D02*
X18318Y24320D01*
X1705Y24370D02*
X18295Y24370D01*
X1728Y24420D02*
X18272Y24420D01*
X1758Y24469D02*
X18242Y24469D01*
X1788Y24519D02*
X18212Y24519D01*
X1817Y24568D02*
X18183Y24568D01*
X1847Y24618D02*
X18153Y24618D01*
X1877Y24667D02*
X18123Y24667D01*
X1906Y24717D02*
X18094Y24717D01*
X1936Y24766D02*
X18064Y24766D01*
X1966Y24816D02*
X18034Y24816D01*
X1995Y24865D02*
X18005Y24865D01*
X2025Y24915D02*
X17975Y24915D01*
X2055Y24964D02*
X17945Y24964D01*
X2085Y25014D02*
X17915Y25014D01*
X2114Y25063D02*
X17886Y25063D01*
X2144Y25113D02*
X17856Y25113D01*
X2174Y25162D02*
X17826Y25162D01*
X2204Y25212D02*
X17796Y25212D01*
X2240Y25262D02*
X17760Y25262D01*
X2277Y25311D02*
X17723Y25311D01*
X2314Y25361D02*
X17686Y25361D01*
X2350Y25410D02*
X17650Y25410D01*
X2387Y25460D02*
X17613Y25460D01*
X2424Y25509D02*
X17576Y25509D01*
X2461Y25559D02*
X17539Y25559D01*
X2497Y25608D02*
X17503Y25608D01*
X2534Y25658D02*
X17466Y25658D01*
X2571Y25707D02*
X17429Y25707D01*
X2608Y25757D02*
X17392Y25757D01*
X2644Y25806D02*
X17356Y25806D01*
X2681Y25856D02*
X17319Y25856D01*
X2718Y25905D02*
X17282Y25905D01*
X2755Y25955D02*
X17245Y25955D01*
X2800Y26004D02*
X17200Y26004D01*
X2845Y26054D02*
X17155Y26054D01*
X2890Y26104D02*
X17110Y26104D01*
X2935Y26153D02*
X17065Y26153D01*
X2980Y26203D02*
X17020Y26203D01*
X3025Y26252D02*
X16975Y26252D01*
X3070Y26302D02*
X16930Y26302D01*
X3115Y26351D02*
X16885Y26351D01*
X3159Y26401D02*
X16841Y26401D01*
X3204Y26450D02*
X16796Y26450D01*
X3249Y26500D02*
X16751Y26500D01*
X3294Y26549D02*
X16706Y26549D01*
X3339Y26599D02*
X16661Y26599D01*
X3387Y26648D02*
X16613Y26648D01*
X3442Y26698D02*
X16558Y26698D01*
X3497Y26747D02*
X16503Y26747D01*
X3551Y26797D02*
X16449Y26797D01*
X3606Y26846D02*
X16394Y26846D01*
X3660Y26896D02*
X16340Y26896D01*
X3715Y26946D02*
X16285Y26946D01*
X3770Y26995D02*
X16230Y26995D01*
X3824Y27045D02*
X16176Y27045D01*
X3879Y27094D02*
X16121Y27094D01*
X3934Y27144D02*
X16066Y27144D01*
X3988Y27193D02*
X16012Y27193D01*
X4043Y27243D02*
X15957Y27243D01*
X4108Y27292D02*
X15892Y27292D01*
X4175Y27342D02*
X15825Y27342D01*
X4242Y27391D02*
X15758Y27391D01*
X4309Y27441D02*
X15691Y27441D01*
X4375Y27490D02*
X15625Y27490D01*
X4442Y27540D02*
X15558Y27540D01*
X4509Y27589D02*
X15491Y27589D01*
X4576Y27639D02*
X15424Y27639D01*
X4642Y27689D02*
X15358Y27689D01*
X4709Y27738D02*
X15291Y27738D01*
X4776Y27788D02*
X15224Y27788D01*
X4855Y27837D02*
X15145Y27837D01*
X4938Y27887D02*
X15062Y27887D01*
X5021Y27936D02*
X14979Y27936D01*
X5103Y27986D02*
X14897Y27986D01*
X5186Y28035D02*
X14814Y28035D01*
X5269Y28085D02*
X14731Y28085D01*
X5351Y28134D02*
X14649Y28134D01*
X5434Y28184D02*
X14566Y28184D01*
X5516Y28233D02*
X14484Y28233D01*
X5604Y28283D02*
X14396Y28283D01*
X5709Y28332D02*
X14291Y28332D01*
X5814Y28382D02*
X14186Y28382D01*
X5919Y28431D02*
X14081Y28431D01*
X6023Y28481D02*
X13977Y28481D01*
X6128Y28531D02*
X13872Y28531D01*
X6233Y28580D02*
X13767Y28580D01*
X6337Y28630D02*
X13662Y28630D01*
X6452Y28679D02*
X13548Y28679D01*
X6591Y28729D02*
X13409Y28729D01*
X6729Y28778D02*
X13271Y28778D01*
X6868Y28828D02*
X13132Y28828D01*
X7006Y28877D02*
X12994Y28877D01*
X7144Y28927D02*
X12856Y28927D01*
X7285Y28976D02*
X12715Y28976D01*
X7483Y29026D02*
X12517Y29026D01*
X7681Y29075D02*
X12319Y29075D01*
X7878Y29125D02*
X12122Y29125D01*
X8076Y29174D02*
X11924Y29174D01*
X8345Y29224D02*
X11655Y29224D01*
X8679Y29273D02*
X11321Y29273D01*
X9013Y29323D02*
X10987Y29323D01*
X9883Y29373D02*
X10117Y29373D01*
%LNtop copper_traces*%
M02*