<?xml version="1.0" standalone="no"?>
<!DOCTYPE svg PUBLIC "-//W3C//DTD SVG 1.1//EN" "http://www.w3.org/Graphics/SVG/1.1/DTD/svg11.dtd">
<svg width="30mm" height="30mm" viewBox="0 -30 30 30" xmlns="http://www.w3.org/2000/svg" version="1.1">
<title>OpenSCAD Model</title>
<path d="
M 19.7501,-0.0122833 L 20,-0 L 20.9802,-0.0481415 L 21.9509,-0.192139 L 22.9028,-0.430588 L 23.8268,-0.7612
 L 24.714,-1.18079 L 25.5557,-1.6853 L 26.3439,-2.26988 L 27.0711,-2.92892 L 27.7301,-3.65607 L 28.3147,-4.44429
 L 28.8192,-5.28603 L 29.2388,-6.17316 L 29.5694,-7.09715 L 29.8078,-8.04909 L 29.9518,-9.01982 L 30,-10
 L 29.9518,-10.9802 L 29.8078,-11.9509 L 29.5694,-12.9028 L 29.2388,-13.8268 L 28.8192,-14.714 L 28.3147,-15.5557
 L 27.7301,-16.3439 L 27.0711,-17.0711 L 26.3439,-17.7301 L 25.5557,-18.3147 L 24.714,-18.8192 L 23.8268,-19.2388
 L 22.9028,-19.5694 L 21.9509,-19.8078 L 20.9802,-19.9518 L 20,-20 L 19.9518,-20.9802 L 19.8078,-21.9509
 L 19.5694,-22.9028 L 19.2388,-23.8268 L 18.8192,-24.714 L 18.3147,-25.5557 L 17.7301,-26.3439 L 17.0711,-27.0711
 L 16.3439,-27.7301 L 15.5557,-28.3147 L 14.714,-28.8192 L 13.8268,-29.2388 L 12.9028,-29.5694 L 11.9509,-29.8078
 L 10.9802,-29.9518 L 10,-30 L 9.01982,-29.9518 L 8.04909,-29.8078 L 7.09715,-29.5694 L 6.17316,-29.2388
 L 5.28603,-28.8192 L 4.44429,-28.3147 L 3.65607,-27.7301 L 2.92892,-27.0711 L 2.26988,-26.3439 L 1.6853,-25.5557
 L 1.18079,-24.714 L 0.7612,-23.8268 L 0.430588,-22.9028 L 0.192139,-21.9509 L 0.0481415,-20.9802 L 0,-20
 L 0.0122833,-19.7501 L 0,-19.5 L 0,-3 L 0.0144348,-2.70595 L 0.0576324,-2.41472 L 0.129166,-2.12914
 L 0.228348,-1.85194 L 0.354233,-1.5858 L 0.505585,-1.33328 L 0.680954,-1.09682 L 0.878677,-0.878677 L 1.09682,-0.680954
 L 1.33328,-0.505585 L 1.5858,-0.354233 L 1.85194,-0.228348 L 2.12914,-0.129166 L 2.41472,-0.0576324 L 2.70595,-0.0144348
 L 3,-0 L 19.5,-0 z
" stroke="black" fill="lightgray" stroke-width="0.5"/>
</svg>
