  0
SECTION
  2
BLOCKS
  0
ENDSEC
  0
SECTION
  2
ENTITIES
  0
LINE
  8
0
 10
19.7501
 20
0.0122833
 11
20
 21
0
  0
LINE
  8
0
 10
20
 20
0
 11
20.9802
 21
0.0481415
  0
LINE
  8
0
 10
20.9802
 20
0.0481415
 11
21.9509
 21
0.192139
  0
LINE
  8
0
 10
21.9509
 20
0.192139
 11
22.9028
 21
0.430588
  0
LINE
  8
0
 10
22.9028
 20
0.430588
 11
23.8268
 21
0.7612
  0
LINE
  8
0
 10
23.8268
 20
0.7612
 11
24.714
 21
1.18079
  0
LINE
  8
0
 10
24.714
 20
1.18079
 11
25.5557
 21
1.6853
  0
LINE
  8
0
 10
25.5557
 20
1.6853
 11
26.3439
 21
2.26988
  0
LINE
  8
0
 10
26.3439
 20
2.26988
 11
27.0711
 21
2.92892
  0
LINE
  8
0
 10
27.0711
 20
2.92892
 11
27.7301
 21
3.65607
  0
LINE
  8
0
 10
27.7301
 20
3.65607
 11
28.3147
 21
4.44429
  0
LINE
  8
0
 10
28.3147
 20
4.44429
 11
28.8192
 21
5.28603
  0
LINE
  8
0
 10
28.8192
 20
5.28603
 11
29.2388
 21
6.17316
  0
LINE
  8
0
 10
29.2388
 20
6.17316
 11
29.5694
 21
7.09715
  0
LINE
  8
0
 10
29.5694
 20
7.09715
 11
29.8078
 21
8.04909
  0
LINE
  8
0
 10
29.8078
 20
8.04909
 11
29.9518
 21
9.01982
  0
LINE
  8
0
 10
29.9518
 20
9.01982
 11
30
 21
10
  0
LINE
  8
0
 10
30
 20
10
 11
29.9518
 21
10.9802
  0
LINE
  8
0
 10
29.9518
 20
10.9802
 11
29.8078
 21
11.9509
  0
LINE
  8
0
 10
29.8078
 20
11.9509
 11
29.5694
 21
12.9028
  0
LINE
  8
0
 10
29.5694
 20
12.9028
 11
29.2388
 21
13.8268
  0
LINE
  8
0
 10
29.2388
 20
13.8268
 11
28.8192
 21
14.714
  0
LINE
  8
0
 10
28.8192
 20
14.714
 11
28.3147
 21
15.5557
  0
LINE
  8
0
 10
28.3147
 20
15.5557
 11
27.7301
 21
16.3439
  0
LINE
  8
0
 10
27.7301
 20
16.3439
 11
27.0711
 21
17.0711
  0
LINE
  8
0
 10
27.0711
 20
17.0711
 11
26.3439
 21
17.7301
  0
LINE
  8
0
 10
26.3439
 20
17.7301
 11
25.5557
 21
18.3147
  0
LINE
  8
0
 10
25.5557
 20
18.3147
 11
24.714
 21
18.8192
  0
LINE
  8
0
 10
24.714
 20
18.8192
 11
23.8268
 21
19.2388
  0
LINE
  8
0
 10
23.8268
 20
19.2388
 11
22.9028
 21
19.5694
  0
LINE
  8
0
 10
22.9028
 20
19.5694
 11
21.9509
 21
19.8078
  0
LINE
  8
0
 10
21.9509
 20
19.8078
 11
20.9802
 21
19.9518
  0
LINE
  8
0
 10
20.9802
 20
19.9518
 11
20
 21
20
  0
LINE
  8
0
 10
20
 20
20
 11
19.9518
 21
20.9802
  0
LINE
  8
0
 10
19.9518
 20
20.9802
 11
19.8078
 21
21.9509
  0
LINE
  8
0
 10
19.8078
 20
21.9509
 11
19.5694
 21
22.9028
  0
LINE
  8
0
 10
19.5694
 20
22.9028
 11
19.2388
 21
23.8268
  0
LINE
  8
0
 10
19.2388
 20
23.8268
 11
18.8192
 21
24.714
  0
LINE
  8
0
 10
18.8192
 20
24.714
 11
18.3147
 21
25.5557
  0
LINE
  8
0
 10
18.3147
 20
25.5557
 11
17.7301
 21
26.3439
  0
LINE
  8
0
 10
17.7301
 20
26.3439
 11
17.0711
 21
27.0711
  0
LINE
  8
0
 10
17.0711
 20
27.0711
 11
16.3439
 21
27.7301
  0
LINE
  8
0
 10
16.3439
 20
27.7301
 11
15.5557
 21
28.3147
  0
LINE
  8
0
 10
15.5557
 20
28.3147
 11
14.714
 21
28.8192
  0
LINE
  8
0
 10
14.714
 20
28.8192
 11
13.8268
 21
29.2388
  0
LINE
  8
0
 10
13.8268
 20
29.2388
 11
12.9028
 21
29.5694
  0
LINE
  8
0
 10
12.9028
 20
29.5694
 11
11.9509
 21
29.8078
  0
LINE
  8
0
 10
11.9509
 20
29.8078
 11
10.9802
 21
29.9518
  0
LINE
  8
0
 10
10.9802
 20
29.9518
 11
10
 21
30
  0
LINE
  8
0
 10
10
 20
30
 11
9.01982
 21
29.9518
  0
LINE
  8
0
 10
9.01982
 20
29.9518
 11
8.04909
 21
29.8078
  0
LINE
  8
0
 10
8.04909
 20
29.8078
 11
7.09715
 21
29.5694
  0
LINE
  8
0
 10
7.09715
 20
29.5694
 11
6.17316
 21
29.2388
  0
LINE
  8
0
 10
6.17316
 20
29.2388
 11
5.28603
 21
28.8192
  0
LINE
  8
0
 10
5.28603
 20
28.8192
 11
4.44429
 21
28.3147
  0
LINE
  8
0
 10
4.44429
 20
28.3147
 11
3.65607
 21
27.7301
  0
LINE
  8
0
 10
3.65607
 20
27.7301
 11
2.92892
 21
27.0711
  0
LINE
  8
0
 10
2.92892
 20
27.0711
 11
2.26988
 21
26.3439
  0
LINE
  8
0
 10
2.26988
 20
26.3439
 11
1.6853
 21
25.5557
  0
LINE
  8
0
 10
1.6853
 20
25.5557
 11
1.18079
 21
24.714
  0
LINE
  8
0
 10
1.18079
 20
24.714
 11
0.7612
 21
23.8268
  0
LINE
  8
0
 10
0.7612
 20
23.8268
 11
0.430588
 21
22.9028
  0
LINE
  8
0
 10
0.430588
 20
22.9028
 11
0.192139
 21
21.9509
  0
LINE
  8
0
 10
0.192139
 20
21.9509
 11
0.0481415
 21
20.9802
  0
LINE
  8
0
 10
0.0481415
 20
20.9802
 11
0
 21
20
  0
LINE
  8
0
 10
0
 20
20
 11
0.0122833
 21
19.7501
  0
LINE
  8
0
 10
0.0122833
 20
19.7501
 11
0
 21
19.5
  0
LINE
  8
0
 10
0
 20
19.5
 11
0
 21
3
  0
LINE
  8
0
 10
0
 20
3
 11
0.0144348
 21
2.70595
  0
LINE
  8
0
 10
0.0144348
 20
2.70595
 11
0.0576324
 21
2.41472
  0
LINE
  8
0
 10
0.0576324
 20
2.41472
 11
0.129166
 21
2.12914
  0
LINE
  8
0
 10
0.129166
 20
2.12914
 11
0.228348
 21
1.85194
  0
LINE
  8
0
 10
0.228348
 20
1.85194
 11
0.354233
 21
1.5858
  0
LINE
  8
0
 10
0.354233
 20
1.5858
 11
0.505585
 21
1.33328
  0
LINE
  8
0
 10
0.505585
 20
1.33328
 11
0.680954
 21
1.09682
  0
LINE
  8
0
 10
0.680954
 20
1.09682
 11
0.878677
 21
0.878677
  0
LINE
  8
0
 10
0.878677
 20
0.878677
 11
1.09682
 21
0.680954
  0
LINE
  8
0
 10
1.09682
 20
0.680954
 11
1.33328
 21
0.505585
  0
LINE
  8
0
 10
1.33328
 20
0.505585
 11
1.5858
 21
0.354233
  0
LINE
  8
0
 10
1.5858
 20
0.354233
 11
1.85194
 21
0.228348
  0
LINE
  8
0
 10
1.85194
 20
0.228348
 11
2.12914
 21
0.129166
  0
LINE
  8
0
 10
2.12914
 20
0.129166
 11
2.41472
 21
0.0576324
  0
LINE
  8
0
 10
2.41472
 20
0.0576324
 11
2.70595
 21
0.0144348
  0
LINE
  8
0
 10
2.70595
 20
0.0144348
 11
3
 21
0
  0
LINE
  8
0
 10
3
 20
0
 11
19.5
 21
0
  0
LINE
  8
0
 10
19.5
 20
0
 11
19.7501
 21
0.0122833
  0
ENDSEC
  0
SECTION
  2
OBJECTS
  0
DICTIONARY
  0
ENDSEC
  0
EOF
