<?xml version="1.0" encoding="utf-8" ?>
<svg baseProfile="tiny" height="116.085823934" version="1.2" width="116.085823934" xmlns="http://www.w3.org/2000/svg" xmlns:ev="http://www.w3.org/2001/xml-events" xmlns:xlink="http://www.w3.org/1999/xlink"><defs /><g id="paths" stroke="blue"><path d="M 73.987793467,111.192516967 L 74.8739745477,111.148994527 L 75.759446967,111.192516967 L 79.2325964884,111.021938625 L 82.6720845933,110.511709503 L 86.0449585266,109.666811492 L 89.3189741946,108.495355222 L 92.462596165,107.008615494 L 95.4449976669,105.22098168 L 98.2378322443,103.149635274 L 100.814525095,100.814454229 L 103.149564408,98.2379385435 L 105.22098168,95.4450366433 L 107.008580061,92.4624898658 L 108.495351679,89.3191159269 L 109.666768973,86.045135692 L 110.511493362,82.6721235697 L 111.02172957,79.2325291656 L 111.192516967,75.759446967 L 111.02172957,72.2863009889 L 110.511493362,68.8468093407 L 109.666768973,65.4739389507 L 108.495351679,62.1999197394 L 107.008580061,59.056297769 L 105.22098168,56.0738998104 L 103.149564408,53.2810616897 L 100.814525095,50.7043688393 L 98.2378322443,48.3693295263 L 95.4449976669,46.2979122541 L 92.462596165,44.5103138726 L 89.3189741946,43.0235422554 L 86.0449585266,41.8521249612 L 82.6720845933,41.0074005724 L 79.2325964884,40.4971643644 L 75.759446967,40.326376967 L 75.5886595696,36.8532274456 L 75.0784233616,33.4137393407 L 74.2336989728,30.0408654074 L 73.0622816786,26.7668497394 L 71.5755100614,23.623227769 L 69.7879116799,20.6408262671 L 67.7164944077,17.8479916897 L 65.3814550947,15.2712988393 L 62.8047622443,12.9362595263 L 60.0119241236,10.8648422541 L 57.029526165,9.0772438726 L 53.8859041946,7.5904722554 L 50.6118849833,6.4190549612 L 47.2390145933,5.5743305724 L 43.7995229451,5.0640943644 L 40.326376967,4.893306967 L 36.8532947684,5.0640943644 L 33.4137003643,5.5743305724 L 30.040688242,6.4190549612 L 26.7667080071,7.5904722554 L 23.6233340682,9.0772438726 L 20.6407872907,10.8648422541 L 17.8478853905,12.9362595263 L 15.2713697054,15.2712988393 L 12.9361886602,17.8479916897 L 10.8648422541,20.6408262671 L 9.07720843953,23.623227769 L 7.59046871209,26.7668497394 L 6.41901244152,30.0408654074 L 5.57411443067,33.4137393407 L 5.06388530929,36.8532274456 L 4.893306967,40.326376967 L 4.93682940688,41.2118493863 L 4.893306967,42.098030467 L 4.893306967,100.562595967 L 4.94445106024,101.60450539 L 5.09751483602,102.636426231 L 5.35098175896,103.648320301 L 5.70241049053,104.630528545 L 6.14846323553,105.573540726 L 6.68474629329,106.46829661 L 7.30613249857,107.306150527 L 8.00672933184,108.079094602 L 8.77967340743,108.779691435 L 9.61752732396,109.401077641 L 10.5122832076,109.937360698 L 11.4552953893,110.383413443 L 12.437503633,110.734842175 L 13.4493977027,110.988309098 L 14.4813185436,111.141372874 L 15.523227967,111.192516967 L 73.987793467,111.192516967 Z" fill-opacity="0" stroke-linejoin="round" stroke-width="1.0" /></g><g fill="red" id="holes"><circle cx="73.102" cy="42.9839" r="2.3031" stroke-width="0.0" /><circle cx="73.9878" cy="99.6768" r="0.585" stroke-width="0.0" /><circle cx="20.5287" cy="56.3632" r="0.585" stroke-width="0.0" /><circle cx="31.1758" cy="88.2358" r="0.585" stroke-width="0.0" /><circle cx="48.8752" cy="28.0167" r="0.585" stroke-width="0.0" /><circle cx="13.7516" cy="44.7555" r="0.585" stroke-width="0.0" /><circle cx="59.5051" cy="59.9065" r="0.585" stroke-width="0.0" /><circle cx="77.2216" cy="84.7097" r="0.585" stroke-width="0.0" /><circle cx="19.0665" cy="39.4406" r="0.585" stroke-width="0.0" /><circle cx="91.3948" cy="70.5364" r="0.585" stroke-width="0.0" /><circle cx="34.7019" cy="42.19" r="0.585" stroke-width="0.0" /><circle cx="16.4091" cy="42.098" r="0.585" stroke-width="0.0" /><circle cx="63.0484" cy="98.8829" r="0.585" stroke-width="0.0" /><circle cx="76.6453" cy="97.0193" r="0.585" stroke-width="0.0" /><circle cx="71.3303" cy="102.3342" r="0.585" stroke-width="0.0" /><circle cx="45.3318" cy="74.0797" r="0.585" stroke-width="0.0" /></g><g id="rulers" stroke="black" /></svg>