%FSLAX33Y33*%
%MOMM*%
%AMRect-W2350000-H1200000-RO1.750*
21,1,2.35,1.2,0.,0.,45*%
%ADD10C,0.0508*%
%ADD11C,0.51054*%
%ADD12Rect-W2350000-H1200000-RO1.750*%
D10*
%LNpour fill*%
G01*
X19720Y0633D02*
X19720Y0633D01*
X19722Y0633*
X19750Y0630*
X19778Y0633*
X19780Y0633*
X20000Y0622*
X20919Y0667*
X21830Y0802*
X22722Y1026*
X23589Y1336*
X24421Y1729*
X25210Y2202*
X25949Y2750*
X26631Y3369*
X27249Y4050*
X27798Y4790*
X28271Y5579*
X28664Y6411*
X28974Y7278*
X29198Y8170*
X29333Y9081*
X29378Y10000*
X29333Y10919*
X29198Y11830*
X28974Y12722*
X28664Y13589*
X28271Y14421*
X27798Y15210*
X27249Y15949*
X26631Y16631*
X25949Y17249*
X25210Y17798*
X24421Y18271*
X23589Y18664*
X22722Y18974*
X21830Y19198*
X20919Y19333*
X20400Y19359*
X20330Y19283*
X20334Y19252*
X20334Y19248*
X20298Y18971*
X20297Y18968*
X20190Y18709*
X20188Y18706*
X20018Y18484*
X20016Y18482*
X19794Y18312*
X19791Y18310*
X19532Y18203*
X19529Y18202*
X19252Y18166*
X19248Y18166*
X18971Y18202*
X18968Y18203*
X18709Y18310*
X18706Y18312*
X18484Y18482*
X18482Y18484*
X18312Y18706*
X18310Y18709*
X18203Y18968*
X18202Y18971*
X18166Y19248*
X18166Y19252*
X18202Y19529*
X18203Y19532*
X18310Y19791*
X18312Y19794*
X18482Y20016*
X18484Y20018*
X18706Y20188*
X18709Y20190*
X18968Y20297*
X18971Y20298*
X19248Y20334*
X19252Y20334*
X19283Y20330*
X19359Y20400*
X19333Y20919*
X19198Y21830*
X18974Y22722*
X18664Y23589*
X18271Y24421*
X17798Y25210*
X17249Y25949*
X16631Y26631*
X15949Y27249*
X15210Y27798*
X14421Y28271*
X13589Y28664*
X12722Y28974*
X11830Y29198*
X10919Y29333*
X10000Y29378*
X9081Y29333*
X8170Y29198*
X7278Y28974*
X6411Y28664*
X5579Y28271*
X4790Y27798*
X4050Y27249*
X3369Y26631*
X2750Y25949*
X2202Y25210*
X1729Y24421*
X1336Y23589*
X1026Y22722*
X0802Y21830*
X0667Y20919*
X0622Y20000*
X0633Y19780*
X0633Y19778*
X0630Y19750*
X0633Y19722*
X0633Y19720*
X0621Y19485*
X0621Y3015*
X0633Y2767*
X0667Y2536*
X0724Y2310*
X0803Y2090*
X0903Y1879*
X1023Y1679*
X1162Y1491*
X1318Y1318*
X1491Y1162*
X1679Y1023*
X1879Y0903*
X2090Y0803*
X2310Y0724*
X2536Y0667*
X2767Y0633*
X3015Y0621*
X19485Y0621*
X19720Y0633*
X12255Y25987D02*
X12255Y25987D01*
X12255Y26008*
X11675Y26589*
X11654Y26589*
X10666Y25602*
X10666Y25580*
X11247Y25000*
X11268Y25000*
X12255Y25987*
X11000Y24732D02*
X11000Y24732D01*
X11000Y24753*
X10420Y25334*
X10398Y25334*
X9411Y24346*
X9411Y24325*
X9992Y23745*
X10013Y23745*
X11000Y24732*
X14589Y23654D02*
X14589Y23654D01*
X14589Y23675*
X13186Y25077*
X13167Y25096*
X13096Y25167*
X13077Y25186*
X12523Y25740*
X12502Y25740*
X10260Y23498*
X10260Y23477*
X10814Y22923*
X10833Y22904*
X10904Y22833*
X10923Y22814*
X12325Y21411*
X12346Y21411*
X14589Y23654*
X8255Y21987D02*
X8255Y21987D01*
X8255Y22008*
X7675Y22589*
X7654Y22589*
X6666Y21602*
X6666Y21580*
X7247Y21000*
X7268Y21000*
X8255Y21987*
X7000Y20732D02*
X7000Y20732D01*
X7000Y20753*
X6420Y21334*
X6398Y21334*
X5411Y20346*
X5411Y20325*
X5992Y19745*
X6013Y19745*
X7000Y20732*
X10589Y19654D02*
X10589Y19654D01*
X10589Y19675*
X9186Y21077*
X9167Y21096*
X9096Y21167*
X9077Y21186*
X8523Y21740*
X8502Y21740*
X6260Y19498*
X6260Y19477*
X6814Y18923*
X6833Y18904*
X6904Y18833*
X6923Y18814*
X8325Y17411*
X8346Y17411*
X10589Y19654*
X4255Y17987D02*
X4255Y17987D01*
X4255Y18008*
X3675Y18589*
X3654Y18589*
X2666Y17602*
X2666Y17580*
X3247Y17000*
X3268Y17000*
X4255Y17987*
X15255Y16987D02*
X15255Y16987D01*
X15255Y17008*
X14675Y17589*
X14654Y17589*
X13666Y16602*
X13666Y16580*
X14247Y16000*
X14268Y16000*
X15255Y16987*
X3000Y16732D02*
X3000Y16732D01*
X3000Y16753*
X2420Y17334*
X2398Y17334*
X1411Y16346*
X1411Y16325*
X1992Y15745*
X2013Y15745*
X3000Y16732*
X14000Y15732D02*
X14000Y15732D01*
X14000Y15753*
X13420Y16334*
X13398Y16334*
X12411Y15346*
X12411Y15325*
X12992Y14745*
X13013Y14745*
X14000Y15732*
X6589Y15654D02*
X6589Y15654D01*
X6589Y15675*
X5186Y17077*
X5167Y17096*
X5096Y17167*
X5077Y17186*
X4523Y17740*
X4502Y17740*
X2260Y15498*
X2260Y15477*
X2814Y14923*
X2833Y14904*
X2904Y14833*
X2923Y14814*
X4325Y13411*
X4346Y13411*
X6589Y15654*
X24255Y13987D02*
X24255Y13987D01*
X24255Y14008*
X23675Y14589*
X23654Y14589*
X22666Y13602*
X22666Y13580*
X23247Y13000*
X23268Y13000*
X24255Y13987*
X17589Y14654D02*
X17589Y14654D01*
X17589Y14675*
X16186Y16077*
X16167Y16096*
X16096Y16167*
X16077Y16186*
X15523Y16740*
X15502Y16740*
X13260Y14498*
X13260Y14477*
X13814Y13923*
X13833Y13904*
X13904Y13833*
X13923Y13814*
X15325Y12411*
X15346Y12411*
X17589Y14654*
X11255Y12987D02*
X11255Y12987D01*
X11255Y13008*
X10675Y13589*
X10654Y13589*
X9666Y12602*
X9666Y12580*
X10247Y12000*
X10268Y12000*
X11255Y12987*
X23000Y12732D02*
X23000Y12732D01*
X23000Y12753*
X22420Y13334*
X22398Y13334*
X21411Y12346*
X21411Y12325*
X21992Y11745*
X22013Y11745*
X23000Y12732*
X10000Y11732D02*
X10000Y11732D01*
X10000Y11753*
X9420Y12334*
X9398Y12334*
X8411Y11346*
X8411Y11325*
X8992Y10745*
X9013Y10745*
X10000Y11732*
X26589Y11654D02*
X26589Y11654D01*
X26589Y11675*
X25186Y13077*
X25167Y13096*
X25096Y13167*
X25077Y13186*
X24523Y13740*
X24502Y13740*
X22260Y11498*
X22260Y11477*
X22814Y10923*
X22833Y10904*
X22904Y10833*
X22923Y10814*
X24325Y9411*
X24346Y9411*
X26589Y11654*
X20255Y9987D02*
X20255Y9987D01*
X20255Y10008*
X19675Y10589*
X19654Y10589*
X18666Y9602*
X18666Y9580*
X19247Y9000*
X19268Y9000*
X20255Y9987*
X13589Y10654D02*
X13589Y10654D01*
X13589Y10675*
X12186Y12077*
X12167Y12096*
X12096Y12167*
X12077Y12186*
X11523Y12740*
X11502Y12740*
X9260Y10498*
X9260Y10477*
X9814Y9923*
X9833Y9904*
X9904Y9833*
X9923Y9814*
X11325Y8411*
X11346Y8411*
X13589Y10654*
X7260Y8992D02*
X7260Y8992D01*
X7260Y9013*
X6679Y9594*
X6658Y9594*
X5671Y8606*
X5671Y8585*
X6252Y8005*
X6273Y8005*
X7260Y8992*
X19000Y8732D02*
X19000Y8732D01*
X19000Y8753*
X18420Y9334*
X18398Y9334*
X17411Y8346*
X17411Y8325*
X17992Y7745*
X18013Y7745*
X19000Y8732*
X6005Y7737D02*
X6005Y7737D01*
X6005Y7758*
X5424Y8338*
X5403Y8338*
X4416Y7351*
X4416Y7330*
X4997Y6750*
X5018Y6750*
X6005Y7737*
X22589Y7654D02*
X22589Y7654D01*
X22589Y7675*
X21186Y9077*
X21167Y9096*
X21096Y9167*
X21077Y9186*
X20523Y9740*
X20502Y9740*
X18260Y7498*
X18260Y7477*
X18814Y6923*
X18833Y6904*
X18833Y6904*
X18904Y6833*
X18904Y6833*
X18923Y6814*
X20325Y5411*
X20346Y5411*
X22589Y7654*
X16255Y5987D02*
X16255Y5987D01*
X16255Y6008*
X15675Y6589*
X15654Y6589*
X14666Y5602*
X14666Y5580*
X15247Y5000*
X15268Y5000*
X16255Y5987*
X9594Y6658D02*
X9594Y6658D01*
X9594Y6679*
X8191Y8082*
X8172Y8101*
X8101Y8172*
X8082Y8191*
X7528Y8745*
X7507Y8745*
X5265Y6503*
X5265Y6482*
X5819Y5928*
X5838Y5909*
X5909Y5838*
X5928Y5819*
X7330Y4416*
X7351Y4416*
X9594Y6658*
X15000Y4732D02*
X15000Y4732D01*
X15000Y4753*
X14420Y5334*
X14398Y5334*
X13411Y4346*
X13411Y4325*
X13992Y3745*
X14013Y3745*
X15000Y4732*
X18589Y3654D02*
X18589Y3654D01*
X18589Y3675*
X17186Y5077*
X17167Y5096*
X17096Y5167*
X17077Y5186*
X16523Y5740*
X16502Y5740*
X14260Y3498*
X14260Y3477*
X14814Y2923*
X14833Y2904*
X14833Y2904*
X14904Y2833*
X14904Y2833*
X14923Y2814*
X16325Y1411*
X16346Y1411*
X18589Y3654*
X2686Y0645D02*
X20476Y0645D01*
X2427Y0695D02*
X21106Y0695D01*
X2254Y0744D02*
X21440Y0744D01*
X2115Y0794D02*
X21774Y0794D01*
X2004Y0843D02*
X21995Y0843D01*
X1900Y0893D02*
X22192Y0893D01*
X1813Y0942D02*
X22390Y0942D01*
X1730Y0992D02*
X22588Y0992D01*
X1653Y1041D02*
X22766Y1041D01*
X1587Y1091D02*
X22905Y1091D01*
X1520Y1140D02*
X23043Y1140D01*
X1460Y1190D02*
X23182Y1190D01*
X1405Y1239D02*
X23320Y1239D01*
X1351Y1289D02*
X23459Y1289D01*
X1300Y1339D02*
X23595Y1339D01*
X1255Y1388D02*
X23700Y1388D01*
X1210Y1438D02*
X16299Y1438D01*
X16373Y1438D02*
X23805Y1438D01*
X1165Y1487D02*
X16250Y1487D01*
X16422Y1487D02*
X23909Y1487D01*
X1128Y1537D02*
X16200Y1537D01*
X16472Y1537D02*
X24014Y1537D01*
X1091Y1586D02*
X16151Y1586D01*
X16521Y1586D02*
X24119Y1586D01*
X1054Y1636D02*
X16101Y1636D01*
X16571Y1636D02*
X24223Y1636D01*
X1019Y1685D02*
X16051Y1685D01*
X16620Y1685D02*
X24328Y1685D01*
X0989Y1735D02*
X16002Y1735D01*
X16670Y1735D02*
X24430Y1735D01*
X0959Y1784D02*
X15952Y1784D01*
X16719Y1784D02*
X24513Y1784D01*
X0930Y1834D02*
X15903Y1834D01*
X16769Y1834D02*
X24596Y1834D01*
X0900Y1883D02*
X15853Y1883D01*
X16818Y1883D02*
X24678Y1883D01*
X0877Y1933D02*
X15804Y1933D01*
X16868Y1933D02*
X24761Y1933D01*
X0854Y1982D02*
X15754Y1982D01*
X16917Y1982D02*
X24844Y1982D01*
X0830Y2032D02*
X15705Y2032D01*
X16967Y2032D02*
X24926Y2032D01*
X0807Y2081D02*
X15655Y2081D01*
X17017Y2081D02*
X25009Y2081D01*
X0788Y2131D02*
X15606Y2131D01*
X17066Y2131D02*
X25091Y2131D01*
X0770Y2181D02*
X15556Y2181D01*
X17116Y2181D02*
X25174Y2181D01*
X0753Y2230D02*
X15507Y2230D01*
X17165Y2230D02*
X25248Y2230D01*
X0735Y2280D02*
X15457Y2280D01*
X17215Y2280D02*
X25315Y2280D01*
X0719Y2329D02*
X15408Y2329D01*
X17264Y2329D02*
X25381Y2329D01*
X0707Y2379D02*
X15358Y2379D01*
X17314Y2379D02*
X25448Y2379D01*
X0694Y2428D02*
X15308Y2428D01*
X17363Y2428D02*
X25515Y2428D01*
X0682Y2478D02*
X15259Y2478D01*
X17413Y2478D02*
X25582Y2478D01*
X0670Y2527D02*
X15209Y2527D01*
X17462Y2527D02*
X25648Y2527D01*
X0661Y2577D02*
X15160Y2577D01*
X17512Y2577D02*
X25715Y2577D01*
X0654Y2626D02*
X15110Y2626D01*
X17561Y2626D02*
X25782Y2626D01*
X0647Y2676D02*
X15061Y2676D01*
X17611Y2676D02*
X25849Y2676D01*
X0639Y2725D02*
X15011Y2725D01*
X17660Y2725D02*
X25916Y2725D01*
X0633Y2775D02*
X14962Y2775D01*
X17710Y2775D02*
X25976Y2775D01*
X0630Y2824D02*
X14912Y2824D01*
X17760Y2824D02*
X26031Y2824D01*
X0628Y2874D02*
X14863Y2874D01*
X17809Y2874D02*
X26086Y2874D01*
X0625Y2924D02*
X14813Y2924D01*
X17859Y2924D02*
X26140Y2924D01*
X0623Y2973D02*
X14764Y2973D01*
X17908Y2973D02*
X26195Y2973D01*
X0621Y3023D02*
X14714Y3023D01*
X17958Y3023D02*
X26250Y3023D01*
X0621Y3072D02*
X14665Y3072D01*
X18007Y3072D02*
X26304Y3072D01*
X0621Y3122D02*
X14615Y3122D01*
X18057Y3122D02*
X26359Y3122D01*
X0621Y3171D02*
X14566Y3171D01*
X18106Y3171D02*
X26414Y3171D01*
X0621Y3221D02*
X14516Y3221D01*
X18156Y3221D02*
X26468Y3221D01*
X0621Y3270D02*
X14466Y3270D01*
X18205Y3270D02*
X26523Y3270D01*
X0621Y3320D02*
X14417Y3320D01*
X18255Y3320D02*
X26578Y3320D01*
X0621Y3369D02*
X14367Y3369D01*
X18304Y3369D02*
X26632Y3369D01*
X0621Y3419D02*
X14318Y3419D01*
X18354Y3419D02*
X26677Y3419D01*
X0621Y3468D02*
X14268Y3468D01*
X18403Y3468D02*
X26722Y3468D01*
X0621Y3518D02*
X14280Y3518D01*
X18453Y3518D02*
X26767Y3518D01*
X0621Y3567D02*
X14329Y3567D01*
X18502Y3567D02*
X26812Y3567D01*
X0621Y3617D02*
X14379Y3617D01*
X18552Y3617D02*
X26857Y3617D01*
X0621Y3666D02*
X14428Y3666D01*
X18589Y3666D02*
X26901Y3666D01*
X0621Y3716D02*
X14478Y3716D01*
X18547Y3716D02*
X26946Y3716D01*
X0621Y3766D02*
X13971Y3766D01*
X14034Y3766D02*
X14528Y3766D01*
X18498Y3766D02*
X26991Y3766D01*
X0621Y3815D02*
X13922Y3815D01*
X14083Y3815D02*
X14577Y3815D01*
X18448Y3815D02*
X27036Y3815D01*
X0621Y3865D02*
X13872Y3865D01*
X14133Y3865D02*
X14627Y3865D01*
X18399Y3865D02*
X27081Y3865D01*
X0621Y3914D02*
X13823Y3914D01*
X14182Y3914D02*
X14676Y3914D01*
X18349Y3914D02*
X27126Y3914D01*
X0621Y3964D02*
X13773Y3964D01*
X14232Y3964D02*
X14726Y3964D01*
X18300Y3964D02*
X27171Y3964D01*
X0621Y4013D02*
X13724Y4013D01*
X14281Y4013D02*
X14775Y4013D01*
X18250Y4013D02*
X27216Y4013D01*
X0621Y4063D02*
X13674Y4063D01*
X14331Y4063D02*
X14825Y4063D01*
X18201Y4063D02*
X27259Y4063D01*
X0621Y4112D02*
X13624Y4112D01*
X14380Y4112D02*
X14874Y4112D01*
X18151Y4112D02*
X27295Y4112D01*
X0621Y4162D02*
X13575Y4162D01*
X14430Y4162D02*
X14924Y4162D01*
X18102Y4162D02*
X27332Y4162D01*
X0621Y4211D02*
X13525Y4211D01*
X14479Y4211D02*
X14973Y4211D01*
X18052Y4211D02*
X27369Y4211D01*
X0621Y4261D02*
X13476Y4261D01*
X14529Y4261D02*
X15023Y4261D01*
X18002Y4261D02*
X27405Y4261D01*
X0621Y4310D02*
X13426Y4310D01*
X14578Y4310D02*
X15072Y4310D01*
X17953Y4310D02*
X27442Y4310D01*
X0621Y4360D02*
X13425Y4360D01*
X14628Y4360D02*
X15122Y4360D01*
X17903Y4360D02*
X27479Y4360D01*
X0621Y4409D02*
X13474Y4409D01*
X14678Y4409D02*
X15171Y4409D01*
X17854Y4409D02*
X27516Y4409D01*
X0621Y4459D02*
X7287Y4459D01*
X7394Y4459D02*
X13524Y4459D01*
X14727Y4459D02*
X15221Y4459D01*
X17804Y4459D02*
X27552Y4459D01*
X0621Y4508D02*
X7238Y4508D01*
X7444Y4508D02*
X13573Y4508D01*
X14777Y4508D02*
X15270Y4508D01*
X17755Y4508D02*
X27589Y4508D01*
X0621Y4558D02*
X7188Y4558D01*
X7493Y4558D02*
X13623Y4558D01*
X14826Y4558D02*
X15320Y4558D01*
X17705Y4558D02*
X27626Y4558D01*
X0621Y4608D02*
X7139Y4608D01*
X7543Y4608D02*
X13672Y4608D01*
X14876Y4608D02*
X15370Y4608D01*
X17656Y4608D02*
X27663Y4608D01*
X0621Y4657D02*
X7089Y4657D01*
X7592Y4657D02*
X13722Y4657D01*
X14925Y4657D02*
X15419Y4657D01*
X17606Y4657D02*
X27699Y4657D01*
X0621Y4707D02*
X7040Y4707D01*
X7642Y4707D02*
X13772Y4707D01*
X14975Y4707D02*
X15469Y4707D01*
X17557Y4707D02*
X27736Y4707D01*
X0621Y4756D02*
X6990Y4756D01*
X7691Y4756D02*
X13821Y4756D01*
X14997Y4756D02*
X15518Y4756D01*
X17507Y4756D02*
X27773Y4756D01*
X0621Y4806D02*
X6941Y4806D01*
X7741Y4806D02*
X13871Y4806D01*
X14947Y4806D02*
X15568Y4806D01*
X17458Y4806D02*
X27807Y4806D01*
X0621Y4855D02*
X6891Y4855D01*
X7790Y4855D02*
X13920Y4855D01*
X14898Y4855D02*
X15617Y4855D01*
X17408Y4855D02*
X27837Y4855D01*
X0621Y4905D02*
X6842Y4905D01*
X7840Y4905D02*
X13970Y4905D01*
X14848Y4905D02*
X15667Y4905D01*
X17359Y4905D02*
X27867Y4905D01*
X0621Y4954D02*
X6792Y4954D01*
X7889Y4954D02*
X14019Y4954D01*
X14799Y4954D02*
X15716Y4954D01*
X17309Y4954D02*
X27896Y4954D01*
X0621Y5004D02*
X6743Y5004D01*
X7939Y5004D02*
X14069Y5004D01*
X14749Y5004D02*
X15243Y5004D01*
X15272Y5004D02*
X15766Y5004D01*
X17260Y5004D02*
X27926Y5004D01*
X0621Y5053D02*
X6693Y5053D01*
X7988Y5053D02*
X14118Y5053D01*
X14700Y5053D02*
X15194Y5053D01*
X15321Y5053D02*
X15815Y5053D01*
X17210Y5053D02*
X27956Y5053D01*
X0621Y5103D02*
X6644Y5103D01*
X8038Y5103D02*
X14168Y5103D01*
X14650Y5103D02*
X15144Y5103D01*
X15371Y5103D02*
X15865Y5103D01*
X17160Y5103D02*
X27985Y5103D01*
X0621Y5152D02*
X6594Y5152D01*
X8087Y5152D02*
X14217Y5152D01*
X14601Y5152D02*
X15095Y5152D01*
X15421Y5152D02*
X15914Y5152D01*
X17111Y5152D02*
X28015Y5152D01*
X0621Y5202D02*
X6545Y5202D01*
X8137Y5202D02*
X14267Y5202D01*
X14551Y5202D02*
X15045Y5202D01*
X15470Y5202D02*
X15964Y5202D01*
X17061Y5202D02*
X28045Y5202D01*
X0621Y5251D02*
X6495Y5251D01*
X8186Y5251D02*
X14316Y5251D01*
X14502Y5251D02*
X14996Y5251D01*
X15520Y5251D02*
X16013Y5251D01*
X17012Y5251D02*
X28074Y5251D01*
X0621Y5301D02*
X6445Y5301D01*
X8236Y5301D02*
X14366Y5301D01*
X14452Y5301D02*
X14946Y5301D01*
X15569Y5301D02*
X16063Y5301D01*
X16962Y5301D02*
X28104Y5301D01*
X0621Y5350D02*
X6396Y5350D01*
X8286Y5350D02*
X14896Y5350D01*
X15619Y5350D02*
X16112Y5350D01*
X16913Y5350D02*
X28134Y5350D01*
X0621Y5400D02*
X6346Y5400D01*
X8335Y5400D02*
X14847Y5400D01*
X15668Y5400D02*
X16162Y5400D01*
X16863Y5400D02*
X28164Y5400D01*
X0621Y5450D02*
X6297Y5450D01*
X8385Y5450D02*
X14797Y5450D01*
X15718Y5450D02*
X16212Y5450D01*
X16814Y5450D02*
X20287Y5450D01*
X20385Y5450D02*
X28193Y5450D01*
X0621Y5499D02*
X6247Y5499D01*
X8434Y5499D02*
X14748Y5499D01*
X15767Y5499D02*
X16261Y5499D01*
X16764Y5499D02*
X20238Y5499D01*
X20434Y5499D02*
X28223Y5499D01*
X0621Y5549D02*
X6198Y5549D01*
X8484Y5549D02*
X14698Y5549D01*
X15817Y5549D02*
X16311Y5549D01*
X16715Y5549D02*
X20188Y5549D01*
X20484Y5549D02*
X28253Y5549D01*
X0621Y5598D02*
X6148Y5598D01*
X8533Y5598D02*
X14666Y5598D01*
X15866Y5598D02*
X16360Y5598D01*
X16665Y5598D02*
X20139Y5598D01*
X20533Y5598D02*
X28280Y5598D01*
X0621Y5648D02*
X6099Y5648D01*
X8583Y5648D02*
X14713Y5648D01*
X15916Y5648D02*
X16410Y5648D01*
X16616Y5648D02*
X20089Y5648D01*
X20583Y5648D02*
X28303Y5648D01*
X0621Y5697D02*
X6049Y5697D01*
X8632Y5697D02*
X14762Y5697D01*
X15965Y5697D02*
X16459Y5697D01*
X16566Y5697D02*
X20040Y5697D01*
X20632Y5697D02*
X28327Y5697D01*
X0621Y5747D02*
X6000Y5747D01*
X8682Y5747D02*
X14812Y5747D01*
X16015Y5747D02*
X19990Y5747D01*
X20682Y5747D02*
X28350Y5747D01*
X0621Y5796D02*
X5950Y5796D01*
X8731Y5796D02*
X14861Y5796D01*
X16064Y5796D02*
X19940Y5796D01*
X20731Y5796D02*
X28374Y5796D01*
X0621Y5846D02*
X5901Y5846D01*
X8781Y5846D02*
X14911Y5846D01*
X16114Y5846D02*
X19891Y5846D01*
X20781Y5846D02*
X28397Y5846D01*
X0621Y5895D02*
X5851Y5895D01*
X8830Y5895D02*
X14960Y5895D01*
X16163Y5895D02*
X19841Y5895D01*
X20830Y5895D02*
X28420Y5895D01*
X0621Y5945D02*
X5802Y5945D01*
X8880Y5945D02*
X15010Y5945D01*
X16213Y5945D02*
X19792Y5945D01*
X20880Y5945D02*
X28444Y5945D01*
X0621Y5994D02*
X5752Y5994D01*
X8929Y5994D02*
X15059Y5994D01*
X16255Y5994D02*
X19742Y5994D01*
X20929Y5994D02*
X28467Y5994D01*
X0621Y6044D02*
X5702Y6044D01*
X8979Y6044D02*
X15109Y6044D01*
X16219Y6044D02*
X19693Y6044D01*
X20979Y6044D02*
X28491Y6044D01*
X0621Y6093D02*
X5653Y6093D01*
X9028Y6093D02*
X15158Y6093D01*
X16170Y6093D02*
X19643Y6093D01*
X21028Y6093D02*
X28514Y6093D01*
X0621Y6143D02*
X5603Y6143D01*
X9078Y6143D02*
X15208Y6143D01*
X16120Y6143D02*
X19594Y6143D01*
X21078Y6143D02*
X28538Y6143D01*
X0621Y6192D02*
X5554Y6192D01*
X9128Y6192D02*
X15257Y6192D01*
X16071Y6192D02*
X19544Y6192D01*
X21128Y6192D02*
X28561Y6192D01*
X0621Y6242D02*
X5504Y6242D01*
X9177Y6242D02*
X15307Y6242D01*
X16021Y6242D02*
X19495Y6242D01*
X21177Y6242D02*
X28584Y6242D01*
X0621Y6292D02*
X5455Y6292D01*
X9227Y6292D02*
X15356Y6292D01*
X15972Y6292D02*
X19445Y6292D01*
X21227Y6292D02*
X28608Y6292D01*
X0621Y6341D02*
X5405Y6341D01*
X9276Y6341D02*
X15406Y6341D01*
X15922Y6341D02*
X19396Y6341D01*
X21276Y6341D02*
X28631Y6341D01*
X0621Y6391D02*
X5356Y6391D01*
X9326Y6391D02*
X15456Y6391D01*
X15873Y6391D02*
X19346Y6391D01*
X21326Y6391D02*
X28655Y6391D01*
X0621Y6440D02*
X5306Y6440D01*
X9375Y6440D02*
X15505Y6440D01*
X15823Y6440D02*
X19297Y6440D01*
X21375Y6440D02*
X28675Y6440D01*
X0621Y6490D02*
X5265Y6490D01*
X9425Y6490D02*
X15555Y6490D01*
X15774Y6490D02*
X19247Y6490D01*
X21425Y6490D02*
X28692Y6490D01*
X0621Y6539D02*
X5301Y6539D01*
X9474Y6539D02*
X15604Y6539D01*
X15724Y6539D02*
X19198Y6539D01*
X21474Y6539D02*
X28710Y6539D01*
X0621Y6589D02*
X5351Y6589D01*
X9524Y6589D02*
X19148Y6589D01*
X21524Y6589D02*
X28728Y6589D01*
X0621Y6638D02*
X5400Y6638D01*
X9573Y6638D02*
X19098Y6638D01*
X21573Y6638D02*
X28746Y6638D01*
X0621Y6688D02*
X5450Y6688D01*
X9585Y6688D02*
X19049Y6688D01*
X21623Y6688D02*
X28763Y6688D01*
X0621Y6737D02*
X5499Y6737D01*
X9536Y6737D02*
X18999Y6737D01*
X21672Y6737D02*
X28781Y6737D01*
X0621Y6787D02*
X4960Y6787D01*
X5055Y6787D02*
X5549Y6787D01*
X9486Y6787D02*
X18950Y6787D01*
X21722Y6787D02*
X28799Y6787D01*
X0621Y6836D02*
X4910Y6836D01*
X5105Y6836D02*
X5598Y6836D01*
X9437Y6836D02*
X18900Y6836D01*
X21771Y6836D02*
X28817Y6836D01*
X0621Y6886D02*
X4860Y6886D01*
X5154Y6886D02*
X5648Y6886D01*
X9387Y6886D02*
X18851Y6886D01*
X21821Y6886D02*
X28834Y6886D01*
X0621Y6935D02*
X4811Y6935D01*
X5204Y6935D02*
X5697Y6935D01*
X9338Y6935D02*
X18801Y6935D01*
X21870Y6935D02*
X28852Y6935D01*
X0621Y6985D02*
X4761Y6985D01*
X5253Y6985D02*
X5747Y6985D01*
X9288Y6985D02*
X18752Y6985D01*
X21920Y6985D02*
X28870Y6985D01*
X0621Y7034D02*
X4712Y7034D01*
X5303Y7034D02*
X5796Y7034D01*
X9239Y7034D02*
X18702Y7034D01*
X21970Y7034D02*
X28887Y7034D01*
X0621Y7084D02*
X4662Y7084D01*
X5352Y7084D02*
X5846Y7084D01*
X9189Y7084D02*
X18653Y7084D01*
X22019Y7084D02*
X28905Y7084D01*
X0621Y7134D02*
X4613Y7134D01*
X5402Y7134D02*
X5896Y7134D01*
X9139Y7134D02*
X18603Y7134D01*
X22069Y7134D02*
X28923Y7134D01*
X0621Y7183D02*
X4563Y7183D01*
X5451Y7183D02*
X5945Y7183D01*
X9090Y7183D02*
X18554Y7183D01*
X22118Y7183D02*
X28941Y7183D01*
X0621Y7233D02*
X4514Y7233D01*
X5501Y7233D02*
X5995Y7233D01*
X9040Y7233D02*
X18504Y7233D01*
X22168Y7233D02*
X28958Y7233D01*
X0621Y7282D02*
X4464Y7282D01*
X5550Y7282D02*
X6044Y7282D01*
X8991Y7282D02*
X18455Y7282D01*
X22217Y7282D02*
X28976Y7282D01*
X0621Y7332D02*
X4416Y7332D01*
X5600Y7332D02*
X6094Y7332D01*
X8941Y7332D02*
X18405Y7332D01*
X22267Y7332D02*
X28988Y7332D01*
X0621Y7381D02*
X4446Y7381D01*
X5649Y7381D02*
X6143Y7381D01*
X8892Y7381D02*
X18355Y7381D01*
X22316Y7381D02*
X29000Y7381D01*
X0621Y7431D02*
X4496Y7431D01*
X5699Y7431D02*
X6193Y7431D01*
X8842Y7431D02*
X18306Y7431D01*
X22366Y7431D02*
X29013Y7431D01*
X0621Y7480D02*
X4545Y7480D01*
X5748Y7480D02*
X6242Y7480D01*
X8793Y7480D02*
X18260Y7480D01*
X22415Y7480D02*
X29025Y7480D01*
X0621Y7530D02*
X4595Y7530D01*
X5798Y7530D02*
X6292Y7530D01*
X8743Y7530D02*
X18292Y7530D01*
X22465Y7530D02*
X29038Y7530D01*
X0621Y7579D02*
X4644Y7579D01*
X5847Y7579D02*
X6341Y7579D01*
X8694Y7579D02*
X18341Y7579D01*
X22514Y7579D02*
X29050Y7579D01*
X0621Y7629D02*
X4694Y7629D01*
X5897Y7629D02*
X6391Y7629D01*
X8644Y7629D02*
X18391Y7629D01*
X22564Y7629D02*
X29062Y7629D01*
X0621Y7678D02*
X4743Y7678D01*
X5947Y7678D02*
X6440Y7678D01*
X8595Y7678D02*
X18440Y7678D01*
X22585Y7678D02*
X29075Y7678D01*
X0621Y7728D02*
X4793Y7728D01*
X5996Y7728D02*
X6490Y7728D01*
X8545Y7728D02*
X18490Y7728D01*
X22535Y7728D02*
X29087Y7728D01*
X0621Y7777D02*
X4842Y7777D01*
X5985Y7777D02*
X6539Y7777D01*
X8496Y7777D02*
X17959Y7777D01*
X18046Y7777D02*
X18539Y7777D01*
X22486Y7777D02*
X29100Y7777D01*
X0621Y7827D02*
X4892Y7827D01*
X5936Y7827D02*
X6589Y7827D01*
X8446Y7827D02*
X17910Y7827D01*
X18095Y7827D02*
X18589Y7827D01*
X22436Y7827D02*
X29112Y7827D01*
X0621Y7877D02*
X4941Y7877D01*
X5886Y7877D02*
X6639Y7877D01*
X8397Y7877D02*
X17860Y7877D01*
X18145Y7877D02*
X18639Y7877D01*
X22387Y7877D02*
X29124Y7877D01*
X0621Y7926D02*
X4991Y7926D01*
X5837Y7926D02*
X6688Y7926D01*
X8347Y7926D02*
X17811Y7926D01*
X18194Y7926D02*
X18688Y7926D01*
X22337Y7926D02*
X29137Y7926D01*
X0621Y7976D02*
X5041Y7976D01*
X5787Y7976D02*
X6738Y7976D01*
X8297Y7976D02*
X17761Y7976D01*
X18244Y7976D02*
X18738Y7976D01*
X22288Y7976D02*
X29149Y7976D01*
X0621Y8025D02*
X5090Y8025D01*
X5738Y8025D02*
X6232Y8025D01*
X6293Y8025D02*
X6787Y8025D01*
X8248Y8025D02*
X17712Y8025D01*
X18293Y8025D02*
X18787Y8025D01*
X22238Y8025D02*
X29162Y8025D01*
X0621Y8075D02*
X5140Y8075D01*
X5688Y8075D02*
X6182Y8075D01*
X6343Y8075D02*
X6837Y8075D01*
X8198Y8075D02*
X17662Y8075D01*
X18343Y8075D02*
X18837Y8075D01*
X22189Y8075D02*
X29174Y8075D01*
X0621Y8124D02*
X5189Y8124D01*
X5639Y8124D02*
X6132Y8124D01*
X6392Y8124D02*
X6886Y8124D01*
X8149Y8124D02*
X17613Y8124D01*
X18392Y8124D02*
X18886Y8124D01*
X22139Y8124D02*
X29186Y8124D01*
X0621Y8174D02*
X5239Y8174D01*
X5589Y8174D02*
X6083Y8174D01*
X6442Y8174D02*
X6936Y8174D01*
X8099Y8174D02*
X17563Y8174D01*
X18442Y8174D02*
X18936Y8174D01*
X22090Y8174D02*
X29198Y8174D01*
X0621Y8223D02*
X5288Y8223D01*
X5540Y8223D02*
X6033Y8223D01*
X6491Y8223D02*
X6985Y8223D01*
X8050Y8223D02*
X17513Y8223D01*
X18491Y8223D02*
X18985Y8223D01*
X22040Y8223D02*
X29206Y8223D01*
X0621Y8273D02*
X5338Y8273D01*
X5490Y8273D02*
X5984Y8273D01*
X6541Y8273D02*
X7035Y8273D01*
X8000Y8273D02*
X17464Y8273D01*
X18541Y8273D02*
X19035Y8273D01*
X21991Y8273D02*
X29213Y8273D01*
X0621Y8322D02*
X5387Y8322D01*
X5441Y8322D02*
X5934Y8322D01*
X6590Y8322D02*
X7084Y8322D01*
X7951Y8322D02*
X17414Y8322D01*
X18590Y8322D02*
X19084Y8322D01*
X21941Y8322D02*
X29221Y8322D01*
X0621Y8372D02*
X5885Y8372D01*
X6640Y8372D02*
X7134Y8372D01*
X7901Y8372D02*
X17437Y8372D01*
X18640Y8372D02*
X19134Y8372D01*
X21892Y8372D02*
X29228Y8372D01*
X0621Y8421D02*
X5835Y8421D01*
X6689Y8421D02*
X7183Y8421D01*
X7852Y8421D02*
X11315Y8421D01*
X11356Y8421D02*
X17486Y8421D01*
X18689Y8421D02*
X19183Y8421D01*
X21842Y8421D02*
X29235Y8421D01*
X0621Y8471D02*
X5786Y8471D01*
X6739Y8471D02*
X7233Y8471D01*
X7802Y8471D02*
X11266Y8471D01*
X11406Y8471D02*
X17536Y8471D01*
X18739Y8471D02*
X19233Y8471D01*
X21792Y8471D02*
X29243Y8471D01*
X0621Y8520D02*
X5736Y8520D01*
X6789Y8520D02*
X7282Y8520D01*
X7753Y8520D02*
X11216Y8520D01*
X11455Y8520D02*
X17585Y8520D01*
X18789Y8520D02*
X19282Y8520D01*
X21743Y8520D02*
X29250Y8520D01*
X0621Y8570D02*
X5687Y8570D01*
X6838Y8570D02*
X7332Y8570D01*
X7703Y8570D02*
X11167Y8570D01*
X11505Y8570D02*
X17635Y8570D01*
X18838Y8570D02*
X19332Y8570D01*
X21693Y8570D02*
X29257Y8570D01*
X0621Y8619D02*
X5684Y8619D01*
X6888Y8619D02*
X7381Y8619D01*
X7654Y8619D02*
X11117Y8619D01*
X11555Y8619D02*
X17684Y8619D01*
X18888Y8619D02*
X19381Y8619D01*
X21644Y8619D02*
X29265Y8619D01*
X0621Y8669D02*
X5734Y8669D01*
X6937Y8669D02*
X7431Y8669D01*
X7604Y8669D02*
X11068Y8669D01*
X11604Y8669D02*
X17734Y8669D01*
X18937Y8669D02*
X19431Y8669D01*
X21594Y8669D02*
X29272Y8669D01*
X0621Y8719D02*
X5783Y8719D01*
X6987Y8719D02*
X7481Y8719D01*
X7554Y8719D02*
X11018Y8719D01*
X11654Y8719D02*
X17783Y8719D01*
X18987Y8719D02*
X19481Y8719D01*
X21545Y8719D02*
X29279Y8719D01*
X0621Y8768D02*
X5833Y8768D01*
X7036Y8768D02*
X10969Y8768D01*
X11703Y8768D02*
X17833Y8768D01*
X18985Y8768D02*
X19530Y8768D01*
X21495Y8768D02*
X29287Y8768D01*
X0621Y8818D02*
X5883Y8818D01*
X7086Y8818D02*
X10919Y8818D01*
X11753Y8818D02*
X17883Y8818D01*
X18936Y8818D02*
X19580Y8818D01*
X21446Y8818D02*
X29294Y8818D01*
X0621Y8867D02*
X5932Y8867D01*
X7135Y8867D02*
X10870Y8867D01*
X11802Y8867D02*
X17932Y8867D01*
X18886Y8867D02*
X19629Y8867D01*
X21396Y8867D02*
X29301Y8867D01*
X0621Y8917D02*
X5982Y8917D01*
X7185Y8917D02*
X10820Y8917D01*
X11852Y8917D02*
X17982Y8917D01*
X18836Y8917D02*
X19679Y8917D01*
X21347Y8917D02*
X29309Y8917D01*
X0621Y8966D02*
X6031Y8966D01*
X7234Y8966D02*
X10771Y8966D01*
X11901Y8966D02*
X18031Y8966D01*
X18787Y8966D02*
X19728Y8966D01*
X21297Y8966D02*
X29316Y8966D01*
X0621Y9016D02*
X6081Y9016D01*
X7257Y9016D02*
X10721Y9016D01*
X11951Y9016D02*
X18081Y9016D01*
X18737Y9016D02*
X19231Y9016D01*
X19284Y9016D02*
X19778Y9016D01*
X21248Y9016D02*
X29323Y9016D01*
X0621Y9065D02*
X6130Y9065D01*
X7208Y9065D02*
X10671Y9065D01*
X12000Y9065D02*
X18130Y9065D01*
X18688Y9065D02*
X19182Y9065D01*
X19333Y9065D02*
X19827Y9065D01*
X21198Y9065D02*
X29331Y9065D01*
X0621Y9115D02*
X6180Y9115D01*
X7158Y9115D02*
X10622Y9115D01*
X12050Y9115D02*
X18180Y9115D01*
X18638Y9115D02*
X19132Y9115D01*
X19383Y9115D02*
X19877Y9115D01*
X21149Y9115D02*
X29335Y9115D01*
X0621Y9164D02*
X6229Y9164D01*
X7109Y9164D02*
X10572Y9164D01*
X12099Y9164D02*
X18229Y9164D01*
X18589Y9164D02*
X19083Y9164D01*
X19432Y9164D02*
X19926Y9164D01*
X21099Y9164D02*
X29337Y9164D01*
X0621Y9214D02*
X6279Y9214D01*
X7059Y9214D02*
X10523Y9214D01*
X12149Y9214D02*
X18279Y9214D01*
X18539Y9214D02*
X19033Y9214D01*
X19482Y9214D02*
X19976Y9214D01*
X21049Y9214D02*
X29340Y9214D01*
X0621Y9263D02*
X6328Y9263D01*
X7010Y9263D02*
X10473Y9263D01*
X12198Y9263D02*
X18328Y9263D01*
X18490Y9263D02*
X18984Y9263D01*
X19531Y9263D02*
X20025Y9263D01*
X21000Y9263D02*
X29342Y9263D01*
X0621Y9313D02*
X6378Y9313D01*
X6960Y9313D02*
X10424Y9313D01*
X12248Y9313D02*
X18378Y9313D01*
X18440Y9313D02*
X18934Y9313D01*
X19581Y9313D02*
X20075Y9313D01*
X20950Y9313D02*
X29344Y9313D01*
X0621Y9362D02*
X6427Y9362D01*
X6911Y9362D02*
X10374Y9362D01*
X12297Y9362D02*
X18885Y9362D01*
X19631Y9362D02*
X20124Y9362D01*
X20901Y9362D02*
X29347Y9362D01*
X0621Y9412D02*
X6477Y9412D01*
X6861Y9412D02*
X10325Y9412D01*
X12347Y9412D02*
X18835Y9412D01*
X19680Y9412D02*
X20174Y9412D01*
X20851Y9412D02*
X24325Y9412D01*
X24347Y9412D02*
X29349Y9412D01*
X0621Y9461D02*
X6526Y9461D01*
X6812Y9461D02*
X10275Y9461D01*
X12397Y9461D02*
X18785Y9461D01*
X19730Y9461D02*
X20223Y9461D01*
X20802Y9461D02*
X24275Y9461D01*
X24397Y9461D02*
X29352Y9461D01*
X0621Y9511D02*
X6576Y9511D01*
X6762Y9511D02*
X10226Y9511D01*
X12446Y9511D02*
X18736Y9511D01*
X19779Y9511D02*
X20273Y9511D01*
X20752Y9511D02*
X24226Y9511D01*
X24446Y9511D02*
X29354Y9511D01*
X0621Y9561D02*
X6625Y9561D01*
X6712Y9561D02*
X10176Y9561D01*
X12496Y9561D02*
X18686Y9561D01*
X19829Y9561D02*
X20323Y9561D01*
X20703Y9561D02*
X24176Y9561D01*
X24496Y9561D02*
X29357Y9561D01*
X0621Y9610D02*
X10127Y9610D01*
X12545Y9610D02*
X18675Y9610D01*
X19878Y9610D02*
X20372Y9610D01*
X20653Y9610D02*
X24127Y9610D01*
X24545Y9610D02*
X29359Y9610D01*
X0621Y9660D02*
X10077Y9660D01*
X12595Y9660D02*
X18725Y9660D01*
X19928Y9660D02*
X20422Y9660D01*
X20604Y9660D02*
X24077Y9660D01*
X24595Y9660D02*
X29362Y9660D01*
X0621Y9709D02*
X10028Y9709D01*
X12644Y9709D02*
X18774Y9709D01*
X19977Y9709D02*
X20471Y9709D01*
X20554Y9709D02*
X24028Y9709D01*
X24644Y9709D02*
X29364Y9709D01*
X0621Y9759D02*
X9978Y9759D01*
X12694Y9759D02*
X18824Y9759D01*
X20027Y9759D02*
X23978Y9759D01*
X24694Y9759D02*
X29366Y9759D01*
X0621Y9808D02*
X9929Y9808D01*
X12743Y9808D02*
X18873Y9808D01*
X20076Y9808D02*
X23929Y9808D01*
X24743Y9808D02*
X29369Y9808D01*
X0621Y9858D02*
X9879Y9858D01*
X12793Y9858D02*
X18923Y9858D01*
X20126Y9858D02*
X23879Y9858D01*
X24793Y9858D02*
X29371Y9858D01*
X0621Y9907D02*
X9829Y9907D01*
X12842Y9907D02*
X18972Y9907D01*
X20175Y9907D02*
X23829Y9907D01*
X24842Y9907D02*
X29374Y9907D01*
X0621Y9957D02*
X9780Y9957D01*
X12892Y9957D02*
X19022Y9957D01*
X20225Y9957D02*
X23780Y9957D01*
X24892Y9957D02*
X29376Y9957D01*
X0621Y10006D02*
X9730Y10006D01*
X12941Y10006D02*
X19071Y10006D01*
X20255Y10006D02*
X23730Y10006D01*
X24941Y10006D02*
X29378Y10006D01*
X0621Y10056D02*
X9681Y10056D01*
X12991Y10056D02*
X19121Y10056D01*
X20207Y10056D02*
X23681Y10056D01*
X24991Y10056D02*
X29376Y10056D01*
X0621Y10105D02*
X9631Y10105D01*
X13040Y10105D02*
X19170Y10105D01*
X20158Y10105D02*
X23631Y10105D01*
X25040Y10105D02*
X29373Y10105D01*
X0621Y10155D02*
X9582Y10155D01*
X13090Y10155D02*
X19220Y10155D01*
X20108Y10155D02*
X23582Y10155D01*
X25090Y10155D02*
X29371Y10155D01*
X0621Y10204D02*
X9532Y10204D01*
X13139Y10204D02*
X19269Y10204D01*
X20059Y10204D02*
X23532Y10204D01*
X25139Y10204D02*
X29368Y10204D01*
X0621Y10254D02*
X9483Y10254D01*
X13189Y10254D02*
X19319Y10254D01*
X20009Y10254D02*
X23483Y10254D01*
X25189Y10254D02*
X29366Y10254D01*
X0621Y10303D02*
X9433Y10303D01*
X13239Y10303D02*
X19368Y10303D01*
X19960Y10303D02*
X23433Y10303D01*
X25239Y10303D02*
X29363Y10303D01*
X0621Y10353D02*
X9384Y10353D01*
X13288Y10353D02*
X19418Y10353D01*
X19910Y10353D02*
X23384Y10353D01*
X25288Y10353D02*
X29361Y10353D01*
X0621Y10403D02*
X9334Y10403D01*
X13338Y10403D02*
X19467Y10403D01*
X19861Y10403D02*
X23334Y10403D01*
X25338Y10403D02*
X29358Y10403D01*
X0621Y10452D02*
X9285Y10452D01*
X13387Y10452D02*
X19517Y10452D01*
X19811Y10452D02*
X23285Y10452D01*
X25387Y10452D02*
X29356Y10452D01*
X0621Y10502D02*
X9264Y10502D01*
X13437Y10502D02*
X19567Y10502D01*
X19762Y10502D02*
X23235Y10502D01*
X25437Y10502D02*
X29354Y10502D01*
X0621Y10551D02*
X9313Y10551D01*
X13486Y10551D02*
X19616Y10551D01*
X19712Y10551D02*
X23186Y10551D01*
X25486Y10551D02*
X29351Y10551D01*
X0621Y10601D02*
X9363Y10601D01*
X13536Y10601D02*
X23136Y10601D01*
X25536Y10601D02*
X29349Y10601D01*
X0621Y10650D02*
X9412Y10650D01*
X13585Y10650D02*
X23087Y10650D01*
X25585Y10650D02*
X29346Y10650D01*
X0621Y10700D02*
X9462Y10700D01*
X13564Y10700D02*
X23037Y10700D01*
X25635Y10700D02*
X29344Y10700D01*
X0621Y10749D02*
X8987Y10749D01*
X9017Y10749D02*
X9511Y10749D01*
X13514Y10749D02*
X22987Y10749D01*
X25684Y10749D02*
X29341Y10749D01*
X0621Y10799D02*
X8938Y10799D01*
X9067Y10799D02*
X9561Y10799D01*
X13465Y10799D02*
X22938Y10799D01*
X25734Y10799D02*
X29339Y10799D01*
X0621Y10848D02*
X8888Y10848D01*
X9116Y10848D02*
X9610Y10848D01*
X13415Y10848D02*
X22888Y10848D01*
X25783Y10848D02*
X29337Y10848D01*
X0621Y10898D02*
X8839Y10898D01*
X9166Y10898D02*
X9660Y10898D01*
X13365Y10898D02*
X22839Y10898D01*
X25833Y10898D02*
X29334Y10898D01*
X0621Y10947D02*
X8789Y10947D01*
X9216Y10947D02*
X9709Y10947D01*
X13316Y10947D02*
X22789Y10947D01*
X25882Y10947D02*
X29329Y10947D01*
X0621Y10997D02*
X8740Y10997D01*
X9265Y10997D02*
X9759Y10997D01*
X13266Y10997D02*
X22740Y10997D01*
X25932Y10997D02*
X29322Y10997D01*
X0621Y11046D02*
X8690Y11046D01*
X9315Y11046D02*
X9808Y11046D01*
X13217Y11046D02*
X22690Y11046D01*
X25981Y11046D02*
X29314Y11046D01*
X0621Y11096D02*
X8641Y11096D01*
X9364Y11096D02*
X9858Y11096D01*
X13167Y11096D02*
X22641Y11096D01*
X26031Y11096D02*
X29307Y11096D01*
X0621Y11145D02*
X8591Y11145D01*
X9414Y11145D02*
X9907Y11145D01*
X13118Y11145D02*
X22591Y11145D01*
X26081Y11145D02*
X29299Y11145D01*
X0621Y11195D02*
X8542Y11195D01*
X9463Y11195D02*
X9957Y11195D01*
X13068Y11195D02*
X22542Y11195D01*
X26130Y11195D02*
X29292Y11195D01*
X0621Y11245D02*
X8492Y11245D01*
X9513Y11245D02*
X10007Y11245D01*
X13019Y11245D02*
X22492Y11245D01*
X26180Y11245D02*
X29285Y11245D01*
X0621Y11294D02*
X8443Y11294D01*
X9562Y11294D02*
X10056Y11294D01*
X12969Y11294D02*
X22443Y11294D01*
X26229Y11294D02*
X29277Y11294D01*
X0621Y11344D02*
X8411Y11344D01*
X9612Y11344D02*
X10106Y11344D01*
X12920Y11344D02*
X22393Y11344D01*
X26279Y11344D02*
X29270Y11344D01*
X0621Y11393D02*
X8458Y11393D01*
X9661Y11393D02*
X10155Y11393D01*
X12870Y11393D02*
X22344Y11393D01*
X26328Y11393D02*
X29263Y11393D01*
X0621Y11443D02*
X8508Y11443D01*
X9711Y11443D02*
X10205Y11443D01*
X12821Y11443D02*
X22294Y11443D01*
X26378Y11443D02*
X29255Y11443D01*
X0621Y11492D02*
X8557Y11492D01*
X9760Y11492D02*
X10254Y11492D01*
X12771Y11492D02*
X22260Y11492D01*
X26427Y11492D02*
X29248Y11492D01*
X0621Y11542D02*
X8607Y11542D01*
X9810Y11542D02*
X10304Y11542D01*
X12722Y11542D02*
X22304Y11542D01*
X26477Y11542D02*
X29241Y11542D01*
X0621Y11591D02*
X8656Y11591D01*
X9859Y11591D02*
X10353Y11591D01*
X12672Y11591D02*
X22353Y11591D01*
X26526Y11591D02*
X29233Y11591D01*
X0621Y11641D02*
X8706Y11641D01*
X9909Y11641D02*
X10403Y11641D01*
X12623Y11641D02*
X22403Y11641D01*
X26576Y11641D02*
X29226Y11641D01*
X0621Y11690D02*
X8755Y11690D01*
X9958Y11690D02*
X10452Y11690D01*
X12573Y11690D02*
X22452Y11690D01*
X26573Y11690D02*
X29219Y11690D01*
X0621Y11740D02*
X8805Y11740D01*
X10000Y11740D02*
X10502Y11740D01*
X12523Y11740D02*
X22502Y11740D01*
X26523Y11740D02*
X29211Y11740D01*
X0621Y11789D02*
X8854Y11789D01*
X9964Y11789D02*
X10551Y11789D01*
X12474Y11789D02*
X21947Y11789D01*
X22058Y11789D02*
X22551Y11789D01*
X26474Y11789D02*
X29204Y11789D01*
X0621Y11839D02*
X8904Y11839D01*
X9914Y11839D02*
X10601Y11839D01*
X12424Y11839D02*
X21898Y11839D01*
X22107Y11839D02*
X22601Y11839D01*
X26424Y11839D02*
X29196Y11839D01*
X0621Y11888D02*
X8953Y11888D01*
X9865Y11888D02*
X10650Y11888D01*
X12375Y11888D02*
X21848Y11888D01*
X22157Y11888D02*
X22650Y11888D01*
X26375Y11888D02*
X29183Y11888D01*
X0621Y11938D02*
X9003Y11938D01*
X9815Y11938D02*
X10700Y11938D01*
X12325Y11938D02*
X21799Y11938D01*
X22206Y11938D02*
X22700Y11938D01*
X26325Y11938D02*
X29171Y11938D01*
X0621Y11987D02*
X9052Y11987D01*
X9766Y11987D02*
X10749Y11987D01*
X12276Y11987D02*
X21749Y11987D01*
X22256Y11987D02*
X22749Y11987D01*
X26276Y11987D02*
X29158Y11987D01*
X0621Y12037D02*
X9102Y12037D01*
X9716Y12037D02*
X10210Y12037D01*
X10305Y12037D02*
X10799Y12037D01*
X12226Y12037D02*
X21700Y12037D01*
X22305Y12037D02*
X22799Y12037D01*
X26226Y12037D02*
X29146Y12037D01*
X0621Y12087D02*
X9151Y12087D01*
X9667Y12087D02*
X10160Y12087D01*
X10355Y12087D02*
X10849Y12087D01*
X12177Y12087D02*
X21650Y12087D01*
X22355Y12087D02*
X22849Y12087D01*
X26177Y12087D02*
X29134Y12087D01*
X0621Y12136D02*
X9201Y12136D01*
X9617Y12136D02*
X10111Y12136D01*
X10404Y12136D02*
X10898Y12136D01*
X12127Y12136D02*
X21601Y12136D01*
X22404Y12136D02*
X22898Y12136D01*
X26127Y12136D02*
X29121Y12136D01*
X0621Y12186D02*
X9251Y12186D01*
X9567Y12186D02*
X10061Y12186D01*
X10454Y12186D02*
X10948Y12186D01*
X12078Y12186D02*
X21551Y12186D01*
X22454Y12186D02*
X22948Y12186D01*
X26078Y12186D02*
X29109Y12186D01*
X0621Y12235D02*
X9300Y12235D01*
X9518Y12235D02*
X10012Y12235D01*
X10503Y12235D02*
X10997Y12235D01*
X12028Y12235D02*
X21502Y12235D01*
X22503Y12235D02*
X22997Y12235D01*
X26028Y12235D02*
X29096Y12235D01*
X0621Y12285D02*
X9350Y12285D01*
X9468Y12285D02*
X9962Y12285D01*
X10553Y12285D02*
X11047Y12285D01*
X11979Y12285D02*
X21452Y12285D01*
X22553Y12285D02*
X23047Y12285D01*
X25979Y12285D02*
X29084Y12285D01*
X0621Y12334D02*
X9913Y12334D01*
X10602Y12334D02*
X11096Y12334D01*
X11929Y12334D02*
X21411Y12334D01*
X22602Y12334D02*
X23096Y12334D01*
X25929Y12334D02*
X29072Y12334D01*
X0621Y12384D02*
X9863Y12384D01*
X10652Y12384D02*
X11146Y12384D01*
X11880Y12384D02*
X21449Y12384D01*
X22652Y12384D02*
X23146Y12384D01*
X25880Y12384D02*
X29059Y12384D01*
X0621Y12433D02*
X9814Y12433D01*
X10701Y12433D02*
X11195Y12433D01*
X11830Y12433D02*
X15303Y12433D01*
X15368Y12433D02*
X21498Y12433D01*
X22701Y12433D02*
X23195Y12433D01*
X25830Y12433D02*
X29047Y12433D01*
X0621Y12483D02*
X9764Y12483D01*
X10751Y12483D02*
X11245Y12483D01*
X11781Y12483D02*
X15254Y12483D01*
X15418Y12483D02*
X21548Y12483D01*
X22751Y12483D02*
X23245Y12483D01*
X25781Y12483D02*
X29034Y12483D01*
X0621Y12532D02*
X9715Y12532D01*
X10800Y12532D02*
X11294Y12532D01*
X11731Y12532D02*
X15204Y12532D01*
X15467Y12532D02*
X21597Y12532D01*
X22800Y12532D02*
X23294Y12532D01*
X25731Y12532D02*
X29022Y12532D01*
X0621Y12582D02*
X9666Y12582D01*
X10850Y12582D02*
X11344Y12582D01*
X11681Y12582D02*
X15155Y12582D01*
X15517Y12582D02*
X21647Y12582D01*
X22850Y12582D02*
X23344Y12582D01*
X25681Y12582D02*
X29010Y12582D01*
X0621Y12631D02*
X9696Y12631D01*
X10900Y12631D02*
X11393Y12631D01*
X11632Y12631D02*
X15105Y12631D01*
X15566Y12631D02*
X21696Y12631D01*
X22900Y12631D02*
X23393Y12631D01*
X25632Y12631D02*
X28997Y12631D01*
X0621Y12681D02*
X9746Y12681D01*
X10949Y12681D02*
X11443Y12681D01*
X11582Y12681D02*
X15056Y12681D01*
X15616Y12681D02*
X21746Y12681D01*
X22949Y12681D02*
X23443Y12681D01*
X25582Y12681D02*
X28985Y12681D01*
X0621Y12730D02*
X9795Y12730D01*
X10999Y12730D02*
X11492Y12730D01*
X11533Y12730D02*
X15006Y12730D01*
X15666Y12730D02*
X21795Y12730D01*
X22999Y12730D02*
X23492Y12730D01*
X25533Y12730D02*
X28972Y12730D01*
X0621Y12780D02*
X9845Y12780D01*
X11048Y12780D02*
X14957Y12780D01*
X15715Y12780D02*
X21845Y12780D01*
X22973Y12780D02*
X23542Y12780D01*
X25483Y12780D02*
X28954Y12780D01*
X0621Y12830D02*
X9894Y12830D01*
X11098Y12830D02*
X14907Y12830D01*
X15765Y12830D02*
X21894Y12830D01*
X22924Y12830D02*
X23592Y12830D01*
X25434Y12830D02*
X28936Y12830D01*
X0621Y12879D02*
X9944Y12879D01*
X11147Y12879D02*
X14858Y12879D01*
X15814Y12879D02*
X21944Y12879D01*
X22874Y12879D02*
X23641Y12879D01*
X25384Y12879D02*
X28918Y12879D01*
X0621Y12929D02*
X9994Y12929D01*
X11197Y12929D02*
X14808Y12929D01*
X15864Y12929D02*
X21994Y12929D01*
X22825Y12929D02*
X23691Y12929D01*
X25335Y12929D02*
X28901Y12929D01*
X0621Y12978D02*
X10043Y12978D01*
X11246Y12978D02*
X14759Y12978D01*
X15913Y12978D02*
X22043Y12978D01*
X22775Y12978D02*
X23740Y12978D01*
X25285Y12978D02*
X28883Y12978D01*
X0621Y13028D02*
X10093Y13028D01*
X11236Y13028D02*
X14709Y13028D01*
X15963Y13028D02*
X22093Y13028D01*
X22725Y13028D02*
X23219Y13028D01*
X23296Y13028D02*
X23790Y13028D01*
X25236Y13028D02*
X28865Y13028D01*
X0621Y13077D02*
X10142Y13077D01*
X11186Y13077D02*
X14660Y13077D01*
X16012Y13077D02*
X22142Y13077D01*
X22676Y13077D02*
X23170Y13077D01*
X23345Y13077D02*
X23839Y13077D01*
X25186Y13077D02*
X28847Y13077D01*
X0621Y13127D02*
X10192Y13127D01*
X11137Y13127D02*
X14610Y13127D01*
X16062Y13127D02*
X22192Y13127D01*
X22626Y13127D02*
X23120Y13127D01*
X23395Y13127D02*
X23889Y13127D01*
X25137Y13127D02*
X28830Y13127D01*
X0621Y13176D02*
X10241Y13176D01*
X11087Y13176D02*
X14560Y13176D01*
X16111Y13176D02*
X22241Y13176D01*
X22577Y13176D02*
X23071Y13176D01*
X23444Y13176D02*
X23938Y13176D01*
X25087Y13176D02*
X28812Y13176D01*
X0621Y13226D02*
X10291Y13226D01*
X11038Y13226D02*
X14511Y13226D01*
X16161Y13226D02*
X22291Y13226D01*
X22527Y13226D02*
X23021Y13226D01*
X23494Y13226D02*
X23988Y13226D01*
X25038Y13226D02*
X28794Y13226D01*
X0621Y13275D02*
X10340Y13275D01*
X10988Y13275D02*
X14461Y13275D01*
X16210Y13275D02*
X22340Y13275D01*
X22478Y13275D02*
X22972Y13275D01*
X23543Y13275D02*
X24037Y13275D01*
X24988Y13275D02*
X28777Y13275D01*
X0621Y13325D02*
X10390Y13325D01*
X10939Y13325D02*
X14412Y13325D01*
X16260Y13325D02*
X22390Y13325D01*
X22428Y13325D02*
X22922Y13325D01*
X23593Y13325D02*
X24087Y13325D01*
X24939Y13325D02*
X28759Y13325D01*
X0621Y13374D02*
X10439Y13374D01*
X10889Y13374D02*
X14362Y13374D01*
X16309Y13374D02*
X22873Y13374D01*
X23642Y13374D02*
X24136Y13374D01*
X24889Y13374D02*
X28741Y13374D01*
X0621Y13424D02*
X4313Y13424D01*
X4359Y13424D02*
X10489Y13424D01*
X10839Y13424D02*
X14313Y13424D01*
X16359Y13424D02*
X22823Y13424D01*
X23692Y13424D02*
X24186Y13424D01*
X24839Y13424D02*
X28723Y13424D01*
X0621Y13473D02*
X4263Y13473D01*
X4408Y13473D02*
X10538Y13473D01*
X10790Y13473D02*
X14263Y13473D01*
X16408Y13473D02*
X22774Y13473D01*
X23742Y13473D02*
X24235Y13473D01*
X24790Y13473D02*
X28706Y13473D01*
X0621Y13523D02*
X4214Y13523D01*
X4458Y13523D02*
X10588Y13523D01*
X10740Y13523D02*
X14214Y13523D01*
X16458Y13523D02*
X22724Y13523D01*
X23791Y13523D02*
X24285Y13523D01*
X24740Y13523D02*
X28688Y13523D01*
X0621Y13572D02*
X4164Y13572D01*
X4508Y13572D02*
X10637Y13572D01*
X10691Y13572D02*
X14164Y13572D01*
X16508Y13572D02*
X22674Y13572D01*
X23841Y13572D02*
X24334Y13572D01*
X24691Y13572D02*
X28670Y13572D01*
X0621Y13622D02*
X4115Y13622D01*
X4557Y13622D02*
X14115Y13622D01*
X16557Y13622D02*
X22687Y13622D01*
X23890Y13622D02*
X24384Y13622D01*
X24641Y13622D02*
X28649Y13622D01*
X0621Y13672D02*
X4065Y13672D01*
X4607Y13672D02*
X14065Y13672D01*
X16607Y13672D02*
X22736Y13672D01*
X23940Y13672D02*
X24434Y13672D01*
X24592Y13672D02*
X28625Y13672D01*
X0621Y13721D02*
X4016Y13721D01*
X4656Y13721D02*
X14016Y13721D01*
X16656Y13721D02*
X22786Y13721D01*
X23989Y13721D02*
X24483Y13721D01*
X24542Y13721D02*
X28602Y13721D01*
X0621Y13771D02*
X3966Y13771D01*
X4706Y13771D02*
X13966Y13771D01*
X16706Y13771D02*
X22836Y13771D01*
X24039Y13771D02*
X28578Y13771D01*
X0621Y13820D02*
X3917Y13820D01*
X4755Y13820D02*
X13917Y13820D01*
X16755Y13820D02*
X22885Y13820D01*
X24088Y13820D02*
X28555Y13820D01*
X0621Y13870D02*
X3867Y13870D01*
X4805Y13870D02*
X13867Y13870D01*
X16805Y13870D02*
X22935Y13870D01*
X24138Y13870D02*
X28532Y13870D01*
X0621Y13919D02*
X3818Y13919D01*
X4854Y13919D02*
X13818Y13919D01*
X16854Y13919D02*
X22984Y13919D01*
X24187Y13919D02*
X28508Y13919D01*
X0621Y13969D02*
X3768Y13969D01*
X4904Y13969D02*
X13768Y13969D01*
X16904Y13969D02*
X23034Y13969D01*
X24237Y13969D02*
X28485Y13969D01*
X0621Y14018D02*
X3718Y14018D01*
X4953Y14018D02*
X13718Y14018D01*
X16953Y14018D02*
X23083Y14018D01*
X24245Y14018D02*
X28461Y14018D01*
X0621Y14068D02*
X3669Y14068D01*
X5003Y14068D02*
X13669Y14068D01*
X17003Y14068D02*
X23133Y14068D01*
X24196Y14068D02*
X28438Y14068D01*
X0621Y14117D02*
X3619Y14117D01*
X5052Y14117D02*
X13619Y14117D01*
X17052Y14117D02*
X23182Y14117D01*
X24146Y14117D02*
X28414Y14117D01*
X0621Y14167D02*
X3570Y14167D01*
X5102Y14167D02*
X13570Y14167D01*
X17102Y14167D02*
X23232Y14167D01*
X24096Y14167D02*
X28391Y14167D01*
X0621Y14216D02*
X3520Y14216D01*
X5151Y14216D02*
X13520Y14216D01*
X17151Y14216D02*
X23281Y14216D01*
X24047Y14216D02*
X28368Y14216D01*
X0621Y14266D02*
X3471Y14266D01*
X5201Y14266D02*
X13471Y14266D01*
X17201Y14266D02*
X23331Y14266D01*
X23997Y14266D02*
X28344Y14266D01*
X0621Y14315D02*
X3421Y14315D01*
X5250Y14315D02*
X13421Y14315D01*
X17250Y14315D02*
X23380Y14315D01*
X23948Y14315D02*
X28321Y14315D01*
X0621Y14365D02*
X3372Y14365D01*
X5300Y14365D02*
X13372Y14365D01*
X17300Y14365D02*
X23430Y14365D01*
X23898Y14365D02*
X28297Y14365D01*
X0621Y14414D02*
X3322Y14414D01*
X5350Y14414D02*
X13322Y14414D01*
X17350Y14414D02*
X23479Y14414D01*
X23849Y14414D02*
X28274Y14414D01*
X0621Y14464D02*
X3273Y14464D01*
X5399Y14464D02*
X13273Y14464D01*
X17399Y14464D02*
X23529Y14464D01*
X23799Y14464D02*
X28245Y14464D01*
X0621Y14514D02*
X3223Y14514D01*
X5449Y14514D02*
X13276Y14514D01*
X17449Y14514D02*
X23578Y14514D01*
X23750Y14514D02*
X28215Y14514D01*
X0621Y14563D02*
X3174Y14563D01*
X5498Y14563D02*
X13325Y14563D01*
X17498Y14563D02*
X23628Y14563D01*
X23700Y14563D02*
X28186Y14563D01*
X0621Y14613D02*
X3124Y14613D01*
X5548Y14613D02*
X13375Y14613D01*
X17548Y14613D02*
X28156Y14613D01*
X0621Y14662D02*
X3075Y14662D01*
X5597Y14662D02*
X13424Y14662D01*
X17589Y14662D02*
X28126Y14662D01*
X0621Y14712D02*
X3025Y14712D01*
X5647Y14712D02*
X13474Y14712D01*
X17552Y14712D02*
X28097Y14712D01*
X0621Y14761D02*
X2976Y14761D01*
X5696Y14761D02*
X12976Y14761D01*
X13029Y14761D02*
X13523Y14761D01*
X17502Y14761D02*
X28067Y14761D01*
X0621Y14811D02*
X2926Y14811D01*
X5746Y14811D02*
X12926Y14811D01*
X13079Y14811D02*
X13573Y14811D01*
X17453Y14811D02*
X28037Y14811D01*
X0621Y14860D02*
X2876Y14860D01*
X5795Y14860D02*
X12876Y14860D01*
X13128Y14860D02*
X13622Y14860D01*
X17403Y14860D02*
X28008Y14860D01*
X0621Y14910D02*
X2827Y14910D01*
X5845Y14910D02*
X12827Y14910D01*
X13178Y14910D02*
X13672Y14910D01*
X17354Y14910D02*
X27978Y14910D01*
X0621Y14959D02*
X2777Y14959D01*
X5894Y14959D02*
X12777Y14959D01*
X13227Y14959D02*
X13721Y14959D01*
X17304Y14959D02*
X27948Y14959D01*
X0621Y15009D02*
X2728Y15009D01*
X5944Y15009D02*
X12728Y15009D01*
X13277Y15009D02*
X13771Y15009D01*
X17254Y15009D02*
X27918Y15009D01*
X0621Y15058D02*
X2678Y15058D01*
X5993Y15058D02*
X12678Y15058D01*
X13327Y15058D02*
X13820Y15058D01*
X17205Y15058D02*
X27889Y15058D01*
X0621Y15108D02*
X2629Y15108D01*
X6043Y15108D02*
X12629Y15108D01*
X13376Y15108D02*
X13870Y15108D01*
X17155Y15108D02*
X27859Y15108D01*
X0621Y15157D02*
X2579Y15157D01*
X6092Y15157D02*
X12579Y15157D01*
X13426Y15157D02*
X13919Y15157D01*
X17106Y15157D02*
X27829Y15157D01*
X0621Y15207D02*
X2530Y15207D01*
X6142Y15207D02*
X12530Y15207D01*
X13475Y15207D02*
X13969Y15207D01*
X17056Y15207D02*
X27800Y15207D01*
X0621Y15256D02*
X2480Y15256D01*
X6192Y15256D02*
X12480Y15256D01*
X13525Y15256D02*
X14018Y15256D01*
X17007Y15256D02*
X27763Y15256D01*
X0621Y15306D02*
X2431Y15306D01*
X6241Y15306D02*
X12431Y15306D01*
X13574Y15306D02*
X14068Y15306D01*
X16957Y15306D02*
X27727Y15306D01*
X0621Y15356D02*
X2381Y15356D01*
X6291Y15356D02*
X12420Y15356D01*
X13624Y15356D02*
X14118Y15356D01*
X16908Y15356D02*
X27690Y15356D01*
X0621Y15405D02*
X2332Y15405D01*
X6340Y15405D02*
X12470Y15405D01*
X13673Y15405D02*
X14167Y15405D01*
X16858Y15405D02*
X27653Y15405D01*
X0621Y15455D02*
X2282Y15455D01*
X6390Y15455D02*
X12520Y15455D01*
X13723Y15455D02*
X14217Y15455D01*
X16809Y15455D02*
X27617Y15455D01*
X0621Y15504D02*
X2266Y15504D01*
X6439Y15504D02*
X12569Y15504D01*
X13772Y15504D02*
X14266Y15504D01*
X16759Y15504D02*
X27580Y15504D01*
X0621Y15554D02*
X2316Y15554D01*
X6489Y15554D02*
X12619Y15554D01*
X13822Y15554D02*
X14316Y15554D01*
X16710Y15554D02*
X27543Y15554D01*
X0621Y15603D02*
X2365Y15603D01*
X6538Y15603D02*
X12668Y15603D01*
X13871Y15603D02*
X14365Y15603D01*
X16660Y15603D02*
X27506Y15603D01*
X0621Y15653D02*
X2415Y15653D01*
X6588Y15653D02*
X12718Y15653D01*
X13921Y15653D02*
X14415Y15653D01*
X16611Y15653D02*
X27470Y15653D01*
X0621Y15702D02*
X2464Y15702D01*
X6561Y15702D02*
X12767Y15702D01*
X13970Y15702D02*
X14464Y15702D01*
X16561Y15702D02*
X27433Y15702D01*
X0621Y15752D02*
X1985Y15752D01*
X2020Y15752D02*
X2514Y15752D01*
X6512Y15752D02*
X12817Y15752D01*
X14000Y15752D02*
X14514Y15752D01*
X16512Y15752D02*
X27396Y15752D01*
X0621Y15801D02*
X1935Y15801D01*
X2069Y15801D02*
X2563Y15801D01*
X6462Y15801D02*
X12866Y15801D01*
X13952Y15801D02*
X14563Y15801D01*
X16462Y15801D02*
X27359Y15801D01*
X0621Y15851D02*
X1886Y15851D01*
X2119Y15851D02*
X2613Y15851D01*
X6412Y15851D02*
X12916Y15851D01*
X13902Y15851D02*
X14613Y15851D01*
X16412Y15851D02*
X27323Y15851D01*
X0621Y15900D02*
X1836Y15900D01*
X2169Y15900D02*
X2662Y15900D01*
X6363Y15900D02*
X12965Y15900D01*
X13853Y15900D02*
X14662Y15900D01*
X16363Y15900D02*
X27286Y15900D01*
X0621Y15950D02*
X1787Y15950D01*
X2218Y15950D02*
X2712Y15950D01*
X6313Y15950D02*
X13015Y15950D01*
X13803Y15950D02*
X14712Y15950D01*
X16313Y15950D02*
X27249Y15950D01*
X0621Y15999D02*
X1737Y15999D01*
X2268Y15999D02*
X2761Y15999D01*
X6264Y15999D02*
X13064Y15999D01*
X13754Y15999D02*
X14761Y15999D01*
X16264Y15999D02*
X27204Y15999D01*
X0621Y16049D02*
X1688Y16049D01*
X2317Y16049D02*
X2811Y16049D01*
X6214Y16049D02*
X13114Y16049D01*
X13704Y16049D02*
X14198Y16049D01*
X14317Y16049D02*
X14811Y16049D01*
X16214Y16049D02*
X27159Y16049D01*
X0621Y16098D02*
X1638Y16098D01*
X2367Y16098D02*
X2860Y16098D01*
X6165Y16098D02*
X13163Y16098D01*
X13655Y16098D02*
X14148Y16098D01*
X14367Y16098D02*
X14860Y16098D01*
X16165Y16098D02*
X27114Y16098D01*
X0621Y16148D02*
X1589Y16148D01*
X2416Y16148D02*
X2910Y16148D01*
X6115Y16148D02*
X13213Y16148D01*
X13605Y16148D02*
X14099Y16148D01*
X14416Y16148D02*
X14910Y16148D01*
X16115Y16148D02*
X27070Y16148D01*
X0621Y16198D02*
X1539Y16198D01*
X2466Y16198D02*
X2960Y16198D01*
X6066Y16198D02*
X13262Y16198D01*
X13556Y16198D02*
X14049Y16198D01*
X14466Y16198D02*
X14960Y16198D01*
X16066Y16198D02*
X27025Y16198D01*
X0621Y16247D02*
X1490Y16247D01*
X2515Y16247D02*
X3009Y16247D01*
X6016Y16247D02*
X13312Y16247D01*
X13506Y16247D02*
X14000Y16247D01*
X14515Y16247D02*
X15009Y16247D01*
X16016Y16247D02*
X26980Y16247D01*
X0621Y16297D02*
X1440Y16297D01*
X2565Y16297D02*
X3059Y16297D01*
X5967Y16297D02*
X13362Y16297D01*
X13456Y16297D02*
X13950Y16297D01*
X14565Y16297D02*
X15059Y16297D01*
X15967Y16297D02*
X26935Y16297D01*
X0621Y16346D02*
X1411Y16346D01*
X2614Y16346D02*
X3108Y16346D01*
X5917Y16346D02*
X13901Y16346D01*
X14614Y16346D02*
X15108Y16346D01*
X15917Y16346D02*
X26890Y16346D01*
X0621Y16396D02*
X1461Y16396D01*
X2664Y16396D02*
X3158Y16396D01*
X5868Y16396D02*
X13851Y16396D01*
X14664Y16396D02*
X15158Y16396D01*
X15868Y16396D02*
X26845Y16396D01*
X0621Y16445D02*
X1510Y16445D01*
X2713Y16445D02*
X3207Y16445D01*
X5818Y16445D02*
X13802Y16445D01*
X14713Y16445D02*
X15207Y16445D01*
X15818Y16445D02*
X26800Y16445D01*
X0621Y16495D02*
X1560Y16495D01*
X2763Y16495D02*
X3257Y16495D01*
X5769Y16495D02*
X13752Y16495D01*
X14763Y16495D02*
X15257Y16495D01*
X15769Y16495D02*
X26755Y16495D01*
X0621Y16544D02*
X1609Y16544D01*
X2812Y16544D02*
X3306Y16544D01*
X5719Y16544D02*
X13703Y16544D01*
X14812Y16544D02*
X15306Y16544D01*
X15719Y16544D02*
X26710Y16544D01*
X0621Y16594D02*
X1659Y16594D01*
X2862Y16594D02*
X3356Y16594D01*
X5670Y16594D02*
X13666Y16594D01*
X14862Y16594D02*
X15356Y16594D01*
X15670Y16594D02*
X26666Y16594D01*
X0621Y16643D02*
X1708Y16643D01*
X2911Y16643D02*
X3405Y16643D01*
X5620Y16643D02*
X13708Y16643D01*
X14911Y16643D02*
X15405Y16643D01*
X15620Y16643D02*
X26618Y16643D01*
X0621Y16693D02*
X1758Y16693D01*
X2961Y16693D02*
X3455Y16693D01*
X5570Y16693D02*
X13758Y16693D01*
X14961Y16693D02*
X15455Y16693D01*
X15570Y16693D02*
X26564Y16693D01*
X0621Y16742D02*
X1807Y16742D01*
X3000Y16742D02*
X3504Y16742D01*
X5521Y16742D02*
X13807Y16742D01*
X15011Y16742D02*
X26509Y16742D01*
X0621Y16792D02*
X1857Y16792D01*
X2961Y16792D02*
X3554Y16792D01*
X5471Y16792D02*
X13857Y16792D01*
X15060Y16792D02*
X26454Y16792D01*
X0621Y16841D02*
X1906Y16841D01*
X2912Y16841D02*
X3603Y16841D01*
X5422Y16841D02*
X13906Y16841D01*
X15110Y16841D02*
X26400Y16841D01*
X0621Y16891D02*
X1956Y16891D01*
X2862Y16891D02*
X3653Y16891D01*
X5372Y16891D02*
X13956Y16891D01*
X15159Y16891D02*
X26345Y16891D01*
X0621Y16940D02*
X2005Y16940D01*
X2813Y16940D02*
X3702Y16940D01*
X5323Y16940D02*
X14005Y16940D01*
X15209Y16940D02*
X26290Y16940D01*
X0621Y16990D02*
X2055Y16990D01*
X2763Y16990D02*
X3752Y16990D01*
X5273Y16990D02*
X14055Y16990D01*
X15255Y16990D02*
X26236Y16990D01*
X0621Y17040D02*
X2104Y17040D01*
X2714Y17040D02*
X3207Y17040D01*
X3308Y17040D02*
X3802Y17040D01*
X5224Y17040D02*
X14104Y17040D01*
X15224Y17040D02*
X26181Y17040D01*
X0621Y17089D02*
X2154Y17089D01*
X2664Y17089D02*
X3158Y17089D01*
X3357Y17089D02*
X3851Y17089D01*
X5174Y17089D02*
X14154Y17089D01*
X15174Y17089D02*
X26126Y17089D01*
X0621Y17139D02*
X2204Y17139D01*
X2614Y17139D02*
X3108Y17139D01*
X3407Y17139D02*
X3901Y17139D01*
X5125Y17139D02*
X14204Y17139D01*
X15125Y17139D02*
X26072Y17139D01*
X0621Y17188D02*
X2253Y17188D01*
X2565Y17188D02*
X3059Y17188D01*
X3456Y17188D02*
X3950Y17188D01*
X5075Y17188D02*
X14253Y17188D01*
X15075Y17188D02*
X26017Y17188D01*
X0621Y17238D02*
X2303Y17238D01*
X2515Y17238D02*
X3009Y17238D01*
X3506Y17238D02*
X4000Y17238D01*
X5026Y17238D02*
X14303Y17238D01*
X15026Y17238D02*
X25963Y17238D01*
X0621Y17287D02*
X2352Y17287D01*
X2466Y17287D02*
X2960Y17287D01*
X3555Y17287D02*
X4049Y17287D01*
X4976Y17287D02*
X14352Y17287D01*
X14976Y17287D02*
X25899Y17287D01*
X0621Y17337D02*
X2910Y17337D01*
X3605Y17337D02*
X4099Y17337D01*
X4927Y17337D02*
X14402Y17337D01*
X14927Y17337D02*
X25832Y17337D01*
X0621Y17386D02*
X2861Y17386D01*
X3654Y17386D02*
X4148Y17386D01*
X4877Y17386D02*
X14451Y17386D01*
X14877Y17386D02*
X25765Y17386D01*
X0621Y17436D02*
X2811Y17436D01*
X3704Y17436D02*
X4198Y17436D01*
X4828Y17436D02*
X8301Y17436D01*
X8371Y17436D02*
X14501Y17436D01*
X14828Y17436D02*
X25698Y17436D01*
X0621Y17485D02*
X2762Y17485D01*
X3753Y17485D02*
X4247Y17485D01*
X4778Y17485D02*
X8251Y17485D01*
X8420Y17485D02*
X14550Y17485D01*
X14778Y17485D02*
X25631Y17485D01*
X0621Y17535D02*
X2712Y17535D01*
X3803Y17535D02*
X4297Y17535D01*
X4728Y17535D02*
X8202Y17535D01*
X8470Y17535D02*
X14600Y17535D01*
X14728Y17535D02*
X25565Y17535D01*
X0621Y17584D02*
X2666Y17584D01*
X3853Y17584D02*
X4346Y17584D01*
X4679Y17584D02*
X8152Y17584D01*
X8519Y17584D02*
X14649Y17584D01*
X14679Y17584D02*
X25498Y17584D01*
X0621Y17634D02*
X2699Y17634D01*
X3902Y17634D02*
X4396Y17634D01*
X4629Y17634D02*
X8103Y17634D01*
X8569Y17634D02*
X25431Y17634D01*
X0621Y17683D02*
X2748Y17683D01*
X3952Y17683D02*
X4445Y17683D01*
X4580Y17683D02*
X8053Y17683D01*
X8619Y17683D02*
X25364Y17683D01*
X0621Y17733D02*
X2798Y17733D01*
X4001Y17733D02*
X4495Y17733D01*
X4530Y17733D02*
X8004Y17733D01*
X8668Y17733D02*
X25298Y17733D01*
X0621Y17783D02*
X2847Y17783D01*
X4051Y17783D02*
X7954Y17783D01*
X8718Y17783D02*
X25231Y17783D01*
X0621Y17832D02*
X2897Y17832D01*
X4100Y17832D02*
X7905Y17832D01*
X8767Y17832D02*
X25153Y17832D01*
X0621Y17882D02*
X2947Y17882D01*
X4150Y17882D02*
X7855Y17882D01*
X8817Y17882D02*
X25070Y17882D01*
X0621Y17931D02*
X2996Y17931D01*
X4199Y17931D02*
X7806Y17931D01*
X8866Y17931D02*
X24988Y17931D01*
X0621Y17981D02*
X3046Y17981D01*
X4249Y17981D02*
X7756Y17981D01*
X8916Y17981D02*
X24905Y17981D01*
X0621Y18030D02*
X3095Y18030D01*
X4233Y18030D02*
X7707Y18030D01*
X8965Y18030D02*
X24823Y18030D01*
X0621Y18080D02*
X3145Y18080D01*
X4184Y18080D02*
X7657Y18080D01*
X9015Y18080D02*
X24740Y18080D01*
X0621Y18129D02*
X3194Y18129D01*
X4134Y18129D02*
X7607Y18129D01*
X9064Y18129D02*
X24657Y18129D01*
X0621Y18179D02*
X3244Y18179D01*
X4085Y18179D02*
X7558Y18179D01*
X9114Y18179D02*
X19148Y18179D01*
X19352Y18179D02*
X24575Y18179D01*
X0621Y18228D02*
X3293Y18228D01*
X4035Y18228D02*
X7508Y18228D01*
X9163Y18228D02*
X18907Y18228D01*
X19593Y18228D02*
X24492Y18228D01*
X0621Y18278D02*
X3343Y18278D01*
X3986Y18278D02*
X7459Y18278D01*
X9213Y18278D02*
X18787Y18278D01*
X19713Y18278D02*
X24406Y18278D01*
X0621Y18327D02*
X3392Y18327D01*
X3936Y18327D02*
X7409Y18327D01*
X9262Y18327D02*
X18686Y18327D01*
X19814Y18327D02*
X24302Y18327D01*
X0621Y18377D02*
X3442Y18377D01*
X3886Y18377D02*
X7360Y18377D01*
X9312Y18377D02*
X18621Y18377D01*
X19879Y18377D02*
X24197Y18377D01*
X0621Y18426D02*
X3491Y18426D01*
X3837Y18426D02*
X7310Y18426D01*
X9361Y18426D02*
X18557Y18426D01*
X19943Y18426D02*
X24092Y18426D01*
X0621Y18476D02*
X3541Y18476D01*
X3787Y18476D02*
X7261Y18476D01*
X9411Y18476D02*
X18492Y18476D01*
X20008Y18476D02*
X23987Y18476D01*
X0621Y18525D02*
X3590Y18525D01*
X3738Y18525D02*
X7211Y18525D01*
X9461Y18525D02*
X18450Y18525D01*
X20050Y18525D02*
X23883Y18525D01*
X0621Y18575D02*
X3640Y18575D01*
X3688Y18575D02*
X7162Y18575D01*
X9510Y18575D02*
X18412Y18575D01*
X20088Y18575D02*
X23778Y18575D01*
X0621Y18625D02*
X7112Y18625D01*
X9560Y18625D02*
X18374Y18625D01*
X20126Y18625D02*
X23673Y18625D01*
X0621Y18674D02*
X7063Y18674D01*
X9609Y18674D02*
X18336Y18674D01*
X20164Y18674D02*
X23562Y18674D01*
X0621Y18724D02*
X7013Y18724D01*
X9659Y18724D02*
X18304Y18724D01*
X20196Y18724D02*
X23423Y18724D01*
X0621Y18773D02*
X6964Y18773D01*
X9708Y18773D02*
X18284Y18773D01*
X20216Y18773D02*
X23285Y18773D01*
X0621Y18823D02*
X6914Y18823D01*
X9758Y18823D02*
X18263Y18823D01*
X20237Y18823D02*
X23147Y18823D01*
X0621Y18872D02*
X6865Y18872D01*
X9807Y18872D02*
X18243Y18872D01*
X20257Y18872D02*
X23008Y18872D01*
X0621Y18922D02*
X6815Y18922D01*
X9857Y18922D02*
X18222Y18922D01*
X20278Y18922D02*
X22870Y18922D01*
X0621Y18971D02*
X6765Y18971D01*
X9906Y18971D02*
X18202Y18971D01*
X20298Y18971D02*
X22731Y18971D01*
X0621Y19021D02*
X6716Y19021D01*
X9956Y19021D02*
X18196Y19021D01*
X20304Y19021D02*
X22537Y19021D01*
X0621Y19070D02*
X6666Y19070D01*
X10005Y19070D02*
X18189Y19070D01*
X20311Y19070D02*
X22340Y19070D01*
X0621Y19120D02*
X6617Y19120D01*
X10055Y19120D02*
X18182Y19120D01*
X20318Y19120D02*
X22142Y19120D01*
X0621Y19169D02*
X6567Y19169D01*
X10104Y19169D02*
X18176Y19169D01*
X20324Y19169D02*
X21944Y19169D01*
X0621Y19219D02*
X6518Y19219D01*
X10154Y19219D02*
X18169Y19219D01*
X20331Y19219D02*
X21689Y19219D01*
X0621Y19268D02*
X6468Y19268D01*
X10203Y19268D02*
X18168Y19268D01*
X20332Y19268D02*
X21355Y19268D01*
X0621Y19318D02*
X6419Y19318D01*
X10253Y19318D02*
X18174Y19318D01*
X20363Y19318D02*
X21021Y19318D01*
X0621Y19367D02*
X6369Y19367D01*
X10303Y19367D02*
X18181Y19367D01*
X0621Y19417D02*
X6320Y19417D01*
X10352Y19417D02*
X18187Y19417D01*
X0621Y19467D02*
X6270Y19467D01*
X10402Y19467D02*
X18194Y19467D01*
X0623Y19516D02*
X6278Y19516D01*
X10451Y19516D02*
X18200Y19516D01*
X0625Y19566D02*
X6328Y19566D01*
X10501Y19566D02*
X18217Y19566D01*
X0627Y19615D02*
X6377Y19615D01*
X10550Y19615D02*
X18237Y19615D01*
X0630Y19665D02*
X6427Y19665D01*
X10589Y19665D02*
X18258Y19665D01*
X0632Y19714D02*
X6476Y19714D01*
X10549Y19714D02*
X18278Y19714D01*
X0631Y19764D02*
X5973Y19764D01*
X6032Y19764D02*
X6526Y19764D01*
X10500Y19764D02*
X18299Y19764D01*
X0631Y19813D02*
X5923Y19813D01*
X6081Y19813D02*
X6575Y19813D01*
X10450Y19813D02*
X18327Y19813D01*
X0628Y19863D02*
X5874Y19863D01*
X6131Y19863D02*
X6625Y19863D01*
X10401Y19863D02*
X18365Y19863D01*
X0626Y19912D02*
X5824Y19912D01*
X6180Y19912D02*
X6674Y19912D01*
X10351Y19912D02*
X18403Y19912D01*
X0624Y19962D02*
X5775Y19962D01*
X6230Y19962D02*
X6724Y19962D01*
X10301Y19962D02*
X18441Y19962D01*
X0622Y20011D02*
X5725Y20011D01*
X6280Y20011D02*
X6773Y20011D01*
X10252Y20011D02*
X18479Y20011D01*
X0625Y20061D02*
X5676Y20061D01*
X6329Y20061D02*
X6823Y20061D01*
X10202Y20061D02*
X18540Y20061D01*
X0627Y20110D02*
X5626Y20110D01*
X6379Y20110D02*
X6872Y20110D01*
X10153Y20110D02*
X18605Y20110D01*
X0630Y20160D02*
X5577Y20160D01*
X6428Y20160D02*
X6922Y20160D01*
X10103Y20160D02*
X18669Y20160D01*
X0632Y20209D02*
X5527Y20209D01*
X6478Y20209D02*
X6971Y20209D01*
X10054Y20209D02*
X18756Y20209D01*
X0634Y20259D02*
X5478Y20259D01*
X6527Y20259D02*
X7021Y20259D01*
X10004Y20259D02*
X18876Y20259D01*
X0637Y20309D02*
X5428Y20309D01*
X6577Y20309D02*
X7071Y20309D01*
X9955Y20309D02*
X19051Y20309D01*
X0639Y20358D02*
X5423Y20358D01*
X6626Y20358D02*
X7120Y20358D01*
X9905Y20358D02*
X19313Y20358D01*
X0642Y20408D02*
X5473Y20408D01*
X6676Y20408D02*
X7170Y20408D01*
X9856Y20408D02*
X19358Y20408D01*
X0644Y20457D02*
X5522Y20457D01*
X6725Y20457D02*
X7219Y20457D01*
X9806Y20457D02*
X19356Y20457D01*
X0647Y20507D02*
X5572Y20507D01*
X6775Y20507D02*
X7269Y20507D01*
X9757Y20507D02*
X19353Y20507D01*
X0649Y20556D02*
X5621Y20556D01*
X6824Y20556D02*
X7318Y20556D01*
X9707Y20556D02*
X19351Y20556D01*
X0651Y20606D02*
X5671Y20606D01*
X6874Y20606D02*
X7368Y20606D01*
X9658Y20606D02*
X19348Y20606D01*
X0654Y20655D02*
X5720Y20655D01*
X6923Y20655D02*
X7417Y20655D01*
X9608Y20655D02*
X19346Y20655D01*
X0656Y20705D02*
X5770Y20705D01*
X6973Y20705D02*
X7467Y20705D01*
X9559Y20705D02*
X19344Y20705D01*
X0659Y20754D02*
X5819Y20754D01*
X6999Y20754D02*
X7516Y20754D01*
X9509Y20754D02*
X19341Y20754D01*
X0661Y20804D02*
X5869Y20804D01*
X6949Y20804D02*
X7566Y20804D01*
X9459Y20804D02*
X19339Y20804D01*
X0664Y20853D02*
X5918Y20853D01*
X6900Y20853D02*
X7615Y20853D01*
X9410Y20853D02*
X19336Y20853D01*
X0666Y20903D02*
X5968Y20903D01*
X6850Y20903D02*
X7665Y20903D01*
X9360Y20903D02*
X19334Y20903D01*
X0672Y20952D02*
X6017Y20952D01*
X6801Y20952D02*
X7714Y20952D01*
X9311Y20952D02*
X19328Y20952D01*
X0679Y21002D02*
X6067Y21002D01*
X6751Y21002D02*
X7245Y21002D01*
X7270Y21002D02*
X7764Y21002D01*
X9261Y21002D02*
X19321Y21002D01*
X0687Y21051D02*
X6116Y21051D01*
X6702Y21051D02*
X7195Y21051D01*
X7320Y21051D02*
X7813Y21051D01*
X9212Y21051D02*
X19313Y21051D01*
X0694Y21101D02*
X6166Y21101D01*
X6652Y21101D02*
X7146Y21101D01*
X7369Y21101D02*
X7863Y21101D01*
X9162Y21101D02*
X19306Y21101D01*
X0701Y21151D02*
X6215Y21151D01*
X6603Y21151D02*
X7096Y21151D01*
X7419Y21151D02*
X7913Y21151D01*
X9113Y21151D02*
X19299Y21151D01*
X0709Y21200D02*
X6265Y21200D01*
X6553Y21200D02*
X7047Y21200D01*
X7468Y21200D02*
X7962Y21200D01*
X9063Y21200D02*
X19291Y21200D01*
X0716Y21250D02*
X6315Y21250D01*
X6503Y21250D02*
X6997Y21250D01*
X7518Y21250D02*
X8012Y21250D01*
X9014Y21250D02*
X19284Y21250D01*
X0723Y21299D02*
X6364Y21299D01*
X6454Y21299D02*
X6948Y21299D01*
X7567Y21299D02*
X8061Y21299D01*
X8964Y21299D02*
X19277Y21299D01*
X0731Y21349D02*
X6898Y21349D01*
X7617Y21349D02*
X8111Y21349D01*
X8915Y21349D02*
X19269Y21349D01*
X0738Y21398D02*
X6849Y21398D01*
X7666Y21398D02*
X8160Y21398D01*
X8865Y21398D02*
X19262Y21398D01*
X0745Y21448D02*
X6799Y21448D01*
X7716Y21448D02*
X8210Y21448D01*
X8816Y21448D02*
X12289Y21448D01*
X12383Y21448D02*
X19255Y21448D01*
X0753Y21497D02*
X6750Y21497D01*
X7765Y21497D02*
X8259Y21497D01*
X8766Y21497D02*
X12239Y21497D01*
X12432Y21497D02*
X19247Y21497D01*
X0760Y21547D02*
X6700Y21547D01*
X7815Y21547D02*
X8309Y21547D01*
X8717Y21547D02*
X12190Y21547D01*
X12482Y21547D02*
X19240Y21547D01*
X0767Y21596D02*
X6666Y21596D01*
X7864Y21596D02*
X8358Y21596D01*
X8667Y21596D02*
X12140Y21596D01*
X12531Y21596D02*
X19233Y21596D01*
X0775Y21646D02*
X6711Y21646D01*
X7914Y21646D02*
X8408Y21646D01*
X8617Y21646D02*
X12091Y21646D01*
X12581Y21646D02*
X19225Y21646D01*
X0782Y21695D02*
X6760Y21695D01*
X7964Y21695D02*
X8457Y21695D01*
X8568Y21695D02*
X12041Y21695D01*
X12630Y21695D02*
X19218Y21695D01*
X0789Y21745D02*
X6810Y21745D01*
X8013Y21745D02*
X11992Y21745D01*
X12680Y21745D02*
X19211Y21745D01*
X0797Y21794D02*
X6859Y21794D01*
X8063Y21794D02*
X11942Y21794D01*
X12729Y21794D02*
X19203Y21794D01*
X0806Y21844D02*
X6909Y21844D01*
X8112Y21844D02*
X11893Y21844D01*
X12779Y21844D02*
X19194Y21844D01*
X0818Y21893D02*
X6958Y21893D01*
X8162Y21893D02*
X11843Y21893D01*
X12829Y21893D02*
X19182Y21893D01*
X0830Y21943D02*
X7008Y21943D01*
X8211Y21943D02*
X11794Y21943D01*
X12878Y21943D02*
X19170Y21943D01*
X0843Y21993D02*
X7057Y21993D01*
X8255Y21993D02*
X11744Y21993D01*
X12928Y21993D02*
X19157Y21993D01*
X0855Y22042D02*
X7107Y22042D01*
X8221Y22042D02*
X11695Y22042D01*
X12977Y22042D02*
X19145Y22042D01*
X0868Y22092D02*
X7157Y22092D01*
X8172Y22092D02*
X11645Y22092D01*
X13027Y22092D02*
X19132Y22092D01*
X0880Y22141D02*
X7206Y22141D01*
X8122Y22141D02*
X11596Y22141D01*
X13076Y22141D02*
X19120Y22141D01*
X0892Y22191D02*
X7256Y22191D01*
X8073Y22191D02*
X11546Y22191D01*
X13126Y22191D02*
X19108Y22191D01*
X0905Y22240D02*
X7305Y22240D01*
X8023Y22240D02*
X11496Y22240D01*
X13175Y22240D02*
X19095Y22240D01*
X0917Y22290D02*
X7355Y22290D01*
X7974Y22290D02*
X11447Y22290D01*
X13225Y22290D02*
X19083Y22290D01*
X0930Y22339D02*
X7404Y22339D01*
X7924Y22339D02*
X11397Y22339D01*
X13274Y22339D02*
X19070Y22339D01*
X0942Y22389D02*
X7454Y22389D01*
X7875Y22389D02*
X11348Y22389D01*
X13324Y22389D02*
X19058Y22389D01*
X0954Y22438D02*
X7503Y22438D01*
X7825Y22438D02*
X11298Y22438D01*
X13373Y22438D02*
X19046Y22438D01*
X0967Y22488D02*
X7553Y22488D01*
X7775Y22488D02*
X11249Y22488D01*
X13423Y22488D02*
X19033Y22488D01*
X0979Y22537D02*
X7602Y22537D01*
X7726Y22537D02*
X11199Y22537D01*
X13472Y22537D02*
X19021Y22537D01*
X0992Y22587D02*
X7652Y22587D01*
X7676Y22587D02*
X11150Y22587D01*
X13522Y22587D02*
X19008Y22587D01*
X1004Y22636D02*
X11100Y22636D01*
X13572Y22636D02*
X18996Y22636D01*
X1016Y22686D02*
X11051Y22686D01*
X13621Y22686D02*
X18984Y22686D01*
X1030Y22736D02*
X11001Y22736D01*
X13671Y22736D02*
X18970Y22736D01*
X1048Y22785D02*
X10952Y22785D01*
X13720Y22785D02*
X18952Y22785D01*
X1066Y22835D02*
X10902Y22835D01*
X13770Y22835D02*
X18934Y22835D01*
X1083Y22884D02*
X10853Y22884D01*
X13819Y22884D02*
X18917Y22884D01*
X1101Y22934D02*
X10803Y22934D01*
X13869Y22934D02*
X18899Y22934D01*
X1119Y22983D02*
X10754Y22983D01*
X13918Y22983D02*
X18881Y22983D01*
X1137Y23033D02*
X10704Y23033D01*
X13968Y23033D02*
X18863Y23033D01*
X1154Y23082D02*
X10654Y23082D01*
X14017Y23082D02*
X18846Y23082D01*
X1172Y23132D02*
X10605Y23132D01*
X14067Y23132D02*
X18828Y23132D01*
X1190Y23181D02*
X10555Y23181D01*
X14116Y23181D02*
X18810Y23181D01*
X1207Y23231D02*
X10506Y23231D01*
X14166Y23231D02*
X18792Y23231D01*
X1225Y23280D02*
X10456Y23280D01*
X14215Y23280D02*
X18775Y23280D01*
X1243Y23330D02*
X10407Y23330D01*
X14265Y23330D02*
X18757Y23330D01*
X1261Y23379D02*
X10357Y23379D01*
X14314Y23379D02*
X18739Y23379D01*
X1278Y23429D02*
X10308Y23429D01*
X14364Y23429D02*
X18722Y23429D01*
X1296Y23478D02*
X10260Y23478D01*
X14414Y23478D02*
X18704Y23478D01*
X1314Y23528D02*
X10290Y23528D01*
X14463Y23528D02*
X18686Y23528D01*
X1332Y23578D02*
X10340Y23578D01*
X14513Y23578D02*
X18668Y23578D01*
X1354Y23627D02*
X10389Y23627D01*
X14562Y23627D02*
X18646Y23627D01*
X1377Y23677D02*
X10439Y23677D01*
X14587Y23677D02*
X18623Y23677D01*
X1401Y23726D02*
X10488Y23726D01*
X14537Y23726D02*
X18599Y23726D01*
X1424Y23776D02*
X9961Y23776D01*
X10044Y23776D02*
X10538Y23776D01*
X14488Y23776D02*
X18576Y23776D01*
X1447Y23825D02*
X9912Y23825D01*
X10093Y23825D02*
X10587Y23825D01*
X14438Y23825D02*
X18553Y23825D01*
X1471Y23875D02*
X9862Y23875D01*
X10143Y23875D02*
X10637Y23875D01*
X14389Y23875D02*
X18529Y23875D01*
X1494Y23924D02*
X9812Y23924D01*
X10192Y23924D02*
X10686Y23924D01*
X14339Y23924D02*
X18506Y23924D01*
X1518Y23974D02*
X9763Y23974D01*
X10242Y23974D02*
X10736Y23974D01*
X14290Y23974D02*
X18482Y23974D01*
X1541Y24023D02*
X9713Y24023D01*
X10291Y24023D02*
X10785Y24023D01*
X14240Y24023D02*
X18459Y24023D01*
X1564Y24073D02*
X9664Y24073D01*
X10341Y24073D02*
X10835Y24073D01*
X14190Y24073D02*
X18436Y24073D01*
X1588Y24122D02*
X9614Y24122D01*
X10390Y24122D02*
X10884Y24122D01*
X14141Y24122D02*
X18412Y24122D01*
X1611Y24172D02*
X9565Y24172D01*
X10440Y24172D02*
X10934Y24172D01*
X14091Y24172D02*
X18389Y24172D01*
X1635Y24221D02*
X9515Y24221D01*
X10490Y24221D02*
X10983Y24221D01*
X14042Y24221D02*
X18365Y24221D01*
X1658Y24271D02*
X9466Y24271D01*
X10539Y24271D02*
X11033Y24271D01*
X13992Y24271D02*
X18342Y24271D01*
X1682Y24320D02*
X9416Y24320D01*
X10589Y24320D02*
X11082Y24320D01*
X13943Y24320D02*
X18318Y24320D01*
X1705Y24370D02*
X9435Y24370D01*
X10638Y24370D02*
X11132Y24370D01*
X13893Y24370D02*
X18295Y24370D01*
X1728Y24420D02*
X9484Y24420D01*
X10688Y24420D02*
X11182Y24420D01*
X13844Y24420D02*
X18272Y24420D01*
X1758Y24469D02*
X9534Y24469D01*
X10737Y24469D02*
X11231Y24469D01*
X13794Y24469D02*
X18242Y24469D01*
X1788Y24519D02*
X9584Y24519D01*
X10787Y24519D02*
X11281Y24519D01*
X13745Y24519D02*
X18212Y24519D01*
X1817Y24568D02*
X9633Y24568D01*
X10836Y24568D02*
X11330Y24568D01*
X13695Y24568D02*
X18183Y24568D01*
X1847Y24618D02*
X9683Y24618D01*
X10886Y24618D02*
X11380Y24618D01*
X13646Y24618D02*
X18153Y24618D01*
X1877Y24667D02*
X9732Y24667D01*
X10935Y24667D02*
X11429Y24667D01*
X13596Y24667D02*
X18123Y24667D01*
X1906Y24717D02*
X9782Y24717D01*
X10985Y24717D02*
X11479Y24717D01*
X13547Y24717D02*
X18094Y24717D01*
X1936Y24766D02*
X9831Y24766D01*
X10987Y24766D02*
X11528Y24766D01*
X13497Y24766D02*
X18064Y24766D01*
X1966Y24816D02*
X9881Y24816D01*
X10937Y24816D02*
X11578Y24816D01*
X13448Y24816D02*
X18034Y24816D01*
X1995Y24865D02*
X9930Y24865D01*
X10888Y24865D02*
X11627Y24865D01*
X13398Y24865D02*
X18005Y24865D01*
X2025Y24915D02*
X9980Y24915D01*
X10838Y24915D02*
X11677Y24915D01*
X13348Y24915D02*
X17975Y24915D01*
X2055Y24964D02*
X10029Y24964D01*
X10789Y24964D02*
X11726Y24964D01*
X13299Y24964D02*
X17945Y24964D01*
X2085Y25014D02*
X10079Y25014D01*
X10739Y25014D02*
X11233Y25014D01*
X11282Y25014D02*
X11776Y25014D01*
X13249Y25014D02*
X17915Y25014D01*
X2114Y25063D02*
X10128Y25063D01*
X10690Y25063D02*
X11184Y25063D01*
X11332Y25063D02*
X11825Y25063D01*
X13200Y25063D02*
X17886Y25063D01*
X2144Y25113D02*
X10178Y25113D01*
X10640Y25113D02*
X11134Y25113D01*
X11381Y25113D02*
X11875Y25113D01*
X13150Y25113D02*
X17856Y25113D01*
X2174Y25162D02*
X10227Y25162D01*
X10591Y25162D02*
X11084Y25162D01*
X11431Y25162D02*
X11924Y25162D01*
X13101Y25162D02*
X17826Y25162D01*
X2204Y25212D02*
X10277Y25212D01*
X10541Y25212D02*
X11035Y25212D01*
X11480Y25212D02*
X11974Y25212D01*
X13051Y25212D02*
X17796Y25212D01*
X2240Y25262D02*
X10326Y25262D01*
X10492Y25262D02*
X10985Y25262D01*
X11530Y25262D02*
X12024Y25262D01*
X13002Y25262D02*
X17760Y25262D01*
X2277Y25311D02*
X10376Y25311D01*
X10442Y25311D02*
X10936Y25311D01*
X11579Y25311D02*
X12073Y25311D01*
X12952Y25311D02*
X17723Y25311D01*
X2314Y25361D02*
X10886Y25361D01*
X11629Y25361D02*
X12123Y25361D01*
X12903Y25361D02*
X17686Y25361D01*
X2350Y25410D02*
X10837Y25410D01*
X11678Y25410D02*
X12172Y25410D01*
X12853Y25410D02*
X17650Y25410D01*
X2387Y25460D02*
X10787Y25460D01*
X11728Y25460D02*
X12222Y25460D01*
X12804Y25460D02*
X17613Y25460D01*
X2424Y25509D02*
X10738Y25509D01*
X11777Y25509D02*
X12271Y25509D01*
X12754Y25509D02*
X17576Y25509D01*
X2461Y25559D02*
X10688Y25559D01*
X11827Y25559D02*
X12321Y25559D01*
X12705Y25559D02*
X17539Y25559D01*
X2497Y25608D02*
X10673Y25608D01*
X11876Y25608D02*
X12370Y25608D01*
X12655Y25608D02*
X17503Y25608D01*
X2534Y25658D02*
X10723Y25658D01*
X11926Y25658D02*
X12420Y25658D01*
X12606Y25658D02*
X17466Y25658D01*
X2571Y25707D02*
X10772Y25707D01*
X11975Y25707D02*
X12469Y25707D01*
X12556Y25707D02*
X17429Y25707D01*
X2608Y25757D02*
X10822Y25757D01*
X12025Y25757D02*
X17392Y25757D01*
X2644Y25806D02*
X10871Y25806D01*
X12075Y25806D02*
X17356Y25806D01*
X2681Y25856D02*
X10921Y25856D01*
X12124Y25856D02*
X17319Y25856D01*
X2718Y25905D02*
X10970Y25905D01*
X12174Y25905D02*
X17282Y25905D01*
X2755Y25955D02*
X11020Y25955D01*
X12223Y25955D02*
X17245Y25955D01*
X2800Y26004D02*
X11069Y26004D01*
X12255Y26004D02*
X17200Y26004D01*
X2845Y26054D02*
X11119Y26054D01*
X12209Y26054D02*
X17155Y26054D01*
X2890Y26104D02*
X11168Y26104D01*
X12160Y26104D02*
X17110Y26104D01*
X2935Y26153D02*
X11218Y26153D01*
X12110Y26153D02*
X17065Y26153D01*
X2980Y26203D02*
X11268Y26203D01*
X12061Y26203D02*
X17020Y26203D01*
X3025Y26252D02*
X11317Y26252D01*
X12011Y26252D02*
X16975Y26252D01*
X3070Y26302D02*
X11367Y26302D01*
X11962Y26302D02*
X16930Y26302D01*
X3115Y26351D02*
X11416Y26351D01*
X11912Y26351D02*
X16885Y26351D01*
X3159Y26401D02*
X11466Y26401D01*
X11863Y26401D02*
X16841Y26401D01*
X3204Y26450D02*
X11515Y26450D01*
X11813Y26450D02*
X16796Y26450D01*
X3249Y26500D02*
X11565Y26500D01*
X11764Y26500D02*
X16751Y26500D01*
X3294Y26549D02*
X11614Y26549D01*
X11714Y26549D02*
X16706Y26549D01*
X3339Y26599D02*
X16661Y26599D01*
X3387Y26648D02*
X16613Y26648D01*
X3442Y26698D02*
X16558Y26698D01*
X3497Y26747D02*
X16503Y26747D01*
X3551Y26797D02*
X16449Y26797D01*
X3606Y26846D02*
X16394Y26846D01*
X3660Y26896D02*
X16340Y26896D01*
X3715Y26946D02*
X16285Y26946D01*
X3770Y26995D02*
X16230Y26995D01*
X3824Y27045D02*
X16176Y27045D01*
X3879Y27094D02*
X16121Y27094D01*
X3934Y27144D02*
X16066Y27144D01*
X3988Y27193D02*
X16012Y27193D01*
X4043Y27243D02*
X15957Y27243D01*
X4108Y27292D02*
X15892Y27292D01*
X4175Y27342D02*
X15825Y27342D01*
X4242Y27391D02*
X15758Y27391D01*
X4309Y27441D02*
X15691Y27441D01*
X4375Y27490D02*
X15625Y27490D01*
X4442Y27540D02*
X15558Y27540D01*
X4509Y27589D02*
X15491Y27589D01*
X4576Y27639D02*
X15424Y27639D01*
X4642Y27689D02*
X15358Y27689D01*
X4709Y27738D02*
X15291Y27738D01*
X4776Y27788D02*
X15224Y27788D01*
X4855Y27837D02*
X15145Y27837D01*
X4938Y27887D02*
X15062Y27887D01*
X5021Y27936D02*
X14979Y27936D01*
X5103Y27986D02*
X14897Y27986D01*
X5186Y28035D02*
X14814Y28035D01*
X5269Y28085D02*
X14731Y28085D01*
X5351Y28134D02*
X14649Y28134D01*
X5434Y28184D02*
X14566Y28184D01*
X5516Y28233D02*
X14484Y28233D01*
X5604Y28283D02*
X14396Y28283D01*
X5709Y28332D02*
X14291Y28332D01*
X5814Y28382D02*
X14186Y28382D01*
X5919Y28431D02*
X14081Y28431D01*
X6023Y28481D02*
X13977Y28481D01*
X6128Y28531D02*
X13872Y28531D01*
X6233Y28580D02*
X13767Y28580D01*
X6337Y28630D02*
X13662Y28630D01*
X6452Y28679D02*
X13548Y28679D01*
X6591Y28729D02*
X13409Y28729D01*
X6729Y28778D02*
X13271Y28778D01*
X6868Y28828D02*
X13132Y28828D01*
X7006Y28877D02*
X12994Y28877D01*
X7144Y28927D02*
X12856Y28927D01*
X7285Y28976D02*
X12715Y28976D01*
X7483Y29026D02*
X12517Y29026D01*
X7681Y29075D02*
X12319Y29075D01*
X7878Y29125D02*
X12122Y29125D01*
X8076Y29174D02*
X11924Y29174D01*
X8345Y29224D02*
X11655Y29224D01*
X8679Y29273D02*
X11321Y29273D01*
X9013Y29323D02*
X10987Y29323D01*
X9883Y29373D02*
X10117Y29373D01*
%LNtop copper_traces*%
D11*
X19500Y3250D03*
X4413Y15474D03*
X7418Y6479D03*
X12413Y23474D03*
X2500Y18750D03*
X15413Y14474D03*
X20413Y7474D03*
X4000Y20250D03*
X24413Y11474D03*
X8413Y19474D03*
X3250Y19500D03*
X16413Y3474D03*
X20250Y4000D03*
X18750Y2500D03*
X11413Y10474D03*
%LNtop copper component 0b2ec78b889fa681*%
D12*
X4742Y15258D03*
X3258Y16742D03*
%LNtop copper component aa2ad5c2276a115c*%
X15742Y14258D03*
X14258Y15742D03*
%LNtop copper component f00f0886dcd7b053*%
X12742Y23258D03*
X11258Y24742D03*
%LNtop copper component becf046d8cbe18d5*%
X24742Y11258D03*
X23258Y12742D03*
%LNtop copper component 1bfe57d5f175ffed*%
X8742Y19258D03*
X7258Y20742D03*
%LNtop copper component 0cf5d6c2c48c976c*%
X11742Y10258D03*
X10258Y11742D03*
%LNtop copper component c553d5c0c6166a56*%
X20742Y7258D03*
X19258Y8742D03*
%LNtop copper component bba6a3268ea616f7*%
X16742Y3258D03*
X15258Y4742D03*
%LNtop copper component 5909d0c3ddc7cfbd*%
X7747Y6262D03*
X6262Y7747D03*
M02*