<?xml-stylesheet href="https://s3.amazonaws.com/maker.works.boards/css/blackpcb.css" type="text/css"?><svg xmlns="http://www.w3.org/2000/svg" version="1.1" xmlns:xlink="http://www.w3.org/1999/xlink" stroke-width="0" stroke-linecap="round" stroke-linejoin="round" width="1.1811in" height="1.1811in" id="pcb_bottom" viewBox="7.5 7.5 1181.1 1181.1"><defs><circle cx="0" cy="0" r="25.5" id="tool-T10-pad-1000"/><circle cx="0" cy="0" r="6.5" id="tool-T11-pad-1001"/><circle cx="0" cy="0" r="10.05" id="tool-D11-pad-1003"/><circle cx="0" cy="0" r="350.4" id="tool-D12-pad-1004"/><rect x="-49.2125" y="-100.3935" width="98.425" height="200.787" transform="rotate(315)" id="tool-D13-pad-1005"/><circle cx="0" cy="0" r="9.85" id="tool-D11-pad-1007"/><circle cx="0" cy="0" r="350.4" id="tool-D10-pad-1008"/><rect x="-49.2125" y="-100.3935" width="98.425" height="200.787" transform="rotate(315)" id="tool-D11-pad-1009"/><g id="pcb_bottom-cu" fill="currentColor" stroke="currentColor"><path stroke-width="2" fill="none" d="M 783.9 32.4 L 783.9 32.4 M 783.9 32.4 L 784 32.4 M 784 32.4 L 785.1 32.3 M 785.1 32.3 L 786.2 32.4 M 786.2 32.4 L 786.2 32.4 M 786.2 32.4 L 794.9 32 M 794.9 32 L 831.1 33.8 M 831.1 33.8 L 866.9 39.1 M 866.9 39.1 L 902.1 47.9 M 902.1 47.9 L 936.2 60.1 M 936.2 60.1 L 969 75.6 M 969 75.6 L 1000 94.2 M 1000 94.2 L 1029.1 115.8 M 1029.1 115.8 L 1056 140.1 M 1056 140.1 L 1080.3 166.9 M 1080.3 166.9 L 1101.9 196.1 M 1101.9 196.1 L 1120.5 227.1 M 1120.5 227.1 L 1136 259.9 M 1136 259.9 L 1148.2 294 M 1148.2 294 L 1157 329.2 M 1157 329.2 L 1162.3 365 M 1162.3 365 L 1164.1 401.2 M 1164.1 401.2 L 1162.3 437.4 M 1162.3 437.4 L 1157 473.2 M 1157 473.2 L 1148.2 508.4 M 1148.2 508.4 L 1136 542.5 M 1136 542.5 L 1120.5 575.3 M 1120.5 575.3 L 1101.9 606.3 M 1101.9 606.3 L 1080.3 635.4 M 1080.3 635.4 L 1056 662.3 M 1056 662.3 L 1029.1 686.6 M 1029.1 686.6 L 1000 708.2 M 1000 708.2 L 969 726.8 M 969 726.8 L 936.2 742.3 M 936.2 742.3 L 902.1 754.5 M 902.1 754.5 L 866.9 763.3 M 866.9 763.3 L 831.1 768.6 M 831.1 768.6 L 810.6 769.7 M 810.6 769.7 L 807.9 766.7 M 807.9 766.7 L 808.1 765.5 M 808.1 765.5 L 808.1 765.3 M 808.1 765.3 L 806.6 754.4 M 806.6 754.4 L 806.6 754.3 M 806.6 754.3 L 802.4 744.1 M 802.4 744.1 L 802.3 744 M 802.3 744 L 795.6 735.2 M 795.6 735.2 L 795.5 735.1 M 795.5 735.1 L 786.8 728.4 M 786.8 728.4 L 786.7 728.4 M 786.7 728.4 L 776.5 724.2 M 776.5 724.2 L 776.4 724.1 M 776.4 724.1 L 765.5 722.7 M 765.5 722.7 L 765.3 722.7 M 765.3 722.7 L 754.4 724.1 M 754.4 724.1 L 754.3 724.2 M 754.3 724.2 L 744.1 728.4 M 744.1 728.4 L 744 728.4 M 744 728.4 L 735.2 735.1 M 735.2 735.1 L 735.1 735.2 M 735.1 735.2 L 728.4 744 M 728.4 744 L 728.4 744.1 M 728.4 744.1 L 724.2 754.3 M 724.2 754.3 L 724.1 754.4 M 724.1 754.4 L 722.7 765.3 M 722.7 765.3 L 722.7 765.5 M 722.7 765.5 L 724.1 776.4 M 724.1 776.4 L 724.2 776.5 M 724.2 776.5 L 728.4 786.7 M 728.4 786.7 L 728.4 786.8 M 728.4 786.8 L 735.1 795.5 M 735.1 795.5 L 735.2 795.6 M 735.2 795.6 L 744 802.3 M 744 802.3 L 744.1 802.4 M 744.1 802.4 L 754.3 806.6 M 754.3 806.6 L 754.4 806.6 M 754.4 806.6 L 765.3 808.1 M 765.3 808.1 L 765.5 808.1 M 765.5 808.1 L 766.7 807.9 M 766.7 807.9 L 769.7 810.6 M 769.7 810.6 L 768.6 831.1 M 768.6 831.1 L 763.3 866.9 M 763.3 866.9 L 754.5 902.1 M 754.5 902.1 L 742.3 936.2 M 742.3 936.2 L 726.8 969 M 726.8 969 L 708.2 1000 M 708.2 1000 L 686.6 1029.1 M 686.6 1029.1 L 662.3 1056 M 662.3 1056 L 635.4 1080.3 M 635.4 1080.3 L 606.3 1101.9 M 606.3 1101.9 L 575.3 1120.5 M 575.3 1120.5 L 542.5 1136 M 542.5 1136 L 508.4 1148.2 M 508.4 1148.2 L 473.2 1157 M 473.2 1157 L 437.4 1162.3 M 437.4 1162.3 L 401.2 1164.1 M 401.2 1164.1 L 365 1162.3 M 365 1162.3 L 329.2 1157 M 329.2 1157 L 294 1148.2 M 294 1148.2 L 259.9 1136 M 259.9 1136 L 227.1 1120.5 M 227.1 1120.5 L 196.1 1101.9 M 196.1 1101.9 L 166.9 1080.3 M 166.9 1080.3 L 140.1 1056 M 140.1 1056 L 115.8 1029.1 M 115.8 1029.1 L 94.2 1000 M 94.2 1000 L 75.6 969 M 75.6 969 L 60.1 936.2 M 60.1 936.2 L 47.9 902.1 M 47.9 902.1 L 39.1 866.9 M 39.1 866.9 L 33.8 831.1 M 33.8 831.1 L 32 794.9 M 32 794.9 L 32.4 786.2 M 32.4 786.2 L 32.4 786.2 M 32.4 786.2 L 32.3 785.1 M 32.3 785.1 L 32.4 784 M 32.4 784 L 32.4 783.9 M 32.4 783.9 L 31.9 774.6 M 31.9 774.6 L 31.9 767.5 M 31.9 767.5 L 35.3 766.1 M 35.3 766.1 L 177.3 908.1 M 177.3 908.1 L 178.1 908.1 M 178.1 908.1 L 270.6 815.6 M 270.6 815.6 L 270.6 814.8 M 270.6 814.8 L 105.7 649.9 M 105.7 649.9 L 104.9 649.9 M 104.9 649.9 L 35.3 719.5 M 35.3 719.5 L 31.9 718.1 M 31.9 718.1 L 31.9 126.2 M 31.9 126.2 L 32.4 116.4 M 32.4 116.4 L 33.8 107.3 M 33.8 107.3 L 36 98.4 M 36 98.4 L 39.1 89.8 M 39.1 89.8 L 43.1 81.5 M 43.1 81.5 L 47.8 73.6 M 47.8 73.6 L 53.2 66.2 M 53.2 66.2 L 59.4 59.4 M 59.4 59.4 L 66.2 53.2 M 66.2 53.2 L 73.6 47.8 M 73.6 47.8 L 81.5 43.1 M 81.5 43.1 L 89.8 39.1 M 89.8 39.1 L 98.4 36 M 98.4 36 L 107.3 33.8 M 107.3 33.8 L 116.4 32.4 M 116.4 32.4 L 126.2 31.9 M 126.2 31.9 L 718.1 31.9 M 718.1 31.9 L 719.5 35.3 M 719.5 35.3 L 649.9 104.9 M 649.9 104.9 L 649.9 105.7 M 649.9 105.7 L 814.8 270.6 M 814.8 270.6 L 815.6 270.6 M 815.6 270.6 L 908.1 178.1 M 908.1 178.1 L 908.1 177.3 M 908.1 177.3 L 766.1 35.3 M 766.1 35.3 L 767.5 31.9 M 767.5 31.9 L 774.6 31.9 M 774.6 31.9 L 783.9 32.4 M 827.4 467.7 L 827.4 467.7 M 827.4 467.7 L 826.4 492.3 M 826.4 492.3 L 826.4 492.3 M 826.4 492.3 L 822.2 524 M 822.2 524 L 822.1 524.1 M 822.1 524.1 L 815.2 555.3 M 815.2 555.3 L 815.2 555.4 M 815.2 555.4 L 805.6 585.9 M 805.6 585.9 L 805.6 586 M 805.6 586 L 793.3 615.5 M 793.3 615.5 L 793.3 615.6 M 793.3 615.6 L 778.5 644 M 778.5 644 L 778.5 644 M 778.5 644 L 761.3 671 M 761.3 671 L 761.3 671 M 761.3 671 L 741.8 696.5 M 741.8 696.5 L 741.8 696.5 M 741.8 696.5 L 720.1 720.1 M 720.1 720.1 L 720.1 720.1 M 720.1 720.1 L 696.5 741.8 M 696.5 741.8 L 696.5 741.8 M 696.5 741.8 L 671 761.3 M 671 761.3 L 671 761.3 M 671 761.3 L 644 778.5 M 644 778.5 L 644 778.5 M 644 778.5 L 615.6 793.3 M 615.6 793.3 L 615.5 793.3 M 615.5 793.3 L 586 805.6 M 586 805.6 L 585.9 805.6 M 585.9 805.6 L 555.4 815.2 M 555.4 815.2 L 555.3 815.2 M 555.3 815.2 L 524.1 822.1 M 524.1 822.1 L 524 822.2 M 524 822.2 L 492.3 826.4 M 492.3 826.4 L 492.3 826.4 M 492.3 826.4 L 467.7 827.4 M 467.7 827.4 L 467.1 826.8 M 467.1 826.8 L 467.1 467.7 M 467.1 467.7 L 467.7 467.1 M 467.7 467.1 L 826.8 467.1 M 826.8 467.1 L 827.4 467.7 M 453.4 467.7 L 453.4 467.7 M 453.4 467.7 L 453.4 826.8 M 453.4 826.8 L 452.8 827.4 M 452.8 827.4 L 428.2 826.4 M 428.2 826.4 L 428.2 826.4 M 428.2 826.4 L 396.5 822.2 M 396.5 822.2 L 396.4 822.1 M 396.4 822.1 L 365.2 815.2 M 365.2 815.2 L 365.1 815.2 M 365.1 815.2 L 334.6 805.6 M 334.6 805.6 L 334.5 805.6 M 334.5 805.6 L 305 793.3 M 305 793.3 L 304.9 793.3 M 304.9 793.3 L 276.5 778.5 M 276.5 778.5 L 276.5 778.5 M 276.5 778.5 L 249.5 761.3 M 249.5 761.3 L 249.5 761.3 M 249.5 761.3 L 224 741.8 M 224 741.8 L 224 741.8 M 224 741.8 L 200.4 720.1 M 200.4 720.1 L 200.4 720.1 M 200.4 720.1 L 178.8 696.5 M 178.8 696.5 L 178.7 696.5 M 178.7 696.5 L 159.2 671 M 159.2 671 L 159.2 671 M 159.2 671 L 142 644 M 142 644 L 142 644 M 142 644 L 127.2 615.6 M 127.2 615.6 L 127.2 615.5 M 127.2 615.5 L 114.9 586 M 114.9 586 L 114.9 585.9 M 114.9 585.9 L 105.3 555.4 M 105.3 555.4 L 105.3 555.3 M 105.3 555.3 L 98.4 524.1 M 98.4 524.1 L 98.3 524 M 98.3 524 L 94.2 492.3 M 94.2 492.3 L 94.2 492.3 M 94.2 492.3 L 93.1 467.7 M 93.1 467.7 L 93.7 467.1 M 93.7 467.1 L 452.8 467.1 M 452.8 467.1 L 453.4 467.7 M 492.3 94.2 L 492.3 94.2 M 492.3 94.2 L 492.3 94.2 M 492.3 94.2 L 524 98.3 M 524 98.3 L 524.1 98.4 M 524.1 98.4 L 555.3 105.3 M 555.3 105.3 L 555.4 105.3 M 555.4 105.3 L 585.9 114.9 M 585.9 114.9 L 586 114.9 M 586 114.9 L 615.5 127.2 M 615.5 127.2 L 615.6 127.2 M 615.6 127.2 L 644 142 M 644 142 L 644 142 M 644 142 L 671 159.2 M 671 159.2 L 671 159.2 M 671 159.2 L 696.5 178.7 M 696.5 178.7 L 696.5 178.8 M 696.5 178.8 L 720.1 200.4 M 720.1 200.4 L 720.1 200.4 M 720.1 200.4 L 741.8 224 M 741.8 224 L 741.8 224 M 741.8 224 L 761.3 249.5 M 761.3 249.5 L 761.3 249.5 M 761.3 249.5 L 778.5 276.5 M 778.5 276.5 L 778.5 276.5 M 778.5 276.5 L 793.3 304.9 M 793.3 304.9 L 793.3 305 M 793.3 305 L 805.6 334.5 M 805.6 334.5 L 805.6 334.6 M 805.6 334.6 L 815.2 365.1 M 815.2 365.1 L 815.2 365.2 M 815.2 365.2 L 822.1 396.4 M 822.1 396.4 L 822.2 396.5 M 822.2 396.5 L 826.4 428.2 M 826.4 428.2 L 826.4 428.2 M 826.4 428.2 L 827.4 452.8 M 827.4 452.8 L 826.8 453.4 M 826.8 453.4 L 467.7 453.4 M 467.7 453.4 L 467.1 452.8 M 467.1 452.8 L 467.1 93.7 M 467.1 93.7 L 467.7 93.1 M 467.7 93.1 L 492.3 94.2 M 453.4 93.7 L 453.4 93.7 M 453.4 93.7 L 453.4 452.8 M 453.4 452.8 L 452.8 453.4 M 452.8 453.4 L 93.7 453.4 M 93.7 453.4 L 93.1 452.8 M 93.1 452.8 L 94.2 428.2 M 94.2 428.2 L 94.2 428.2 M 94.2 428.2 L 98.3 396.5 M 98.3 396.5 L 98.4 396.4 M 98.4 396.4 L 105.3 365.2 M 105.3 365.2 L 105.3 365.1 M 105.3 365.1 L 114.9 334.6 M 114.9 334.6 L 114.9 334.5 M 114.9 334.5 L 127.2 305 M 127.2 305 L 127.2 304.9 M 127.2 304.9 L 142 276.5 M 142 276.5 L 142 276.5 M 142 276.5 L 159.2 249.5 M 159.2 249.5 L 159.2 249.5 M 159.2 249.5 L 178.7 224 M 178.7 224 L 178.8 224 M 178.8 224 L 200.4 200.4 M 200.4 200.4 L 200.4 200.4 M 200.4 200.4 L 224 178.8 M 224 178.8 L 224 178.7 M 224 178.7 L 249.5 159.2 M 249.5 159.2 L 249.5 159.2 M 249.5 159.2 L 276.5 142 M 276.5 142 L 276.5 142 M 276.5 142 L 304.9 127.2 M 304.9 127.2 L 305 127.2 M 305 127.2 L 334.5 114.9 M 334.5 114.9 L 334.6 114.9 M 334.6 114.9 L 365.1 105.3 M 365.1 105.3 L 365.2 105.3 M 365.2 105.3 L 396.4 98.4 M 396.4 98.4 L 396.5 98.3 M 396.5 98.3 L 428.2 94.2 M 428.2 94.2 L 428.2 94.2 M 428.2 94.2 L 452.8 93.1 M 452.8 93.1 L 453.4 93.7 M 113.2 32.9 L 718.5 32.9 M 767.1 32.9 L 813.6 32.9 M 103.1 34.9 L 719.3 34.9 M 766.3 34.9 L 838.4 34.9 M 96.2 36.8 L 718.1 36.8 M 767.6 36.8 L 851.6 36.8 M 90.8 38.8 L 716.1 38.8 M 769.5 38.8 L 864.7 38.8 M 86.4 40.7 L 714.2 40.7 M 771.5 40.7 L 873.4 40.7 M 82.3 42.7 L 712.2 42.7 M 773.4 42.7 L 881.2 42.7 M 78.9 44.6 L 710.3 44.6 M 775.4 44.6 L 889 44.6 M 75.6 46.6 L 708.3 46.6 M 777.3 46.6 L 896.8 46.6 M 72.6 48.5 L 706.4 48.5 M 779.3 48.5 L 903.8 48.5 M 70 50.5 L 704.4 50.5 M 781.2 50.5 L 909.3 50.5 M 67.3 52.4 L 702.5 52.4 M 783.2 52.4 L 914.7 52.4 M 65 54.4 L 700.5 54.4 M 785.1 54.4 L 920.2 54.4 M 62.8 56.3 L 698.6 56.3 M 787.1 56.3 L 925.6 56.3 M 60.7 58.2 L 696.6 58.2 M 789 58.2 L 931.1 58.2 M 58.7 60.2 L 694.7 60.2 M 791 60.2 L 936.4 60.2 M 56.9 62.1 L 692.7 62.1 M 792.9 62.1 L 940.6 62.1 M 55.1 64.1 L 690.8 64.1 M 794.9 64.1 L 944.7 64.1 M 53.4 66 L 688.8 66 M 796.8 66 L 948.8 66 M 51.9 68 L 686.8 68 M 798.8 68 L 952.9 68 M 50.5 69.9 L 684.9 69.9 M 800.7 69.9 L 957.1 69.9 M 49 71.9 L 682.9 71.9 M 802.7 71.9 L 961.2 71.9 M 47.6 73.8 L 681 73.8 M 804.6 73.8 L 965.3 73.8 M 46.4 75.8 L 679 75.8 M 806.6 75.8 L 969.3 75.8 M 45.3 77.7 L 677.1 77.7 M 808.5 77.7 L 972.6 77.7 M 44.1 79.7 L 675.1 79.7 M 810.5 79.7 L 975.8 79.7 M 42.9 81.6 L 673.2 81.6 M 812.4 81.6 L 979.1 81.6 M 42 83.6 L 671.2 83.6 M 814.4 83.6 L 982.3 83.6 M 41.1 85.5 L 669.3 85.5 M 816.4 85.5 L 985.6 85.5 M 40.2 87.5 L 667.3 87.5 M 818.3 87.5 L 988.8 87.5 M 39.3 89.4 L 665.4 89.4 M 820.3 89.4 L 992.1 89.4 M 38.5 91.4 L 663.4 91.4 M 822.2 91.4 L 995.3 91.4 M 37.8 93.4 L 446.9 93.4 M 453.1 93.4 L 467.5 93.4 M 473.6 93.4 L 661.5 93.4 M 824.2 93.4 L 998.6 93.4 M 37.1 95.3 L 419.6 95.3 M 453.4 95.3 L 467.1 95.3 M 500.9 95.3 L 659.5 95.3 M 826.1 95.3 L 1001.5 95.3 M 36.4 97.3 L 404.8 97.3 M 453.4 97.3 L 467.1 97.3 M 515.7 97.3 L 657.6 97.3 M 828.1 97.3 L 1004.2 97.3 M 35.8 99.2 L 392.6 99.2 M 453.4 99.2 L 467.1 99.2 M 527.9 99.2 L 655.6 99.2 M 830 99.2 L 1006.8 99.2 M 35.3 101.2 L 383.8 101.2 M 453.4 101.2 L 467.1 101.2 M 536.7 101.2 L 653.7 101.2 M 831.9 101.2 L 1009.4 101.2 M 34.8 103.1 L 375 103.1 M 453.4 103.1 L 467.1 103.1 M 545.5 103.1 L 651.8 103.1 M 833.9 103.1 L 1012 103.1 M 34.4 105.1 L 366.2 105.1 M 453.4 105.1 L 467.1 105.1 M 554.3 105.1 L 649.9 105.1 M 835.8 105.1 L 1014.7 105.1 M 33.9 107 L 359.7 107 M 453.4 107 L 467.1 107 M 560.8 107 L 651.2 107 M 837.8 107 L 1017.3 107 M 33.5 109 L 353.5 109 M 453.4 109 L 467.1 109 M 567 109 L 653.2 109 M 839.7 109 L 1019.9 109 M 33.2 110.9 L 347.3 110.9 M 453.4 110.9 L 467.1 110.9 M 573.2 110.9 L 655.1 110.9 M 841.7 110.9 L 1022.5 110.9 M 33 112.9 L 341.2 112.9 M 453.4 112.9 L 467.1 112.9 M 579.4 112.9 L 657.1 112.9 M 843.6 112.9 L 1025.2 112.9 M 32.7 114.8 L 335 114.8 M 453.4 114.8 L 467.1 114.8 M 585.5 114.8 L 659 114.8 M 845.6 114.8 L 1027.8 114.8 M 32.4 116.8 L 330.2 116.8 M 453.4 116.8 L 467.1 116.8 M 590.3 116.8 L 661 116.8 M 847.5 116.8 L 1030.2 116.8 M 32.3 118.7 L 325.5 118.7 M 453.4 118.7 L 467.1 118.7 M 595.1 118.7 L 662.9 118.7 M 849.5 118.7 L 1032.3 118.7 M 32.2 120.6 L 320.8 120.6 M 453.4 120.6 L 467.1 120.6 M 599.7 120.6 L 664.9 120.6 M 851.4 120.6 L 1034.5 120.6 M 32.1 122.6 L 316 122.6 M 453.4 122.6 L 467.1 122.6 M 604.5 122.6 L 666.8 122.6 M 853.4 122.6 L 1036.6 122.6 M 32 124.5 L 311.3 124.5 M 453.4 124.5 L 467.1 124.5 M 609.2 124.5 L 668.8 124.5 M 855.3 124.5 L 1038.8 124.5 M 31.9 126.5 L 306.6 126.5 M 453.4 126.5 L 467.1 126.5 M 613.9 126.5 L 670.7 126.5 M 857.3 126.5 L 1041 126.5 M 31.9 128.4 L 302.5 128.4 M 453.4 128.4 L 467.1 128.4 M 618 128.4 L 672.7 128.4 M 859.2 128.4 L 1043.1 128.4 M 31.9 130.4 L 298.8 130.4 M 453.4 130.4 L 467.1 130.4 M 621.7 130.4 L 674.6 130.4 M 861.2 130.4 L 1045.3 130.4 M 31.9 132.3 L 295.1 132.3 M 453.4 132.3 L 467.1 132.3 M 625.5 132.3 L 676.6 132.3 M 863.1 132.3 L 1047.4 132.3 M 31.9 134.3 L 291.3 134.3 M 453.4 134.3 L 467.1 134.3 M 629.2 134.3 L 678.5 134.3 M 865.1 134.3 L 1049.5 134.3 M 31.9 136.2 L 287.5 136.2 M 453.4 136.2 L 467.1 136.2 M 633 136.2 L 680.5 136.2 M 867 136.2 L 1051.7 136.2 M 31.9 138.2 L 283.8 138.2 M 453.4 138.2 L 467.1 138.2 M 636.7 138.2 L 682.4 138.2 M 869 138.2 L 1053.9 138.2 M 31.9 140.1 L 280.1 140.1 M 453.4 140.1 L 467.1 140.1 M 640.5 140.1 L 684.4 140.1 M 870.9 140.1 L 1056 140.1 M 31.9 142.1 L 276.4 142.1 M 453.4 142.1 L 467.1 142.1 M 644.2 142.1 L 686.3 142.1 M 872.9 142.1 L 1057.8 142.1 M 31.9 144 L 273.3 144 M 453.4 144 L 467.1 144 M 647.2 144 L 688.3 144 M 874.8 144 L 1059.5 144 M 31.9 146 L 270.2 146 M 453.4 146 L 467.1 146 M 650.3 146 L 690.2 146 M 876.8 146 L 1061.3 146 M 31.9 147.9 L 267.2 147.9 M 453.4 147.9 L 467.1 147.9 M 653.3 147.9 L 692.2 147.9 M 878.8 147.9 L 1063.1 147.9 M 31.9 149.9 L 264.1 149.9 M 453.4 149.9 L 467.1 149.9 M 656.4 149.9 L 694.1 149.9 M 880.7 149.9 L 1064.9 149.9 M 31.9 151.8 L 261 151.8 M 453.4 151.8 L 467.1 151.8 M 659.5 151.8 L 696.1 151.8 M 882.7 151.8 L 1066.6 151.8 M 31.9 153.8 L 258 153.8 M 453.4 153.8 L 467.1 153.8 M 662.5 153.8 L 698 153.8 M 884.6 153.8 L 1068.4 153.8 M 31.9 155.8 L 254.9 155.8 M 453.4 155.8 L 467.1 155.8 M 665.6 155.8 L 700 155.8 M 886.6 155.8 L 1070.1 155.8 M 31.9 157.7 L 251.9 157.7 M 453.4 157.7 L 467.1 157.7 M 668.6 157.7 L 701.9 157.7 M 888.5 157.7 L 1071.9 157.7 M 31.9 159.7 L 248.9 159.7 M 453.4 159.7 L 467.1 159.7 M 671.6 159.7 L 703.9 159.7 M 890.5 159.7 L 1073.7 159.7 M 31.9 161.6 L 246.4 161.6 M 453.4 161.6 L 467.1 161.6 M 674.2 161.6 L 705.8 161.6 M 892.4 161.6 L 1075.5 161.6 M 31.9 163.6 L 243.8 163.6 M 453.4 163.6 L 467.1 163.6 M 676.7 163.6 L 707.8 163.6 M 894.4 163.6 L 1077.2 163.6 M 31.9 165.5 L 241.3 165.5 M 453.4 165.5 L 467.1 165.5 M 679.2 165.5 L 709.7 165.5 M 896.3 165.5 L 1079 165.5 M 31.9 167.5 L 238.8 167.5 M 453.4 167.5 L 467.1 167.5 M 681.8 167.5 L 711.7 167.5 M 898.2 167.5 L 1080.7 167.5 M 31.9 169.4 L 236.2 169.4 M 453.4 169.4 L 467.1 169.4 M 684.3 169.4 L 713.6 169.4 M 900.2 169.4 L 1082.1 169.4 M 31.9 171.4 L 233.7 171.4 M 453.4 171.4 L 467.1 171.4 M 686.8 171.4 L 715.6 171.4 M 902.1 171.4 L 1083.6 171.4 M 31.9 173.3 L 231.1 173.3 M 453.4 173.3 L 467.1 173.3 M 689.4 173.3 L 717.5 173.3 M 904.1 173.3 L 1085 173.3 M 31.9 175.3 L 228.6 175.3 M 453.4 175.3 L 467.1 175.3 M 691.9 175.3 L 719.5 175.3 M 906 175.3 L 1086.4 175.3 M 31.9 177.2 L 226 177.2 M 453.4 177.2 L 467.1 177.2 M 694.5 177.2 L 721.4 177.2 M 908 177.2 L 1087.9 177.2 M 31.9 179.2 L 223.6 179.2 M 453.4 179.2 L 467.1 179.2 M 696.9 179.2 L 723.4 179.2 M 907 179.2 L 1089.4 179.2 M 31.9 181.1 L 221.5 181.1 M 453.4 181.1 L 467.1 181.1 M 699 181.1 L 725.3 181.1 M 905.1 181.1 L 1090.8 181.1 M 31.9 183.1 L 219.4 183.1 M 453.4 183.1 L 467.1 183.1 M 701.2 183.1 L 727.3 183.1 M 903.1 183.1 L 1092.2 183.1 M 31.9 185 L 217.2 185 M 453.4 185 L 467.1 185 M 703.3 185 L 729.2 185 M 901.2 185 L 1093.7 185 M 31.9 186.9 L 215.1 186.9 M 453.4 186.9 L 467.1 186.9 M 705.4 186.9 L 731.2 186.9 M 899.2 186.9 L 1095.1 186.9 M 31.9 188.9 L 212.9 188.9 M 453.4 188.9 L 467.1 188.9 M 707.6 188.9 L 733.1 188.9 M 897.3 188.9 L 1096.6 188.9 M 31.9 190.8 L 210.8 190.8 M 453.4 190.8 L 467.1 190.8 M 709.7 190.8 L 735.1 190.8 M 895.3 190.8 L 1098 190.8 M 31.9 192.8 L 208.7 192.8 M 453.4 192.8 L 467.1 192.8 M 711.8 192.8 L 737 192.8 M 893.4 192.8 L 1099.5 192.8 M 31.9 194.7 L 206.6 194.7 M 453.4 194.7 L 467.1 194.7 M 714 194.7 L 739 194.7 M 891.4 194.7 L 1100.9 194.7 M 31.9 196.7 L 204.4 196.7 M 453.4 196.7 L 467.1 196.7 M 716.1 196.7 L 740.9 196.7 M 889.5 196.7 L 1102.3 196.7 M 31.9 198.6 L 202.3 198.6 M 453.4 198.6 L 467.1 198.6 M 718.2 198.6 L 742.9 198.6 M 887.5 198.6 L 1103.4 198.6 M 31.9 200.6 L 200.2 200.6 M 453.4 200.6 L 467.1 200.6 M 720.3 200.6 L 744.8 200.6 M 885.6 200.6 L 1104.6 200.6 M 31.9 202.5 L 198.4 202.5 M 453.4 202.5 L 467.1 202.5 M 722.1 202.5 L 746.8 202.5 M 883.6 202.5 L 1105.8 202.5 M 31.9 204.5 L 196.6 204.5 M 453.4 204.5 L 467.1 204.5 M 723.9 204.5 L 748.7 204.5 M 881.7 204.5 L 1106.9 204.5 M 31.9 206.4 L 194.9 206.4 M 453.4 206.4 L 467.1 206.4 M 725.6 206.4 L 750.7 206.4 M 879.7 206.4 L 1108.1 206.4 M 31.9 208.4 L 193.1 208.4 M 453.4 208.4 L 467.1 208.4 M 727.4 208.4 L 752.6 208.4 M 877.8 208.4 L 1109.3 208.4 M 31.9 210.3 L 191.3 210.3 M 453.4 210.3 L 467.1 210.3 M 729.2 210.3 L 754.6 210.3 M 875.8 210.3 L 1110.5 210.3 M 31.9 212.3 L 189.5 212.3 M 453.4 212.3 L 467.1 212.3 M 731 212.3 L 756.5 212.3 M 873.9 212.3 L 1111.6 212.3 M 31.9 214.2 L 187.7 214.2 M 453.4 214.2 L 467.1 214.2 M 732.8 214.2 L 758.5 214.2 M 871.9 214.2 L 1112.8 214.2 M 31.9 216.2 L 185.9 216.2 M 453.4 216.2 L 467.1 216.2 M 734.6 216.2 L 760.4 216.2 M 870 216.2 L 1114 216.2 M 31.9 218.1 L 184.2 218.1 M 453.4 218.1 L 467.1 218.1 M 736.4 218.1 L 762.4 218.1 M 868 218.1 L 1115.1 218.1 M 31.9 220.1 L 182.3 220.1 M 453.4 220.1 L 467.1 220.1 M 738.2 220.1 L 764.3 220.1 M 866.1 220.1 L 1116.3 220.1 M 31.9 222.1 L 180.6 222.1 M 453.4 222.1 L 467.1 222.1 M 739.9 222.1 L 766.3 222.1 M 864.1 222.1 L 1117.5 222.1 M 31.9 224 L 178.8 224 M 453.4 224 L 467.1 224 M 741.8 224 L 768.2 224 M 862.2 224 L 1118.6 224 M 31.9 226 L 177.3 226 M 453.4 226 L 467.1 226 M 743.2 226 L 770.2 226 M 860.2 226 L 1119.8 226 M 31.9 227.9 L 175.8 227.9 M 453.4 227.9 L 467.1 227.9 M 744.7 227.9 L 772.1 227.9 M 858.3 227.9 L 1120.9 227.9 M 31.9 229.9 L 174.3 229.9 M 453.4 229.9 L 467.1 229.9 M 746.2 229.9 L 774.1 229.9 M 856.3 229.9 L 1121.8 229.9 M 31.9 231.8 L 172.8 231.8 M 453.4 231.8 L 467.1 231.8 M 747.7 231.8 L 776 231.8 M 854.4 231.8 L 1122.7 231.8 M 31.9 233.8 L 171.3 233.8 M 453.4 233.8 L 467.1 233.8 M 749.2 233.8 L 778 233.8 M 852.4 233.8 L 1123.6 233.8 M 31.9 235.7 L 169.8 235.7 M 453.4 235.7 L 467.1 235.7 M 750.7 235.7 L 779.9 235.7 M 850.5 235.7 L 1124.6 235.7 M 31.9 237.7 L 168.3 237.7 M 453.4 237.7 L 467.1 237.7 M 752.2 237.7 L 781.9 237.7 M 848.5 237.7 L 1125.5 237.7 M 31.9 239.6 L 166.8 239.6 M 453.4 239.6 L 467.1 239.6 M 753.7 239.6 L 783.8 239.6 M 846.6 239.6 L 1126.4 239.6 M 31.9 241.6 L 165.3 241.6 M 453.4 241.6 L 467.1 241.6 M 755.2 241.6 L 785.8 241.6 M 844.6 241.6 L 1127.3 241.6 M 31.9 243.5 L 163.8 243.5 M 453.4 243.5 L 467.1 243.5 M 756.7 243.5 L 787.7 243.5 M 842.7 243.5 L 1128.2 243.5 M 31.9 245.5 L 162.3 245.5 M 453.4 245.5 L 467.1 245.5 M 758.2 245.5 L 789.7 245.5 M 840.7 245.5 L 1129.2 245.5 M 31.9 247.4 L 160.8 247.4 M 453.4 247.4 L 467.1 247.4 M 759.7 247.4 L 791.6 247.4 M 838.8 247.4 L 1130.1 247.4 M 31.9 249.4 L 159.3 249.4 M 453.4 249.4 L 467.1 249.4 M 761.2 249.4 L 793.6 249.4 M 836.8 249.4 L 1131 249.4 M 31.9 251.3 L 158.1 251.3 M 453.4 251.3 L 467.1 251.3 M 762.5 251.3 L 795.5 251.3 M 834.9 251.3 L 1131.9 251.3 M 31.9 253.2 L 156.8 253.2 M 453.4 253.2 L 467.1 253.2 M 763.7 253.2 L 797.5 253.2 M 832.9 253.2 L 1132.9 253.2 M 31.9 255.2 L 155.6 255.2 M 453.4 255.2 L 467.1 255.2 M 764.9 255.2 L 799.4 255.2 M 831 255.2 L 1133.8 255.2 M 31.9 257.1 L 154.4 257.1 M 453.4 257.1 L 467.1 257.1 M 766.2 257.1 L 801.4 257.1 M 829 257.1 L 1134.7 257.1 M 31.9 259.1 L 153.1 259.1 M 453.4 259.1 L 467.1 259.1 M 767.4 259.1 L 803.3 259.1 M 827.1 259.1 L 1135.6 259.1 M 31.9 261 L 151.8 261 M 453.4 261 L 467.1 261 M 768.7 261 L 805.3 261 M 825.1 261 L 1136.4 261 M 31.9 263 L 150.6 263 M 453.4 263 L 467.1 263 M 769.9 263 L 807.2 263 M 823.2 263 L 1137.1 263 M 31.9 264.9 L 149.4 264.9 M 453.4 264.9 L 467.1 264.9 M 771.2 264.9 L 809.2 264.9 M 821.2 264.9 L 1137.8 264.9 M 31.9 266.9 L 148.1 266.9 M 453.4 266.9 L 467.1 266.9 M 772.4 266.9 L 811.1 266.9 M 819.3 266.9 L 1138.5 266.9 M 31.9 268.8 L 146.9 268.8 M 453.4 268.8 L 467.1 268.8 M 773.6 268.8 L 813.1 268.8 M 817.3 268.8 L 1139.2 268.8 M 31.9 270.8 L 145.6 270.8 M 453.4 270.8 L 467.1 270.8 M 774.9 270.8 L 1139.9 270.8 M 31.9 272.7 L 144.4 272.7 M 453.4 272.7 L 467.1 272.7 M 776.1 272.7 L 1140.6 272.7 M 31.9 274.7 L 143.2 274.7 M 453.4 274.7 L 467.1 274.7 M 777.3 274.7 L 1141.3 274.7 M 31.9 276.6 L 141.9 276.6 M 453.4 276.6 L 467.1 276.6 M 778.6 276.6 L 1142 276.6 M 31.9 278.6 L 140.9 278.6 M 453.4 278.6 L 467.1 278.6 M 779.6 278.6 L 1142.7 278.6 M 31.9 280.5 L 139.9 280.5 M 453.4 280.5 L 467.1 280.5 M 780.6 280.5 L 1143.4 280.5 M 31.9 282.5 L 138.9 282.5 M 453.4 282.5 L 467.1 282.5 M 781.6 282.5 L 1144.1 282.5 M 31.9 284.4 L 137.9 284.4 M 453.4 284.4 L 467.1 284.4 M 782.7 284.4 L 1144.8 284.4 M 31.9 286.4 L 136.9 286.4 M 453.4 286.4 L 467.1 286.4 M 783.6 286.4 L 1145.5 286.4 M 31.9 288.4 L 135.8 288.4 M 453.4 288.4 L 467.1 288.4 M 784.7 288.4 L 1146.2 288.4 M 31.9 290.3 L 134.8 290.3 M 453.4 290.3 L 467.1 290.3 M 785.7 290.3 L 1146.9 290.3 M 31.9 292.3 L 133.8 292.3 M 453.4 292.3 L 467.1 292.3 M 786.7 292.3 L 1147.6 292.3 M 31.9 294.2 L 132.8 294.2 M 453.4 294.2 L 467.1 294.2 M 787.7 294.2 L 1148.3 294.2 M 31.9 296.2 L 131.8 296.2 M 453.4 296.2 L 467.1 296.2 M 788.7 296.2 L 1148.8 296.2 M 31.9 298.1 L 130.8 298.1 M 453.4 298.1 L 467.1 298.1 M 789.7 298.1 L 1149.2 298.1 M 31.9 300.1 L 129.7 300.1 M 453.4 300.1 L 467.1 300.1 M 790.8 300.1 L 1149.7 300.1 M 31.9 302 L 128.7 302 M 453.4 302 L 467.1 302 M 791.8 302 L 1150.2 302 M 31.9 304 L 127.7 304 M 453.4 304 L 467.1 304 M 792.8 304 L 1150.7 304 M 31.9 305.9 L 126.8 305.9 M 453.4 305.9 L 467.1 305.9 M 793.7 305.9 L 1151.2 305.9 M 31.9 307.9 L 126 307.9 M 453.4 307.9 L 467.1 307.9 M 794.5 307.9 L 1151.7 307.9 M 31.9 309.8 L 125.2 309.8 M 453.4 309.8 L 467.1 309.8 M 795.3 309.8 L 1152.2 309.8 M 31.9 311.8 L 124.4 311.8 M 453.4 311.8 L 467.1 311.8 M 796.1 311.8 L 1152.7 311.8 M 31.9 313.7 L 123.6 313.7 M 453.4 313.7 L 467.1 313.7 M 796.9 313.7 L 1153.2 313.7 M 31.9 315.6 L 122.8 315.6 M 453.4 315.6 L 467.1 315.6 M 797.7 315.6 L 1153.6 315.6 M 31.9 317.6 L 121.9 317.6 M 453.4 317.6 L 467.1 317.6 M 798.6 317.6 L 1154.1 317.6 M 31.9 319.5 L 121.2 319.5 M 453.4 319.5 L 467.1 319.5 M 799.4 319.5 L 1154.6 319.5 M 31.9 321.5 L 120.3 321.5 M 453.4 321.5 L 467.1 321.5 M 800.2 321.5 L 1155.1 321.5 M 31.9 323.4 L 119.5 323.4 M 453.4 323.4 L 467.1 323.4 M 801 323.4 L 1155.6 323.4 M 31.9 325.4 L 118.7 325.4 M 453.4 325.4 L 467.1 325.4 M 801.8 325.4 L 1156.1 325.4 M 31.9 327.3 L 117.9 327.3 M 453.4 327.3 L 467.1 327.3 M 802.6 327.3 L 1156.6 327.3 M 31.9 329.3 L 117.1 329.3 M 453.4 329.3 L 467.1 329.3 M 803.4 329.3 L 1157 329.3 M 31.9 331.2 L 116.3 331.2 M 453.4 331.2 L 467.1 331.2 M 804.2 331.2 L 1157.3 331.2 M 31.9 333.2 L 115.5 333.2 M 453.4 333.2 L 467.1 333.2 M 805 333.2 L 1157.6 333.2 M 31.9 335.1 L 114.7 335.1 M 453.4 335.1 L 467.1 335.1 M 805.8 335.1 L 1157.9 335.1 M 31.9 337.1 L 114.1 337.1 M 453.4 337.1 L 467.1 337.1 M 806.4 337.1 L 1158.2 337.1 M 31.9 339 L 113.5 339 M 453.4 339 L 467.1 339 M 807 339 L 1158.5 339 M 31.9 341 L 112.9 341 M 453.4 341 L 467.1 341 M 807.6 341 L 1158.8 341 M 31.9 342.9 L 112.3 342.9 M 453.4 342.9 L 467.1 342.9 M 808.2 342.9 L 1159.1 342.9 M 31.9 344.9 L 111.7 344.9 M 453.4 344.9 L 467.1 344.9 M 808.8 344.9 L 1159.4 344.9 M 31.9 346.8 L 111 346.8 M 453.4 346.8 L 467.1 346.8 M 809.5 346.8 L 1159.7 346.8 M 31.9 348.8 L 110.5 348.8 M 453.4 348.8 L 467.1 348.8 M 810.1 348.8 L 1159.9 348.8 M 31.9 350.8 L 109.8 350.8 M 453.4 350.8 L 467.1 350.8 M 810.7 350.8 L 1160.2 350.8 M 31.9 352.7 L 109.2 352.7 M 453.4 352.7 L 467.1 352.7 M 811.3 352.7 L 1160.5 352.7 M 31.9 354.7 L 108.6 354.7 M 453.4 354.7 L 467.1 354.7 M 811.9 354.7 L 1160.8 354.7 M 31.9 356.6 L 108 356.6 M 453.4 356.6 L 467.1 356.6 M 812.5 356.6 L 1161.1 356.6 M 31.9 358.6 L 107.4 358.6 M 453.4 358.6 L 467.1 358.6 M 813.1 358.6 L 1161.4 358.6 M 31.9 360.5 L 106.8 360.5 M 453.4 360.5 L 467.1 360.5 M 813.8 360.5 L 1161.7 360.5 M 31.9 362.5 L 106.1 362.5 M 453.4 362.5 L 467.1 362.5 M 814.4 362.5 L 1161.9 362.5 M 31.9 364.4 L 105.5 364.4 M 453.4 364.4 L 467.1 364.4 M 815 364.4 L 1162.3 364.4 M 31.9 366.4 L 105 366.4 M 453.4 366.4 L 467.1 366.4 M 815.5 366.4 L 1162.4 366.4 M 31.9 368.3 L 104.6 368.3 M 453.4 368.3 L 467.1 368.3 M 815.9 368.3 L 1162.5 368.3 M 31.9 370.3 L 104.2 370.3 M 453.4 370.3 L 467.1 370.3 M 816.4 370.3 L 1162.6 370.3 M 31.9 372.2 L 103.7 372.2 M 453.4 372.2 L 467.1 372.2 M 816.8 372.2 L 1162.7 372.2 M 31.9 374.2 L 103.3 374.2 M 453.4 374.2 L 467.1 374.2 M 817.2 374.2 L 1162.8 374.2 M 31.9 376.1 L 102.9 376.1 M 453.4 376.1 L 467.1 376.1 M 817.7 376.1 L 1162.9 376.1 M 31.9 378.1 L 102.4 378.1 M 453.4 378.1 L 467.1 378.1 M 818.1 378.1 L 1163 378.1 M 31.9 380 L 102 380 M 453.4 380 L 467.1 380 M 818.5 380 L 1163.1 380 M 31.9 381.9 L 101.6 381.9 M 453.4 381.9 L 467.1 381.9 M 819 381.9 L 1163.2 381.9 M 31.9 383.9 L 101.1 383.9 M 453.4 383.9 L 467.1 383.9 M 819.4 383.9 L 1163.3 383.9 M 31.9 385.8 L 100.7 385.8 M 453.4 385.8 L 467.1 385.8 M 819.8 385.8 L 1163.4 385.8 M 31.9 387.8 L 100.3 387.8 M 453.4 387.8 L 467.1 387.8 M 820.3 387.8 L 1163.5 387.8 M 31.9 389.7 L 99.8 389.7 M 453.4 389.7 L 467.1 389.7 M 820.7 389.7 L 1163.6 389.7 M 31.9 391.7 L 99.4 391.7 M 453.4 391.7 L 467.1 391.7 M 821.1 391.7 L 1163.6 391.7 M 31.9 393.6 L 99 393.6 M 453.4 393.6 L 467.1 393.6 M 821.6 393.6 L 1163.8 393.6 M 31.9 395.6 L 98.5 395.6 M 453.4 395.6 L 467.1 395.6 M 822 395.6 L 1163.8 395.6 M 31.9 397.5 L 98.2 397.5 M 453.4 397.5 L 467.1 397.5 M 822.3 397.5 L 1164 397.5 M 31.9 399.5 L 97.9 399.5 M 453.4 399.5 L 467.1 399.5 M 822.6 399.5 L 1164 399.5 M 31.9 401.4 L 97.7 401.4 M 453.4 401.4 L 467.1 401.4 M 822.8 401.4 L 1164.1 401.4 M 31.9 403.4 L 97.4 403.4 M 453.4 403.4 L 467.1 403.4 M 823.1 403.4 L 1164 403.4 M 31.9 405.3 L 97.2 405.3 M 453.4 405.3 L 467.1 405.3 M 823.3 405.3 L 1163.9 405.3 M 31.9 407.3 L 96.9 407.3 M 453.4 407.3 L 467.1 407.3 M 823.6 407.3 L 1163.8 407.3 M 31.9 409.2 L 96.7 409.2 M 453.4 409.2 L 467.1 409.2 M 823.8 409.2 L 1163.7 409.2 M 31.9 411.2 L 96.4 411.2 M 453.4 411.2 L 467.1 411.2 M 824.1 411.2 L 1163.6 411.2 M 31.9 413.1 L 96.2 413.1 M 453.4 413.1 L 467.1 413.1 M 824.4 413.1 L 1163.5 413.1 M 31.9 415.1 L 95.9 415.1 M 453.4 415.1 L 467.1 415.1 M 824.6 415.1 L 1163.4 415.1 M 31.9 417.1 L 95.6 417.1 M 453.4 417.1 L 467.1 417.1 M 824.9 417.1 L 1163.3 417.1 M 31.9 419 L 95.4 419 M 453.4 419 L 467.1 419 M 825.1 419 L 1163.2 419 M 31.9 421 L 95.1 421 M 453.4 421 L 467.1 421 M 825.4 421 L 1163.2 421 M 31.9 422.9 L 94.9 422.9 M 453.4 422.9 L 467.1 422.9 M 825.6 422.9 L 1163.1 422.9 M 31.9 424.9 L 94.6 424.9 M 453.4 424.9 L 467.1 424.9 M 825.9 424.9 L 1163 424.9 M 31.9 426.8 L 94.4 426.8 M 453.4 426.8 L 467.1 426.8 M 826.2 426.8 L 1162.9 426.8 M 31.9 428.8 L 94.2 428.8 M 453.4 428.8 L 467.1 428.8 M 826.4 428.8 L 1162.8 428.8 M 31.9 430.7 L 94 430.7 M 453.4 430.7 L 467.1 430.7 M 826.5 430.7 L 1162.7 430.7 M 31.9 432.7 L 94 432.7 M 453.4 432.7 L 467.1 432.7 M 826.6 432.7 L 1162.6 432.7 M 31.9 434.6 L 93.9 434.6 M 453.4 434.6 L 467.1 434.6 M 826.6 434.6 L 1162.5 434.6 M 31.9 436.6 L 93.8 436.6 M 453.4 436.6 L 467.1 436.6 M 826.7 436.6 L 1162.4 436.6 M 31.9 438.5 L 93.7 438.5 M 453.4 438.5 L 467.1 438.5 M 826.8 438.5 L 1162.2 438.5 M 31.9 440.5 L 93.6 440.5 M 453.4 440.5 L 467.1 440.5 M 826.9 440.5 L 1161.9 440.5 M 31.9 442.4 L 93.6 442.4 M 453.4 442.4 L 467.1 442.4 M 826.9 442.4 L 1161.6 442.4 M 31.9 444.4 L 93.4 444.4 M 453.4 444.4 L 467.1 444.4 M 827.1 444.4 L 1161.3 444.4 M 31.9 446.3 L 93.4 446.3 M 453.4 446.3 L 467.1 446.3 M 827.1 446.3 L 1161 446.3 M 31.9 448.2 L 93.3 448.2 M 453.4 448.2 L 467.1 448.2 M 827.2 448.2 L 1160.7 448.2 M 31.9 450.2 L 93.2 450.2 M 453.4 450.2 L 467.1 450.2 M 827.3 450.2 L 1160.5 450.2 M 31.9 452.1 L 93.1 452.1 M 453.4 452.1 L 467.1 452.1 M 827.4 452.1 L 1160.1 452.1 M 31.9 454.1 L 1159.9 454.1 M 31.9 456 L 1159.6 456 M 31.9 458 L 1159.3 458 M 31.9 459.9 L 1159 459.9 M 31.9 461.9 L 1158.7 461.9 M 31.9 463.8 L 1158.4 463.8 M 31.9 465.8 L 1158.1 465.8 M 31.9 467.7 L 93.1 467.7 M 453.4 467.7 L 467.1 467.7 M 827.4 467.7 L 1157.9 467.7 M 31.9 469.7 L 93.2 469.7 M 453.4 469.7 L 467.1 469.7 M 827.3 469.7 L 1157.5 469.7 M 31.9 471.6 L 93.2 471.6 M 453.4 471.6 L 467.1 471.6 M 827.3 471.6 L 1157.3 471.6 M 31.9 473.6 L 93.4 473.6 M 453.4 473.6 L 467.1 473.6 M 827.1 473.6 L 1156.9 473.6 M 31.9 475.5 L 93.4 475.5 M 453.4 475.5 L 467.1 475.5 M 827.1 475.5 L 1156.4 475.5 M 31.9 477.5 L 93.5 477.5 M 453.4 477.5 L 467.1 477.5 M 827 477.5 L 1156 477.5 M 31.9 479.4 L 93.6 479.4 M 453.4 479.4 L 467.1 479.4 M 826.9 479.4 L 1155.5 479.4 M 31.9 481.4 L 93.7 481.4 M 453.4 481.4 L 467.1 481.4 M 826.8 481.4 L 1155 481.4 M 31.9 483.4 L 93.8 483.4 M 453.4 483.4 L 467.1 483.4 M 826.8 483.4 L 1154.5 483.4 M 31.9 485.3 L 93.8 485.3 M 453.4 485.3 L 467.1 485.3 M 826.7 485.3 L 1154 485.3 M 31.9 487.3 L 94 487.3 M 453.4 487.3 L 467.1 487.3 M 826.6 487.3 L 1153.5 487.3 M 31.9 489.2 L 94 489.2 M 453.4 489.2 L 467.1 489.2 M 826.5 489.2 L 1153 489.2 M 31.9 491.2 L 94.1 491.2 M 453.4 491.2 L 467.1 491.2 M 826.4 491.2 L 1152.5 491.2 M 31.9 493.1 L 94.3 493.1 M 453.4 493.1 L 467.1 493.1 M 826.2 493.1 L 1152.1 493.1 M 31.9 495.1 L 94.5 495.1 M 453.4 495.1 L 467.1 495.1 M 826 495.1 L 1151.6 495.1 M 31.9 497 L 94.8 497 M 453.4 497 L 467.1 497 M 825.7 497 L 1151.1 497 M 31.9 499 L 95.1 499 M 453.4 499 L 467.1 499 M 825.5 499 L 1150.6 499 M 31.9 500.9 L 95.3 500.9 M 453.4 500.9 L 467.1 500.9 M 825.2 500.9 L 1150.1 500.9 M 31.9 502.9 L 95.6 502.9 M 453.4 502.9 L 467.1 502.9 M 824.9 502.9 L 1149.6 502.9 M 31.9 504.8 L 95.8 504.8 M 453.4 504.8 L 467.1 504.8 M 824.7 504.8 L 1149.1 504.8 M 31.9 506.8 L 96.1 506.8 M 453.4 506.8 L 467.1 506.8 M 824.4 506.8 L 1148.6 506.8 M 31.9 508.7 L 96.3 508.7 M 453.4 508.7 L 467.1 508.7 M 824.2 508.7 L 1148.1 508.7 M 31.9 510.6 L 96.6 510.6 M 453.4 510.6 L 467.1 510.6 M 823.9 510.6 L 1147.4 510.6 M 31.9 512.6 L 96.8 512.6 M 453.4 512.6 L 467.1 512.6 M 823.7 512.6 L 1146.7 512.6 M 31.9 514.5 L 97.1 514.5 M 453.4 514.5 L 467.1 514.5 M 823.4 514.5 L 1146 514.5 M 31.9 516.5 L 97.3 516.5 M 453.4 516.5 L 467.1 516.5 M 823.2 516.5 L 1145.3 516.5 M 31.9 518.4 L 97.6 518.4 M 453.4 518.4 L 467.1 518.4 M 822.9 518.4 L 1144.6 518.4 M 31.9 520.4 L 97.9 520.4 M 453.4 520.4 L 467.1 520.4 M 822.7 520.4 L 1143.9 520.4 M 31.9 522.3 L 98.1 522.3 M 453.4 522.3 L 467.1 522.3 M 822.4 522.3 L 1143.2 522.3 M 31.9 524.3 L 98.4 524.3 M 453.4 524.3 L 467.1 524.3 M 822.1 524.3 L 1142.5 524.3 M 31.9 526.2 L 98.8 526.2 M 453.4 526.2 L 467.1 526.2 M 821.7 526.2 L 1141.8 526.2 M 31.9 528.2 L 99.3 528.2 M 453.4 528.2 L 467.1 528.2 M 821.2 528.2 L 1141.1 528.2 M 31.9 530.1 L 99.7 530.1 M 453.4 530.1 L 467.1 530.1 M 820.8 530.1 L 1140.5 530.1 M 31.9 532.1 L 100.1 532.1 M 453.4 532.1 L 467.1 532.1 M 820.4 532.1 L 1139.7 532.1 M 31.9 534 L 100.6 534 M 453.4 534 L 467.1 534 M 819.9 534 L 1139 534 M 31.9 536 L 101 536 M 453.4 536 L 467.1 536 M 819.5 536 L 1138.3 536 M 31.9 537.9 L 101.4 537.9 M 453.4 537.9 L 467.1 537.9 M 819.1 537.9 L 1137.7 537.9 M 31.9 539.9 L 101.9 539.9 M 453.4 539.9 L 467.1 539.9 M 818.6 539.9 L 1136.9 539.9 M 31.9 541.8 L 102.3 541.8 M 453.4 541.8 L 467.1 541.8 M 818.2 541.8 L 1136.2 541.8 M 31.9 543.8 L 102.7 543.8 M 453.4 543.8 L 467.1 543.8 M 817.8 543.8 L 1135.4 543.8 M 31.9 545.8 L 103.2 545.8 M 453.4 545.8 L 467.1 545.8 M 817.3 545.8 L 1134.5 545.8 M 31.9 547.7 L 103.6 547.7 M 453.4 547.7 L 467.1 547.7 M 816.9 547.7 L 1133.6 547.7 M 31.9 549.7 L 104 549.7 M 453.4 549.7 L 467.1 549.7 M 816.5 549.7 L 1132.6 549.7 M 31.9 551.6 L 104.5 551.6 M 453.4 551.6 L 467.1 551.6 M 816 551.6 L 1131.7 551.6 M 31.9 553.6 L 104.9 553.6 M 453.4 553.6 L 467.1 553.6 M 815.6 553.6 L 1130.8 553.6 M 31.9 555.5 L 105.3 555.5 M 453.4 555.5 L 467.1 555.5 M 815.2 555.5 L 1129.9 555.5 M 31.9 557.5 L 105.9 557.5 M 453.4 557.5 L 467.1 557.5 M 814.6 557.5 L 1129 557.5 M 31.9 559.4 L 106.6 559.4 M 453.4 559.4 L 467.1 559.4 M 814 559.4 L 1128 559.4 M 31.9 561.4 L 107.2 561.4 M 453.4 561.4 L 467.1 561.4 M 813.3 561.4 L 1127.1 561.4 M 31.9 563.3 L 107.8 563.3 M 453.4 563.3 L 467.1 563.3 M 812.7 563.3 L 1126.2 563.3 M 31.9 565.3 L 108.4 565.3 M 453.4 565.3 L 467.1 565.3 M 812.1 565.3 L 1125.3 565.3 M 31.9 567.2 L 109 567.2 M 453.4 567.2 L 467.1 567.2 M 811.5 567.2 L 1124.4 567.2 M 31.9 569.2 L 109.6 569.2 M 453.4 569.2 L 467.1 569.2 M 810.9 569.2 L 1123.4 569.2 M 31.9 571.1 L 110.3 571.1 M 453.4 571.1 L 467.1 571.1 M 810.3 571.1 L 1122.5 571.1 M 31.9 573.1 L 110.8 573.1 M 453.4 573.1 L 467.1 573.1 M 809.7 573.1 L 1121.6 573.1 M 31.9 575 L 111.5 575 M 453.4 575 L 467.1 575 M 809 575 L 1120.6 575 M 31.9 576.9 L 112.1 576.9 M 453.4 576.9 L 467.1 576.9 M 808.4 576.9 L 1119.5 576.9 M 31.9 578.9 L 112.7 578.9 M 453.4 578.9 L 467.1 578.9 M 807.8 578.9 L 1118.3 578.9 M 31.9 580.8 L 113.3 580.8 M 453.4 580.8 L 467.1 580.8 M 807.2 580.8 L 1117.2 580.8 M 31.9 582.8 L 113.9 582.8 M 453.4 582.8 L 467.1 582.8 M 806.6 582.8 L 1116 582.8 M 31.9 584.7 L 114.5 584.7 M 453.4 584.7 L 467.1 584.7 M 806 584.7 L 1114.8 584.7 M 31.9 586.7 L 115.3 586.7 M 453.4 586.7 L 467.1 586.7 M 805.3 586.7 L 1113.7 586.7 M 31.9 588.6 L 116 588.6 M 453.4 588.6 L 467.1 588.6 M 804.5 588.6 L 1112.5 588.6 M 31.9 590.6 L 116.9 590.6 M 453.4 590.6 L 467.1 590.6 M 803.6 590.6 L 1111.3 590.6 M 31.9 592.5 L 117.7 592.5 M 453.4 592.5 L 467.1 592.5 M 802.9 592.5 L 1110.2 592.5 M 31.9 594.5 L 118.5 594.5 M 453.4 594.5 L 467.1 594.5 M 802 594.5 L 1109 594.5 M 31.9 596.4 L 119.3 596.4 M 453.4 596.4 L 467.1 596.4 M 801.2 596.4 L 1107.8 596.4 M 31.9 598.4 L 120.1 598.4 M 453.4 598.4 L 467.1 598.4 M 800.4 598.4 L 1106.6 598.4 M 31.9 600.3 L 120.9 600.3 M 453.4 600.3 L 467.1 600.3 M 799.6 600.3 L 1105.5 600.3 M 31.9 602.3 L 121.7 602.3 M 453.4 602.3 L 467.1 602.3 M 798.8 602.3 L 1104.3 602.3 M 31.9 604.2 L 122.5 604.2 M 453.4 604.2 L 467.1 604.2 M 798 604.2 L 1103.1 604.2 M 31.9 606.2 L 123.3 606.2 M 453.4 606.2 L 467.1 606.2 M 797.2 606.2 L 1102 606.2 M 31.9 608.1 L 124.1 608.1 M 453.4 608.1 L 467.1 608.1 M 796.4 608.1 L 1100.5 608.1 M 31.9 610.1 L 124.9 610.1 M 453.4 610.1 L 467.1 610.1 M 795.6 610.1 L 1099.1 610.1 M 31.9 612.1 L 125.7 612.1 M 453.4 612.1 L 467.1 612.1 M 794.8 612.1 L 1097.7 612.1 M 31.9 614 L 126.6 614 M 453.4 614 L 467.1 614 M 794 614 L 1096.2 614 M 31.9 616 L 127.4 616 M 453.4 616 L 467.1 616 M 793.1 616 L 1094.8 616 M 31.9 617.9 L 128.4 617.9 M 453.4 617.9 L 467.1 617.9 M 792.1 617.9 L 1093.3 617.9 M 31.9 619.9 L 129.4 619.9 M 453.4 619.9 L 467.1 619.9 M 791.1 619.9 L 1091.9 619.9 M 31.9 621.8 L 130.5 621.8 M 453.4 621.8 L 467.1 621.8 M 790.1 621.8 L 1090.4 621.8 M 31.9 623.8 L 131.4 623.8 M 453.4 623.8 L 467.1 623.8 M 789.1 623.8 L 1089 623.8 M 31.9 625.7 L 132.5 625.7 M 453.4 625.7 L 467.1 625.7 M 788.1 625.7 L 1087.5 625.7 M 31.9 627.7 L 133.5 627.7 M 453.4 627.7 L 467.1 627.7 M 787 627.7 L 1086.1 627.7 M 31.9 629.6 L 134.5 629.6 M 453.4 629.6 L 467.1 629.6 M 786 629.6 L 1084.6 629.6 M 31.9 631.6 L 135.5 631.6 M 453.4 631.6 L 467.1 631.6 M 785 631.6 L 1083.2 631.6 M 31.9 633.5 L 136.5 633.5 M 453.4 633.5 L 467.1 633.5 M 784 633.5 L 1081.8 633.5 M 31.9 635.5 L 137.5 635.5 M 453.4 635.5 L 467.1 635.5 M 783 635.5 L 1080.3 635.5 M 31.9 637.4 L 138.6 637.4 M 453.4 637.4 L 467.1 637.4 M 781.9 637.4 L 1078.5 637.4 M 31.9 639.4 L 139.6 639.4 M 453.4 639.4 L 467.1 639.4 M 780.9 639.4 L 1076.8 639.4 M 31.9 641.3 L 140.6 641.3 M 453.4 641.3 L 467.1 641.3 M 779.9 641.3 L 1075 641.3 M 31.9 643.2 L 141.6 643.2 M 453.4 643.2 L 467.1 643.2 M 778.9 643.2 L 1073.2 643.2 M 31.9 645.2 L 142.8 645.2 M 453.4 645.2 L 467.1 645.2 M 777.7 645.2 L 1071.5 645.2 M 31.9 647.1 L 144 647.1 M 453.4 647.1 L 467.1 647.1 M 776.5 647.1 L 1069.7 647.1 M 31.9 649.1 L 145.3 649.1 M 453.4 649.1 L 467.1 649.1 M 775.3 649.1 L 1067.9 649.1 M 31.9 651 L 103.8 651 M 106.8 651 L 146.5 651 M 453.4 651 L 467.1 651 M 774 651 L 1066.2 651 M 31.9 653 L 101.8 653 M 108.8 653 L 147.7 653 M 453.4 653 L 467.1 653 M 772.8 653 L 1064.4 653 M 31.9 654.9 L 99.9 654.9 M 110.7 654.9 L 149 654.9 M 453.4 654.9 L 467.1 654.9 M 771.6 654.9 L 1062.6 654.9 M 31.9 656.9 L 97.9 656.9 M 112.7 656.9 L 150.2 656.9 M 453.4 656.9 L 467.1 656.9 M 770.3 656.9 L 1060.8 656.9 M 31.9 658.8 L 96 658.8 M 114.6 658.8 L 151.5 658.8 M 453.4 658.8 L 467.1 658.8 M 769 658.8 L 1059.1 658.8 M 31.9 660.8 L 94 660.8 M 116.6 660.8 L 152.7 660.8 M 453.4 660.8 L 467.1 660.8 M 767.8 660.8 L 1057.3 660.8 M 31.9 662.7 L 92.1 662.7 M 118.5 662.7 L 154 662.7 M 453.4 662.7 L 467.1 662.7 M 766.6 662.7 L 1055.5 662.7 M 31.9 664.7 L 90.1 664.7 M 120.5 664.7 L 155.2 664.7 M 453.4 664.7 L 467.1 664.7 M 765.3 664.7 L 1053.3 664.7 M 31.9 666.6 L 88.2 666.6 M 122.4 666.6 L 156.4 666.6 M 453.4 666.6 L 467.1 666.6 M 764.1 666.6 L 1051.2 666.6 M 31.9 668.6 L 86.2 668.6 M 124.4 668.6 L 157.7 668.6 M 453.4 668.6 L 467.1 668.6 M 762.9 668.6 L 1049 668.6 M 31.9 670.5 L 84.3 670.5 M 126.3 670.5 L 158.9 670.5 M 453.4 670.5 L 467.1 670.5 M 761.6 670.5 L 1046.9 670.5 M 31.9 672.5 L 82.3 672.5 M 128.3 672.5 L 160.3 672.5 M 453.4 672.5 L 467.1 672.5 M 760.2 672.5 L 1044.7 672.5 M 31.9 674.4 L 80.4 674.4 M 130.2 674.4 L 161.8 674.4 M 453.4 674.4 L 467.1 674.4 M 758.7 674.4 L 1042.5 674.4 M 31.9 676.4 L 78.4 676.4 M 132.2 676.4 L 163.3 676.4 M 453.4 676.4 L 467.1 676.4 M 757.2 676.4 L 1040.4 676.4 M 31.9 678.4 L 76.5 678.4 M 134.1 678.4 L 164.8 678.4 M 453.4 678.4 L 467.1 678.4 M 755.7 678.4 L 1038.2 678.4 M 31.9 680.3 L 74.5 680.3 M 136.1 680.3 L 166.3 680.3 M 453.4 680.3 L 467.1 680.3 M 754.2 680.3 L 1036.1 680.3 M 31.9 682.3 L 72.6 682.3 M 138 682.3 L 167.8 682.3 M 453.4 682.3 L 467.1 682.3 M 752.7 682.3 L 1034 682.3 M 31.9 684.2 L 70.6 684.2 M 140 684.2 L 169.3 684.2 M 453.4 684.2 L 467.1 684.2 M 751.2 684.2 L 1031.8 684.2 M 31.9 686.2 L 68.7 686.2 M 141.9 686.2 L 170.8 686.2 M 453.4 686.2 L 467.1 686.2 M 749.7 686.2 L 1029.7 686.2 M 31.9 688.1 L 66.8 688.1 M 143.9 688.1 L 172.3 688.1 M 453.4 688.1 L 467.1 688.1 M 748.2 688.1 L 1027.1 688.1 M 31.9 690.1 L 64.8 690.1 M 145.8 690.1 L 173.8 690.1 M 453.4 690.1 L 467.1 690.1 M 746.7 690.1 L 1024.5 690.1 M 31.9 692 L 62.9 692 M 147.8 692 L 175.3 692 M 453.4 692 L 467.1 692 M 745.2 692 L 1021.9 692 M 31.9 694 L 60.9 694 M 149.7 694 L 176.8 694 M 453.4 694 L 467.1 694 M 743.7 694 L 1019.2 694 M 31.9 695.9 L 59 695.9 M 151.7 695.9 L 178.3 695.9 M 453.4 695.9 L 467.1 695.9 M 742.2 695.9 L 1016.6 695.9 M 31.9 697.9 L 57 697.9 M 153.6 697.9 L 180 697.9 M 453.4 697.9 L 467.1 697.9 M 740.5 697.9 L 1014 697.9 M 31.9 699.8 L 55.1 699.8 M 155.6 699.8 L 181.8 699.8 M 453.4 699.8 L 467.1 699.8 M 738.7 699.8 L 1011.4 699.8 M 31.9 701.8 L 53.1 701.8 M 157.5 701.8 L 183.6 701.8 M 453.4 701.8 L 467.1 701.8 M 736.9 701.8 L 1008.7 701.8 M 31.9 703.7 L 51.2 703.7 M 159.5 703.7 L 185.4 703.7 M 453.4 703.7 L 467.1 703.7 M 735.1 703.7 L 1006.1 703.7 M 31.9 705.6 L 49.2 705.6 M 161.4 705.6 L 187.1 705.6 M 453.4 705.6 L 467.1 705.6 M 733.4 705.6 L 1003.5 705.6 M 31.9 707.6 L 47.3 707.6 M 163.4 707.6 L 188.9 707.6 M 453.4 707.6 L 467.1 707.6 M 731.6 707.6 L 1000.8 707.6 M 31.9 709.5 L 45.3 709.5 M 165.3 709.5 L 190.7 709.5 M 453.4 709.5 L 467.1 709.5 M 729.8 709.5 L 997.8 709.5 M 31.9 711.5 L 43.4 711.5 M 167.3 711.5 L 192.5 711.5 M 453.4 711.5 L 467.1 711.5 M 728 711.5 L 994.5 711.5 M 31.9 713.4 L 41.4 713.4 M 169.2 713.4 L 194.3 713.4 M 453.4 713.4 L 467.1 713.4 M 726.2 713.4 L 991.3 713.4 M 31.9 715.4 L 39.5 715.4 M 171.2 715.4 L 196.1 715.4 M 453.4 715.4 L 467.1 715.4 M 724.4 715.4 L 988 715.4 M 31.9 717.3 L 37.5 717.3 M 173.1 717.3 L 197.9 717.3 M 453.4 717.3 L 467.1 717.3 M 722.7 717.3 L 984.8 717.3 M 34.8 719.3 L 35.5 719.3 M 175.1 719.3 L 199.7 719.3 M 453.4 719.3 L 467.1 719.3 M 720.8 719.3 L 981.5 719.3 M 177 721.2 L 201.6 721.2 M 453.4 721.2 L 467.1 721.2 M 718.9 721.2 L 978.2 721.2 M 179 723.2 L 203.8 723.2 M 453.4 723.2 L 467.1 723.2 M 716.8 723.2 L 761.4 723.2 M 769.4 723.2 L 975 723.2 M 180.9 725.1 L 205.9 725.1 M 453.4 725.1 L 467.1 725.1 M 714.6 725.1 L 751.9 725.1 M 778.9 725.1 L 971.8 725.1 M 182.9 727.1 L 208 727.1 M 453.4 727.1 L 467.1 727.1 M 712.5 727.1 L 747.1 727.1 M 783.6 727.1 L 968.4 727.1 M 184.8 729 L 210.1 729 M 453.4 729 L 467.1 729 M 710.4 729 L 743.2 729 M 787.6 729 L 964.3 729 M 186.8 731 L 212.3 731 M 453.4 731 L 467.1 731 M 708.2 731 L 740.6 731 M 790.1 731 L 960.1 731 M 188.7 732.9 L 214.4 732.9 M 453.4 732.9 L 467.1 732.9 M 706.1 732.9 L 738.1 732.9 M 792.7 732.9 L 956 732.9 M 190.7 734.9 L 216.6 734.9 M 453.4 734.9 L 467.1 734.9 M 704 734.9 L 735.5 734.9 M 795.2 734.9 L 951.9 734.9 M 192.6 736.8 L 218.7 736.8 M 453.4 736.8 L 467.1 736.8 M 701.8 736.8 L 733.9 736.8 M 796.9 736.8 L 947.8 736.8 M 194.6 738.8 L 220.8 738.8 M 453.4 738.8 L 467.1 738.8 M 699.7 738.8 L 732.4 738.8 M 798.4 738.8 L 943.6 738.8 M 196.5 740.8 L 222.9 740.8 M 453.4 740.8 L 467.1 740.8 M 697.6 740.8 L 730.9 740.8 M 799.9 740.8 L 939.5 740.8 M 198.5 742.7 L 225.3 742.7 M 453.4 742.7 L 467.1 742.7 M 695.3 742.7 L 729.4 742.7 M 801.4 742.7 L 935.1 742.7 M 200.4 744.7 L 227.8 744.7 M 453.4 744.7 L 467.1 744.7 M 692.7 744.7 L 728.1 744.7 M 802.6 744.7 L 929.7 744.7 M 202.4 746.6 L 230.3 746.6 M 453.4 746.6 L 467.1 746.6 M 690.2 746.6 L 727.3 746.6 M 803.4 746.6 L 924.2 746.6 M 204.3 748.6 L 232.9 748.6 M 453.4 748.6 L 467.1 748.6 M 687.7 748.6 L 726.5 748.6 M 804.2 748.6 L 918.8 748.6 M 206.3 750.5 L 235.4 750.5 M 453.4 750.5 L 467.1 750.5 M 685.1 750.5 L 725.7 750.5 M 805 750.5 L 913.3 750.5 M 208.2 752.5 L 237.9 752.5 M 453.4 752.5 L 467.1 752.5 M 682.6 752.5 L 724.9 752.5 M 805.8 752.5 L 907.9 752.5 M 210.2 754.4 L 240.5 754.4 M 453.4 754.4 L 467.1 754.4 M 680 754.4 L 724.1 754.4 M 806.6 754.4 L 902.4 754.4 M 212.1 756.4 L 243.1 756.4 M 453.4 756.4 L 467.1 756.4 M 677.5 756.4 L 723.9 756.4 M 806.9 756.4 L 894.8 756.4 M 214.1 758.3 L 245.6 758.3 M 453.4 758.3 L 467.1 758.3 M 674.9 758.3 L 723.6 758.3 M 807.1 758.3 L 887 758.3 M 216 760.3 L 248.1 760.3 M 453.4 760.3 L 467.1 760.3 M 672.4 760.3 L 723.3 760.3 M 807.4 760.3 L 879.2 760.3 M 218 762.2 L 250.9 762.2 M 453.4 762.2 L 467.1 762.2 M 669.6 762.2 L 723.1 762.2 M 807.7 762.2 L 871.4 762.2 M 219.9 764.2 L 254 764.2 M 453.4 764.2 L 467.1 764.2 M 666.6 764.2 L 722.8 764.2 M 807.9 764.2 L 861.4 764.2 M 221.9 766.1 L 257 766.1 M 453.4 766.1 L 467.1 766.1 M 663.5 766.1 L 722.8 766.1 M 808 766.1 L 848.2 766.1 M 31.9 768.1 L 37.3 768.1 M 223.8 768.1 L 260.1 768.1 M 453.4 768.1 L 467.1 768.1 M 660.4 768.1 L 723 768.1 M 809.2 768.1 L 835.1 768.1 M 31.9 770 L 39.2 770 M 225.8 770 L 263.1 770 M 453.4 770 L 467.1 770 M 657.4 770 L 723.3 770 M 31.9 771.9 L 41.2 771.9 M 227.7 771.9 L 266.2 771.9 M 453.4 771.9 L 467.1 771.9 M 654.3 771.9 L 723.5 771.9 M 31.9 773.9 L 43.1 773.9 M 229.7 773.9 L 269.3 773.9 M 453.4 773.9 L 467.1 773.9 M 651.2 773.9 L 723.8 773.9 M 32 775.8 L 45.1 775.8 M 231.6 775.8 L 272.3 775.8 M 453.4 775.8 L 467.1 775.8 M 648.2 775.8 L 724 775.8 M 32.1 777.8 L 47 777.8 M 233.6 777.8 L 275.4 777.8 M 453.4 777.8 L 467.1 777.8 M 645.1 777.8 L 724.7 777.8 M 32.2 779.7 L 49 779.7 M 235.5 779.7 L 278.9 779.7 M 453.4 779.7 L 467.1 779.7 M 641.6 779.7 L 725.5 779.7 M 32.3 781.7 L 50.9 781.7 M 237.5 781.7 L 282.6 781.7 M 453.4 781.7 L 467.1 781.7 M 637.9 781.7 L 726.3 781.7 M 32.4 783.6 L 52.9 783.6 M 239.4 783.6 L 286.4 783.6 M 453.4 783.6 L 467.1 783.6 M 634.2 783.6 L 727.1 783.6 M 32.3 785.6 L 54.8 785.6 M 241.4 785.6 L 290.1 785.6 M 453.4 785.6 L 467.1 785.6 M 630.4 785.6 L 727.9 785.6 M 32.3 787.5 L 56.8 787.5 M 243.3 787.5 L 293.9 787.5 M 453.4 787.5 L 467.1 787.5 M 626.6 787.5 L 729 787.5 M 32.2 789.5 L 58.7 789.5 M 245.3 789.5 L 297.6 789.5 M 453.4 789.5 L 467.1 789.5 M 622.9 789.5 L 730.5 789.5 M 32.1 791.4 L 60.6 791.4 M 247.2 791.4 L 301.4 791.4 M 453.4 791.4 L 467.1 791.4 M 619.2 791.4 L 732 791.4 M 32.1 793.4 L 62.6 793.4 M 249.2 793.4 L 305.1 793.4 M 453.4 793.4 L 467.1 793.4 M 615.4 793.4 L 733.5 793.4 M 32 795.3 L 64.5 795.3 M 251.1 795.3 L 309.9 795.3 M 453.4 795.3 L 467.1 795.3 M 610.6 795.3 L 735 795.3 M 32.1 797.3 L 66.5 797.3 M 253.1 797.3 L 314.5 797.3 M 453.4 797.3 L 467.1 797.3 M 606 797.3 L 737.4 797.3 M 32.2 799.2 L 68.4 799.2 M 255 799.2 L 319.3 799.2 M 453.4 799.2 L 467.1 799.2 M 601.2 799.2 L 740 799.2 M 32.3 801.2 L 70.4 801.2 M 257 801.2 L 324 801.2 M 453.4 801.2 L 467.1 801.2 M 596.5 801.2 L 742.5 801.2 M 32.4 803.1 L 72.3 803.1 M 258.9 803.1 L 328.7 803.1 M 453.4 803.1 L 467.1 803.1 M 591.8 803.1 L 745.9 803.1 M 32.5 805.1 L 74.3 805.1 M 260.9 805.1 L 333.4 805.1 M 453.4 805.1 L 467.1 805.1 M 587.1 805.1 L 750.6 805.1 M 32.6 807.1 L 76.2 807.1 M 262.8 807.1 L 339.2 807.1 M 453.4 807.1 L 467.1 807.1 M 581.3 807.1 L 757.5 807.1 M 32.7 809 L 78.2 809 M 264.8 809 L 345.4 809 M 453.4 809 L 467.1 809 M 575.1 809 L 767.9 809 M 32.8 811 L 80.1 811 M 266.7 811 L 351.6 811 M 453.4 811 L 467.1 811 M 568.9 811 L 769.6 811 M 32.9 812.9 L 82.1 812.9 M 268.7 812.9 L 357.8 812.9 M 453.4 812.9 L 467.1 812.9 M 562.7 812.9 L 769.5 812.9 M 33 814.9 L 84.1 814.9 M 270.6 814.9 L 364 814.9 M 453.4 814.9 L 467.1 814.9 M 556.6 814.9 L 769.4 814.9 M 33.1 816.8 L 86 816.8 M 269.4 816.8 L 372.2 816.8 M 453.4 816.8 L 467.1 816.8 M 548.3 816.8 L 769.4 816.8 M 33.1 818.8 L 88 818.8 M 267.4 818.8 L 381 818.8 M 453.4 818.8 L 467.1 818.8 M 539.5 818.8 L 769.2 818.8 M 33.2 820.7 L 89.9 820.7 M 265.5 820.7 L 389.8 820.7 M 453.4 820.7 L 467.1 820.7 M 530.7 820.7 L 769.2 820.7 M 33.3 822.7 L 91.9 822.7 M 263.5 822.7 L 400.1 822.7 M 453.4 822.7 L 467.1 822.7 M 520.4 822.7 L 769.1 822.7 M 33.4 824.6 L 93.8 824.6 M 261.6 824.6 L 414.9 824.6 M 453.4 824.6 L 467.1 824.6 M 505.6 824.6 L 769 824.6 M 33.5 826.6 L 95.8 826.6 M 259.6 826.6 L 432.8 826.6 M 453.4 826.6 L 467.1 826.6 M 487.7 826.6 L 768.9 826.6 M 33.6 828.5 L 97.7 828.5 M 257.7 828.5 L 768.8 828.5 M 33.7 830.5 L 99.7 830.5 M 255.7 830.5 L 768.7 830.5 M 34 832.4 L 101.6 832.4 M 253.8 832.4 L 768.4 832.4 M 34.2 834.4 L 103.6 834.4 M 251.8 834.4 L 768.2 834.4 M 34.5 836.3 L 105.5 836.3 M 249.9 836.3 L 767.9 836.3 M 34.8 838.2 L 107.5 838.2 M 247.9 838.2 L 767.6 838.2 M 35.1 840.2 L 109.4 840.2 M 246 840.2 L 767.3 840.2 M 35.4 842.1 L 111.4 842.1 M 244 842.1 L 767 842.1 M 35.7 844.1 L 113.3 844.1 M 242.1 844.1 L 766.7 844.1 M 36 846 L 115.3 846 M 240.1 846 L 766.4 846 M 36.3 848 L 117.2 848 M 238.2 848 L 766.1 848 M 36.6 849.9 L 119.2 849.9 M 236.2 849.9 L 765.8 849.9 M 36.8 851.9 L 121.1 851.9 M 234.3 851.9 L 765.6 851.9 M 37.1 853.8 L 123.1 853.8 M 232.3 853.8 L 765.3 853.8 M 37.4 855.8 L 125 855.8 M 230.4 855.8 L 765 855.8 M 37.7 857.7 L 126.9 857.7 M 228.4 857.7 L 764.7 857.7 M 38 859.7 L 128.9 859.7 M 226.5 859.7 L 764.4 859.7 M 38.3 861.6 L 130.8 861.6 M 224.5 861.6 L 764.1 861.6 M 38.6 863.6 L 132.8 863.6 M 222.6 863.6 L 763.8 863.6 M 38.9 865.5 L 134.7 865.5 M 220.6 865.5 L 763.5 865.5 M 39.2 867.5 L 136.7 867.5 M 218.7 867.5 L 763.2 867.5 M 39.7 869.4 L 138.6 869.4 M 216.7 869.4 L 762.7 869.4 M 40.2 871.4 L 140.6 871.4 M 214.8 871.4 L 762.2 871.4 M 40.7 873.4 L 142.5 873.4 M 212.8 873.4 L 761.7 873.4 M 41.2 875.3 L 144.5 875.3 M 210.9 875.3 L 761.2 875.3 M 41.7 877.3 L 146.4 877.3 M 208.9 877.3 L 760.7 877.3 M 42.1 879.2 L 148.4 879.2 M 207 879.2 L 760.3 879.2 M 42.6 881.2 L 150.4 881.2 M 205 881.2 L 759.8 881.2 M 43.1 883.1 L 152.3 883.1 M 203.1 883.1 L 759.3 883.1 M 43.6 885.1 L 154.3 885.1 M 201.1 885.1 L 758.8 885.1 M 44.1 887 L 156.2 887 M 199.2 887 L 758.3 887 M 44.6 889 L 158.2 889 M 197.2 889 L 757.8 889 M 45.1 890.9 L 160.1 890.9 M 195.3 890.9 L 757.3 890.9 M 45.6 892.9 L 162.1 892.9 M 193.3 892.9 L 756.8 892.9 M 46 894.8 L 164 894.8 M 191.4 894.8 L 756.4 894.8 M 46.6 896.8 L 166 896.8 M 189.4 896.8 L 755.8 896.8 M 47 898.7 L 167.9 898.7 M 187.5 898.7 L 755.4 898.7 M 47.5 900.6 L 169.9 900.6 M 185.5 900.6 L 754.9 900.6 M 48.1 902.6 L 171.8 902.6 M 183.6 902.6 L 754.4 902.6 M 48.8 904.5 L 173.8 904.5 M 181.6 904.5 L 753.6 904.5 M 49.5 906.5 L 175.7 906.5 M 179.7 906.5 L 752.9 906.5 M 50.1 908.4 L 752.3 908.4 M 50.8 910.4 L 751.6 910.4 M 51.6 912.3 L 750.8 912.3 M 52.3 914.3 L 750.1 914.3 M 52.9 916.2 L 749.5 916.2 M 53.6 918.2 L 748.8 918.2 M 54.4 920.1 L 748.1 920.1 M 55 922.1 L 747.3 922.1 M 55.7 924 L 746.7 924 M 56.4 926 L 746 926 M 57.1 927.9 L 745.3 927.9 M 57.8 929.9 L 744.6 929.9 M 58.5 931.8 L 743.9 931.8 M 59.2 933.8 L 743.2 933.8 M 59.9 935.8 L 742.5 935.8 M 60.8 937.7 L 741.6 937.7 M 61.7 939.7 L 740.7 939.7 M 62.7 941.6 L 739.7 941.6 M 63.6 943.6 L 738.8 943.6 M 64.5 945.5 L 737.9 945.5 M 65.4 947.5 L 737 947.5 M 66.3 949.4 L 736.1 949.4 M 67.3 951.4 L 735.1 951.4 M 68.2 953.3 L 734.2 953.3 M 69.1 955.3 L 733.3 955.3 M 70 957.2 L 732.4 957.2 M 70.9 959.2 L 731.5 959.2 M 71.9 961.1 L 730.5 961.1 M 72.8 963.1 L 729.6 963.1 M 73.7 965 L 728.7 965 M 74.6 966.9 L 727.8 966.9 M 75.5 968.9 L 726.9 968.9 M 76.7 970.8 L 725.7 970.8 M 77.9 972.8 L 724.5 972.8 M 79 974.7 L 723.4 974.7 M 80.2 976.7 L 722.2 976.7 M 81.4 978.6 L 721 978.6 M 82.5 980.6 L 719.9 980.6 M 83.7 982.5 L 718.7 982.5 M 84.9 984.5 L 717.5 984.5 M 86 986.4 L 716.4 986.4 M 87.2 988.4 L 715.2 988.4 M 88.4 990.3 L 714 990.3 M 89.6 992.3 L 712.8 992.3 M 90.7 994.2 L 711.7 994.2 M 91.9 996.2 L 710.5 996.2 M 93.1 998.1 L 709.3 998.1 M 94.3 1000.1 L 708.1 1000.1 M 95.7 1002.1 L 706.7 1002.1 M 97.1 1004 L 705.3 1004 M 98.6 1006 L 703.8 1006 M 100 1007.9 L 702.4 1007.9 M 101.5 1009.9 L 700.9 1009.9 M 102.9 1011.8 L 699.5 1011.8 M 104.4 1013.8 L 698 1013.8 M 105.8 1015.7 L 696.6 1015.7 M 107.3 1017.7 L 695.1 1017.7 M 108.7 1019.6 L 693.7 1019.6 M 110.2 1021.6 L 692.2 1021.6 M 111.6 1023.5 L 690.8 1023.5 M 113.1 1025.5 L 689.4 1025.5 M 114.5 1027.4 L 687.9 1027.4 M 116 1029.4 L 686.4 1029.4 M 117.7 1031.3 L 684.7 1031.3 M 119.5 1033.2 L 682.9 1033.2 M 121.3 1035.2 L 681.1 1035.2 M 123.1 1037.1 L 679.4 1037.1 M 124.8 1039.1 L 677.6 1039.1 M 126.6 1041 L 675.8 1041 M 128.4 1043 L 674 1043 M 130.1 1044.9 L 672.3 1044.9 M 131.9 1046.9 L 670.5 1046.9 M 133.6 1048.8 L 668.8 1048.8 M 135.4 1050.8 L 667 1050.8 M 137.2 1052.7 L 665.2 1052.7 M 139 1054.7 L 663.4 1054.7 M 140.8 1056.6 L 661.6 1056.6 M 143 1058.6 L 659.4 1058.6 M 145.2 1060.5 L 657.2 1060.5 M 147.3 1062.5 L 655.1 1062.5 M 149.5 1064.4 L 652.9 1064.4 M 151.6 1066.4 L 650.8 1066.4 M 153.8 1068.4 L 648.6 1068.4 M 155.9 1070.3 L 646.5 1070.3 M 158.1 1072.3 L 644.4 1072.3 M 160.2 1074.2 L 642.2 1074.2 M 162.4 1076.2 L 640 1076.2 M 164.5 1078.1 L 637.9 1078.1 M 166.7 1080.1 L 635.7 1080.1 M 169.2 1082 L 633.2 1082 M 171.9 1084 L 630.5 1084 M 174.5 1085.9 L 627.9 1085.9 M 177.1 1087.9 L 625.3 1087.9 M 179.7 1089.8 L 622.7 1089.8 M 182.4 1091.8 L 620 1091.8 M 185 1093.7 L 617.4 1093.7 M 187.7 1095.6 L 614.7 1095.6 M 190.3 1097.6 L 612.1 1097.6 M 192.9 1099.5 L 609.5 1099.5 M 195.5 1101.5 L 606.9 1101.5 M 198.6 1103.4 L 603.8 1103.4 M 201.9 1105.4 L 600.5 1105.4 M 205.2 1107.3 L 597.2 1107.3 M 208.4 1109.3 L 594 1109.3 M 211.7 1111.2 L 590.7 1111.2 M 214.9 1113.2 L 587.5 1113.2 M 218.2 1115.1 L 584.2 1115.1 M 221.4 1117.1 L 581 1117.1 M 224.7 1119 L 577.7 1119 M 228.1 1121 L 574.3 1121 M 232.3 1122.9 L 570.1 1122.9 M 236.4 1124.9 L 566 1124.9 M 240.5 1126.8 L 561.9 1126.8 M 244.6 1128.8 L 557.8 1128.8 M 248.8 1130.8 L 553.6 1130.8 M 252.9 1132.7 L 549.5 1132.7 M 257 1134.7 L 545.4 1134.7 M 261.5 1136.6 L 540.9 1136.6 M 267 1138.6 L 535.4 1138.6 M 272.4 1140.5 L 530 1140.5 M 277.9 1142.5 L 524.5 1142.5 M 283.3 1144.4 L 519.1 1144.4 M 288.8 1146.4 L 513.6 1146.4 M 294.3 1148.3 L 508.1 1148.3 M 302.1 1150.3 L 500.3 1150.3 M 309.9 1152.2 L 492.5 1152.2 M 317.7 1154.2 L 484.7 1154.2 M 325.5 1156.1 L 476.9 1156.1 M 336 1158.1 L 466.4 1158.1 M 349.2 1160 L 453.2 1160 M 362.3 1161.9 L 440.1 1161.9 M 396.6 1163.9 L 405.8 1163.9"/><use x="775.2" y="135.5" xlink:href="#tool-D11-pad-1003"/><use x="181.2" y="616.7" xlink:href="#tool-D11-pad-1003"/><use x="299.5" y="262.6" xlink:href="#tool-D11-pad-1003"/><use x="496.2" y="931.7" xlink:href="#tool-D11-pad-1003"/><use x="105.9" y="745.7" xlink:href="#tool-D11-pad-1003"/><use x="614.3" y="577.3" xlink:href="#tool-D11-pad-1003"/><use x="811.2" y="301.8" xlink:href="#tool-D11-pad-1003"/><use x="165" y="804.7" xlink:href="#tool-D11-pad-1003"/><use x="968.6" y="459.2" xlink:href="#tool-D11-pad-1003"/><use x="338.7" y="774.2" xlink:href="#tool-D11-pad-1003"/><use x="135.5" y="775.2" xlink:href="#tool-D11-pad-1003"/><use x="653.7" y="144.3" xlink:href="#tool-D11-pad-1003"/><use x="804.7" y="165" xlink:href="#tool-D11-pad-1003"/><use x="745.7" y="105.9" xlink:href="#tool-D11-pad-1003"/><use x="456.8" y="419.9" xlink:href="#tool-D11-pad-1003"/><use x="460.3" y="460.3" xlink:href="#tool-D12-pad-1004"/><use x="141.5" y="779" xlink:href="#tool-D13-pad-1005"/><use x="779" y="141.5" xlink:href="#tool-D13-pad-1005"/></g><mask id="pcb_bottom_mech-mask" fill="#fff" stroke="#fff" fill-rule="evenodd"><path stroke-width="0" d="M 775.2 7.5 L 125.6 7.5 L 114 8.1 L 102.6 9.8 L 91.3 12.6 L 80.4 16.5 L 69.9 21.4 L 60 27.4 L 50.7 34.3 L 42.1 42.1 L 34.3 50.7 L 27.4 60 L 21.4 69.9 L 16.5 80.4 L 12.6 91.3 L 9.8 102.6 L 8.1 114 L 7.5 125.6 L 7.5 775.2 L 8 785.1 L 7.5 794.9 L 9.4 833.5 L 15.1 871.7 L 24.5 909.2 L 37.5 945.6 L 54 980.5 L 73.8 1013.6 L 96.9 1044.7 L 122.8 1073.3 L 151.4 1099.2 L 182.5 1122.3 L 215.6 1142.1 L 250.5 1158.6 L 286.9 1171.6 L 324.4 1181 L 362.6 1186.7 L 401.2 1188.6 L 439.8 1186.7 L 478 1181 L 515.5 1171.6 L 551.9 1158.6 L 586.8 1142.1 L 619.9 1122.3 L 651 1099.2 L 679.6 1073.3 L 705.5 1044.7 L 728.6 1013.6 L 748.4 980.5 L 764.9 945.6 L 777.9 909.2 L 787.3 871.7 L 793 833.5 L 794.9 794.9 L 833.5 793 L 871.7 787.3 L 909.2 777.9 L 945.6 764.9 L 980.5 748.4 L 1013.6 728.6 L 1044.7 705.5 L 1073.3 679.6 L 1099.2 651 L 1122.3 619.9 L 1142.1 586.8 L 1158.6 551.9 L 1171.6 515.5 L 1181 478 L 1186.7 439.8 L 1188.6 401.2 L 1186.7 362.6 L 1181 324.4 L 1171.6 286.9 L 1158.6 250.5 L 1142.1 215.6 L 1122.3 182.5 L 1099.2 151.4 L 1073.3 122.8 L 1044.7 96.9 L 1013.6 73.8 L 980.5 54 L 945.6 37.5 L 909.2 24.5 L 871.7 15.1 L 833.5 9.4 L 794.9 7.5 L 785.1 8 Z"/><g id="pcb_bottom-drl" fill="#000" stroke="#000"><use x="765.4" y="765.4" xlink:href="#tool-T10-pad-1000"/><use x="775.2" y="135.5" xlink:href="#tool-T11-pad-1001"/><use x="181.2" y="616.7" xlink:href="#tool-T11-pad-1001"/><use x="299.5" y="262.6" xlink:href="#tool-T11-pad-1001"/><use x="496.2" y="931.7" xlink:href="#tool-T11-pad-1001"/><use x="105.9" y="745.7" xlink:href="#tool-T11-pad-1001"/><use x="614.3" y="577.3" xlink:href="#tool-T11-pad-1001"/><use x="811.2" y="301.8" xlink:href="#tool-T11-pad-1001"/><use x="165" y="804.7" xlink:href="#tool-T11-pad-1001"/><use x="968.6" y="459.2" xlink:href="#tool-T11-pad-1001"/><use x="338.7" y="774.2" xlink:href="#tool-T11-pad-1001"/><use x="135.5" y="775.2" xlink:href="#tool-T11-pad-1001"/><use x="653.7" y="144.3" xlink:href="#tool-T11-pad-1001"/><use x="804.7" y="165" xlink:href="#tool-T11-pad-1001"/><use x="745.7" y="105.9" xlink:href="#tool-T11-pad-1001"/><use x="456.8" y="419.9" xlink:href="#tool-T11-pad-1001"/></g></mask></defs><g mask="url(#pcb_bottom_mech-mask)" transform="translate(1196.1,1196.1) scale(-1,-1)"><rect x="7.5" y="7.5" width="1181.1" height="1181.1" fill="currentColor" class="pcb_board-fr4"/><use class="pcb_board-cu" xlink:href="#pcb_bottom-cu"/><g><defs><g id="pcb_bottom-sm" fill="currentColor" stroke="currentColor"><use x="460.3" y="460.3" xlink:href="#tool-D10-pad-1008"/><use x="141.5" y="779" xlink:href="#tool-D11-pad-1009"/><use x="779" y="141.5" xlink:href="#tool-D11-pad-1009"/></g><mask id="pcb_bottom-sm_mask" color="#000"><rect x="7.5" y="7.5" width="1181.1" height="1181.1" fill="#fff"/><use xlink:href="#pcb_bottom-sm"/></mask><mask id="pcb_bottom-cu_finish-mask" color="#fff"><use xlink:href="#pcb_bottom-cu"/></mask></defs><g mask="url(#pcb_bottom-sm_mask)"><rect x="7.5" y="7.5" width="1181.1" height="1181.1" fill="currentColor" class="pcb_board-sm"/><g id="pcb_bottom-ss" class="pcb_board-ss" fill="currentColor" stroke="currentColor"><path stroke-width="5.9" fill="none" d="M 382.3 969.7 L 264 851.4 M 0 587.4 L 69.1 656.5 M 587.4 0 L 656.5 69.1 M 969.7 382.3 L 851.4 264 M 0 489 L 91.4 397.6 M 489 0 L 397.6 91.4 M 382.3 969.7 L 522.9 829.1 M 969.7 382.3 L 829.1 522.9"/><use x="185.3" y="185.3" xlink:href="#tool-D11-pad-1007"/></g></g><use class="pcb_board-cf" mask="url(#pcb_bottom-cu_finish-mask)" xlink:href="#pcb_bottom-sm"/></g></g></svg>