<?xml-stylesheet href="https://s3.amazonaws.com/maker.works.boards/css/blackpcb.css" type="text/css"?><svg xmlns="http://www.w3.org/2000/svg" version="1.1" xmlns:xlink="http://www.w3.org/1999/xlink" stroke-width="0" stroke-linecap="round" stroke-linejoin="round" width="1.1811in" height="1.1811in" id="pcb_top" viewBox="7.5 7.5 1181.1 1181.1"><defs><circle cx="0" cy="0" r="25.5" id="tool-T10-pad-1000"/><circle cx="0" cy="0" r="6.5" id="tool-T11-pad-1001"/><circle cx="0" cy="0" r="10.05" id="tool-D11-pad-1011"/><rect x="-46.26" y="-23.622" width="92.52" height="47.244" transform="rotate(45)" id="tool-D12-pad-1012"/><circle cx="0" cy="0" r="3.95" id="tool-D11-pad-1014"/><circle cx="0" cy="0" r="3.95" id="tool-D12-pad-1015"/><circle cx="0" cy="0" r="3.95" id="tool-D13-pad-1016"/><circle cx="0" cy="0" r="3.95" id="tool-D14-pad-1017"/><circle cx="0" cy="0" r="3.95" id="tool-D15-pad-1018"/><circle cx="0" cy="0" r="3.95" id="tool-D16-pad-1019"/><circle cx="0" cy="0" r="3.95" id="tool-D17-pad-1020"/><circle cx="0" cy="0" r="3.95" id="tool-D18-pad-1021"/><circle cx="0" cy="0" r="3.95" id="tool-D19-pad-1022"/><circle cx="0" cy="0" r="10.05" id="tool-D10-pad-1023"/><rect x="-46.26" y="-23.622" width="92.52" height="47.244" transform="rotate(45)" id="tool-D11-pad-1024"/><g id="pcb_top-cu" fill="currentColor" stroke="currentColor"><path stroke-width="2" fill="none" d="M 783.9 32.4 L 783.9 32.4 M 783.9 32.4 L 784 32.4 M 784 32.4 L 785.1 32.3 M 785.1 32.3 L 786.2 32.4 M 786.2 32.4 L 786.2 32.4 M 786.2 32.4 L 794.9 32 M 794.9 32 L 831.1 33.8 M 831.1 33.8 L 866.9 39.1 M 866.9 39.1 L 902.1 47.9 M 902.1 47.9 L 936.2 60.1 M 936.2 60.1 L 969 75.6 M 969 75.6 L 1000 94.2 M 1000 94.2 L 1029.1 115.8 M 1029.1 115.8 L 1056 140.1 M 1056 140.1 L 1080.3 166.9 M 1080.3 166.9 L 1101.9 196.1 M 1101.9 196.1 L 1120.5 227.1 M 1120.5 227.1 L 1136 259.9 M 1136 259.9 L 1148.2 294 M 1148.2 294 L 1157 329.2 M 1157 329.2 L 1162.3 365 M 1162.3 365 L 1164.1 401.2 M 1164.1 401.2 L 1162.3 437.4 M 1162.3 437.4 L 1157 473.2 M 1157 473.2 L 1148.2 508.4 M 1148.2 508.4 L 1136 542.5 M 1136 542.5 L 1120.5 575.3 M 1120.5 575.3 L 1101.9 606.3 M 1101.9 606.3 L 1080.3 635.4 M 1080.3 635.4 L 1056 662.3 M 1056 662.3 L 1029.1 686.6 M 1029.1 686.6 L 1000 708.2 M 1000 708.2 L 969 726.8 M 969 726.8 L 936.2 742.3 M 936.2 742.3 L 902.1 754.5 M 902.1 754.5 L 866.9 763.3 M 866.9 763.3 L 831.1 768.6 M 831.1 768.6 L 810.6 769.7 M 810.6 769.7 L 807.9 766.7 M 807.9 766.7 L 808.1 765.5 M 808.1 765.5 L 808.1 765.3 M 808.1 765.3 L 806.6 754.4 M 806.6 754.4 L 806.6 754.3 M 806.6 754.3 L 802.4 744.1 M 802.4 744.1 L 802.3 744 M 802.3 744 L 795.6 735.2 M 795.6 735.2 L 795.5 735.1 M 795.5 735.1 L 786.8 728.4 M 786.8 728.4 L 786.7 728.4 M 786.7 728.4 L 776.5 724.2 M 776.5 724.2 L 776.4 724.1 M 776.4 724.1 L 765.5 722.7 M 765.5 722.7 L 765.3 722.7 M 765.3 722.7 L 754.4 724.1 M 754.4 724.1 L 754.3 724.2 M 754.3 724.2 L 744.1 728.4 M 744.1 728.4 L 744 728.4 M 744 728.4 L 735.2 735.1 M 735.2 735.1 L 735.1 735.2 M 735.1 735.2 L 728.4 744 M 728.4 744 L 728.4 744.1 M 728.4 744.1 L 724.2 754.3 M 724.2 754.3 L 724.1 754.4 M 724.1 754.4 L 722.7 765.3 M 722.7 765.3 L 722.7 765.5 M 722.7 765.5 L 724.1 776.4 M 724.1 776.4 L 724.2 776.5 M 724.2 776.5 L 728.4 786.7 M 728.4 786.7 L 728.4 786.8 M 728.4 786.8 L 735.1 795.5 M 735.1 795.5 L 735.2 795.6 M 735.2 795.6 L 744 802.3 M 744 802.3 L 744.1 802.4 M 744.1 802.4 L 754.3 806.6 M 754.3 806.6 L 754.4 806.6 M 754.4 806.6 L 765.3 808.1 M 765.3 808.1 L 765.5 808.1 M 765.5 808.1 L 766.7 807.9 M 766.7 807.9 L 769.7 810.6 M 769.7 810.6 L 768.6 831.1 M 768.6 831.1 L 763.3 866.9 M 763.3 866.9 L 754.5 902.1 M 754.5 902.1 L 742.3 936.2 M 742.3 936.2 L 726.8 969 M 726.8 969 L 708.2 1000 M 708.2 1000 L 686.6 1029.1 M 686.6 1029.1 L 662.3 1056 M 662.3 1056 L 635.4 1080.3 M 635.4 1080.3 L 606.3 1101.9 M 606.3 1101.9 L 575.3 1120.5 M 575.3 1120.5 L 542.5 1136 M 542.5 1136 L 508.4 1148.2 M 508.4 1148.2 L 473.2 1157 M 473.2 1157 L 437.4 1162.3 M 437.4 1162.3 L 401.2 1164.1 M 401.2 1164.1 L 365 1162.3 M 365 1162.3 L 329.2 1157 M 329.2 1157 L 294 1148.2 M 294 1148.2 L 259.9 1136 M 259.9 1136 L 227.1 1120.5 M 227.1 1120.5 L 196.1 1101.9 M 196.1 1101.9 L 166.9 1080.3 M 166.9 1080.3 L 140.1 1056 M 140.1 1056 L 115.8 1029.1 M 115.8 1029.1 L 94.2 1000 M 94.2 1000 L 75.6 969 M 75.6 969 L 60.1 936.2 M 60.1 936.2 L 47.9 902.1 M 47.9 902.1 L 39.1 866.9 M 39.1 866.9 L 33.8 831.1 M 33.8 831.1 L 32 794.9 M 32 794.9 L 32.4 786.2 M 32.4 786.2 L 32.4 786.2 M 32.4 786.2 L 32.3 785.1 M 32.3 785.1 L 32.4 784 M 32.4 784 L 32.4 783.9 M 32.4 783.9 L 31.9 774.6 M 31.9 774.6 L 31.9 126.2 M 31.9 126.2 L 32.4 116.4 M 32.4 116.4 L 33.8 107.3 M 33.8 107.3 L 36 98.4 M 36 98.4 L 39.1 89.8 M 39.1 89.8 L 43.1 81.5 M 43.1 81.5 L 47.8 73.6 M 47.8 73.6 L 53.2 66.2 M 53.2 66.2 L 59.4 59.4 M 59.4 59.4 L 66.2 53.2 M 66.2 53.2 L 73.6 47.8 M 73.6 47.8 L 81.5 43.1 M 81.5 43.1 L 89.8 39.1 M 89.8 39.1 L 98.4 36 M 98.4 36 L 107.3 33.8 M 107.3 33.8 L 116.4 32.4 M 116.4 32.4 L 126.2 31.9 M 126.2 31.9 L 774.6 31.9 M 774.6 31.9 L 783.9 32.4 M 490 1030.6 L 490 1030.6 M 490 1030.6 L 490 1031.4 M 490 1031.4 L 467.1 1054.3 M 467.1 1054.3 L 466.3 1054.3 M 466.3 1054.3 L 427.4 1015.5 M 427.4 1015.5 L 427.4 1014.6 M 427.4 1014.6 L 450.3 991.8 M 450.3 991.8 L 451.1 991.8 M 451.1 991.8 L 490 1030.6 M 440.6 981.2 L 440.6 981.2 M 440.6 981.2 L 440.6 982 M 440.6 982 L 417.7 1004.9 M 417.7 1004.9 L 416.9 1004.9 M 416.9 1004.9 L 378 966 M 378 966 L 378 965.2 M 378 965.2 L 400.9 942.3 M 400.9 942.3 L 401.7 942.3 M 401.7 942.3 L 440.6 981.2 M 581.9 938.8 L 581.9 938.8 M 581.9 938.8 L 581.9 939.6 M 581.9 939.6 L 526.6 994.8 M 526.6 994.8 L 525.9 995.5 M 525.9 995.5 L 523.1 998.3 M 523.1 998.3 L 522.3 999.1 M 522.3 999.1 L 500.5 1020.9 M 500.5 1020.9 L 499.7 1020.9 M 499.7 1020.9 L 411.4 932.6 M 411.4 932.6 L 411.4 931.8 M 411.4 931.8 L 433.2 910 M 433.2 910 L 434 909.2 M 434 909.2 L 436.8 906.4 M 436.8 906.4 L 437.5 905.7 M 437.5 905.7 L 492.7 850.5 M 492.7 850.5 L 493.6 850.5 M 493.6 850.5 L 581.9 938.8 M 332.5 873.1 L 332.5 873.1 M 332.5 873.1 L 332.5 874 M 332.5 874 L 309.7 896.8 M 309.7 896.8 L 308.8 896.8 M 308.8 896.8 L 269.9 858 M 269.9 858 L 269.9 857.1 M 269.9 857.1 L 292.8 834.3 M 292.8 834.3 L 293.6 834.3 M 293.6 834.3 L 332.5 873.1 M 283.1 823.7 L 283.1 823.7 M 283.1 823.7 L 283.1 824.5 M 283.1 824.5 L 260.3 847.4 M 260.3 847.4 L 259.4 847.4 M 259.4 847.4 L 220.5 808.5 M 220.5 808.5 L 220.5 807.7 M 220.5 807.7 L 243.4 784.9 M 243.4 784.9 L 244.2 784.9 M 244.2 784.9 L 283.1 823.7 M 424.4 781.3 L 424.4 781.3 M 424.4 781.3 L 424.4 782.1 M 424.4 782.1 L 369.2 837.3 M 369.2 837.3 L 368.4 838.1 M 368.4 838.1 L 365.6 840.8 M 365.6 840.8 L 364.9 841.6 M 364.9 841.6 L 343.1 863.4 M 343.1 863.4 L 342.2 863.4 M 342.2 863.4 L 254 775.1 M 254 775.1 L 254 774.3 M 254 774.3 L 275.8 752.5 M 275.8 752.5 L 276.5 751.8 M 276.5 751.8 L 279.3 749 M 279.3 749 L 280.1 748.2 M 280.1 748.2 L 335.3 693 M 335.3 693 L 336.1 693 M 336.1 693 L 424.4 781.3 M 175 715.6 L 175 715.6 M 175 715.6 L 175 716.5 M 175 716.5 L 152.2 739.4 M 152.2 739.4 L 151.4 739.4 M 151.4 739.4 L 112.5 700.5 M 112.5 700.5 L 112.5 699.6 M 112.5 699.6 L 135.3 676.8 M 135.3 676.8 L 136.2 676.8 M 136.2 676.8 L 175 715.6 M 608.1 676.3 L 608.1 676.3 M 608.1 676.3 L 608.1 677.1 M 608.1 677.1 L 585.3 700 M 585.3 700 L 584.4 700 M 584.4 700 L 545.5 661.1 M 545.5 661.1 L 545.5 660.3 M 545.5 660.3 L 568.4 637.4 M 568.4 637.4 L 569.2 637.4 M 569.2 637.4 L 608.1 676.3 M 125.6 666.2 L 125.6 666.2 M 125.6 666.2 L 125.6 667.1 M 125.6 667.1 L 102.8 689.9 M 102.8 689.9 L 101.9 689.9 M 101.9 689.9 L 63.1 651 M 63.1 651 L 63.1 650.2 M 63.1 650.2 L 85.9 627.4 M 85.9 627.4 L 86.8 627.4 M 86.8 627.4 L 125.6 666.2 M 558.7 626.9 L 558.7 626.9 M 558.7 626.9 L 558.7 627.7 M 558.7 627.7 L 535.8 650.6 M 535.8 650.6 L 535 650.6 M 535 650.6 L 496.1 611.7 M 496.1 611.7 L 496.1 610.8 M 496.1 610.8 L 519 588 M 519 588 L 519.8 588 M 519.8 588 L 558.7 626.9 M 266.9 623.8 L 266.9 623.8 M 266.9 623.8 L 266.9 624.6 M 266.9 624.6 L 211.7 679.8 M 211.7 679.8 L 210.9 680.6 M 210.9 680.6 L 208.1 683.4 M 208.1 683.4 L 207.4 684.1 M 207.4 684.1 L 185.6 705.9 M 185.6 705.9 L 184.7 705.9 M 184.7 705.9 L 96.5 617.7 M 96.5 617.7 L 96.5 616.8 M 96.5 616.8 L 118.3 595 M 118.3 595 L 119 594.3 M 119 594.3 L 121.8 591.5 M 121.8 591.5 L 122.6 590.7 M 122.6 590.7 L 177.8 535.5 M 177.8 535.5 L 178.6 535.5 M 178.6 535.5 L 266.9 623.8 M 962.4 558.2 L 962.4 558.2 M 962.4 558.2 L 962.4 559 M 962.4 559 L 939.6 581.9 M 939.6 581.9 L 938.8 581.9 M 938.8 581.9 L 899.9 543 M 899.9 543 L 899.9 542.1 M 899.9 542.1 L 922.7 519.3 M 922.7 519.3 L 923.6 519.3 M 923.6 519.3 L 962.4 558.2 M 700 584.4 L 700 584.4 M 700 584.4 L 700 585.3 M 700 585.3 L 644.7 640.5 M 644.7 640.5 L 644 641.2 M 644 641.2 L 641.2 644 M 641.2 644 L 640.5 644.7 M 640.5 644.7 L 618.6 666.6 M 618.6 666.6 L 617.8 666.6 M 617.8 666.6 L 529.5 578.3 M 529.5 578.3 L 529.5 577.5 M 529.5 577.5 L 551.4 555.6 M 551.4 555.6 L 552.1 554.9 M 552.1 554.9 L 554.9 552.1 M 554.9 552.1 L 555.6 551.4 M 555.6 551.4 L 610.8 496.1 M 610.8 496.1 L 611.7 496.1 M 611.7 496.1 L 700 584.4 M 450.6 518.8 L 450.6 518.8 M 450.6 518.8 L 450.6 519.6 M 450.6 519.6 L 427.8 542.5 M 427.8 542.5 L 426.9 542.5 M 426.9 542.5 L 388.1 503.6 M 388.1 503.6 L 388.1 502.8 M 388.1 502.8 L 410.9 479.9 M 410.9 479.9 L 411.8 479.9 M 411.8 479.9 L 450.6 518.8 M 913 508.8 L 913 508.8 M 913 508.8 L 913 509.6 M 913 509.6 L 890.2 532.5 M 890.2 532.5 L 889.3 532.5 M 889.3 532.5 L 850.5 493.6 M 850.5 493.6 L 850.5 492.7 M 850.5 492.7 L 873.3 469.9 M 873.3 469.9 L 874.2 469.9 M 874.2 469.9 L 913 508.8 M 401.2 469.4 L 401.2 469.4 M 401.2 469.4 L 401.2 470.2 M 401.2 470.2 L 378.4 493.1 M 378.4 493.1 L 377.5 493.1 M 377.5 493.1 L 338.6 454.2 M 338.6 454.2 L 338.6 453.4 M 338.6 453.4 L 361.5 430.5 M 361.5 430.5 L 362.3 430.5 M 362.3 430.5 L 401.2 469.4 M 1054.3 466.3 L 1054.3 466.3 M 1054.3 466.3 L 1054.3 467.1 M 1054.3 467.1 L 999.1 522.3 M 999.1 522.3 L 998.3 523.1 M 998.3 523.1 L 995.5 525.9 M 995.5 525.9 L 994.8 526.6 M 994.8 526.6 L 973 548.4 M 973 548.4 L 972.1 548.4 M 972.1 548.4 L 883.9 460.2 M 883.9 460.2 L 883.9 459.4 M 883.9 459.4 L 905.7 437.5 M 905.7 437.5 L 906.4 436.8 M 906.4 436.8 L 909.2 434 M 909.2 434 L 910 433.2 M 910 433.2 L 965.2 378 M 965.2 378 L 966 378 M 966 378 L 1054.3 466.3 M 804.9 400.7 L 804.9 400.7 M 804.9 400.7 L 804.9 401.5 M 804.9 401.5 L 782.1 424.4 M 782.1 424.4 L 781.3 424.4 M 781.3 424.4 L 742.4 385.5 M 742.4 385.5 L 742.4 384.7 M 742.4 384.7 L 765.3 361.8 M 765.3 361.8 L 766.1 361.8 M 766.1 361.8 L 804.9 400.7 M 542.5 426.9 L 542.5 426.9 M 542.5 426.9 L 542.5 427.8 M 542.5 427.8 L 487.3 483 M 487.3 483 L 486.5 483.7 M 486.5 483.7 L 483.7 486.5 M 483.7 486.5 L 483 487.3 M 483 487.3 L 461.2 509.1 M 461.2 509.1 L 460.3 509.1 M 460.3 509.1 L 372.1 420.8 M 372.1 420.8 L 372.1 420 M 372.1 420 L 393.9 398.2 M 393.9 398.2 L 394.6 397.4 M 394.6 397.4 L 397.4 394.6 M 397.4 394.6 L 398.2 393.9 M 398.2 393.9 L 453.4 338.6 M 453.4 338.6 L 454.2 338.6 M 454.2 338.6 L 542.5 426.9 M 293.3 361.5 L 293.3 361.5 M 293.3 361.5 L 293.3 362.3 M 293.3 362.3 L 270.5 385.2 M 270.5 385.2 L 269.6 385.2 M 269.6 385.2 L 230.8 346.3 M 230.8 346.3 L 230.8 345.5 M 230.8 345.5 L 253.6 322.7 M 253.6 322.7 L 254.5 322.7 M 254.5 322.7 L 293.3 361.5 M 755.5 351.3 L 755.5 351.3 M 755.5 351.3 L 755.5 352.1 M 755.5 352.1 L 732.7 375 M 732.7 375 L 731.8 375 M 731.8 375 L 693 336.1 M 693 336.1 L 693 335.3 M 693 335.3 L 715.8 312.4 M 715.8 312.4 L 716.7 312.4 M 716.7 312.4 L 755.5 351.3 M 243.9 312.1 L 243.9 312.1 M 243.9 312.1 L 243.9 312.9 M 243.9 312.9 L 221 335.8 M 221 335.8 L 220.2 335.8 M 220.2 335.8 L 181.4 296.9 M 181.4 296.9 L 181.4 296.1 M 181.4 296.1 L 204.2 273.2 M 204.2 273.2 L 205.1 273.2 M 205.1 273.2 L 243.9 312.1 M 896.8 308.8 L 896.8 308.8 M 896.8 308.8 L 896.8 309.7 M 896.8 309.7 L 841.6 364.9 M 841.6 364.9 L 840.8 365.6 M 840.8 365.6 L 838.1 368.4 M 838.1 368.4 L 837.3 369.2 M 837.3 369.2 L 815.5 391 M 815.5 391 L 814.7 391 M 814.7 391 L 726.4 302.7 M 726.4 302.7 L 726.4 301.9 M 726.4 301.9 L 748.2 280.1 M 748.2 280.1 L 749 279.3 M 749 279.3 L 749 279.3 M 749 279.3 L 751.8 276.5 M 751.8 276.5 L 751.8 276.5 M 751.8 276.5 L 752.5 275.8 M 752.5 275.8 L 807.7 220.5 M 807.7 220.5 L 808.5 220.5 M 808.5 220.5 L 896.8 308.8 M 647.5 243.2 L 647.5 243.2 M 647.5 243.2 L 647.5 244 M 647.5 244 L 624.6 266.9 M 624.6 266.9 L 623.8 266.9 M 623.8 266.9 L 584.9 228.1 M 584.9 228.1 L 584.9 227.2 M 584.9 227.2 L 607.8 204.4 M 607.8 204.4 L 608.6 204.4 M 608.6 204.4 L 647.5 243.2 M 385.2 269.6 L 385.2 269.6 M 385.2 269.6 L 385.2 270.5 M 385.2 270.5 L 330 325.7 M 330 325.7 L 329.2 326.4 M 329.2 326.4 L 326.4 329.2 M 326.4 329.2 L 325.7 330 M 325.7 330 L 303.9 351.8 M 303.9 351.8 L 303.1 351.8 M 303.1 351.8 L 214.8 263.5 M 214.8 263.5 L 214.8 262.7 M 214.8 262.7 L 236.6 240.9 M 236.6 240.9 L 237.3 240.1 M 237.3 240.1 L 240.1 237.3 M 240.1 237.3 L 240.9 236.6 M 240.9 236.6 L 296.1 181.4 M 296.1 181.4 L 296.9 181.4 M 296.9 181.4 L 385.2 269.6 M 598.1 193.8 L 598.1 193.8 M 598.1 193.8 L 598.1 194.6 M 598.1 194.6 L 575.2 217.5 M 575.2 217.5 L 574.4 217.5 M 574.4 217.5 L 535.5 178.6 M 535.5 178.6 L 535.5 177.8 M 535.5 177.8 L 558.4 154.9 M 558.4 154.9 L 559.2 154.9 M 559.2 154.9 L 598.1 193.8 M 739.4 151.4 L 739.4 151.4 M 739.4 151.4 L 739.4 152.2 M 739.4 152.2 L 684.1 207.4 M 684.1 207.4 L 683.4 208.1 M 683.4 208.1 L 680.6 210.9 M 680.6 210.9 L 679.8 211.7 M 679.8 211.7 L 658 233.5 M 658 233.5 L 657.2 233.5 M 657.2 233.5 L 568.9 145.2 M 568.9 145.2 L 568.9 144.4 M 568.9 144.4 L 590.7 122.6 M 590.7 122.6 L 591.5 121.8 M 591.5 121.8 L 591.5 121.8 M 591.5 121.8 L 594.3 119 M 594.3 119 L 594.3 119 M 594.3 119 L 595 118.3 M 595 118.3 L 650.2 63.1 M 650.2 63.1 L 651 63.1 M 651 63.1 L 739.4 151.4 M 113.2 32.9 L 813.6 32.9 M 103.1 34.9 L 838.4 34.9 M 96.2 36.8 L 851.6 36.8 M 90.8 38.8 L 864.7 38.8 M 86.4 40.7 L 873.4 40.7 M 82.3 42.7 L 881.2 42.7 M 78.9 44.6 L 889 44.6 M 75.6 46.6 L 896.8 46.6 M 72.6 48.5 L 903.8 48.5 M 70 50.5 L 909.3 50.5 M 67.3 52.4 L 914.7 52.4 M 65 54.4 L 920.2 54.4 M 62.8 56.3 L 925.6 56.3 M 60.7 58.2 L 931.1 58.2 M 58.7 60.2 L 936.4 60.2 M 56.9 62.1 L 940.6 62.1 M 55.1 64.1 L 649.2 64.1 M 652.1 64.1 L 944.7 64.1 M 53.4 66 L 647.3 66 M 654 66 L 948.8 66 M 51.9 68 L 645.3 68 M 656 68 L 952.9 68 M 50.5 69.9 L 643.4 69.9 M 657.9 69.9 L 957.1 69.9 M 49 71.9 L 641.4 71.9 M 659.9 71.9 L 961.2 71.9 M 47.6 73.8 L 639.4 73.8 M 661.8 73.8 L 965.3 73.8 M 46.4 75.8 L 637.5 75.8 M 663.8 75.8 L 969.3 75.8 M 45.3 77.7 L 635.5 77.7 M 665.7 77.7 L 972.6 77.7 M 44.1 79.7 L 633.6 79.7 M 667.7 79.7 L 975.8 79.7 M 42.9 81.6 L 631.6 81.6 M 669.6 81.6 L 979.1 81.6 M 42 83.6 L 629.7 83.6 M 671.6 83.6 L 982.3 83.6 M 41.1 85.5 L 627.7 85.5 M 673.5 85.5 L 985.6 85.5 M 40.2 87.5 L 625.8 87.5 M 675.5 87.5 L 988.8 87.5 M 39.3 89.4 L 623.8 89.4 M 677.5 89.4 L 992.1 89.4 M 38.5 91.4 L 621.9 91.4 M 679.4 91.4 L 995.3 91.4 M 37.8 93.4 L 619.9 93.4 M 681.4 93.4 L 998.6 93.4 M 37.1 95.3 L 618 95.3 M 683.3 95.3 L 1001.5 95.3 M 36.4 97.3 L 616 97.3 M 685.3 97.3 L 1004.2 97.3 M 35.8 99.2 L 614.1 99.2 M 687.2 99.2 L 1006.8 99.2 M 35.3 101.2 L 612.1 101.2 M 689.2 101.2 L 1009.4 101.2 M 34.8 103.1 L 610.2 103.1 M 691.1 103.1 L 1012 103.1 M 34.4 105.1 L 608.2 105.1 M 693.1 105.1 L 1014.7 105.1 M 33.9 107 L 606.3 107 M 695 107 L 1017.3 107 M 33.5 109 L 604.4 109 M 696.9 109 L 1019.9 109 M 33.2 110.9 L 602.4 110.9 M 698.9 110.9 L 1022.5 110.9 M 33 112.9 L 600.5 112.9 M 700.8 112.9 L 1025.2 112.9 M 32.7 114.8 L 598.5 114.8 M 702.8 114.8 L 1027.8 114.8 M 32.4 116.8 L 596.6 116.8 M 704.7 116.8 L 1030.2 116.8 M 32.3 118.7 L 594.6 118.7 M 706.7 118.7 L 1032.3 118.7 M 32.2 120.6 L 592.7 120.6 M 708.6 120.6 L 1034.5 120.6 M 32.1 122.6 L 590.7 122.6 M 710.6 122.6 L 1036.6 122.6 M 32 124.5 L 588.8 124.5 M 712.5 124.5 L 1038.8 124.5 M 31.9 126.5 L 586.8 126.5 M 714.5 126.5 L 1041 126.5 M 31.9 128.4 L 584.9 128.4 M 716.4 128.4 L 1043.1 128.4 M 31.9 130.4 L 582.9 130.4 M 718.4 130.4 L 1045.3 130.4 M 31.9 132.3 L 581 132.3 M 720.3 132.3 L 1047.4 132.3 M 31.9 134.3 L 579 134.3 M 722.3 134.3 L 1049.5 134.3 M 31.9 136.2 L 577 136.2 M 724.2 136.2 L 1051.7 136.2 M 31.9 138.2 L 575.1 138.2 M 726.2 138.2 L 1053.9 138.2 M 31.9 140.1 L 573.1 140.1 M 728.1 140.1 L 1056 140.1 M 31.9 142.1 L 571.2 142.1 M 730.1 142.1 L 1057.8 142.1 M 31.9 144 L 569.2 144 M 732 144 L 1059.5 144 M 31.9 146 L 569.7 146 M 734 146 L 1061.3 146 M 31.9 147.9 L 571.6 147.9 M 735.9 147.9 L 1063.1 147.9 M 31.9 149.9 L 573.6 149.9 M 737.9 149.9 L 1064.9 149.9 M 31.9 151.8 L 575.5 151.8 M 739.4 151.8 L 1066.6 151.8 M 31.9 153.8 L 577.5 153.8 M 737.7 153.8 L 1068.4 153.8 M 31.9 155.8 L 557.5 155.8 M 560 155.8 L 579.5 155.8 M 735.8 155.8 L 1070.1 155.8 M 31.9 157.7 L 555.6 157.7 M 561.9 157.7 L 581.4 157.7 M 733.8 157.7 L 1071.9 157.7 M 31.9 159.7 L 553.6 159.7 M 563.9 159.7 L 583.4 159.7 M 731.9 159.7 L 1073.7 159.7 M 31.9 161.6 L 551.7 161.6 M 565.8 161.6 L 585.3 161.6 M 729.9 161.6 L 1075.5 161.6 M 31.9 163.6 L 549.7 163.6 M 567.8 163.6 L 587.3 163.6 M 728 163.6 L 1077.2 163.6 M 31.9 165.5 L 547.8 165.5 M 569.7 165.5 L 589.2 165.5 M 726 165.5 L 1079 165.5 M 31.9 167.5 L 545.8 167.5 M 571.7 167.5 L 591.2 167.5 M 724.1 167.5 L 1080.7 167.5 M 31.9 169.4 L 543.9 169.4 M 573.6 169.4 L 593.1 169.4 M 722.1 169.4 L 1082.1 169.4 M 31.9 171.4 L 541.9 171.4 M 575.6 171.4 L 595.1 171.4 M 720.2 171.4 L 1083.6 171.4 M 31.9 173.3 L 540 173.3 M 577.5 173.3 L 597 173.3 M 718.2 173.3 L 1085 173.3 M 31.9 175.3 L 538.1 175.3 M 579.5 175.3 L 599 175.3 M 716.2 175.3 L 1086.4 175.3 M 31.9 177.2 L 536.1 177.2 M 581.4 177.2 L 600.9 177.2 M 714.3 177.2 L 1087.9 177.2 M 31.9 179.2 L 536 179.2 M 583.4 179.2 L 602.9 179.2 M 712.3 179.2 L 1089.4 179.2 M 31.9 181.1 L 538 181.1 M 585.4 181.1 L 604.8 181.1 M 710.4 181.1 L 1090.8 181.1 M 31.9 183.1 L 294.4 183.1 M 298.6 183.1 L 539.9 183.1 M 587.3 183.1 L 606.8 183.1 M 708.4 183.1 L 1092.2 183.1 M 31.9 185 L 292.5 185 M 300.6 185 L 541.9 185 M 589.3 185 L 608.7 185 M 706.5 185 L 1093.7 185 M 31.9 186.9 L 290.5 186.9 M 302.5 186.9 L 543.8 186.9 M 591.2 186.9 L 610.6 186.9 M 704.5 186.9 L 1095.1 186.9 M 31.9 188.9 L 288.6 188.9 M 304.5 188.9 L 545.8 188.9 M 593.2 188.9 L 612.6 188.9 M 702.6 188.9 L 1096.6 188.9 M 31.9 190.8 L 286.6 190.8 M 306.4 190.8 L 547.7 190.8 M 595.1 190.8 L 614.5 190.8 M 700.6 190.8 L 1098 190.8 M 31.9 192.8 L 284.7 192.8 M 308.4 192.8 L 549.7 192.8 M 597.1 192.8 L 616.5 192.8 M 698.7 192.8 L 1099.5 192.8 M 31.9 194.7 L 282.7 194.7 M 310.3 194.7 L 551.6 194.7 M 597.9 194.7 L 618.4 194.7 M 696.8 194.7 L 1100.9 194.7 M 31.9 196.7 L 280.8 196.7 M 312.3 196.7 L 553.6 196.7 M 596 196.7 L 620.4 196.7 M 694.8 196.7 L 1102.3 196.7 M 31.9 198.6 L 278.8 198.6 M 314.2 198.6 L 555.5 198.6 M 594 198.6 L 622.3 198.6 M 692.9 198.6 L 1103.4 198.6 M 31.9 200.6 L 276.9 200.6 M 316.2 200.6 L 557.5 200.6 M 592.1 200.6 L 624.3 200.6 M 690.9 200.6 L 1104.6 200.6 M 31.9 202.5 L 274.9 202.5 M 318.1 202.5 L 559.4 202.5 M 590.1 202.5 L 626.2 202.5 M 689 202.5 L 1105.8 202.5 M 31.9 204.5 L 273 204.5 M 320.1 204.5 L 561.4 204.5 M 588.2 204.5 L 607.6 204.5 M 608.8 204.5 L 628.2 204.5 M 687 204.5 L 1106.9 204.5 M 31.9 206.4 L 271 206.4 M 322 206.4 L 563.3 206.4 M 586.2 206.4 L 605.7 206.4 M 610.7 206.4 L 630.1 206.4 M 685.1 206.4 L 1108.1 206.4 M 31.9 208.4 L 269.1 208.4 M 324 208.4 L 565.3 208.4 M 584.3 208.4 L 603.7 208.4 M 612.7 208.4 L 632.1 208.4 M 683.1 208.4 L 1109.3 208.4 M 31.9 210.3 L 267.1 210.3 M 325.9 210.3 L 567.2 210.3 M 582.3 210.3 L 601.8 210.3 M 614.6 210.3 L 634 210.3 M 681.2 210.3 L 1110.5 210.3 M 31.9 212.3 L 265.2 212.3 M 327.9 212.3 L 569.2 212.3 M 580.4 212.3 L 599.8 212.3 M 616.6 212.3 L 636 212.3 M 679.2 212.3 L 1111.6 212.3 M 31.9 214.2 L 263.2 214.2 M 329.8 214.2 L 571.1 214.2 M 578.4 214.2 L 597.9 214.2 M 618.5 214.2 L 637.9 214.2 M 677.3 214.2 L 1112.8 214.2 M 31.9 216.2 L 261.2 216.2 M 331.8 216.2 L 573.1 216.2 M 576.5 216.2 L 595.9 216.2 M 620.5 216.2 L 639.9 216.2 M 675.3 216.2 L 1114 216.2 M 31.9 218.1 L 259.3 218.1 M 333.7 218.1 L 594 218.1 M 622.4 218.1 L 641.8 218.1 M 673.4 218.1 L 1115.1 218.1 M 31.9 220.1 L 257.3 220.1 M 335.6 220.1 L 592 220.1 M 624.4 220.1 L 643.8 220.1 M 671.4 220.1 L 1116.3 220.1 M 31.9 222.1 L 255.4 222.1 M 337.6 222.1 L 590.1 222.1 M 626.3 222.1 L 645.8 222.1 M 669.5 222.1 L 806.2 222.1 M 810.1 222.1 L 1117.5 222.1 M 31.9 224 L 253.4 224 M 339.5 224 L 588.1 224 M 628.2 224 L 647.7 224 M 667.5 224 L 804.3 224 M 812 224 L 1118.6 224 M 31.9 226 L 251.5 226 M 341.5 226 L 586.2 226 M 630.2 226 L 649.7 226 M 665.6 226 L 802.3 226 M 814 226 L 1119.8 226 M 31.9 227.9 L 249.5 227.9 M 343.4 227.9 L 584.9 227.9 M 632.1 227.9 L 651.6 227.9 M 663.6 227.9 L 800.4 227.9 M 815.9 227.9 L 1120.9 227.9 M 31.9 229.9 L 247.6 229.9 M 345.4 229.9 L 586.8 229.9 M 634.1 229.9 L 653.6 229.9 M 661.7 229.9 L 798.4 229.9 M 817.9 229.9 L 1121.8 229.9 M 31.9 231.8 L 245.6 231.8 M 347.3 231.8 L 588.7 231.8 M 636 231.8 L 655.5 231.8 M 659.7 231.8 L 796.5 231.8 M 819.8 231.8 L 1122.7 231.8 M 31.9 233.8 L 243.7 233.8 M 349.3 233.8 L 590.6 233.8 M 638 233.8 L 794.5 233.8 M 821.8 233.8 L 1123.6 233.8 M 31.9 235.7 L 241.8 235.7 M 351.2 235.7 L 592.6 235.7 M 639.9 235.7 L 792.5 235.7 M 823.7 235.7 L 1124.6 235.7 M 31.9 237.7 L 239.8 237.7 M 353.2 237.7 L 594.5 237.7 M 641.9 237.7 L 790.6 237.7 M 825.6 237.7 L 1125.5 237.7 M 31.9 239.6 L 237.9 239.6 M 355.1 239.6 L 596.5 239.6 M 643.8 239.6 L 788.6 239.6 M 827.6 239.6 L 1126.4 239.6 M 31.9 241.6 L 235.9 241.6 M 357.1 241.6 L 598.4 241.6 M 645.8 241.6 L 786.7 241.6 M 829.5 241.6 L 1127.3 241.6 M 31.9 243.5 L 234 243.5 M 359 243.5 L 600.4 243.5 M 647.5 243.5 L 784.7 243.5 M 831.5 243.5 L 1128.2 243.5 M 31.9 245.5 L 232 245.5 M 361 245.5 L 602.3 245.5 M 646 245.5 L 782.8 245.5 M 833.4 245.5 L 1129.2 245.5 M 31.9 247.4 L 230.1 247.4 M 362.9 247.4 L 604.3 247.4 M 644.1 247.4 L 780.8 247.4 M 835.4 247.4 L 1130.1 247.4 M 31.9 249.4 L 228.1 249.4 M 364.9 249.4 L 606.2 249.4 M 642.1 249.4 L 778.9 249.4 M 837.3 249.4 L 1131 249.4 M 31.9 251.3 L 226.2 251.3 M 366.9 251.3 L 608.2 251.3 M 640.2 251.3 L 776.9 251.3 M 839.3 251.3 L 1131.9 251.3 M 31.9 253.2 L 224.2 253.2 M 368.8 253.2 L 610.1 253.2 M 638.2 253.2 L 775 253.2 M 841.2 253.2 L 1132.9 253.2 M 31.9 255.2 L 222.3 255.2 M 370.8 255.2 L 612.1 255.2 M 636.3 255.2 L 773.1 255.2 M 843.2 255.2 L 1133.8 255.2 M 31.9 257.1 L 220.3 257.1 M 372.7 257.1 L 614 257.1 M 634.4 257.1 L 771.1 257.1 M 845.1 257.1 L 1134.7 257.1 M 31.9 259.1 L 218.4 259.1 M 374.7 259.1 L 616 259.1 M 632.4 259.1 L 769.2 259.1 M 847.1 259.1 L 1135.6 259.1 M 31.9 261 L 216.4 261 M 376.6 261 L 617.9 261 M 630.5 261 L 767.2 261 M 849 261 L 1136.4 261 M 31.9 263 L 214.8 263 M 378.6 263 L 619.9 263 M 628.5 263 L 765.3 263 M 851 263 L 1137.1 263 M 31.9 264.9 L 216.2 264.9 M 380.5 264.9 L 621.8 264.9 M 626.6 264.9 L 763.3 264.9 M 852.9 264.9 L 1137.8 264.9 M 31.9 266.9 L 218.2 266.9 M 382.5 266.9 L 761.4 266.9 M 854.9 266.9 L 1138.5 266.9 M 31.9 268.8 L 220.1 268.8 M 384.4 268.8 L 759.4 268.8 M 856.8 268.8 L 1139.2 268.8 M 31.9 270.8 L 222.1 270.8 M 384.9 270.8 L 757.5 270.8 M 858.8 270.8 L 1139.9 270.8 M 31.9 272.7 L 224 272.7 M 382.9 272.7 L 755.5 272.7 M 860.7 272.7 L 1140.6 272.7 M 31.9 274.7 L 202.8 274.7 M 206.5 274.7 L 226 274.7 M 381 274.7 L 753.6 274.7 M 862.7 274.7 L 1141.3 274.7 M 31.9 276.6 L 200.8 276.6 M 208.5 276.6 L 227.9 276.6 M 379 276.6 L 751.6 276.6 M 864.6 276.6 L 1142 276.6 M 31.9 278.6 L 198.8 278.6 M 210.4 278.6 L 229.9 278.6 M 377.1 278.6 L 749.7 278.6 M 866.6 278.6 L 1142.7 278.6 M 31.9 280.5 L 196.9 280.5 M 212.4 280.5 L 231.8 280.5 M 375.1 280.5 L 747.7 280.5 M 868.5 280.5 L 1143.4 280.5 M 31.9 282.5 L 194.9 282.5 M 214.3 282.5 L 233.8 282.5 M 373.2 282.5 L 745.8 282.5 M 870.5 282.5 L 1144.1 282.5 M 31.9 284.4 L 193 284.4 M 216.3 284.4 L 235.7 284.4 M 371.2 284.4 L 743.8 284.4 M 872.5 284.4 L 1144.8 284.4 M 31.9 286.4 L 191 286.4 M 218.2 286.4 L 237.7 286.4 M 369.3 286.4 L 741.9 286.4 M 874.4 286.4 L 1145.5 286.4 M 31.9 288.4 L 189.1 288.4 M 220.2 288.4 L 239.6 288.4 M 367.3 288.4 L 739.9 288.4 M 876.4 288.4 L 1146.2 288.4 M 31.9 290.3 L 187.1 290.3 M 222.1 290.3 L 241.6 290.3 M 365.4 290.3 L 738 290.3 M 878.3 290.3 L 1146.9 290.3 M 31.9 292.3 L 185.2 292.3 M 224.1 292.3 L 243.5 292.3 M 363.4 292.3 L 736 292.3 M 880.3 292.3 L 1147.6 292.3 M 31.9 294.2 L 183.2 294.2 M 226 294.2 L 245.5 294.2 M 361.5 294.2 L 734.1 294.2 M 882.2 294.2 L 1148.3 294.2 M 31.9 296.2 L 181.4 296.2 M 228 296.2 L 247.4 296.2 M 359.5 296.2 L 732.1 296.2 M 884.2 296.2 L 1148.8 296.2 M 31.9 298.1 L 182.5 298.1 M 229.9 298.1 L 249.4 298.1 M 357.6 298.1 L 730.1 298.1 M 886.1 298.1 L 1149.2 298.1 M 31.9 300.1 L 184.5 300.1 M 231.9 300.1 L 251.3 300.1 M 355.6 300.1 L 728.2 300.1 M 888.1 300.1 L 1149.7 300.1 M 31.9 302 L 186.4 302 M 233.8 302 L 253.2 302 M 353.7 302 L 726.4 302 M 890 302 L 1150.2 302 M 31.9 304 L 188.4 304 M 235.8 304 L 255.2 304 M 351.7 304 L 727.7 304 M 891.9 304 L 1150.7 304 M 31.9 305.9 L 190.3 305.9 M 237.7 305.9 L 257.1 305.9 M 349.8 305.9 L 729.6 305.9 M 893.9 305.9 L 1151.2 305.9 M 31.9 307.9 L 192.3 307.9 M 239.7 307.9 L 259.1 307.9 M 347.8 307.9 L 731.6 307.9 M 895.8 307.9 L 1151.7 307.9 M 31.9 309.8 L 194.2 309.8 M 241.6 309.8 L 261 309.8 M 345.9 309.8 L 733.5 309.8 M 896.7 309.8 L 1152.2 309.8 M 31.9 311.8 L 196.2 311.8 M 243.6 311.8 L 263 311.8 M 343.9 311.8 L 735.5 311.8 M 894.7 311.8 L 1152.7 311.8 M 31.9 313.7 L 198.1 313.7 M 243.1 313.7 L 264.9 313.7 M 342 313.7 L 714.5 313.7 M 718 313.7 L 737.4 313.7 M 892.8 313.7 L 1153.2 313.7 M 31.9 315.6 L 200.1 315.6 M 241.2 315.6 L 266.9 315.6 M 340 315.6 L 712.6 315.6 M 719.9 315.6 L 739.4 315.6 M 890.8 315.6 L 1153.6 315.6 M 31.9 317.6 L 202 317.6 M 239.2 317.6 L 268.9 317.6 M 338.1 317.6 L 710.6 317.6 M 721.9 317.6 L 741.3 317.6 M 888.9 317.6 L 1154.1 317.6 M 31.9 319.5 L 204 319.5 M 237.3 319.5 L 270.8 319.5 M 336.1 319.5 L 708.7 319.5 M 723.8 319.5 L 743.2 319.5 M 886.9 319.5 L 1154.6 319.5 M 31.9 321.5 L 206 321.5 M 235.3 321.5 L 272.8 321.5 M 334.2 321.5 L 706.8 321.5 M 725.8 321.5 L 745.2 321.5 M 885 321.5 L 1155.1 321.5 M 31.9 323.4 L 207.9 323.4 M 233.4 323.4 L 252.9 323.4 M 255.3 323.4 L 274.7 323.4 M 332.2 323.4 L 704.8 323.4 M 727.7 323.4 L 747.1 323.4 M 883 323.4 L 1155.6 323.4 M 31.9 325.4 L 209.9 325.4 M 231.4 325.4 L 250.9 325.4 M 257.2 325.4 L 276.7 325.4 M 330.3 325.4 L 702.9 325.4 M 729.7 325.4 L 749.1 325.4 M 881.1 325.4 L 1156.1 325.4 M 31.9 327.3 L 211.8 327.3 M 229.5 327.3 L 248.9 327.3 M 259.2 327.3 L 278.6 327.3 M 328.3 327.3 L 700.9 327.3 M 731.6 327.3 L 751 327.3 M 879.1 327.3 L 1156.6 327.3 M 31.9 329.3 L 213.8 329.3 M 227.5 329.3 L 247 329.3 M 261.1 329.3 L 280.6 329.3 M 326.4 329.3 L 699 329.3 M 733.6 329.3 L 753 329.3 M 877.2 329.3 L 1157 329.3 M 31.9 331.2 L 215.7 331.2 M 225.6 331.2 L 245 331.2 M 263.1 331.2 L 282.5 331.2 M 324.4 331.2 L 697 331.2 M 735.5 331.2 L 754.9 331.2 M 875.2 331.2 L 1157.3 331.2 M 31.9 333.2 L 217.7 333.2 M 223.6 333.2 L 243.1 333.2 M 265 333.2 L 284.5 333.2 M 322.5 333.2 L 695.1 333.2 M 737.5 333.2 L 756.9 333.2 M 873.3 333.2 L 1157.6 333.2 M 31.9 335.1 L 219.6 335.1 M 221.7 335.1 L 241.1 335.1 M 266.9 335.1 L 286.4 335.1 M 320.5 335.1 L 693.1 335.1 M 739.4 335.1 L 758.8 335.1 M 871.3 335.1 L 1157.9 335.1 M 31.9 337.1 L 239.2 337.1 M 268.9 337.1 L 288.4 337.1 M 318.6 337.1 L 694 337.1 M 741.4 337.1 L 760.8 337.1 M 869.4 337.1 L 1158.2 337.1 M 31.9 339 L 237.2 339 M 270.8 339 L 290.3 339 M 316.6 339 L 453 339 M 454.6 339 L 695.9 339 M 743.3 339 L 762.7 339 M 867.4 339 L 1158.5 339 M 31.9 341 L 235.3 341 M 272.8 341 L 292.3 341 M 314.7 341 L 451 341 M 456.6 341 L 697.9 341 M 745.3 341 L 764.7 341 M 865.5 341 L 1158.8 341 M 31.9 342.9 L 233.3 342.9 M 274.8 342.9 L 294.2 342.9 M 312.7 342.9 L 449.1 342.9 M 458.5 342.9 L 699.8 342.9 M 747.2 342.9 L 766.6 342.9 M 863.5 342.9 L 1159.1 342.9 M 31.9 344.9 L 231.4 344.9 M 276.7 344.9 L 296.2 344.9 M 310.8 344.9 L 447.1 344.9 M 460.5 344.9 L 701.8 344.9 M 749.2 344.9 L 768.6 344.9 M 861.6 344.9 L 1159.4 344.9 M 31.9 346.8 L 231.3 346.8 M 278.7 346.8 L 298.1 346.8 M 308.8 346.8 L 445.2 346.8 M 462.4 346.8 L 703.7 346.8 M 751.1 346.8 L 770.5 346.8 M 859.6 346.8 L 1159.7 346.8 M 31.9 348.8 L 233.2 348.8 M 280.6 348.8 L 300.1 348.8 M 306.9 348.8 L 443.2 348.8 M 464.4 348.8 L 705.7 348.8 M 753.1 348.8 L 772.5 348.8 M 857.7 348.8 L 1159.9 348.8 M 31.9 350.8 L 235.2 350.8 M 282.6 350.8 L 302 350.8 M 304.9 350.8 L 441.3 350.8 M 466.3 350.8 L 707.6 350.8 M 755 350.8 L 774.5 350.8 M 855.7 350.8 L 1160.2 350.8 M 31.9 352.7 L 237.1 352.7 M 284.5 352.7 L 439.4 352.7 M 468.2 352.7 L 709.6 352.7 M 754.9 352.7 L 776.4 352.7 M 853.8 352.7 L 1160.5 352.7 M 31.9 354.7 L 239.1 354.7 M 286.5 354.7 L 437.4 354.7 M 470.2 354.7 L 711.6 354.7 M 753 354.7 L 778.4 354.7 M 851.8 354.7 L 1160.8 354.7 M 31.9 356.6 L 241 356.6 M 288.4 356.6 L 435.5 356.6 M 472.1 356.6 L 713.5 356.6 M 751 356.6 L 780.3 356.6 M 849.9 356.6 L 1161.1 356.6 M 31.9 358.6 L 243 358.6 M 290.4 358.6 L 433.5 358.6 M 474.1 358.6 L 715.5 358.6 M 749.1 358.6 L 782.3 358.6 M 847.9 358.6 L 1161.4 358.6 M 31.9 360.5 L 244.9 360.5 M 292.3 360.5 L 431.6 360.5 M 476 360.5 L 717.4 360.5 M 747.1 360.5 L 784.2 360.5 M 846 360.5 L 1161.7 360.5 M 31.9 362.5 L 246.9 362.5 M 293.2 362.5 L 429.6 362.5 M 478 362.5 L 719.4 362.5 M 745.2 362.5 L 764.6 362.5 M 766.7 362.5 L 786.2 362.5 M 844 362.5 L 1161.9 362.5 M 31.9 364.4 L 248.8 364.4 M 291.3 364.4 L 427.6 364.4 M 479.9 364.4 L 721.3 364.4 M 743.2 364.4 L 762.7 364.4 M 768.6 364.4 L 788.1 364.4 M 842.1 364.4 L 1162.3 364.4 M 31.9 366.4 L 250.8 366.4 M 289.3 366.4 L 425.7 366.4 M 481.9 366.4 L 723.2 366.4 M 741.3 366.4 L 760.7 366.4 M 770.6 366.4 L 790.1 366.4 M 840.1 366.4 L 1162.4 366.4 M 31.9 368.3 L 252.7 368.3 M 287.4 368.3 L 423.7 368.3 M 483.8 368.3 L 725.2 368.3 M 739.4 368.3 L 758.8 368.3 M 772.5 368.3 L 792 368.3 M 838.2 368.3 L 1162.5 368.3 M 31.9 370.3 L 254.7 370.3 M 285.4 370.3 L 421.8 370.3 M 485.8 370.3 L 727.1 370.3 M 737.4 370.3 L 756.8 370.3 M 774.5 370.3 L 794 370.3 M 836.2 370.3 L 1162.6 370.3 M 31.9 372.2 L 256.6 372.2 M 283.5 372.2 L 419.8 372.2 M 487.7 372.2 L 729.1 372.2 M 735.5 372.2 L 754.9 372.2 M 776.4 372.2 L 795.9 372.2 M 834.3 372.2 L 1162.7 372.2 M 31.9 374.2 L 258.6 374.2 M 281.5 374.2 L 417.9 374.2 M 489.7 374.2 L 731 374.2 M 733.5 374.2 L 752.9 374.2 M 778.4 374.2 L 797.9 374.2 M 832.3 374.2 L 1162.8 374.2 M 31.9 376.1 L 260.5 376.1 M 279.6 376.1 L 415.9 376.1 M 491.6 376.1 L 751 376.1 M 780.4 376.1 L 799.8 376.1 M 830.4 376.1 L 1162.9 376.1 M 31.9 378.1 L 262.5 378.1 M 277.6 378.1 L 414 378.1 M 493.6 378.1 L 749 378.1 M 782.3 378.1 L 801.8 378.1 M 828.4 378.1 L 965.2 378.1 M 966 378.1 L 1163 378.1 M 31.9 380 L 264.4 380 M 275.7 380 L 412 380 M 495.6 380 L 747.1 380 M 784.3 380 L 803.7 380 M 826.5 380 L 963.2 380 M 968 380 L 1163.1 380 M 31.9 381.9 L 266.4 381.9 M 273.7 381.9 L 410.1 381.9 M 497.5 381.9 L 745.1 381.9 M 786.2 381.9 L 805.6 381.9 M 824.5 381.9 L 961.3 381.9 M 969.9 381.9 L 1163.2 381.9 M 31.9 383.9 L 268.3 383.9 M 271.8 383.9 L 408.1 383.9 M 499.5 383.9 L 743.2 383.9 M 788.2 383.9 L 807.6 383.9 M 822.6 383.9 L 959.3 383.9 M 971.9 383.9 L 1163.3 383.9 M 31.9 385.8 L 406.2 385.8 M 501.4 385.8 L 742.7 385.8 M 790.1 385.8 L 809.5 385.8 M 820.6 385.8 L 957.4 385.8 M 973.8 385.8 L 1163.4 385.8 M 31.9 387.8 L 404.2 387.8 M 503.4 387.8 L 744.7 387.8 M 792.1 387.8 L 811.5 387.8 M 818.7 387.8 L 955.4 387.8 M 975.8 387.8 L 1163.5 387.8 M 31.9 389.7 L 402.3 389.7 M 505.3 389.7 L 746.6 389.7 M 794 389.7 L 813.4 389.7 M 816.7 389.7 L 953.5 389.7 M 977.7 389.7 L 1163.6 389.7 M 31.9 391.7 L 400.3 391.7 M 507.3 391.7 L 748.6 391.7 M 796 391.7 L 951.5 391.7 M 979.7 391.7 L 1163.6 391.7 M 31.9 393.6 L 398.4 393.6 M 509.2 393.6 L 750.5 393.6 M 797.9 393.6 L 949.6 393.6 M 981.6 393.6 L 1163.8 393.6 M 31.9 395.6 L 396.4 395.6 M 511.2 395.6 L 752.5 395.6 M 799.9 395.6 L 947.6 395.6 M 983.6 395.6 L 1163.8 395.6 M 31.9 397.5 L 394.5 397.5 M 513.1 397.5 L 754.4 397.5 M 801.8 397.5 L 945.6 397.5 M 985.5 397.5 L 1164 397.5 M 31.9 399.5 L 392.5 399.5 M 515.1 399.5 L 756.4 399.5 M 803.8 399.5 L 943.7 399.5 M 987.5 399.5 L 1164 399.5 M 31.9 401.4 L 390.6 401.4 M 517 401.4 L 758.3 401.4 M 804.9 401.4 L 941.8 401.4 M 989.4 401.4 L 1164.1 401.4 M 31.9 403.4 L 388.6 403.4 M 519 403.4 L 760.3 403.4 M 803.1 403.4 L 939.8 403.4 M 991.4 403.4 L 1164 403.4 M 31.9 405.3 L 386.7 405.3 M 520.9 405.3 L 762.2 405.3 M 801.1 405.3 L 937.9 405.3 M 993.3 405.3 L 1163.9 405.3 M 31.9 407.3 L 384.7 407.3 M 522.9 407.3 L 764.2 407.3 M 799.2 407.3 L 935.9 407.3 M 995.3 407.3 L 1163.8 407.3 M 31.9 409.2 L 382.8 409.2 M 524.8 409.2 L 766.1 409.2 M 797.2 409.2 L 934 409.2 M 997.2 409.2 L 1163.7 409.2 M 31.9 411.2 L 380.8 411.2 M 526.8 411.2 L 768.1 411.2 M 795.3 411.2 L 932 411.2 M 999.2 411.2 L 1163.6 411.2 M 31.9 413.1 L 378.9 413.1 M 528.7 413.1 L 770 413.1 M 793.3 413.1 L 930.1 413.1 M 1001.2 413.1 L 1163.5 413.1 M 31.9 415.1 L 376.9 415.1 M 530.6 415.1 L 772 415.1 M 791.4 415.1 L 928.1 415.1 M 1003.1 415.1 L 1163.4 415.1 M 31.9 417.1 L 375 417.1 M 532.6 417.1 L 773.9 417.1 M 789.4 417.1 L 926.2 417.1 M 1005.1 417.1 L 1163.3 417.1 M 31.9 419 L 373.1 419 M 534.5 419 L 775.9 419 M 787.5 419 L 924.2 419 M 1007 419 L 1163.2 419 M 31.9 421 L 372.2 421 M 536.5 421 L 777.9 421 M 785.5 421 L 922.3 421 M 1009 421 L 1163.2 421 M 31.9 422.9 L 374.2 422.9 M 538.4 422.9 L 779.8 422.9 M 783.6 422.9 L 920.3 422.9 M 1010.9 422.9 L 1163.1 422.9 M 31.9 424.9 L 376.1 424.9 M 540.4 424.9 L 918.4 424.9 M 1012.9 424.9 L 1163 424.9 M 31.9 426.8 L 378.1 426.8 M 542.3 426.8 L 916.4 426.8 M 1014.8 426.8 L 1162.9 426.8 M 31.9 428.8 L 380 428.8 M 541.5 428.8 L 914.5 428.8 M 1016.8 428.8 L 1162.8 428.8 M 31.9 430.7 L 361.3 430.7 M 362.5 430.7 L 381.9 430.7 M 539.5 430.7 L 912.5 430.7 M 1018.7 430.7 L 1162.7 430.7 M 31.9 432.7 L 359.4 432.7 M 364.5 432.7 L 383.9 432.7 M 537.6 432.7 L 910.6 432.7 M 1020.6 432.7 L 1162.6 432.7 M 31.9 434.6 L 357.4 434.6 M 366.4 434.6 L 385.8 434.6 M 535.6 434.6 L 908.6 434.6 M 1022.6 434.6 L 1162.5 434.6 M 31.9 436.6 L 355.5 436.6 M 368.4 436.6 L 387.8 436.6 M 533.7 436.6 L 906.7 436.6 M 1024.5 436.6 L 1162.4 436.6 M 31.9 438.5 L 353.5 438.5 M 370.3 438.5 L 389.7 438.5 M 531.8 438.5 L 904.7 438.5 M 1026.5 438.5 L 1162.2 438.5 M 31.9 440.5 L 351.6 440.5 M 372.3 440.5 L 391.7 440.5 M 529.8 440.5 L 902.8 440.5 M 1028.4 440.5 L 1161.9 440.5 M 31.9 442.4 L 349.6 442.4 M 374.2 442.4 L 393.6 442.4 M 527.9 442.4 L 900.8 442.4 M 1030.4 442.4 L 1161.6 442.4 M 31.9 444.4 L 347.7 444.4 M 376.2 444.4 L 395.6 444.4 M 525.9 444.4 L 898.9 444.4 M 1032.3 444.4 L 1161.3 444.4 M 31.9 446.3 L 345.7 446.3 M 378.1 446.3 L 397.5 446.3 M 524 446.3 L 896.9 446.3 M 1034.3 446.3 L 1161 446.3 M 31.9 448.2 L 343.8 448.2 M 380.1 448.2 L 399.5 448.2 M 522 448.2 L 895 448.2 M 1036.2 448.2 L 1160.7 448.2 M 31.9 450.2 L 341.8 450.2 M 382 450.2 L 401.5 450.2 M 520.1 450.2 L 893 450.2 M 1038.2 450.2 L 1160.5 450.2 M 31.9 452.1 L 339.9 452.1 M 384 452.1 L 403.4 452.1 M 518.1 452.1 L 891.1 452.1 M 1040.1 452.1 L 1160.1 452.1 M 31.9 454.1 L 338.6 454.1 M 385.9 454.1 L 405.4 454.1 M 516.2 454.1 L 889.1 454.1 M 1042.1 454.1 L 1159.9 454.1 M 31.9 456 L 340.5 456 M 387.9 456 L 407.3 456 M 514.2 456 L 887.2 456 M 1044 456 L 1159.6 456 M 31.9 458 L 342.5 458 M 389.8 458 L 409.3 458 M 512.3 458 L 885.2 458 M 1046 458 L 1159.3 458 M 31.9 459.9 L 344.4 459.9 M 391.8 459.9 L 411.2 459.9 M 510.3 459.9 L 883.9 459.9 M 1047.9 459.9 L 1159 459.9 M 31.9 461.9 L 346.4 461.9 M 393.7 461.9 L 413.2 461.9 M 508.4 461.9 L 885.6 461.9 M 1049.9 461.9 L 1158.7 461.9 M 31.9 463.8 L 348.3 463.8 M 395.6 463.8 L 415.1 463.8 M 506.4 463.8 L 887.5 463.8 M 1051.8 463.8 L 1158.4 463.8 M 31.9 465.8 L 350.3 465.8 M 397.6 465.8 L 417.1 465.8 M 504.5 465.8 L 889.5 465.8 M 1053.8 465.8 L 1158.1 465.8 M 31.9 467.7 L 352.2 467.7 M 399.5 467.7 L 419 467.7 M 502.5 467.7 L 891.4 467.7 M 1053.7 467.7 L 1157.9 467.7 M 31.9 469.7 L 354.2 469.7 M 401.2 469.7 L 421 469.7 M 500.5 469.7 L 893.4 469.7 M 1051.7 469.7 L 1157.5 469.7 M 31.9 471.6 L 356.1 471.6 M 399.8 471.6 L 422.9 471.6 M 498.6 471.6 L 871.6 471.6 M 875.9 471.6 L 895.3 471.6 M 1049.8 471.6 L 1157.3 471.6 M 31.9 473.6 L 358.1 473.6 M 397.8 473.6 L 424.9 473.6 M 496.6 473.6 L 869.6 473.6 M 877.9 473.6 L 897.3 473.6 M 1047.8 473.6 L 1156.9 473.6 M 31.9 475.5 L 360 475.5 M 395.9 475.5 L 426.8 475.5 M 494.7 475.5 L 867.7 475.5 M 879.8 475.5 L 899.2 475.5 M 1045.9 475.5 L 1156.4 475.5 M 31.9 477.5 L 361.9 477.5 M 393.9 477.5 L 428.8 477.5 M 492.7 477.5 L 865.7 477.5 M 881.8 477.5 L 901.2 477.5 M 1043.9 477.5 L 1156 477.5 M 31.9 479.4 L 363.9 479.4 M 392 479.4 L 430.7 479.4 M 490.8 479.4 L 863.8 479.4 M 883.7 479.4 L 903.1 479.4 M 1042 479.4 L 1155.5 479.4 M 31.9 481.4 L 365.8 481.4 M 390 481.4 L 409.5 481.4 M 413.2 481.4 L 432.7 481.4 M 488.8 481.4 L 861.8 481.4 M 885.6 481.4 L 905.1 481.4 M 1040 481.4 L 1155 481.4 M 31.9 483.4 L 367.8 483.4 M 388.1 483.4 L 407.5 483.4 M 415.2 483.4 L 434.6 483.4 M 486.9 483.4 L 859.9 483.4 M 887.6 483.4 L 907.1 483.4 M 1038.1 483.4 L 1154.5 483.4 M 31.9 485.3 L 369.7 485.3 M 386.1 485.3 L 405.6 485.3 M 417.1 485.3 L 436.6 485.3 M 484.9 485.3 L 857.9 485.3 M 889.5 485.3 L 909 485.3 M 1036.1 485.3 L 1154 485.3 M 31.9 487.3 L 371.7 487.3 M 384.2 487.3 L 403.6 487.3 M 419.1 487.3 L 438.5 487.3 M 483 487.3 L 856 487.3 M 891.5 487.3 L 911 487.3 M 1034.2 487.3 L 1153.5 487.3 M 31.9 489.2 L 373.6 489.2 M 382.2 489.2 L 401.7 489.2 M 421 489.2 L 440.5 489.2 M 481 489.2 L 854 489.2 M 893.4 489.2 L 912.9 489.2 M 1032.2 489.2 L 1153 489.2 M 31.9 491.2 L 375.6 491.2 M 380.3 491.2 L 399.7 491.2 M 423 491.2 L 442.4 491.2 M 479.1 491.2 L 852.1 491.2 M 895.4 491.2 L 914.9 491.2 M 1030.3 491.2 L 1152.5 491.2 M 31.9 493.1 L 397.8 493.1 M 424.9 493.1 L 444.4 493.1 M 477.1 493.1 L 850.5 493.1 M 897.3 493.1 L 916.8 493.1 M 1028.3 493.1 L 1152.1 493.1 M 31.9 495.1 L 395.8 495.1 M 426.9 495.1 L 446.3 495.1 M 475.2 495.1 L 851.9 495.1 M 899.3 495.1 L 918.8 495.1 M 1026.4 495.1 L 1151.6 495.1 M 31.9 497 L 393.9 497 M 428.8 497 L 448.2 497 M 473.2 497 L 610 497 M 612.5 497 L 853.9 497 M 901.2 497 L 920.7 497 M 1024.4 497 L 1151.1 497 M 31.9 499 L 391.9 499 M 430.8 499 L 450.2 499 M 471.3 499 L 608.1 499 M 614.5 499 L 855.8 499 M 903.2 499 L 922.7 499 M 1022.5 499 L 1150.6 499 M 31.9 500.9 L 390 500.9 M 432.7 500.9 L 452.1 500.9 M 469.4 500.9 L 606.1 500.9 M 616.4 500.9 L 857.8 500.9 M 905.1 500.9 L 924.6 500.9 M 1020.5 500.9 L 1150.1 500.9 M 31.9 502.9 L 388.1 502.9 M 434.7 502.9 L 454.1 502.9 M 467.4 502.9 L 604.2 502.9 M 618.4 502.9 L 859.7 502.9 M 907.1 502.9 L 926.6 502.9 M 1018.6 502.9 L 1149.6 502.9 M 31.9 504.8 L 389.2 504.8 M 436.6 504.8 L 456 504.8 M 465.5 504.8 L 602.2 504.8 M 620.3 504.8 L 861.7 504.8 M 909.1 504.8 L 928.5 504.8 M 1016.6 504.8 L 1149.1 504.8 M 31.9 506.8 L 391.2 506.8 M 438.6 506.8 L 458 506.8 M 463.5 506.8 L 600.3 506.8 M 622.3 506.8 L 863.6 506.8 M 911 506.8 L 930.5 506.8 M 1014.7 506.8 L 1148.6 506.8 M 31.9 508.7 L 393.1 508.7 M 440.5 508.7 L 459.9 508.7 M 461.6 508.7 L 598.3 508.7 M 624.3 508.7 L 865.6 508.7 M 913 508.7 L 932.4 508.7 M 1012.7 508.7 L 1148.1 508.7 M 31.9 510.6 L 395.1 510.6 M 442.5 510.6 L 596.4 510.6 M 626.2 510.6 L 867.5 510.6 M 911.9 510.6 L 934.4 510.6 M 1010.8 510.6 L 1147.4 510.6 M 31.9 512.6 L 397 512.6 M 444.4 512.6 L 594.4 512.6 M 628.2 512.6 L 869.5 512.6 M 910 512.6 L 936.3 512.6 M 1008.8 512.6 L 1146.7 512.6 M 31.9 514.5 L 399 514.5 M 446.4 514.5 L 592.5 514.5 M 630.1 514.5 L 871.4 514.5 M 908.1 514.5 L 938.2 514.5 M 1006.9 514.5 L 1146 514.5 M 31.9 516.5 L 401 516.5 M 448.3 516.5 L 590.5 516.5 M 632.1 516.5 L 873.4 516.5 M 906.1 516.5 L 940.2 516.5 M 1004.9 516.5 L 1145.3 516.5 M 31.9 518.4 L 402.9 518.4 M 450.3 518.4 L 588.6 518.4 M 634 518.4 L 875.3 518.4 M 904.2 518.4 L 942.1 518.4 M 1003 518.4 L 1144.6 518.4 M 31.9 520.4 L 404.9 520.4 M 449.9 520.4 L 586.6 520.4 M 636 520.4 L 877.3 520.4 M 902.2 520.4 L 921.6 520.4 M 924.7 520.4 L 944.1 520.4 M 1001 520.4 L 1143.9 520.4 M 31.9 522.3 L 406.8 522.3 M 447.9 522.3 L 584.7 522.3 M 637.9 522.3 L 879.2 522.3 M 900.3 522.3 L 919.7 522.3 M 926.6 522.3 L 946 522.3 M 999.1 522.3 L 1143.2 522.3 M 31.9 524.3 L 408.8 524.3 M 446 524.3 L 582.7 524.3 M 639.9 524.3 L 881.2 524.3 M 898.3 524.3 L 917.7 524.3 M 928.6 524.3 L 948 524.3 M 997.1 524.3 L 1142.5 524.3 M 31.9 526.2 L 410.7 526.2 M 444 526.2 L 580.7 526.2 M 641.8 526.2 L 883.1 526.2 M 896.4 526.2 L 915.8 526.2 M 930.5 526.2 L 949.9 526.2 M 995.2 526.2 L 1141.8 526.2 M 31.9 528.2 L 412.7 528.2 M 442.1 528.2 L 578.8 528.2 M 643.8 528.2 L 885.1 528.2 M 894.4 528.2 L 913.8 528.2 M 932.5 528.2 L 951.9 528.2 M 993.2 528.2 L 1141.1 528.2 M 31.9 530.1 L 414.6 530.1 M 440.1 530.1 L 576.8 530.1 M 645.7 530.1 L 887 530.1 M 892.5 530.1 L 911.9 530.1 M 934.4 530.1 L 953.8 530.1 M 991.3 530.1 L 1140.5 530.1 M 31.9 532.1 L 416.6 532.1 M 438.2 532.1 L 574.9 532.1 M 647.7 532.1 L 889 532.1 M 890.5 532.1 L 909.9 532.1 M 936.4 532.1 L 955.8 532.1 M 989.4 532.1 L 1139.7 532.1 M 31.9 534 L 418.5 534 M 436.2 534 L 572.9 534 M 649.6 534 L 908 534 M 938.3 534 L 957.7 534 M 987.4 534 L 1139 534 M 31.9 536 L 177.3 536 M 179.1 536 L 420.5 536 M 434.2 536 L 571 536 M 651.6 536 L 906 536 M 940.3 536 L 959.7 536 M 985.4 536 L 1138.3 536 M 31.9 537.9 L 175.3 537.9 M 181 537.9 L 422.4 537.9 M 432.3 537.9 L 569 537.9 M 653.5 537.9 L 904.1 537.9 M 942.2 537.9 L 961.6 537.9 M 983.5 537.9 L 1137.7 537.9 M 31.9 539.9 L 173.4 539.9 M 183 539.9 L 424.4 539.9 M 430.3 539.9 L 567.1 539.9 M 655.5 539.9 L 902.1 539.9 M 944.2 539.9 L 963.6 539.9 M 981.5 539.9 L 1136.9 539.9 M 31.9 541.8 L 171.4 541.8 M 185 541.8 L 426.3 541.8 M 428.4 541.8 L 565.1 541.8 M 657.4 541.8 L 900.2 541.8 M 946.1 541.8 L 965.5 541.8 M 979.6 541.8 L 1136.2 541.8 M 31.9 543.8 L 169.5 543.8 M 186.9 543.8 L 563.2 543.8 M 659.4 543.8 L 900.7 543.8 M 948.1 543.8 L 967.5 543.8 M 977.6 543.8 L 1135.4 543.8 M 31.9 545.8 L 167.5 545.8 M 188.9 545.8 L 561.2 545.8 M 661.3 545.8 L 902.6 545.8 M 950 545.8 L 969.5 545.8 M 975.7 545.8 L 1134.5 545.8 M 31.9 547.7 L 165.6 547.7 M 190.8 547.7 L 559.3 547.7 M 663.2 547.7 L 904.6 547.7 M 951.9 547.7 L 971.4 547.7 M 973.7 547.7 L 1133.6 547.7 M 31.9 549.7 L 163.6 549.7 M 192.8 549.7 L 557.3 549.7 M 665.2 549.7 L 906.6 549.7 M 953.9 549.7 L 1132.6 549.7 M 31.9 551.6 L 161.7 551.6 M 194.7 551.6 L 555.4 551.6 M 667.1 551.6 L 908.5 551.6 M 955.8 551.6 L 1131.7 551.6 M 31.9 553.6 L 159.7 553.6 M 196.7 553.6 L 553.4 553.6 M 669.1 553.6 L 910.5 553.6 M 957.8 553.6 L 1130.8 553.6 M 31.9 555.5 L 157.8 555.5 M 198.6 555.5 L 551.5 555.5 M 671 555.5 L 912.4 555.5 M 959.7 555.5 L 1129.9 555.5 M 31.9 557.5 L 155.8 557.5 M 200.6 557.5 L 549.5 557.5 M 673 557.5 L 914.4 557.5 M 961.7 557.5 L 1129 557.5 M 31.9 559.4 L 153.9 559.4 M 202.5 559.4 L 547.6 559.4 M 674.9 559.4 L 916.3 559.4 M 962 559.4 L 1128 559.4 M 31.9 561.4 L 151.9 561.4 M 204.5 561.4 L 545.6 561.4 M 676.9 561.4 L 918.2 561.4 M 960.1 561.4 L 1127.1 561.4 M 31.9 563.3 L 150 563.3 M 206.4 563.3 L 543.7 563.3 M 678.8 563.3 L 920.2 563.3 M 958.1 563.3 L 1126.2 563.3 M 31.9 565.3 L 148.1 565.3 M 208.4 565.3 L 541.8 565.3 M 680.8 565.3 L 922.1 565.3 M 956.2 565.3 L 1125.3 565.3 M 31.9 567.2 L 146.1 567.2 M 210.3 567.2 L 539.8 567.2 M 682.7 567.2 L 924.1 567.2 M 954.2 567.2 L 1124.4 567.2 M 31.9 569.2 L 144.2 569.2 M 212.3 569.2 L 537.9 569.2 M 684.7 569.2 L 926 569.2 M 952.3 569.2 L 1123.4 569.2 M 31.9 571.1 L 142.2 571.1 M 214.2 571.1 L 535.9 571.1 M 686.6 571.1 L 928 571.1 M 950.3 571.1 L 1122.5 571.1 M 31.9 573.1 L 140.3 573.1 M 216.2 573.1 L 534 573.1 M 688.6 573.1 L 929.9 573.1 M 948.4 573.1 L 1121.6 573.1 M 31.9 575 L 138.3 575 M 218.1 575 L 532 575 M 690.6 575 L 931.9 575 M 946.4 575 L 1120.6 575 M 31.9 576.9 L 136.4 576.9 M 220.1 576.9 L 530.1 576.9 M 692.5 576.9 L 933.8 576.9 M 944.5 576.9 L 1119.5 576.9 M 31.9 578.9 L 134.4 578.9 M 222 578.9 L 530.2 578.9 M 694.5 578.9 L 935.8 578.9 M 942.5 578.9 L 1118.3 578.9 M 31.9 580.8 L 132.5 580.8 M 224 580.8 L 532.1 580.8 M 696.4 580.8 L 937.7 580.8 M 940.6 580.8 L 1117.2 580.8 M 31.9 582.8 L 130.5 582.8 M 225.9 582.8 L 534.1 582.8 M 698.4 582.8 L 1116 582.8 M 31.9 584.7 L 128.6 584.7 M 227.9 584.7 L 536 584.7 M 700 584.7 L 1114.8 584.7 M 31.9 586.7 L 126.6 586.7 M 229.8 586.7 L 538 586.7 M 698.5 586.7 L 1113.7 586.7 M 31.9 588.6 L 124.7 588.6 M 231.8 588.6 L 518.4 588.6 M 520.5 588.6 L 539.9 588.6 M 696.6 588.6 L 1112.5 588.6 M 31.9 590.6 L 122.7 590.6 M 233.7 590.6 L 516.4 590.6 M 522.4 590.6 L 541.9 590.6 M 694.6 590.6 L 1111.3 590.6 M 31.9 592.5 L 120.7 592.5 M 235.6 592.5 L 514.4 592.5 M 524.4 592.5 L 543.8 592.5 M 692.7 592.5 L 1110.2 592.5 M 31.9 594.5 L 118.8 594.5 M 237.6 594.5 L 512.5 594.5 M 526.3 594.5 L 545.8 594.5 M 690.7 594.5 L 1109 594.5 M 31.9 596.4 L 116.8 596.4 M 239.5 596.4 L 510.5 596.4 M 528.2 596.4 L 547.7 596.4 M 688.8 596.4 L 1107.8 596.4 M 31.9 598.4 L 114.9 598.4 M 241.5 598.4 L 508.6 598.4 M 530.2 598.4 L 549.7 598.4 M 686.8 598.4 L 1106.6 598.4 M 31.9 600.3 L 112.9 600.3 M 243.4 600.3 L 506.6 600.3 M 532.2 600.3 L 551.6 600.3 M 684.9 600.3 L 1105.5 600.3 M 31.9 602.3 L 111 602.3 M 245.4 602.3 L 504.7 602.3 M 534.1 602.3 L 553.6 602.3 M 682.9 602.3 L 1104.3 602.3 M 31.9 604.2 L 109 604.2 M 247.3 604.2 L 502.7 604.2 M 536.1 604.2 L 555.5 604.2 M 681 604.2 L 1103.1 604.2 M 31.9 606.2 L 107.1 606.2 M 249.3 606.2 L 500.8 606.2 M 538 606.2 L 557.5 606.2 M 679 606.2 L 1102 606.2 M 31.9 608.1 L 105.1 608.1 M 251.3 608.1 L 498.8 608.1 M 540 608.1 L 559.4 608.1 M 677.1 608.1 L 1100.5 608.1 M 31.9 610.1 L 103.2 610.1 M 253.2 610.1 L 496.9 610.1 M 541.9 610.1 L 561.4 610.1 M 675.1 610.1 L 1099.1 610.1 M 31.9 612.1 L 101.2 612.1 M 255.2 612.1 L 496.5 612.1 M 543.9 612.1 L 563.3 612.1 M 673.2 612.1 L 1097.7 612.1 M 31.9 614 L 99.3 614 M 257.1 614 L 498.4 614 M 545.8 614 L 565.3 614 M 671.2 614 L 1096.2 614 M 31.9 616 L 97.3 616 M 259.1 616 L 500.4 616 M 547.8 616 L 567.2 616 M 669.3 616 L 1094.8 616 M 31.9 617.9 L 96.7 617.9 M 261 617.9 L 502.3 617.9 M 549.7 617.9 L 569.2 617.9 M 667.3 617.9 L 1093.3 617.9 M 31.9 619.9 L 98.7 619.9 M 263 619.9 L 504.3 619.9 M 551.7 619.9 L 571.1 619.9 M 665.4 619.9 L 1091.9 619.9 M 31.9 621.8 L 100.6 621.8 M 264.9 621.8 L 506.2 621.8 M 553.6 621.8 L 573.1 621.8 M 663.4 621.8 L 1090.4 621.8 M 31.9 623.8 L 102.6 623.8 M 266.9 623.8 L 508.2 623.8 M 555.6 623.8 L 575 623.8 M 661.5 623.8 L 1089 623.8 M 31.9 625.7 L 104.5 625.7 M 265.8 625.7 L 510.1 625.7 M 557.5 625.7 L 576.9 625.7 M 659.5 625.7 L 1087.5 625.7 M 31.9 627.7 L 85.6 627.7 M 87 627.7 L 106.5 627.7 M 263.9 627.7 L 512.1 627.7 M 558.7 627.7 L 578.9 627.7 M 657.6 627.7 L 1086.1 627.7 M 31.9 629.6 L 83.7 629.6 M 89 629.6 L 108.4 629.6 M 261.9 629.6 L 514 629.6 M 556.8 629.6 L 580.8 629.6 M 655.6 629.6 L 1084.6 629.6 M 31.9 631.6 L 81.8 631.6 M 90.9 631.6 L 110.4 631.6 M 259.9 631.6 L 516 631.6 M 554.8 631.6 L 582.8 631.6 M 653.6 631.6 L 1083.2 631.6 M 31.9 633.5 L 79.8 633.5 M 92.9 633.5 L 112.3 633.5 M 258 633.5 L 517.9 633.5 M 552.9 633.5 L 584.7 633.5 M 651.7 633.5 L 1081.8 633.5 M 31.9 635.5 L 77.9 635.5 M 94.8 635.5 L 114.3 635.5 M 256 635.5 L 519.9 635.5 M 550.9 635.5 L 586.7 635.5 M 649.7 635.5 L 1080.3 635.5 M 31.9 637.4 L 75.9 637.4 M 96.8 637.4 L 116.2 637.4 M 254.1 637.4 L 521.8 637.4 M 549 637.4 L 588.6 637.4 M 647.8 637.4 L 1078.5 637.4 M 31.9 639.4 L 74 639.4 M 98.7 639.4 L 118.2 639.4 M 252.1 639.4 L 523.8 639.4 M 547 639.4 L 566.5 639.4 M 571.2 639.4 L 590.6 639.4 M 645.8 639.4 L 1076.8 639.4 M 31.9 641.3 L 72 641.3 M 100.7 641.3 L 120.1 641.3 M 250.2 641.3 L 525.7 641.3 M 545.1 641.3 L 564.5 641.3 M 573.1 641.3 L 592.5 641.3 M 643.9 641.3 L 1075 641.3 M 31.9 643.2 L 70.1 643.2 M 102.6 643.2 L 122.1 643.2 M 248.2 643.2 L 527.7 643.2 M 543.1 643.2 L 562.6 643.2 M 575.1 643.2 L 594.5 643.2 M 641.9 643.2 L 1073.2 643.2 M 31.9 645.2 L 68.1 645.2 M 104.6 645.2 L 124 645.2 M 246.3 645.2 L 529.6 645.2 M 541.2 645.2 L 560.6 645.2 M 577 645.2 L 596.5 645.2 M 640 645.2 L 1071.5 645.2 M 31.9 647.1 L 66.2 647.1 M 106.5 647.1 L 126 647.1 M 244.4 647.1 L 531.6 647.1 M 539.2 647.1 L 558.7 647.1 M 579 647.1 L 598.4 647.1 M 638.1 647.1 L 1069.7 647.1 M 31.9 649.1 L 64.2 649.1 M 108.5 649.1 L 127.9 649.1 M 242.4 649.1 L 533.6 649.1 M 537.3 649.1 L 556.7 649.1 M 580.9 649.1 L 600.4 649.1 M 636.1 649.1 L 1067.9 649.1 M 31.9 651 L 63.1 651 M 110.4 651 L 129.9 651 M 240.5 651 L 554.8 651 M 582.9 651 L 602.3 651 M 634.2 651 L 1066.2 651 M 31.9 653 L 65 653 M 112.4 653 L 131.8 653 M 238.5 653 L 552.8 653 M 584.8 653 L 604.3 653 M 632.2 653 L 1064.4 653 M 31.9 654.9 L 66.9 654.9 M 114.3 654.9 L 133.8 654.9 M 236.6 654.9 L 550.9 654.9 M 586.8 654.9 L 606.2 654.9 M 630.3 654.9 L 1062.6 654.9 M 31.9 656.9 L 68.9 656.9 M 116.3 656.9 L 135.7 656.9 M 234.6 656.9 L 548.9 656.9 M 588.7 656.9 L 608.2 656.9 M 628.3 656.9 L 1060.8 656.9 M 31.9 658.8 L 70.8 658.8 M 118.2 658.8 L 137.7 658.8 M 232.7 658.8 L 547 658.8 M 590.6 658.8 L 610.1 658.8 M 626.4 658.8 L 1059.1 658.8 M 31.9 660.8 L 72.8 660.8 M 120.2 660.8 L 139.6 660.8 M 230.7 660.8 L 545.5 660.8 M 592.6 660.8 L 612.1 660.8 M 624.4 660.8 L 1057.3 660.8 M 31.9 662.7 L 74.7 662.7 M 122.1 662.7 L 141.6 662.7 M 228.8 662.7 L 547.2 662.7 M 594.5 662.7 L 614 662.7 M 622.5 662.7 L 1055.5 662.7 M 31.9 664.7 L 76.7 664.7 M 124.1 664.7 L 143.5 664.7 M 226.8 664.7 L 549.2 664.7 M 596.5 664.7 L 616 664.7 M 620.5 664.7 L 1053.3 664.7 M 31.9 666.6 L 78.6 666.6 M 125.6 666.6 L 145.5 666.6 M 224.9 666.6 L 551.1 666.6 M 598.5 666.6 L 1051.2 666.6 M 31.9 668.6 L 80.6 668.6 M 124.1 668.6 L 147.4 668.6 M 222.9 668.6 L 553.1 668.6 M 600.4 668.6 L 1049 668.6 M 31.9 670.5 L 82.5 670.5 M 122.1 670.5 L 149.4 670.5 M 221 670.5 L 555 670.5 M 602.4 670.5 L 1046.9 670.5 M 31.9 672.5 L 84.5 672.5 M 120.2 672.5 L 151.3 672.5 M 219 672.5 L 556.9 672.5 M 604.3 672.5 L 1044.7 672.5 M 31.9 674.4 L 86.4 674.4 M 118.2 674.4 L 153.2 674.4 M 217.1 674.4 L 558.9 674.4 M 606.3 674.4 L 1042.5 674.4 M 31.9 676.4 L 88.4 676.4 M 116.3 676.4 L 155.2 676.4 M 215.1 676.4 L 560.8 676.4 M 608.1 676.4 L 1040.4 676.4 M 31.9 678.4 L 90.3 678.4 M 114.4 678.4 L 133.8 678.4 M 137.7 678.4 L 157.2 678.4 M 213.2 678.4 L 562.8 678.4 M 606.9 678.4 L 1038.2 678.4 M 31.9 680.3 L 92.3 680.3 M 112.4 680.3 L 131.8 680.3 M 139.7 680.3 L 159.1 680.3 M 211.2 680.3 L 564.7 680.3 M 604.9 680.3 L 1036.1 680.3 M 31.9 682.3 L 94.3 682.3 M 110.4 682.3 L 129.9 682.3 M 141.6 682.3 L 161.1 682.3 M 209.3 682.3 L 566.7 682.3 M 603 682.3 L 1034 682.3 M 31.9 684.2 L 96.2 684.2 M 108.5 684.2 L 127.9 684.2 M 143.6 684.2 L 163 684.2 M 207.3 684.2 L 568.6 684.2 M 601 684.2 L 1031.8 684.2 M 31.9 686.2 L 98.2 686.2 M 106.5 686.2 L 126 686.2 M 145.5 686.2 L 165 686.2 M 205.4 686.2 L 570.6 686.2 M 599.1 686.2 L 1029.7 686.2 M 31.9 688.1 L 100.1 688.1 M 104.6 688.1 L 124 688.1 M 147.5 688.1 L 166.9 688.1 M 203.4 688.1 L 572.5 688.1 M 597.1 688.1 L 1027.1 688.1 M 31.9 690.1 L 122.1 690.1 M 149.4 690.1 L 168.9 690.1 M 201.5 690.1 L 574.5 690.1 M 595.2 690.1 L 1024.5 690.1 M 31.9 692 L 120.1 692 M 151.4 692 L 170.8 692 M 199.5 692 L 576.4 692 M 593.2 692 L 1021.9 692 M 31.9 694 L 118.2 694 M 153.3 694 L 172.8 694 M 197.6 694 L 334.3 694 M 337.1 694 L 578.4 694 M 591.3 694 L 1019.2 694 M 31.9 695.9 L 116.2 695.9 M 155.3 695.9 L 174.7 695.9 M 195.6 695.9 L 332.3 695.9 M 339 695.9 L 580.3 695.9 M 589.3 695.9 L 1016.6 695.9 M 31.9 697.9 L 114.3 697.9 M 157.2 697.9 L 176.7 697.9 M 193.6 697.9 L 330.4 697.9 M 341 697.9 L 582.3 697.9 M 587.3 697.9 L 1014 697.9 M 31.9 699.8 L 112.5 699.8 M 159.2 699.8 L 178.6 699.8 M 191.7 699.8 L 328.4 699.8 M 342.9 699.8 L 584.2 699.8 M 585.4 699.8 L 1011.4 699.8 M 31.9 701.8 L 113.8 701.8 M 161.1 701.8 L 180.6 701.8 M 189.7 701.8 L 326.5 701.8 M 344.9 701.8 L 1008.7 701.8 M 31.9 703.7 L 115.7 703.7 M 163.1 703.7 L 182.5 703.7 M 187.8 703.7 L 324.5 703.7 M 346.8 703.7 L 1006.1 703.7 M 31.9 705.6 L 117.7 705.6 M 165 705.6 L 184.5 705.6 M 185.8 705.6 L 322.6 705.6 M 348.8 705.6 L 1003.5 705.6 M 31.9 707.6 L 119.6 707.6 M 167 707.6 L 320.6 707.6 M 350.7 707.6 L 1000.8 707.6 M 31.9 709.5 L 121.6 709.5 M 168.9 709.5 L 318.7 709.5 M 352.7 709.5 L 997.8 709.5 M 31.9 711.5 L 123.5 711.5 M 170.9 711.5 L 316.8 711.5 M 354.6 711.5 L 994.5 711.5 M 31.9 713.4 L 125.5 713.4 M 172.8 713.4 L 314.8 713.4 M 356.6 713.4 L 991.3 713.4 M 31.9 715.4 L 127.4 715.4 M 174.8 715.4 L 312.9 715.4 M 358.5 715.4 L 988 715.4 M 31.9 717.3 L 129.4 717.3 M 174.2 717.3 L 310.9 717.3 M 360.5 717.3 L 984.8 717.3 M 31.9 719.3 L 131.3 719.3 M 172.2 719.3 L 309 719.3 M 362.4 719.3 L 981.5 719.3 M 31.9 721.2 L 133.2 721.2 M 170.3 721.2 L 307 721.2 M 364.4 721.2 L 978.2 721.2 M 31.9 723.2 L 135.2 723.2 M 168.3 723.2 L 305.1 723.2 M 366.3 723.2 L 761.4 723.2 M 769.4 723.2 L 975 723.2 M 31.9 725.1 L 137.1 725.1 M 166.4 725.1 L 303.1 725.1 M 368.2 725.1 L 751.9 725.1 M 778.9 725.1 L 971.8 725.1 M 31.9 727.1 L 139.1 727.1 M 164.4 727.1 L 301.2 727.1 M 370.2 727.1 L 747.1 727.1 M 783.6 727.1 L 968.4 727.1 M 31.9 729 L 141 729 M 162.5 729 L 299.2 729 M 372.1 729 L 743.2 729 M 787.6 729 L 964.3 729 M 31.9 731 L 143 731 M 160.5 731 L 297.3 731 M 374.1 731 L 740.6 731 M 790.1 731 L 960.1 731 M 31.9 732.9 L 144.9 732.9 M 158.6 732.9 L 295.3 732.9 M 376 732.9 L 738.1 732.9 M 792.7 732.9 L 956 732.9 M 31.9 734.9 L 146.9 734.9 M 156.6 734.9 L 293.4 734.9 M 378 734.9 L 735.5 734.9 M 795.2 734.9 L 951.9 734.9 M 31.9 736.8 L 148.8 736.8 M 154.7 736.8 L 291.4 736.8 M 380 736.8 L 733.9 736.8 M 796.9 736.8 L 947.8 736.8 M 31.9 738.8 L 150.8 738.8 M 152.7 738.8 L 289.5 738.8 M 381.9 738.8 L 732.4 738.8 M 798.4 738.8 L 943.6 738.8 M 31.9 740.8 L 287.5 740.8 M 383.9 740.8 L 730.9 740.8 M 799.9 740.8 L 939.5 740.8 M 31.9 742.7 L 285.6 742.7 M 385.8 742.7 L 729.4 742.7 M 801.4 742.7 L 935.1 742.7 M 31.9 744.7 L 283.6 744.7 M 387.8 744.7 L 728.1 744.7 M 802.6 744.7 L 929.7 744.7 M 31.9 746.6 L 281.7 746.6 M 389.7 746.6 L 727.3 746.6 M 803.4 746.6 L 924.2 746.6 M 31.9 748.6 L 279.7 748.6 M 391.7 748.6 L 726.5 748.6 M 804.2 748.6 L 918.8 748.6 M 31.9 750.5 L 277.8 750.5 M 393.6 750.5 L 725.7 750.5 M 805 750.5 L 913.3 750.5 M 31.9 752.5 L 275.8 752.5 M 395.6 752.5 L 724.9 752.5 M 805.8 752.5 L 907.9 752.5 M 31.9 754.4 L 273.8 754.4 M 397.5 754.4 L 724.1 754.4 M 806.6 754.4 L 902.4 754.4 M 31.9 756.4 L 271.9 756.4 M 399.5 756.4 L 723.9 756.4 M 806.9 756.4 L 894.8 756.4 M 31.9 758.3 L 269.9 758.3 M 401.4 758.3 L 723.6 758.3 M 807.1 758.3 L 887 758.3 M 31.9 760.3 L 268 760.3 M 403.4 760.3 L 723.3 760.3 M 807.4 760.3 L 879.2 760.3 M 31.9 762.2 L 266 762.2 M 405.3 762.2 L 723.1 762.2 M 807.7 762.2 L 871.4 762.2 M 31.9 764.2 L 264.1 764.2 M 407.3 764.2 L 722.8 764.2 M 807.9 764.2 L 861.4 764.2 M 31.9 766.1 L 262.1 766.1 M 409.2 766.1 L 722.8 766.1 M 808 766.1 L 848.2 766.1 M 31.9 768.1 L 260.2 768.1 M 411.2 768.1 L 723 768.1 M 809.2 768.1 L 835.1 768.1 M 31.9 770 L 258.2 770 M 413.1 770 L 723.3 770 M 31.9 771.9 L 256.3 771.9 M 415.1 771.9 L 723.5 771.9 M 31.9 773.9 L 254.4 773.9 M 417 773.9 L 723.8 773.9 M 32 775.8 L 254.7 775.8 M 419 775.8 L 724 775.8 M 32.1 777.8 L 256.6 777.8 M 420.9 777.8 L 724.7 777.8 M 32.2 779.7 L 258.6 779.7 M 422.9 779.7 L 725.5 779.7 M 32.3 781.7 L 260.5 781.7 M 424.4 781.7 L 726.3 781.7 M 32.4 783.6 L 262.5 783.6 M 422.8 783.6 L 727.1 783.6 M 32.3 785.6 L 242.7 785.6 M 245 785.6 L 264.4 785.6 M 420.9 785.6 L 727.9 785.6 M 32.3 787.5 L 240.7 787.5 M 246.9 787.5 L 266.4 787.5 M 418.9 787.5 L 729 787.5 M 32.2 789.5 L 238.8 789.5 M 248.9 789.5 L 268.3 789.5 M 417 789.5 L 730.5 789.5 M 32.1 791.4 L 236.8 791.4 M 250.8 791.4 L 270.3 791.4 M 415 791.4 L 732 791.4 M 32.1 793.4 L 234.9 793.4 M 252.8 793.4 L 272.2 793.4 M 413.1 793.4 L 733.5 793.4 M 32 795.3 L 232.9 795.3 M 254.7 795.3 L 274.2 795.3 M 411.1 795.3 L 735 795.3 M 32.1 797.3 L 231 797.3 M 256.7 797.3 L 276.1 797.3 M 409.2 797.3 L 737.4 797.3 M 32.2 799.2 L 229 799.2 M 258.6 799.2 L 278.1 799.2 M 407.2 799.2 L 740 799.2 M 32.3 801.2 L 227.1 801.2 M 260.6 801.2 L 280 801.2 M 405.3 801.2 L 742.5 801.2 M 32.4 803.1 L 225.1 803.1 M 262.5 803.1 L 281.9 803.1 M 403.3 803.1 L 745.9 803.1 M 32.5 805.1 L 223.2 805.1 M 264.5 805.1 L 283.9 805.1 M 401.4 805.1 L 750.6 805.1 M 32.6 807.1 L 221.2 807.1 M 266.4 807.1 L 285.9 807.1 M 399.4 807.1 L 757.5 807.1 M 32.7 809 L 221 809 M 268.4 809 L 287.8 809 M 397.5 809 L 767.9 809 M 32.8 811 L 223 811 M 270.3 811 L 289.8 811 M 395.5 811 L 769.6 811 M 32.9 812.9 L 224.9 812.9 M 272.3 812.9 L 291.7 812.9 M 393.6 812.9 L 769.5 812.9 M 33 814.9 L 226.9 814.9 M 274.2 814.9 L 293.7 814.9 M 391.6 814.9 L 769.4 814.9 M 33.1 816.8 L 228.8 816.8 M 276.2 816.8 L 295.6 816.8 M 389.7 816.8 L 769.4 816.8 M 33.1 818.8 L 230.8 818.8 M 278.1 818.8 L 297.6 818.8 M 387.7 818.8 L 769.2 818.8 M 33.2 820.7 L 232.7 820.7 M 280.1 820.7 L 299.5 820.7 M 385.8 820.7 L 769.2 820.7 M 33.3 822.7 L 234.7 822.7 M 282 822.7 L 301.5 822.7 M 383.8 822.7 L 769.1 822.7 M 33.4 824.6 L 236.6 824.6 M 283.1 824.6 L 303.4 824.6 M 381.9 824.6 L 769 824.6 M 33.5 826.6 L 238.6 826.6 M 281.1 826.6 L 305.4 826.6 M 379.9 826.6 L 768.9 826.6 M 33.6 828.5 L 240.5 828.5 M 279.2 828.5 L 307.3 828.5 M 378 828.5 L 768.8 828.5 M 33.7 830.5 L 242.5 830.5 M 277.2 830.5 L 309.3 830.5 M 376 830.5 L 768.7 830.5 M 34 832.4 L 244.4 832.4 M 275.3 832.4 L 311.2 832.4 M 374.1 832.4 L 768.4 832.4 M 34.2 834.4 L 246.4 834.4 M 273.3 834.4 L 292.7 834.4 M 293.7 834.4 L 313.2 834.4 M 372.1 834.4 L 768.2 834.4 M 34.5 836.3 L 248.3 836.3 M 271.4 836.3 L 290.8 836.3 M 295.7 836.3 L 315.1 836.3 M 370.2 836.3 L 767.9 836.3 M 34.8 838.2 L 250.3 838.2 M 269.4 838.2 L 288.8 838.2 M 297.6 838.2 L 317.1 838.2 M 368.2 838.2 L 767.6 838.2 M 35.1 840.2 L 252.2 840.2 M 267.5 840.2 L 286.9 840.2 M 299.6 840.2 L 319 840.2 M 366.3 840.2 L 767.3 840.2 M 35.4 842.1 L 254.2 842.1 M 265.5 842.1 L 284.9 842.1 M 301.5 842.1 L 321 842.1 M 364.3 842.1 L 767 842.1 M 35.7 844.1 L 256.1 844.1 M 263.5 844.1 L 283 844.1 M 303.5 844.1 L 322.9 844.1 M 362.4 844.1 L 766.7 844.1 M 36 846 L 258.1 846 M 261.6 846 L 281 846 M 305.4 846 L 324.9 846 M 360.4 846 L 766.4 846 M 36.3 848 L 279.1 848 M 307.4 848 L 326.8 848 M 358.5 848 L 766.1 848 M 36.6 849.9 L 277.1 849.9 M 309.3 849.9 L 328.8 849.9 M 356.5 849.9 L 765.8 849.9 M 36.8 851.9 L 275.2 851.9 M 311.3 851.9 L 330.7 851.9 M 354.6 851.9 L 491.3 851.9 M 495 851.9 L 765.6 851.9 M 37.1 853.8 L 273.2 853.8 M 313.2 853.8 L 332.7 853.8 M 352.6 853.8 L 489.4 853.8 M 496.9 853.8 L 765.3 853.8 M 37.4 855.8 L 271.3 855.8 M 315.2 855.8 L 334.6 855.8 M 350.7 855.8 L 487.4 855.8 M 498.9 855.8 L 765 855.8 M 37.7 857.7 L 269.9 857.7 M 317.1 857.7 L 336.6 857.7 M 348.7 857.7 L 485.5 857.7 M 500.8 857.7 L 764.7 857.7 M 38 859.7 L 271.7 859.7 M 319.1 859.7 L 338.5 859.7 M 346.8 859.7 L 483.5 859.7 M 502.8 859.7 L 764.4 859.7 M 38.3 861.6 L 273.6 861.6 M 321 861.6 L 340.5 861.6 M 344.8 861.6 L 481.6 861.6 M 504.7 861.6 L 764.1 861.6 M 38.6 863.6 L 275.6 863.6 M 323 863.6 L 479.6 863.6 M 506.7 863.6 L 763.8 863.6 M 38.9 865.5 L 277.5 865.5 M 324.9 865.5 L 477.7 865.5 M 508.6 865.5 L 763.5 865.5 M 39.2 867.5 L 279.5 867.5 M 326.9 867.5 L 475.7 867.5 M 510.6 867.5 L 763.2 867.5 M 39.7 869.4 L 281.4 869.4 M 328.8 869.4 L 473.8 869.4 M 512.6 869.4 L 762.7 869.4 M 40.2 871.4 L 283.4 871.4 M 330.8 871.4 L 471.8 871.4 M 514.5 871.4 L 762.2 871.4 M 40.7 873.4 L 285.3 873.4 M 332.5 873.4 L 469.9 873.4 M 516.5 873.4 L 761.7 873.4 M 41.2 875.3 L 287.3 875.3 M 331.2 875.3 L 467.9 875.3 M 518.4 875.3 L 761.2 875.3 M 41.7 877.3 L 289.3 877.3 M 329.2 877.3 L 466 877.3 M 520.4 877.3 L 760.7 877.3 M 42.1 879.2 L 291.2 879.2 M 327.3 879.2 L 464 879.2 M 522.3 879.2 L 760.3 879.2 M 42.6 881.2 L 293.2 881.2 M 325.3 881.2 L 462.1 881.2 M 524.3 881.2 L 759.8 881.2 M 43.1 883.1 L 295.1 883.1 M 323.4 883.1 L 460.1 883.1 M 526.2 883.1 L 759.3 883.1 M 43.6 885.1 L 297.1 885.1 M 321.4 885.1 L 458.2 885.1 M 528.2 885.1 L 758.8 885.1 M 44.1 887 L 299 887 M 319.5 887 L 456.2 887 M 530.1 887 L 758.3 887 M 44.6 889 L 301 889 M 317.5 889 L 454.3 889 M 532.1 889 L 757.8 889 M 45.1 890.9 L 302.9 890.9 M 315.6 890.9 L 452.3 890.9 M 534 890.9 L 757.3 890.9 M 45.6 892.9 L 304.9 892.9 M 313.6 892.9 L 450.4 892.9 M 536 892.9 L 756.8 892.9 M 46 894.8 L 306.8 894.8 M 311.7 894.8 L 448.4 894.8 M 537.9 894.8 L 756.4 894.8 M 46.6 896.8 L 308.8 896.8 M 309.7 896.8 L 446.5 896.8 M 539.9 896.8 L 755.8 896.8 M 47 898.7 L 444.5 898.7 M 541.8 898.7 L 755.4 898.7 M 47.5 900.6 L 442.6 900.6 M 543.8 900.6 L 754.9 900.6 M 48.1 902.6 L 440.6 902.6 M 545.7 902.6 L 754.4 902.6 M 48.8 904.5 L 438.7 904.5 M 547.7 904.5 L 753.6 904.5 M 49.5 906.5 L 436.7 906.5 M 549.6 906.5 L 752.9 906.5 M 50.1 908.4 L 434.8 908.4 M 551.6 908.4 L 752.3 908.4 M 50.8 910.4 L 432.8 910.4 M 553.5 910.4 L 751.6 910.4 M 51.6 912.3 L 430.9 912.3 M 555.5 912.3 L 750.8 912.3 M 52.3 914.3 L 428.9 914.3 M 557.4 914.3 L 750.1 914.3 M 52.9 916.2 L 426.9 916.2 M 559.4 916.2 L 749.5 916.2 M 53.6 918.2 L 425 918.2 M 561.3 918.2 L 748.8 918.2 M 54.4 920.1 L 423.1 920.1 M 563.2 920.1 L 748.1 920.1 M 55 922.1 L 421.1 922.1 M 565.2 922.1 L 747.3 922.1 M 55.7 924 L 419.2 924 M 567.1 924 L 746.7 924 M 56.4 926 L 417.2 926 M 569.1 926 L 746 926 M 57.1 927.9 L 415.3 927.9 M 571 927.9 L 745.3 927.9 M 57.8 929.9 L 413.3 929.9 M 573 929.9 L 744.6 929.9 M 58.5 931.8 L 411.4 931.8 M 575 931.8 L 743.9 931.8 M 59.2 933.8 L 412.6 933.8 M 576.9 933.8 L 743.2 933.8 M 59.9 935.8 L 414.6 935.8 M 578.9 935.8 L 742.5 935.8 M 60.8 937.7 L 416.5 937.7 M 580.8 937.7 L 741.6 937.7 M 61.7 939.7 L 418.5 939.7 M 581.8 939.7 L 740.7 939.7 M 62.7 941.6 L 420.4 941.6 M 579.8 941.6 L 739.7 941.6 M 63.6 943.6 L 399.7 943.6 M 402.9 943.6 L 422.4 943.6 M 577.9 943.6 L 738.8 943.6 M 64.5 945.5 L 397.7 945.5 M 404.9 945.5 L 424.3 945.5 M 575.9 945.5 L 737.9 945.5 M 65.4 947.5 L 395.8 947.5 M 406.8 947.5 L 426.3 947.5 M 574 947.5 L 737 947.5 M 66.3 949.4 L 393.8 949.4 M 408.8 949.4 L 428.2 949.4 M 572 949.4 L 736.1 949.4 M 67.3 951.4 L 391.9 951.4 M 410.7 951.4 L 430.2 951.4 M 570.1 951.4 L 735.1 951.4 M 68.2 953.3 L 389.9 953.3 M 412.7 953.3 L 432.1 953.3 M 568.1 953.3 L 734.2 953.3 M 69.1 955.3 L 388 955.3 M 414.6 955.3 L 434.1 955.3 M 566.2 955.3 L 733.3 955.3 M 70 957.2 L 386 957.2 M 416.6 957.2 L 436 957.2 M 564.2 957.2 L 732.4 957.2 M 70.9 959.2 L 384.1 959.2 M 418.5 959.2 L 438 959.2 M 562.3 959.2 L 731.5 959.2 M 71.9 961.1 L 382.1 961.1 M 420.5 961.1 L 439.9 961.1 M 560.3 961.1 L 730.5 961.1 M 72.8 963.1 L 380.2 963.1 M 422.4 963.1 L 441.9 963.1 M 558.4 963.1 L 729.6 963.1 M 73.7 965 L 378.2 965 M 424.4 965 L 443.8 965 M 556.4 965 L 728.7 965 M 74.6 966.9 L 379 966.9 M 426.3 966.9 L 445.8 966.9 M 554.5 966.9 L 727.8 966.9 M 75.5 968.9 L 380.9 968.9 M 428.3 968.9 L 447.7 968.9 M 552.5 968.9 L 726.9 968.9 M 76.7 970.8 L 382.9 970.8 M 430.2 970.8 L 449.7 970.8 M 550.6 970.8 L 725.7 970.8 M 77.9 972.8 L 384.8 972.8 M 432.2 972.8 L 451.6 972.8 M 548.6 972.8 L 724.5 972.8 M 79 974.7 L 386.8 974.7 M 434.1 974.7 L 453.6 974.7 M 546.7 974.7 L 723.4 974.7 M 80.2 976.7 L 388.7 976.7 M 436.1 976.7 L 455.5 976.7 M 544.7 976.7 L 722.2 976.7 M 81.4 978.6 L 390.6 978.6 M 438 978.6 L 457.5 978.6 M 542.8 978.6 L 721 978.6 M 82.5 980.6 L 392.6 980.6 M 440 980.6 L 459.4 980.6 M 540.8 980.6 L 719.9 980.6 M 83.7 982.5 L 394.5 982.5 M 440.1 982.5 L 461.4 982.5 M 538.9 982.5 L 718.7 982.5 M 84.9 984.5 L 396.5 984.5 M 438.1 984.5 L 463.3 984.5 M 536.9 984.5 L 717.5 984.5 M 86 986.4 L 398.4 986.4 M 436.2 986.4 L 465.3 986.4 M 535 986.4 L 716.4 986.4 M 87.2 988.4 L 400.4 988.4 M 434.2 988.4 L 467.2 988.4 M 533 988.4 L 715.2 988.4 M 88.4 990.3 L 402.3 990.3 M 432.3 990.3 L 469.2 990.3 M 531.1 990.3 L 714 990.3 M 89.6 992.3 L 404.3 992.3 M 430.3 992.3 L 449.7 992.3 M 451.7 992.3 L 471.1 992.3 M 529.1 992.3 L 712.8 992.3 M 90.7 994.2 L 406.2 994.2 M 428.4 994.2 L 447.8 994.2 M 453.6 994.2 L 473.1 994.2 M 527.2 994.2 L 711.7 994.2 M 91.9 996.2 L 408.2 996.2 M 426.4 996.2 L 445.8 996.2 M 455.6 996.2 L 475 996.2 M 525.2 996.2 L 710.5 996.2 M 93.1 998.1 L 410.1 998.1 M 424.5 998.1 L 443.9 998.1 M 457.5 998.1 L 476.9 998.1 M 523.3 998.1 L 709.3 998.1 M 94.3 1000.1 L 412.1 1000.1 M 422.5 1000.1 L 441.9 1000.1 M 459.5 1000.1 L 478.9 1000.1 M 521.3 1000.1 L 708.1 1000.1 M 95.7 1002.1 L 414 1002.1 M 420.6 1002.1 L 440 1002.1 M 461.4 1002.1 L 480.9 1002.1 M 519.4 1002.1 L 706.7 1002.1 M 97.1 1004 L 416 1004 M 418.6 1004 L 438.1 1004 M 463.4 1004 L 482.8 1004 M 517.4 1004 L 705.3 1004 M 98.6 1006 L 436.1 1006 M 465.3 1006 L 484.8 1006 M 515.5 1006 L 703.8 1006 M 100 1007.9 L 434.2 1007.9 M 467.3 1007.9 L 486.7 1007.9 M 513.5 1007.9 L 702.4 1007.9 M 101.5 1009.9 L 432.2 1009.9 M 469.2 1009.9 L 488.7 1009.9 M 511.6 1009.9 L 700.9 1009.9 M 102.9 1011.8 L 430.3 1011.8 M 471.2 1011.8 L 490.6 1011.8 M 509.6 1011.8 L 699.5 1011.8 M 104.4 1013.8 L 428.3 1013.8 M 473.1 1013.8 L 492.6 1013.8 M 507.7 1013.8 L 698 1013.8 M 105.8 1015.7 L 427.7 1015.7 M 475.1 1015.7 L 494.5 1015.7 M 505.7 1015.7 L 696.6 1015.7 M 107.3 1017.7 L 429.7 1017.7 M 477 1017.7 L 496.5 1017.7 M 503.8 1017.7 L 695.1 1017.7 M 108.7 1019.6 L 431.6 1019.6 M 479 1019.6 L 498.4 1019.6 M 501.8 1019.6 L 693.7 1019.6 M 110.2 1021.6 L 433.6 1021.6 M 480.9 1021.6 L 692.2 1021.6 M 111.6 1023.5 L 435.5 1023.5 M 482.9 1023.5 L 690.8 1023.5 M 113.1 1025.5 L 437.5 1025.5 M 484.8 1025.5 L 689.4 1025.5 M 114.5 1027.4 L 439.4 1027.4 M 486.8 1027.4 L 687.9 1027.4 M 116 1029.4 L 441.4 1029.4 M 488.7 1029.4 L 686.4 1029.4 M 117.7 1031.3 L 443.3 1031.3 M 490 1031.3 L 684.7 1031.3 M 119.5 1033.2 L 445.3 1033.2 M 488.2 1033.2 L 682.9 1033.2 M 121.3 1035.2 L 447.2 1035.2 M 486.2 1035.2 L 681.1 1035.2 M 123.1 1037.1 L 449.2 1037.1 M 484.3 1037.1 L 679.4 1037.1 M 124.8 1039.1 L 451.1 1039.1 M 482.3 1039.1 L 677.6 1039.1 M 126.6 1041 L 453.1 1041 M 480.4 1041 L 675.8 1041 M 128.4 1043 L 455 1043 M 478.4 1043 L 674 1043 M 130.1 1044.9 L 456.9 1044.9 M 476.5 1044.9 L 672.3 1044.9 M 131.9 1046.9 L 458.9 1046.9 M 474.5 1046.9 L 670.5 1046.9 M 133.6 1048.8 L 460.8 1048.8 M 472.6 1048.8 L 668.8 1048.8 M 135.4 1050.8 L 462.8 1050.8 M 470.6 1050.8 L 667 1050.8 M 137.2 1052.7 L 464.7 1052.7 M 468.7 1052.7 L 665.2 1052.7 M 139 1054.7 L 663.4 1054.7 M 140.8 1056.6 L 661.6 1056.6 M 143 1058.6 L 659.4 1058.6 M 145.2 1060.5 L 657.2 1060.5 M 147.3 1062.5 L 655.1 1062.5 M 149.5 1064.4 L 652.9 1064.4 M 151.6 1066.4 L 650.8 1066.4 M 153.8 1068.4 L 648.6 1068.4 M 155.9 1070.3 L 646.5 1070.3 M 158.1 1072.3 L 644.4 1072.3 M 160.2 1074.2 L 642.2 1074.2 M 162.4 1076.2 L 640 1076.2 M 164.5 1078.1 L 637.9 1078.1 M 166.7 1080.1 L 635.7 1080.1 M 169.2 1082 L 633.2 1082 M 171.9 1084 L 630.5 1084 M 174.5 1085.9 L 627.9 1085.9 M 177.1 1087.9 L 625.3 1087.9 M 179.7 1089.8 L 622.7 1089.8 M 182.4 1091.8 L 620 1091.8 M 185 1093.7 L 617.4 1093.7 M 187.7 1095.6 L 614.7 1095.6 M 190.3 1097.6 L 612.1 1097.6 M 192.9 1099.5 L 609.5 1099.5 M 195.5 1101.5 L 606.9 1101.5 M 198.6 1103.4 L 603.8 1103.4 M 201.9 1105.4 L 600.5 1105.4 M 205.2 1107.3 L 597.2 1107.3 M 208.4 1109.3 L 594 1109.3 M 211.7 1111.2 L 590.7 1111.2 M 214.9 1113.2 L 587.5 1113.2 M 218.2 1115.1 L 584.2 1115.1 M 221.4 1117.1 L 581 1117.1 M 224.7 1119 L 577.7 1119 M 228.1 1121 L 574.3 1121 M 232.3 1122.9 L 570.1 1122.9 M 236.4 1124.9 L 566 1124.9 M 240.5 1126.8 L 561.9 1126.8 M 244.6 1128.8 L 557.8 1128.8 M 248.8 1130.8 L 553.6 1130.8 M 252.9 1132.7 L 549.5 1132.7 M 257 1134.7 L 545.4 1134.7 M 261.5 1136.6 L 540.9 1136.6 M 267 1138.6 L 535.4 1138.6 M 272.4 1140.5 L 530 1140.5 M 277.9 1142.5 L 524.5 1142.5 M 283.3 1144.4 L 519.1 1144.4 M 288.8 1146.4 L 513.6 1146.4 M 294.3 1148.3 L 508.1 1148.3 M 302.1 1150.3 L 500.3 1150.3 M 309.9 1152.2 L 492.5 1152.2 M 317.7 1154.2 L 484.7 1154.2 M 325.5 1156.1 L 476.9 1156.1 M 336 1158.1 L 466.4 1158.1 M 349.2 1160 L 453.2 1160 M 362.3 1161.9 L 440.1 1161.9 M 396.6 1163.9 L 405.8 1163.9"/><use x="775.2" y="135.5" xlink:href="#tool-D11-pad-1011"/><use x="181.2" y="616.7" xlink:href="#tool-D11-pad-1011"/><use x="299.5" y="262.6" xlink:href="#tool-D11-pad-1011"/><use x="496.2" y="931.7" xlink:href="#tool-D11-pad-1011"/><use x="105.9" y="745.7" xlink:href="#tool-D11-pad-1011"/><use x="614.3" y="577.3" xlink:href="#tool-D11-pad-1011"/><use x="811.2" y="301.8" xlink:href="#tool-D11-pad-1011"/><use x="165" y="804.7" xlink:href="#tool-D11-pad-1011"/><use x="968.6" y="459.2" xlink:href="#tool-D11-pad-1011"/><use x="338.7" y="774.2" xlink:href="#tool-D11-pad-1011"/><use x="135.5" y="775.2" xlink:href="#tool-D11-pad-1011"/><use x="653.7" y="144.3" xlink:href="#tool-D11-pad-1011"/><use x="804.7" y="165" xlink:href="#tool-D11-pad-1011"/><use x="745.7" y="105.9" xlink:href="#tool-D11-pad-1011"/><use x="456.8" y="419.9" xlink:href="#tool-D11-pad-1011"/><use x="194.2" y="608.2" xlink:href="#tool-D12-pad-1012"/><use x="135.8" y="666.6" xlink:href="#tool-D12-pad-1012"/><use x="627.3" y="568.8" xlink:href="#tool-D12-pad-1012"/><use x="568.8" y="627.3" xlink:href="#tool-D12-pad-1012"/><use x="509.2" y="923.2" xlink:href="#tool-D12-pad-1012"/><use x="450.7" y="981.6" xlink:href="#tool-D12-pad-1012"/><use x="981.6" y="450.7" xlink:href="#tool-D12-pad-1012"/><use x="923.2" y="509.2" xlink:href="#tool-D12-pad-1012"/><use x="351.7" y="765.7" xlink:href="#tool-D12-pad-1012"/><use x="293.2" y="824.1" xlink:href="#tool-D12-pad-1012"/><use x="469.8" y="411.4" xlink:href="#tool-D12-pad-1012"/><use x="411.4" y="469.8" xlink:href="#tool-D12-pad-1012"/><use x="824.1" y="293.2" xlink:href="#tool-D12-pad-1012"/><use x="765.7" y="351.7" xlink:href="#tool-D12-pad-1012"/><use x="666.6" y="135.8" xlink:href="#tool-D12-pad-1012"/><use x="608.2" y="194.2" xlink:href="#tool-D12-pad-1012"/><use x="312.5" y="254" xlink:href="#tool-D12-pad-1012"/><use x="254" y="312.5" xlink:href="#tool-D12-pad-1012"/></g><mask id="pcb_top_mech-mask" fill="#fff" stroke="#fff" fill-rule="evenodd"><path stroke-width="0" d="M 775.2 7.5 L 125.6 7.5 L 114 8.1 L 102.6 9.8 L 91.3 12.6 L 80.4 16.5 L 69.9 21.4 L 60 27.4 L 50.7 34.3 L 42.1 42.1 L 34.3 50.7 L 27.4 60 L 21.4 69.9 L 16.5 80.4 L 12.6 91.3 L 9.8 102.6 L 8.1 114 L 7.5 125.6 L 7.5 775.2 L 8 785.1 L 7.5 794.9 L 9.4 833.5 L 15.1 871.7 L 24.5 909.2 L 37.5 945.6 L 54 980.5 L 73.8 1013.6 L 96.9 1044.7 L 122.8 1073.3 L 151.4 1099.2 L 182.5 1122.3 L 215.6 1142.1 L 250.5 1158.6 L 286.9 1171.6 L 324.4 1181 L 362.6 1186.7 L 401.2 1188.6 L 439.8 1186.7 L 478 1181 L 515.5 1171.6 L 551.9 1158.6 L 586.8 1142.1 L 619.9 1122.3 L 651 1099.2 L 679.6 1073.3 L 705.5 1044.7 L 728.6 1013.6 L 748.4 980.5 L 764.9 945.6 L 777.9 909.2 L 787.3 871.7 L 793 833.5 L 794.9 794.9 L 833.5 793 L 871.7 787.3 L 909.2 777.9 L 945.6 764.9 L 980.5 748.4 L 1013.6 728.6 L 1044.7 705.5 L 1073.3 679.6 L 1099.2 651 L 1122.3 619.9 L 1142.1 586.8 L 1158.6 551.9 L 1171.6 515.5 L 1181 478 L 1186.7 439.8 L 1188.6 401.2 L 1186.7 362.6 L 1181 324.4 L 1171.6 286.9 L 1158.6 250.5 L 1142.1 215.6 L 1122.3 182.5 L 1099.2 151.4 L 1073.3 122.8 L 1044.7 96.9 L 1013.6 73.8 L 980.5 54 L 945.6 37.5 L 909.2 24.5 L 871.7 15.1 L 833.5 9.4 L 794.9 7.5 L 785.1 8 Z"/><g id="pcb_top-drl" fill="#000" stroke="#000"><use x="765.4" y="765.4" xlink:href="#tool-T10-pad-1000"/><use x="775.2" y="135.5" xlink:href="#tool-T11-pad-1001"/><use x="181.2" y="616.7" xlink:href="#tool-T11-pad-1001"/><use x="299.5" y="262.6" xlink:href="#tool-T11-pad-1001"/><use x="496.2" y="931.7" xlink:href="#tool-T11-pad-1001"/><use x="105.9" y="745.7" xlink:href="#tool-T11-pad-1001"/><use x="614.3" y="577.3" xlink:href="#tool-T11-pad-1001"/><use x="811.2" y="301.8" xlink:href="#tool-T11-pad-1001"/><use x="165" y="804.7" xlink:href="#tool-T11-pad-1001"/><use x="968.6" y="459.2" xlink:href="#tool-T11-pad-1001"/><use x="338.7" y="774.2" xlink:href="#tool-T11-pad-1001"/><use x="135.5" y="775.2" xlink:href="#tool-T11-pad-1001"/><use x="653.7" y="144.3" xlink:href="#tool-T11-pad-1001"/><use x="804.7" y="165" xlink:href="#tool-T11-pad-1001"/><use x="745.7" y="105.9" xlink:href="#tool-T11-pad-1001"/><use x="456.8" y="419.9" xlink:href="#tool-T11-pad-1001"/></g></mask></defs><g mask="url(#pcb_top_mech-mask)" transform="translate(0,1196.1) scale(1,-1)"><rect x="7.5" y="7.5" width="1181.1" height="1181.1" fill="currentColor" class="pcb_board-fr4"/><use class="pcb_board-cu" xlink:href="#pcb_top-cu"/><g><defs><g id="pcb_top-sm" fill="currentColor" stroke="currentColor"><use x="181.2" y="616.7" xlink:href="#tool-D10-pad-1023"/><use x="299.5" y="262.6" xlink:href="#tool-D10-pad-1023"/><use x="496.2" y="931.7" xlink:href="#tool-D10-pad-1023"/><use x="614.3" y="577.3" xlink:href="#tool-D10-pad-1023"/><use x="811.2" y="301.8" xlink:href="#tool-D10-pad-1023"/><use x="968.6" y="459.2" xlink:href="#tool-D10-pad-1023"/><use x="338.7" y="774.2" xlink:href="#tool-D10-pad-1023"/><use x="653.7" y="144.3" xlink:href="#tool-D10-pad-1023"/><use x="456.8" y="419.9" xlink:href="#tool-D10-pad-1023"/><use x="194.2" y="608.2" xlink:href="#tool-D11-pad-1024"/><use x="135.8" y="666.6" xlink:href="#tool-D11-pad-1024"/><use x="627.3" y="568.8" xlink:href="#tool-D11-pad-1024"/><use x="568.8" y="627.3" xlink:href="#tool-D11-pad-1024"/><use x="509.2" y="923.2" xlink:href="#tool-D11-pad-1024"/><use x="450.7" y="981.6" xlink:href="#tool-D11-pad-1024"/><use x="981.6" y="450.7" xlink:href="#tool-D11-pad-1024"/><use x="923.2" y="509.2" xlink:href="#tool-D11-pad-1024"/><use x="351.7" y="765.7" xlink:href="#tool-D11-pad-1024"/><use x="293.2" y="824.1" xlink:href="#tool-D11-pad-1024"/><use x="469.8" y="411.4" xlink:href="#tool-D11-pad-1024"/><use x="411.4" y="469.8" xlink:href="#tool-D11-pad-1024"/><use x="824.1" y="293.2" xlink:href="#tool-D11-pad-1024"/><use x="765.7" y="351.7" xlink:href="#tool-D11-pad-1024"/><use x="666.6" y="135.8" xlink:href="#tool-D11-pad-1024"/><use x="608.2" y="194.2" xlink:href="#tool-D11-pad-1024"/><use x="312.5" y="254" xlink:href="#tool-D11-pad-1024"/><use x="254" y="312.5" xlink:href="#tool-D11-pad-1024"/></g><mask id="pcb_top-sm_mask" color="#000"><rect x="7.5" y="7.5" width="1181.1" height="1181.1" fill="#fff"/><use xlink:href="#pcb_top-sm"/></mask><mask id="pcb_top-cu_finish-mask" color="#fff"><use xlink:href="#pcb_top-cu"/></mask></defs><g mask="url(#pcb_top-sm_mask)"><rect x="7.5" y="7.5" width="1181.1" height="1181.1" fill="currentColor" class="pcb_board-sm"/><g id="pcb_top-ss" class="pcb_board-ss" fill="currentColor" stroke="currentColor"><path stroke-width="5.9" fill="none" d="M 84.2 634.6 L 162.2 556.7 M 167.8 718.2 L 245.7 640.2"/><use x="151.8" y="727.9" xlink:href="#tool-D11-pad-1014"/><path stroke-width="5.9" fill="none" d="M 517.3 595.3 L 595.3 517.3 M 600.8 678.8 L 678.8 600.8"/><use x="584.8" y="688.5" xlink:href="#tool-D12-pad-1015"/><path stroke-width="5.9" fill="none" d="M 399.2 949.6 L 477.1 871.6 M 482.7 1033.1 L 560.7 955.2"/><use x="466.7" y="1042.9" xlink:href="#tool-D13-pad-1016"/><path stroke-width="5.9" fill="none" d="M 871.6 477.1 L 949.6 399.2 M 955.2 560.7 L 1033.1 482.7"/><use x="939.2" y="570.4" xlink:href="#tool-D14-pad-1017"/><path stroke-width="5.9" fill="none" d="M 241.7 792.1 L 319.7 714.2 M 325.3 875.6 L 403.2 797.7"/><use x="309.2" y="885.4" xlink:href="#tool-D15-pad-1018"/><path stroke-width="5.9" fill="none" d="M 359.8 437.8 L 437.8 359.8 M 443.4 521.3 L 521.3 443.4"/><use x="427.3" y="531" xlink:href="#tool-D16-pad-1019"/><path stroke-width="5.9" fill="none" d="M 714.2 319.7 L 792.1 241.7 M 797.7 403.2 L 875.6 325.3"/><use x="781.7" y="412.9" xlink:href="#tool-D17-pad-1020"/><path stroke-width="5.9" fill="none" d="M 556.7 162.2 L 634.6 84.2 M 640.2 245.7 L 718.2 167.8"/><use x="624.2" y="255.5" xlink:href="#tool-D18-pad-1021"/><path stroke-width="5.9" fill="none" d="M 202.5 280.5 L 280.5 202.5 M 286.1 364 L 364 286.1"/><use x="270.1" y="373.7" xlink:href="#tool-D19-pad-1022"/></g></g><use class="pcb_board-cf" mask="url(#pcb_top-cu_finish-mask)" xlink:href="#pcb_top-sm"/></g></g></svg>